M48
; DRILL file {KiCad 9.0.0} date 2025-11-25T21:07:33+0100
; FORMAT={-:-/ absolute / metric / decimal}
; #@! TF.CreationDate,2025-11-25T21:07:33+01:00
; #@! TF.GenerationSoftware,Kicad,Pcbnew,9.0.0
; #@! TF.FileFunction,MixedPlating,1,2
FMAT,2
METRIC
; #@! TA.AperFunction,Plated,PTH,ComponentDrill
T1C0.200
; #@! TA.AperFunction,Plated,PTH,ViaDrill
T2C0.300
; #@! TA.AperFunction,Plated,PTH,ComponentDrill
T3C0.600
; #@! TA.AperFunction,Plated,PTH,ComponentDrill
T4C1.000
; #@! TA.AperFunction,Plated,PTH,ComponentDrill
T5C1.050
; #@! TA.AperFunction,Plated,PTH,ComponentDrill
T6C2.200
; #@! TA.AperFunction,NonPlated,NPTH,ComponentDrill
T7C0.650
; #@! TA.AperFunction,NonPlated,NPTH,ComponentDrill
T8C1.000
; #@! TA.AperFunction,NonPlated,NPTH,ComponentDrill
T9C2.500
; #@! TA.AperFunction,NonPlated,NPTH,ComponentDrill
T10C3.200
%
G90
G05
T1
X93.0Y-125.6
X93.0Y-127.0
X93.7Y-124.9
X93.7Y-126.3
X93.7Y-127.7
X94.4Y-125.6
X94.4Y-127.0
X95.1Y-124.9
X95.1Y-126.3
X95.1Y-127.7
X95.8Y-125.6
X95.8Y-127.0
T2
X56.9Y-83.0
X63.0Y-126.0
X63.5Y-141.5
X64.8Y-82.7
X66.371Y-126.186
X66.5Y-116.0
X70.0Y-126.0
X72.8Y-82.7
X73.008Y-137.426
X73.033Y-139.425
X73.5Y-126.0
X75.6Y-146.0
X75.75Y-139.5
X77.0Y-139.75
X78.5Y-138.5
X79.0Y-133.25
X79.0Y-139.25
X79.75Y-139.75
X80.1Y-82.6
X80.4Y-146.0
X80.8Y-109.8
X83.2Y-110.6
X85.75Y-129.75
X86.0Y-135.5
X86.75Y-129.75
X87.5Y-127.5
X87.5Y-129.0
X88.9Y-82.8
X91.0Y-114.4
X92.3Y-114.4
X93.6Y-114.4
X94.8Y-114.4
X95.25Y-119.75
X96.0Y-147.0
X96.1Y-114.4
X96.7Y-82.7
X97.0Y-118.0
X97.0Y-120.1
X97.3Y-114.4
X98.5Y-144.25
X98.7Y-111.1
X99.9Y-113.8
X103.5Y-134.0
X104.0Y-130.5
X104.5Y-82.7
X106.1Y-85.3
X108.75Y-120.75
X108.75Y-126.75
X112.5Y-82.7
X114.0Y-121.5
X116.619Y-119.7
X118.7Y-133.0
T4
X50.5Y-114.3
X50.5Y-116.84
X50.5Y-119.38
X50.5Y-121.92
X50.5Y-124.46
X50.5Y-127.0
X50.5Y-129.54
X52.0Y-74.5
X52.0Y-80.0
X54.54Y-74.5
X54.54Y-80.0
X55.58Y-113.03
X55.58Y-115.57
X55.58Y-118.11
X55.58Y-120.65
X55.58Y-123.19
X55.58Y-125.73
X55.58Y-128.27
X55.58Y-130.81
X60.0Y-74.5
X60.0Y-80.0
X62.54Y-74.5
X62.54Y-80.0
X68.0Y-74.5
X68.0Y-80.0
X70.54Y-74.5
X70.54Y-80.0
X76.0Y-74.5
X76.0Y-80.0
X78.54Y-74.5
X78.54Y-80.0
X84.0Y-74.5
X84.0Y-80.0
X86.54Y-74.5
X86.54Y-80.0
X92.0Y-74.5
X92.0Y-80.0
X94.54Y-74.5
X94.54Y-80.0
X100.0Y-74.5
X100.0Y-80.0
X102.54Y-74.5
X102.54Y-80.0
X108.0Y-74.5
X108.0Y-80.0
X110.54Y-74.5
X110.54Y-80.0
T5
X83.75Y-141.475
X86.25Y-141.475
T6
X68.86Y-142.29
X68.86Y-150.12
X93.0Y-142.0
X93.0Y-150.12
T7
X75.11Y-148.395
X80.89Y-148.395
T8
X50.82Y-81.9
X58.82Y-81.9
X66.82Y-81.9
X74.82Y-81.9
X82.82Y-81.9
X90.82Y-81.9
X98.82Y-81.9
X106.82Y-81.9
T9
X51.37Y-77.25
X55.17Y-77.25
X59.37Y-77.25
X63.17Y-77.25
X67.37Y-77.25
X71.17Y-77.25
X75.37Y-77.25
X79.17Y-77.25
X83.37Y-77.25
X87.17Y-77.25
X91.37Y-77.25
X95.17Y-77.25
X99.37Y-77.25
X103.17Y-77.25
X107.37Y-77.25
X111.17Y-77.25
T10
X47.0Y-136.0
X47.0Y-156.0
X116.0Y-136.0
X116.0Y-156.0
T3
G00X73.68Y-147.325
M15
G01X73.68Y-148.425
M16
G05
G00X73.68Y-151.675
M15
G01X73.68Y-152.475
M16
G05
G00X82.32Y-147.325
M15
G01X82.32Y-148.425
M16
G05
G00X82.32Y-151.675
M15
G01X82.32Y-152.475
M16
G05
M30
