%TF.GenerationSoftware,KiCad,Pcbnew,9.0.0*%
%TF.CreationDate,2025-11-25T21:07:29+01:00*%
%TF.ProjectId,Line follower,4c696e65-2066-46f6-9c6c-6f7765722e6b,rev?*%
%TF.SameCoordinates,Original*%
%TF.FileFunction,Profile,NP*%
%FSLAX46Y46*%
G04 Gerber Fmt 4.6, Leading zero omitted, Abs format (unit mm)*
G04 Created by KiCad (PCBNEW 9.0.0) date 2025-11-25 21:07:29*
%MOMM*%
%LPD*%
G01*
G04 APERTURE LIST*
%TA.AperFunction,Profile*%
%ADD10C,0.050000*%
%TD*%
G04 APERTURE END LIST*
D10*
X57400000Y-153500000D02*
X105600000Y-153500000D01*
X112500000Y-159500000D02*
X105600000Y-153500000D01*
X121500000Y-159500000D02*
X112500000Y-159500000D01*
X121500000Y-153500000D02*
X121500000Y-159500000D01*
X50500000Y-159500000D02*
X57400000Y-153500000D01*
X41500000Y-159500000D02*
X50500000Y-159500000D01*
X41500000Y-153500000D02*
X41500000Y-159500000D01*
X92000000Y-104000000D02*
X92000000Y-87000000D01*
X71000000Y-87000000D02*
X71000000Y-104000000D01*
X105000000Y-104000000D02*
X121500000Y-107500000D01*
X92000000Y-104000000D02*
X105000000Y-104000000D01*
X58000000Y-104000000D02*
X41500000Y-107500000D01*
X71000000Y-104000000D02*
X58000000Y-104000000D01*
X114000000Y-87000000D02*
X92000000Y-87000000D01*
X49000000Y-87000000D02*
X71000000Y-87000000D01*
X49000000Y-69000000D02*
X49000000Y-87000000D01*
X114000000Y-69000000D02*
X114000000Y-87000000D01*
X49000000Y-69000000D02*
X114000000Y-69000000D01*
X41500000Y-107500000D02*
X41500000Y-153500000D01*
X121500000Y-153500000D02*
X121500000Y-107500000D01*
M02*
