%TF.GenerationSoftware,KiCad,Pcbnew,9.0.0*%
%TF.CreationDate,2025-11-25T21:07:28+01:00*%
%TF.ProjectId,Line follower,4c696e65-2066-46f6-9c6c-6f7765722e6b,rev?*%
%TF.SameCoordinates,Original*%
%TF.FileFunction,Legend,Top*%
%TF.FilePolarity,Positive*%
%FSLAX46Y46*%
G04 Gerber Fmt 4.6, Leading zero omitted, Abs format (unit mm)*
G04 Created by KiCad (PCBNEW 9.0.0) date 2025-11-25 21:07:28*
%MOMM*%
%LPD*%
G01*
G04 APERTURE LIST*
%ADD10C,0.100000*%
%ADD11C,0.200000*%
%ADD12C,0.150000*%
%ADD13C,0.120000*%
%ADD14C,0.127000*%
G04 APERTURE END LIST*
D10*
X121500000Y-140000000D02*
X112500000Y-140000000D01*
X97500000Y-152000000D02*
X97500000Y-140000000D01*
X97500000Y-140000000D02*
X112500000Y-140000000D01*
X112500000Y-152000000D02*
X121500000Y-152000000D01*
X112500000Y-152000000D02*
X97500000Y-152000000D01*
D11*
X100476190Y-145524950D02*
X100476190Y-143524950D01*
X100476190Y-143524950D02*
X101142857Y-144953521D01*
X101142857Y-144953521D02*
X101809523Y-143524950D01*
X101809523Y-143524950D02*
X101809523Y-145524950D01*
X103142856Y-143524950D02*
X103523809Y-143524950D01*
X103523809Y-143524950D02*
X103714285Y-143620188D01*
X103714285Y-143620188D02*
X103904761Y-143810664D01*
X103904761Y-143810664D02*
X103999999Y-144191616D01*
X103999999Y-144191616D02*
X103999999Y-144858283D01*
X103999999Y-144858283D02*
X103904761Y-145239235D01*
X103904761Y-145239235D02*
X103714285Y-145429712D01*
X103714285Y-145429712D02*
X103523809Y-145524950D01*
X103523809Y-145524950D02*
X103142856Y-145524950D01*
X103142856Y-145524950D02*
X102952380Y-145429712D01*
X102952380Y-145429712D02*
X102761904Y-145239235D01*
X102761904Y-145239235D02*
X102666666Y-144858283D01*
X102666666Y-144858283D02*
X102666666Y-144191616D01*
X102666666Y-144191616D02*
X102761904Y-143810664D01*
X102761904Y-143810664D02*
X102952380Y-143620188D01*
X102952380Y-143620188D02*
X103142856Y-143524950D01*
X104571428Y-143524950D02*
X105714285Y-143524950D01*
X105142856Y-145524950D02*
X105142856Y-143524950D01*
X106761904Y-143524950D02*
X107142857Y-143524950D01*
X107142857Y-143524950D02*
X107333333Y-143620188D01*
X107333333Y-143620188D02*
X107523809Y-143810664D01*
X107523809Y-143810664D02*
X107619047Y-144191616D01*
X107619047Y-144191616D02*
X107619047Y-144858283D01*
X107619047Y-144858283D02*
X107523809Y-145239235D01*
X107523809Y-145239235D02*
X107333333Y-145429712D01*
X107333333Y-145429712D02*
X107142857Y-145524950D01*
X107142857Y-145524950D02*
X106761904Y-145524950D01*
X106761904Y-145524950D02*
X106571428Y-145429712D01*
X106571428Y-145429712D02*
X106380952Y-145239235D01*
X106380952Y-145239235D02*
X106285714Y-144858283D01*
X106285714Y-144858283D02*
X106285714Y-144191616D01*
X106285714Y-144191616D02*
X106380952Y-143810664D01*
X106380952Y-143810664D02*
X106571428Y-143620188D01*
X106571428Y-143620188D02*
X106761904Y-143524950D01*
X109619047Y-145524950D02*
X108952380Y-144572569D01*
X108476190Y-145524950D02*
X108476190Y-143524950D01*
X108476190Y-143524950D02*
X109238095Y-143524950D01*
X109238095Y-143524950D02*
X109428571Y-143620188D01*
X109428571Y-143620188D02*
X109523809Y-143715426D01*
X109523809Y-143715426D02*
X109619047Y-143905902D01*
X109619047Y-143905902D02*
X109619047Y-144191616D01*
X109619047Y-144191616D02*
X109523809Y-144382092D01*
X109523809Y-144382092D02*
X109428571Y-144477331D01*
X109428571Y-144477331D02*
X109238095Y-144572569D01*
X109238095Y-144572569D02*
X108476190Y-144572569D01*
X103095237Y-148744838D02*
X102142856Y-148744838D01*
X102142856Y-148744838D02*
X102142856Y-146744838D01*
X103761904Y-147697219D02*
X104428571Y-147697219D01*
X104714285Y-148744838D02*
X103761904Y-148744838D01*
X103761904Y-148744838D02*
X103761904Y-146744838D01*
X103761904Y-146744838D02*
X104714285Y-146744838D01*
X106238095Y-147697219D02*
X105571428Y-147697219D01*
X105571428Y-148744838D02*
X105571428Y-146744838D01*
X105571428Y-146744838D02*
X106523809Y-146744838D01*
X107000000Y-146744838D02*
X108142857Y-146744838D01*
X107571428Y-148744838D02*
X107571428Y-146744838D01*
D10*
X112500000Y-140000000D02*
X112500000Y-152000000D01*
X121500000Y-152000000D02*
X121500000Y-140000000D01*
D11*
X53476190Y-145524950D02*
X53476190Y-143524950D01*
X53476190Y-143524950D02*
X54142857Y-144953521D01*
X54142857Y-144953521D02*
X54809523Y-143524950D01*
X54809523Y-143524950D02*
X54809523Y-145524950D01*
X56142856Y-143524950D02*
X56523809Y-143524950D01*
X56523809Y-143524950D02*
X56714285Y-143620188D01*
X56714285Y-143620188D02*
X56904761Y-143810664D01*
X56904761Y-143810664D02*
X56999999Y-144191616D01*
X56999999Y-144191616D02*
X56999999Y-144858283D01*
X56999999Y-144858283D02*
X56904761Y-145239235D01*
X56904761Y-145239235D02*
X56714285Y-145429712D01*
X56714285Y-145429712D02*
X56523809Y-145524950D01*
X56523809Y-145524950D02*
X56142856Y-145524950D01*
X56142856Y-145524950D02*
X55952380Y-145429712D01*
X55952380Y-145429712D02*
X55761904Y-145239235D01*
X55761904Y-145239235D02*
X55666666Y-144858283D01*
X55666666Y-144858283D02*
X55666666Y-144191616D01*
X55666666Y-144191616D02*
X55761904Y-143810664D01*
X55761904Y-143810664D02*
X55952380Y-143620188D01*
X55952380Y-143620188D02*
X56142856Y-143524950D01*
X57571428Y-143524950D02*
X58714285Y-143524950D01*
X58142856Y-145524950D02*
X58142856Y-143524950D01*
X59761904Y-143524950D02*
X60142857Y-143524950D01*
X60142857Y-143524950D02*
X60333333Y-143620188D01*
X60333333Y-143620188D02*
X60523809Y-143810664D01*
X60523809Y-143810664D02*
X60619047Y-144191616D01*
X60619047Y-144191616D02*
X60619047Y-144858283D01*
X60619047Y-144858283D02*
X60523809Y-145239235D01*
X60523809Y-145239235D02*
X60333333Y-145429712D01*
X60333333Y-145429712D02*
X60142857Y-145524950D01*
X60142857Y-145524950D02*
X59761904Y-145524950D01*
X59761904Y-145524950D02*
X59571428Y-145429712D01*
X59571428Y-145429712D02*
X59380952Y-145239235D01*
X59380952Y-145239235D02*
X59285714Y-144858283D01*
X59285714Y-144858283D02*
X59285714Y-144191616D01*
X59285714Y-144191616D02*
X59380952Y-143810664D01*
X59380952Y-143810664D02*
X59571428Y-143620188D01*
X59571428Y-143620188D02*
X59761904Y-143524950D01*
X62619047Y-145524950D02*
X61952380Y-144572569D01*
X61476190Y-145524950D02*
X61476190Y-143524950D01*
X61476190Y-143524950D02*
X62238095Y-143524950D01*
X62238095Y-143524950D02*
X62428571Y-143620188D01*
X62428571Y-143620188D02*
X62523809Y-143715426D01*
X62523809Y-143715426D02*
X62619047Y-143905902D01*
X62619047Y-143905902D02*
X62619047Y-144191616D01*
X62619047Y-144191616D02*
X62523809Y-144382092D01*
X62523809Y-144382092D02*
X62428571Y-144477331D01*
X62428571Y-144477331D02*
X62238095Y-144572569D01*
X62238095Y-144572569D02*
X61476190Y-144572569D01*
X55333333Y-148744838D02*
X54666666Y-147792457D01*
X54190476Y-148744838D02*
X54190476Y-146744838D01*
X54190476Y-146744838D02*
X54952381Y-146744838D01*
X54952381Y-146744838D02*
X55142857Y-146840076D01*
X55142857Y-146840076D02*
X55238095Y-146935314D01*
X55238095Y-146935314D02*
X55333333Y-147125790D01*
X55333333Y-147125790D02*
X55333333Y-147411504D01*
X55333333Y-147411504D02*
X55238095Y-147601980D01*
X55238095Y-147601980D02*
X55142857Y-147697219D01*
X55142857Y-147697219D02*
X54952381Y-147792457D01*
X54952381Y-147792457D02*
X54190476Y-147792457D01*
X56190476Y-148744838D02*
X56190476Y-146744838D01*
X58190476Y-146840076D02*
X58000000Y-146744838D01*
X58000000Y-146744838D02*
X57714286Y-146744838D01*
X57714286Y-146744838D02*
X57428571Y-146840076D01*
X57428571Y-146840076D02*
X57238095Y-147030552D01*
X57238095Y-147030552D02*
X57142857Y-147221028D01*
X57142857Y-147221028D02*
X57047619Y-147601980D01*
X57047619Y-147601980D02*
X57047619Y-147887695D01*
X57047619Y-147887695D02*
X57142857Y-148268647D01*
X57142857Y-148268647D02*
X57238095Y-148459123D01*
X57238095Y-148459123D02*
X57428571Y-148649600D01*
X57428571Y-148649600D02*
X57714286Y-148744838D01*
X57714286Y-148744838D02*
X57904762Y-148744838D01*
X57904762Y-148744838D02*
X58190476Y-148649600D01*
X58190476Y-148649600D02*
X58285714Y-148554361D01*
X58285714Y-148554361D02*
X58285714Y-147887695D01*
X58285714Y-147887695D02*
X57904762Y-147887695D01*
X59142857Y-148744838D02*
X59142857Y-146744838D01*
X59142857Y-147697219D02*
X60285714Y-147697219D01*
X60285714Y-148744838D02*
X60285714Y-146744838D01*
X60952381Y-146744838D02*
X62095238Y-146744838D01*
X61523809Y-148744838D02*
X61523809Y-146744838D01*
D10*
X41500000Y-152000000D02*
X50500000Y-152000000D01*
X41500000Y-140000000D02*
X41500000Y-152000000D01*
X50500000Y-140000000D02*
X41500000Y-140000000D01*
X50500000Y-152000000D02*
X50500000Y-140000000D01*
X65500000Y-152000000D02*
X50500000Y-152000000D01*
X65500000Y-140000000D02*
X65500000Y-152000000D01*
X50500000Y-140000000D02*
X65500000Y-140000000D01*
D12*
X92476191Y-147374819D02*
X92476191Y-146374819D01*
X92952381Y-147374819D02*
X92952381Y-146374819D01*
X92952381Y-146374819D02*
X93523809Y-147374819D01*
X93523809Y-147374819D02*
X93523809Y-146374819D01*
X92000000Y-138254819D02*
X92190476Y-138254819D01*
X92190476Y-138254819D02*
X92285714Y-138302438D01*
X92285714Y-138302438D02*
X92380952Y-138397676D01*
X92380952Y-138397676D02*
X92428571Y-138588152D01*
X92428571Y-138588152D02*
X92428571Y-138921485D01*
X92428571Y-138921485D02*
X92380952Y-139111961D01*
X92380952Y-139111961D02*
X92285714Y-139207200D01*
X92285714Y-139207200D02*
X92190476Y-139254819D01*
X92190476Y-139254819D02*
X92000000Y-139254819D01*
X92000000Y-139254819D02*
X91904762Y-139207200D01*
X91904762Y-139207200D02*
X91809524Y-139111961D01*
X91809524Y-139111961D02*
X91761905Y-138921485D01*
X91761905Y-138921485D02*
X91761905Y-138588152D01*
X91761905Y-138588152D02*
X91809524Y-138397676D01*
X91809524Y-138397676D02*
X91904762Y-138302438D01*
X91904762Y-138302438D02*
X92000000Y-138254819D01*
X92857143Y-138254819D02*
X92857143Y-139064342D01*
X92857143Y-139064342D02*
X92904762Y-139159580D01*
X92904762Y-139159580D02*
X92952381Y-139207200D01*
X92952381Y-139207200D02*
X93047619Y-139254819D01*
X93047619Y-139254819D02*
X93238095Y-139254819D01*
X93238095Y-139254819D02*
X93333333Y-139207200D01*
X93333333Y-139207200D02*
X93380952Y-139159580D01*
X93380952Y-139159580D02*
X93428571Y-139064342D01*
X93428571Y-139064342D02*
X93428571Y-138254819D01*
X93761905Y-138254819D02*
X94333333Y-138254819D01*
X94047619Y-139254819D02*
X94047619Y-138254819D01*
X67860000Y-146374819D02*
X68050476Y-146374819D01*
X68050476Y-146374819D02*
X68145714Y-146422438D01*
X68145714Y-146422438D02*
X68240952Y-146517676D01*
X68240952Y-146517676D02*
X68288571Y-146708152D01*
X68288571Y-146708152D02*
X68288571Y-147041485D01*
X68288571Y-147041485D02*
X68240952Y-147231961D01*
X68240952Y-147231961D02*
X68145714Y-147327200D01*
X68145714Y-147327200D02*
X68050476Y-147374819D01*
X68050476Y-147374819D02*
X67860000Y-147374819D01*
X67860000Y-147374819D02*
X67764762Y-147327200D01*
X67764762Y-147327200D02*
X67669524Y-147231961D01*
X67669524Y-147231961D02*
X67621905Y-147041485D01*
X67621905Y-147041485D02*
X67621905Y-146708152D01*
X67621905Y-146708152D02*
X67669524Y-146517676D01*
X67669524Y-146517676D02*
X67764762Y-146422438D01*
X67764762Y-146422438D02*
X67860000Y-146374819D01*
X68717143Y-146374819D02*
X68717143Y-147184342D01*
X68717143Y-147184342D02*
X68764762Y-147279580D01*
X68764762Y-147279580D02*
X68812381Y-147327200D01*
X68812381Y-147327200D02*
X68907619Y-147374819D01*
X68907619Y-147374819D02*
X69098095Y-147374819D01*
X69098095Y-147374819D02*
X69193333Y-147327200D01*
X69193333Y-147327200D02*
X69240952Y-147279580D01*
X69240952Y-147279580D02*
X69288571Y-147184342D01*
X69288571Y-147184342D02*
X69288571Y-146374819D01*
X69621905Y-146374819D02*
X70193333Y-146374819D01*
X69907619Y-147374819D02*
X69907619Y-146374819D01*
X68336191Y-139544819D02*
X68336191Y-138544819D01*
X68812381Y-139544819D02*
X68812381Y-138544819D01*
X68812381Y-138544819D02*
X69383809Y-139544819D01*
X69383809Y-139544819D02*
X69383809Y-138544819D01*
X72666666Y-144954819D02*
X72666666Y-145669104D01*
X72666666Y-145669104D02*
X72619047Y-145811961D01*
X72619047Y-145811961D02*
X72523809Y-145907200D01*
X72523809Y-145907200D02*
X72380952Y-145954819D01*
X72380952Y-145954819D02*
X72285714Y-145954819D01*
X73666666Y-145954819D02*
X73095238Y-145954819D01*
X73380952Y-145954819D02*
X73380952Y-144954819D01*
X73380952Y-144954819D02*
X73285714Y-145097676D01*
X73285714Y-145097676D02*
X73190476Y-145192914D01*
X73190476Y-145192914D02*
X73095238Y-145240533D01*
X101338095Y-114204819D02*
X101338095Y-115014342D01*
X101338095Y-115014342D02*
X101385714Y-115109580D01*
X101385714Y-115109580D02*
X101433333Y-115157200D01*
X101433333Y-115157200D02*
X101528571Y-115204819D01*
X101528571Y-115204819D02*
X101719047Y-115204819D01*
X101719047Y-115204819D02*
X101814285Y-115157200D01*
X101814285Y-115157200D02*
X101861904Y-115109580D01*
X101861904Y-115109580D02*
X101909523Y-115014342D01*
X101909523Y-115014342D02*
X101909523Y-114204819D01*
X102338095Y-114300057D02*
X102385714Y-114252438D01*
X102385714Y-114252438D02*
X102480952Y-114204819D01*
X102480952Y-114204819D02*
X102719047Y-114204819D01*
X102719047Y-114204819D02*
X102814285Y-114252438D01*
X102814285Y-114252438D02*
X102861904Y-114300057D01*
X102861904Y-114300057D02*
X102909523Y-114395295D01*
X102909523Y-114395295D02*
X102909523Y-114490533D01*
X102909523Y-114490533D02*
X102861904Y-114633390D01*
X102861904Y-114633390D02*
X102290476Y-115204819D01*
X102290476Y-115204819D02*
X102909523Y-115204819D01*
X44334819Y-123158094D02*
X45144342Y-123158094D01*
X45144342Y-123158094D02*
X45239580Y-123110475D01*
X45239580Y-123110475D02*
X45287200Y-123062856D01*
X45287200Y-123062856D02*
X45334819Y-122967618D01*
X45334819Y-122967618D02*
X45334819Y-122777142D01*
X45334819Y-122777142D02*
X45287200Y-122681904D01*
X45287200Y-122681904D02*
X45239580Y-122634285D01*
X45239580Y-122634285D02*
X45144342Y-122586666D01*
X45144342Y-122586666D02*
X44334819Y-122586666D01*
X45334819Y-121586666D02*
X45334819Y-122158094D01*
X45334819Y-121872380D02*
X44334819Y-121872380D01*
X44334819Y-121872380D02*
X44477676Y-121967618D01*
X44477676Y-121967618D02*
X44572914Y-122062856D01*
X44572914Y-122062856D02*
X44620533Y-122158094D01*
X45334819Y-120634285D02*
X45334819Y-121205713D01*
X45334819Y-120919999D02*
X44334819Y-120919999D01*
X44334819Y-120919999D02*
X44477676Y-121015237D01*
X44477676Y-121015237D02*
X44572914Y-121110475D01*
X44572914Y-121110475D02*
X44620533Y-121205713D01*
X103583333Y-130109580D02*
X103535714Y-130157200D01*
X103535714Y-130157200D02*
X103392857Y-130204819D01*
X103392857Y-130204819D02*
X103297619Y-130204819D01*
X103297619Y-130204819D02*
X103154762Y-130157200D01*
X103154762Y-130157200D02*
X103059524Y-130061961D01*
X103059524Y-130061961D02*
X103011905Y-129966723D01*
X103011905Y-129966723D02*
X102964286Y-129776247D01*
X102964286Y-129776247D02*
X102964286Y-129633390D01*
X102964286Y-129633390D02*
X103011905Y-129442914D01*
X103011905Y-129442914D02*
X103059524Y-129347676D01*
X103059524Y-129347676D02*
X103154762Y-129252438D01*
X103154762Y-129252438D02*
X103297619Y-129204819D01*
X103297619Y-129204819D02*
X103392857Y-129204819D01*
X103392857Y-129204819D02*
X103535714Y-129252438D01*
X103535714Y-129252438D02*
X103583333Y-129300057D01*
X104535714Y-130204819D02*
X103964286Y-130204819D01*
X104250000Y-130204819D02*
X104250000Y-129204819D01*
X104250000Y-129204819D02*
X104154762Y-129347676D01*
X104154762Y-129347676D02*
X104059524Y-129442914D01*
X104059524Y-129442914D02*
X103964286Y-129490533D01*
X103583333Y-131609580D02*
X103535714Y-131657200D01*
X103535714Y-131657200D02*
X103392857Y-131704819D01*
X103392857Y-131704819D02*
X103297619Y-131704819D01*
X103297619Y-131704819D02*
X103154762Y-131657200D01*
X103154762Y-131657200D02*
X103059524Y-131561961D01*
X103059524Y-131561961D02*
X103011905Y-131466723D01*
X103011905Y-131466723D02*
X102964286Y-131276247D01*
X102964286Y-131276247D02*
X102964286Y-131133390D01*
X102964286Y-131133390D02*
X103011905Y-130942914D01*
X103011905Y-130942914D02*
X103059524Y-130847676D01*
X103059524Y-130847676D02*
X103154762Y-130752438D01*
X103154762Y-130752438D02*
X103297619Y-130704819D01*
X103297619Y-130704819D02*
X103392857Y-130704819D01*
X103392857Y-130704819D02*
X103535714Y-130752438D01*
X103535714Y-130752438D02*
X103583333Y-130800057D01*
X103964286Y-130800057D02*
X104011905Y-130752438D01*
X104011905Y-130752438D02*
X104107143Y-130704819D01*
X104107143Y-130704819D02*
X104345238Y-130704819D01*
X104345238Y-130704819D02*
X104440476Y-130752438D01*
X104440476Y-130752438D02*
X104488095Y-130800057D01*
X104488095Y-130800057D02*
X104535714Y-130895295D01*
X104535714Y-130895295D02*
X104535714Y-130990533D01*
X104535714Y-130990533D02*
X104488095Y-131133390D01*
X104488095Y-131133390D02*
X103916667Y-131704819D01*
X103916667Y-131704819D02*
X104535714Y-131704819D01*
X103583333Y-127109580D02*
X103535714Y-127157200D01*
X103535714Y-127157200D02*
X103392857Y-127204819D01*
X103392857Y-127204819D02*
X103297619Y-127204819D01*
X103297619Y-127204819D02*
X103154762Y-127157200D01*
X103154762Y-127157200D02*
X103059524Y-127061961D01*
X103059524Y-127061961D02*
X103011905Y-126966723D01*
X103011905Y-126966723D02*
X102964286Y-126776247D01*
X102964286Y-126776247D02*
X102964286Y-126633390D01*
X102964286Y-126633390D02*
X103011905Y-126442914D01*
X103011905Y-126442914D02*
X103059524Y-126347676D01*
X103059524Y-126347676D02*
X103154762Y-126252438D01*
X103154762Y-126252438D02*
X103297619Y-126204819D01*
X103297619Y-126204819D02*
X103392857Y-126204819D01*
X103392857Y-126204819D02*
X103535714Y-126252438D01*
X103535714Y-126252438D02*
X103583333Y-126300057D01*
X103916667Y-126204819D02*
X104535714Y-126204819D01*
X104535714Y-126204819D02*
X104202381Y-126585771D01*
X104202381Y-126585771D02*
X104345238Y-126585771D01*
X104345238Y-126585771D02*
X104440476Y-126633390D01*
X104440476Y-126633390D02*
X104488095Y-126681009D01*
X104488095Y-126681009D02*
X104535714Y-126776247D01*
X104535714Y-126776247D02*
X104535714Y-127014342D01*
X104535714Y-127014342D02*
X104488095Y-127109580D01*
X104488095Y-127109580D02*
X104440476Y-127157200D01*
X104440476Y-127157200D02*
X104345238Y-127204819D01*
X104345238Y-127204819D02*
X104059524Y-127204819D01*
X104059524Y-127204819D02*
X103964286Y-127157200D01*
X103964286Y-127157200D02*
X103916667Y-127109580D01*
X119083333Y-124609580D02*
X119035714Y-124657200D01*
X119035714Y-124657200D02*
X118892857Y-124704819D01*
X118892857Y-124704819D02*
X118797619Y-124704819D01*
X118797619Y-124704819D02*
X118654762Y-124657200D01*
X118654762Y-124657200D02*
X118559524Y-124561961D01*
X118559524Y-124561961D02*
X118511905Y-124466723D01*
X118511905Y-124466723D02*
X118464286Y-124276247D01*
X118464286Y-124276247D02*
X118464286Y-124133390D01*
X118464286Y-124133390D02*
X118511905Y-123942914D01*
X118511905Y-123942914D02*
X118559524Y-123847676D01*
X118559524Y-123847676D02*
X118654762Y-123752438D01*
X118654762Y-123752438D02*
X118797619Y-123704819D01*
X118797619Y-123704819D02*
X118892857Y-123704819D01*
X118892857Y-123704819D02*
X119035714Y-123752438D01*
X119035714Y-123752438D02*
X119083333Y-123800057D01*
X119940476Y-124038152D02*
X119940476Y-124704819D01*
X119702381Y-123657200D02*
X119464286Y-124371485D01*
X119464286Y-124371485D02*
X120083333Y-124371485D01*
X82789580Y-118666666D02*
X82837200Y-118714285D01*
X82837200Y-118714285D02*
X82884819Y-118857142D01*
X82884819Y-118857142D02*
X82884819Y-118952380D01*
X82884819Y-118952380D02*
X82837200Y-119095237D01*
X82837200Y-119095237D02*
X82741961Y-119190475D01*
X82741961Y-119190475D02*
X82646723Y-119238094D01*
X82646723Y-119238094D02*
X82456247Y-119285713D01*
X82456247Y-119285713D02*
X82313390Y-119285713D01*
X82313390Y-119285713D02*
X82122914Y-119238094D01*
X82122914Y-119238094D02*
X82027676Y-119190475D01*
X82027676Y-119190475D02*
X81932438Y-119095237D01*
X81932438Y-119095237D02*
X81884819Y-118952380D01*
X81884819Y-118952380D02*
X81884819Y-118857142D01*
X81884819Y-118857142D02*
X81932438Y-118714285D01*
X81932438Y-118714285D02*
X81980057Y-118666666D01*
X81884819Y-117761904D02*
X81884819Y-118238094D01*
X81884819Y-118238094D02*
X82361009Y-118285713D01*
X82361009Y-118285713D02*
X82313390Y-118238094D01*
X82313390Y-118238094D02*
X82265771Y-118142856D01*
X82265771Y-118142856D02*
X82265771Y-117904761D01*
X82265771Y-117904761D02*
X82313390Y-117809523D01*
X82313390Y-117809523D02*
X82361009Y-117761904D01*
X82361009Y-117761904D02*
X82456247Y-117714285D01*
X82456247Y-117714285D02*
X82694342Y-117714285D01*
X82694342Y-117714285D02*
X82789580Y-117761904D01*
X82789580Y-117761904D02*
X82837200Y-117809523D01*
X82837200Y-117809523D02*
X82884819Y-117904761D01*
X82884819Y-117904761D02*
X82884819Y-118142856D01*
X82884819Y-118142856D02*
X82837200Y-118238094D01*
X82837200Y-118238094D02*
X82789580Y-118285713D01*
X104359580Y-120166666D02*
X104407200Y-120214285D01*
X104407200Y-120214285D02*
X104454819Y-120357142D01*
X104454819Y-120357142D02*
X104454819Y-120452380D01*
X104454819Y-120452380D02*
X104407200Y-120595237D01*
X104407200Y-120595237D02*
X104311961Y-120690475D01*
X104311961Y-120690475D02*
X104216723Y-120738094D01*
X104216723Y-120738094D02*
X104026247Y-120785713D01*
X104026247Y-120785713D02*
X103883390Y-120785713D01*
X103883390Y-120785713D02*
X103692914Y-120738094D01*
X103692914Y-120738094D02*
X103597676Y-120690475D01*
X103597676Y-120690475D02*
X103502438Y-120595237D01*
X103502438Y-120595237D02*
X103454819Y-120452380D01*
X103454819Y-120452380D02*
X103454819Y-120357142D01*
X103454819Y-120357142D02*
X103502438Y-120214285D01*
X103502438Y-120214285D02*
X103550057Y-120166666D01*
X103454819Y-119309523D02*
X103454819Y-119499999D01*
X103454819Y-119499999D02*
X103502438Y-119595237D01*
X103502438Y-119595237D02*
X103550057Y-119642856D01*
X103550057Y-119642856D02*
X103692914Y-119738094D01*
X103692914Y-119738094D02*
X103883390Y-119785713D01*
X103883390Y-119785713D02*
X104264342Y-119785713D01*
X104264342Y-119785713D02*
X104359580Y-119738094D01*
X104359580Y-119738094D02*
X104407200Y-119690475D01*
X104407200Y-119690475D02*
X104454819Y-119595237D01*
X104454819Y-119595237D02*
X104454819Y-119404761D01*
X104454819Y-119404761D02*
X104407200Y-119309523D01*
X104407200Y-119309523D02*
X104359580Y-119261904D01*
X104359580Y-119261904D02*
X104264342Y-119214285D01*
X104264342Y-119214285D02*
X104026247Y-119214285D01*
X104026247Y-119214285D02*
X103931009Y-119261904D01*
X103931009Y-119261904D02*
X103883390Y-119309523D01*
X103883390Y-119309523D02*
X103835771Y-119404761D01*
X103835771Y-119404761D02*
X103835771Y-119595237D01*
X103835771Y-119595237D02*
X103883390Y-119690475D01*
X103883390Y-119690475D02*
X103931009Y-119738094D01*
X103931009Y-119738094D02*
X104026247Y-119785713D01*
X119083333Y-123109580D02*
X119035714Y-123157200D01*
X119035714Y-123157200D02*
X118892857Y-123204819D01*
X118892857Y-123204819D02*
X118797619Y-123204819D01*
X118797619Y-123204819D02*
X118654762Y-123157200D01*
X118654762Y-123157200D02*
X118559524Y-123061961D01*
X118559524Y-123061961D02*
X118511905Y-122966723D01*
X118511905Y-122966723D02*
X118464286Y-122776247D01*
X118464286Y-122776247D02*
X118464286Y-122633390D01*
X118464286Y-122633390D02*
X118511905Y-122442914D01*
X118511905Y-122442914D02*
X118559524Y-122347676D01*
X118559524Y-122347676D02*
X118654762Y-122252438D01*
X118654762Y-122252438D02*
X118797619Y-122204819D01*
X118797619Y-122204819D02*
X118892857Y-122204819D01*
X118892857Y-122204819D02*
X119035714Y-122252438D01*
X119035714Y-122252438D02*
X119083333Y-122300057D01*
X119416667Y-122204819D02*
X120083333Y-122204819D01*
X120083333Y-122204819D02*
X119654762Y-123204819D01*
X113583333Y-124609580D02*
X113535714Y-124657200D01*
X113535714Y-124657200D02*
X113392857Y-124704819D01*
X113392857Y-124704819D02*
X113297619Y-124704819D01*
X113297619Y-124704819D02*
X113154762Y-124657200D01*
X113154762Y-124657200D02*
X113059524Y-124561961D01*
X113059524Y-124561961D02*
X113011905Y-124466723D01*
X113011905Y-124466723D02*
X112964286Y-124276247D01*
X112964286Y-124276247D02*
X112964286Y-124133390D01*
X112964286Y-124133390D02*
X113011905Y-123942914D01*
X113011905Y-123942914D02*
X113059524Y-123847676D01*
X113059524Y-123847676D02*
X113154762Y-123752438D01*
X113154762Y-123752438D02*
X113297619Y-123704819D01*
X113297619Y-123704819D02*
X113392857Y-123704819D01*
X113392857Y-123704819D02*
X113535714Y-123752438D01*
X113535714Y-123752438D02*
X113583333Y-123800057D01*
X114154762Y-124133390D02*
X114059524Y-124085771D01*
X114059524Y-124085771D02*
X114011905Y-124038152D01*
X114011905Y-124038152D02*
X113964286Y-123942914D01*
X113964286Y-123942914D02*
X113964286Y-123895295D01*
X113964286Y-123895295D02*
X114011905Y-123800057D01*
X114011905Y-123800057D02*
X114059524Y-123752438D01*
X114059524Y-123752438D02*
X114154762Y-123704819D01*
X114154762Y-123704819D02*
X114345238Y-123704819D01*
X114345238Y-123704819D02*
X114440476Y-123752438D01*
X114440476Y-123752438D02*
X114488095Y-123800057D01*
X114488095Y-123800057D02*
X114535714Y-123895295D01*
X114535714Y-123895295D02*
X114535714Y-123942914D01*
X114535714Y-123942914D02*
X114488095Y-124038152D01*
X114488095Y-124038152D02*
X114440476Y-124085771D01*
X114440476Y-124085771D02*
X114345238Y-124133390D01*
X114345238Y-124133390D02*
X114154762Y-124133390D01*
X114154762Y-124133390D02*
X114059524Y-124181009D01*
X114059524Y-124181009D02*
X114011905Y-124228628D01*
X114011905Y-124228628D02*
X113964286Y-124323866D01*
X113964286Y-124323866D02*
X113964286Y-124514342D01*
X113964286Y-124514342D02*
X114011905Y-124609580D01*
X114011905Y-124609580D02*
X114059524Y-124657200D01*
X114059524Y-124657200D02*
X114154762Y-124704819D01*
X114154762Y-124704819D02*
X114345238Y-124704819D01*
X114345238Y-124704819D02*
X114440476Y-124657200D01*
X114440476Y-124657200D02*
X114488095Y-124609580D01*
X114488095Y-124609580D02*
X114535714Y-124514342D01*
X114535714Y-124514342D02*
X114535714Y-124323866D01*
X114535714Y-124323866D02*
X114488095Y-124228628D01*
X114488095Y-124228628D02*
X114440476Y-124181009D01*
X114440476Y-124181009D02*
X114345238Y-124133390D01*
X113583333Y-123109580D02*
X113535714Y-123157200D01*
X113535714Y-123157200D02*
X113392857Y-123204819D01*
X113392857Y-123204819D02*
X113297619Y-123204819D01*
X113297619Y-123204819D02*
X113154762Y-123157200D01*
X113154762Y-123157200D02*
X113059524Y-123061961D01*
X113059524Y-123061961D02*
X113011905Y-122966723D01*
X113011905Y-122966723D02*
X112964286Y-122776247D01*
X112964286Y-122776247D02*
X112964286Y-122633390D01*
X112964286Y-122633390D02*
X113011905Y-122442914D01*
X113011905Y-122442914D02*
X113059524Y-122347676D01*
X113059524Y-122347676D02*
X113154762Y-122252438D01*
X113154762Y-122252438D02*
X113297619Y-122204819D01*
X113297619Y-122204819D02*
X113392857Y-122204819D01*
X113392857Y-122204819D02*
X113535714Y-122252438D01*
X113535714Y-122252438D02*
X113583333Y-122300057D01*
X114059524Y-123204819D02*
X114250000Y-123204819D01*
X114250000Y-123204819D02*
X114345238Y-123157200D01*
X114345238Y-123157200D02*
X114392857Y-123109580D01*
X114392857Y-123109580D02*
X114488095Y-122966723D01*
X114488095Y-122966723D02*
X114535714Y-122776247D01*
X114535714Y-122776247D02*
X114535714Y-122395295D01*
X114535714Y-122395295D02*
X114488095Y-122300057D01*
X114488095Y-122300057D02*
X114440476Y-122252438D01*
X114440476Y-122252438D02*
X114345238Y-122204819D01*
X114345238Y-122204819D02*
X114154762Y-122204819D01*
X114154762Y-122204819D02*
X114059524Y-122252438D01*
X114059524Y-122252438D02*
X114011905Y-122300057D01*
X114011905Y-122300057D02*
X113964286Y-122395295D01*
X113964286Y-122395295D02*
X113964286Y-122633390D01*
X113964286Y-122633390D02*
X114011905Y-122728628D01*
X114011905Y-122728628D02*
X114059524Y-122776247D01*
X114059524Y-122776247D02*
X114154762Y-122823866D01*
X114154762Y-122823866D02*
X114345238Y-122823866D01*
X114345238Y-122823866D02*
X114440476Y-122776247D01*
X114440476Y-122776247D02*
X114488095Y-122728628D01*
X114488095Y-122728628D02*
X114535714Y-122633390D01*
X61357142Y-106859580D02*
X61309523Y-106907200D01*
X61309523Y-106907200D02*
X61166666Y-106954819D01*
X61166666Y-106954819D02*
X61071428Y-106954819D01*
X61071428Y-106954819D02*
X60928571Y-106907200D01*
X60928571Y-106907200D02*
X60833333Y-106811961D01*
X60833333Y-106811961D02*
X60785714Y-106716723D01*
X60785714Y-106716723D02*
X60738095Y-106526247D01*
X60738095Y-106526247D02*
X60738095Y-106383390D01*
X60738095Y-106383390D02*
X60785714Y-106192914D01*
X60785714Y-106192914D02*
X60833333Y-106097676D01*
X60833333Y-106097676D02*
X60928571Y-106002438D01*
X60928571Y-106002438D02*
X61071428Y-105954819D01*
X61071428Y-105954819D02*
X61166666Y-105954819D01*
X61166666Y-105954819D02*
X61309523Y-106002438D01*
X61309523Y-106002438D02*
X61357142Y-106050057D01*
X62309523Y-106954819D02*
X61738095Y-106954819D01*
X62023809Y-106954819D02*
X62023809Y-105954819D01*
X62023809Y-105954819D02*
X61928571Y-106097676D01*
X61928571Y-106097676D02*
X61833333Y-106192914D01*
X61833333Y-106192914D02*
X61738095Y-106240533D01*
X62928571Y-105954819D02*
X63023809Y-105954819D01*
X63023809Y-105954819D02*
X63119047Y-106002438D01*
X63119047Y-106002438D02*
X63166666Y-106050057D01*
X63166666Y-106050057D02*
X63214285Y-106145295D01*
X63214285Y-106145295D02*
X63261904Y-106335771D01*
X63261904Y-106335771D02*
X63261904Y-106573866D01*
X63261904Y-106573866D02*
X63214285Y-106764342D01*
X63214285Y-106764342D02*
X63166666Y-106859580D01*
X63166666Y-106859580D02*
X63119047Y-106907200D01*
X63119047Y-106907200D02*
X63023809Y-106954819D01*
X63023809Y-106954819D02*
X62928571Y-106954819D01*
X62928571Y-106954819D02*
X62833333Y-106907200D01*
X62833333Y-106907200D02*
X62785714Y-106859580D01*
X62785714Y-106859580D02*
X62738095Y-106764342D01*
X62738095Y-106764342D02*
X62690476Y-106573866D01*
X62690476Y-106573866D02*
X62690476Y-106335771D01*
X62690476Y-106335771D02*
X62738095Y-106145295D01*
X62738095Y-106145295D02*
X62785714Y-106050057D01*
X62785714Y-106050057D02*
X62833333Y-106002438D01*
X62833333Y-106002438D02*
X62928571Y-105954819D01*
X70357142Y-106859580D02*
X70309523Y-106907200D01*
X70309523Y-106907200D02*
X70166666Y-106954819D01*
X70166666Y-106954819D02*
X70071428Y-106954819D01*
X70071428Y-106954819D02*
X69928571Y-106907200D01*
X69928571Y-106907200D02*
X69833333Y-106811961D01*
X69833333Y-106811961D02*
X69785714Y-106716723D01*
X69785714Y-106716723D02*
X69738095Y-106526247D01*
X69738095Y-106526247D02*
X69738095Y-106383390D01*
X69738095Y-106383390D02*
X69785714Y-106192914D01*
X69785714Y-106192914D02*
X69833333Y-106097676D01*
X69833333Y-106097676D02*
X69928571Y-106002438D01*
X69928571Y-106002438D02*
X70071428Y-105954819D01*
X70071428Y-105954819D02*
X70166666Y-105954819D01*
X70166666Y-105954819D02*
X70309523Y-106002438D01*
X70309523Y-106002438D02*
X70357142Y-106050057D01*
X71309523Y-106954819D02*
X70738095Y-106954819D01*
X71023809Y-106954819D02*
X71023809Y-105954819D01*
X71023809Y-105954819D02*
X70928571Y-106097676D01*
X70928571Y-106097676D02*
X70833333Y-106192914D01*
X70833333Y-106192914D02*
X70738095Y-106240533D01*
X72261904Y-106954819D02*
X71690476Y-106954819D01*
X71976190Y-106954819D02*
X71976190Y-105954819D01*
X71976190Y-105954819D02*
X71880952Y-106097676D01*
X71880952Y-106097676D02*
X71785714Y-106192914D01*
X71785714Y-106192914D02*
X71690476Y-106240533D01*
X115961905Y-119954819D02*
X115961905Y-118954819D01*
X115961905Y-118954819D02*
X116200000Y-118954819D01*
X116200000Y-118954819D02*
X116342857Y-119002438D01*
X116342857Y-119002438D02*
X116438095Y-119097676D01*
X116438095Y-119097676D02*
X116485714Y-119192914D01*
X116485714Y-119192914D02*
X116533333Y-119383390D01*
X116533333Y-119383390D02*
X116533333Y-119526247D01*
X116533333Y-119526247D02*
X116485714Y-119716723D01*
X116485714Y-119716723D02*
X116438095Y-119811961D01*
X116438095Y-119811961D02*
X116342857Y-119907200D01*
X116342857Y-119907200D02*
X116200000Y-119954819D01*
X116200000Y-119954819D02*
X115961905Y-119954819D01*
X117485714Y-119954819D02*
X116914286Y-119954819D01*
X117200000Y-119954819D02*
X117200000Y-118954819D01*
X117200000Y-118954819D02*
X117104762Y-119097676D01*
X117104762Y-119097676D02*
X117009524Y-119192914D01*
X117009524Y-119192914D02*
X116914286Y-119240533D01*
X61954819Y-126738094D02*
X60954819Y-126738094D01*
X60954819Y-126738094D02*
X60954819Y-126499999D01*
X60954819Y-126499999D02*
X61002438Y-126357142D01*
X61002438Y-126357142D02*
X61097676Y-126261904D01*
X61097676Y-126261904D02*
X61192914Y-126214285D01*
X61192914Y-126214285D02*
X61383390Y-126166666D01*
X61383390Y-126166666D02*
X61526247Y-126166666D01*
X61526247Y-126166666D02*
X61716723Y-126214285D01*
X61716723Y-126214285D02*
X61811961Y-126261904D01*
X61811961Y-126261904D02*
X61907200Y-126357142D01*
X61907200Y-126357142D02*
X61954819Y-126499999D01*
X61954819Y-126499999D02*
X61954819Y-126738094D01*
X61050057Y-125785713D02*
X61002438Y-125738094D01*
X61002438Y-125738094D02*
X60954819Y-125642856D01*
X60954819Y-125642856D02*
X60954819Y-125404761D01*
X60954819Y-125404761D02*
X61002438Y-125309523D01*
X61002438Y-125309523D02*
X61050057Y-125261904D01*
X61050057Y-125261904D02*
X61145295Y-125214285D01*
X61145295Y-125214285D02*
X61240533Y-125214285D01*
X61240533Y-125214285D02*
X61383390Y-125261904D01*
X61383390Y-125261904D02*
X61954819Y-125833332D01*
X61954819Y-125833332D02*
X61954819Y-125214285D01*
X61954819Y-135738094D02*
X60954819Y-135738094D01*
X60954819Y-135738094D02*
X60954819Y-135499999D01*
X60954819Y-135499999D02*
X61002438Y-135357142D01*
X61002438Y-135357142D02*
X61097676Y-135261904D01*
X61097676Y-135261904D02*
X61192914Y-135214285D01*
X61192914Y-135214285D02*
X61383390Y-135166666D01*
X61383390Y-135166666D02*
X61526247Y-135166666D01*
X61526247Y-135166666D02*
X61716723Y-135214285D01*
X61716723Y-135214285D02*
X61811961Y-135261904D01*
X61811961Y-135261904D02*
X61907200Y-135357142D01*
X61907200Y-135357142D02*
X61954819Y-135499999D01*
X61954819Y-135499999D02*
X61954819Y-135738094D01*
X60954819Y-134833332D02*
X60954819Y-134214285D01*
X60954819Y-134214285D02*
X61335771Y-134547618D01*
X61335771Y-134547618D02*
X61335771Y-134404761D01*
X61335771Y-134404761D02*
X61383390Y-134309523D01*
X61383390Y-134309523D02*
X61431009Y-134261904D01*
X61431009Y-134261904D02*
X61526247Y-134214285D01*
X61526247Y-134214285D02*
X61764342Y-134214285D01*
X61764342Y-134214285D02*
X61859580Y-134261904D01*
X61859580Y-134261904D02*
X61907200Y-134309523D01*
X61907200Y-134309523D02*
X61954819Y-134404761D01*
X61954819Y-134404761D02*
X61954819Y-134690475D01*
X61954819Y-134690475D02*
X61907200Y-134785713D01*
X61907200Y-134785713D02*
X61859580Y-134833332D01*
X65454819Y-126738094D02*
X64454819Y-126738094D01*
X64454819Y-126738094D02*
X64454819Y-126499999D01*
X64454819Y-126499999D02*
X64502438Y-126357142D01*
X64502438Y-126357142D02*
X64597676Y-126261904D01*
X64597676Y-126261904D02*
X64692914Y-126214285D01*
X64692914Y-126214285D02*
X64883390Y-126166666D01*
X64883390Y-126166666D02*
X65026247Y-126166666D01*
X65026247Y-126166666D02*
X65216723Y-126214285D01*
X65216723Y-126214285D02*
X65311961Y-126261904D01*
X65311961Y-126261904D02*
X65407200Y-126357142D01*
X65407200Y-126357142D02*
X65454819Y-126499999D01*
X65454819Y-126499999D02*
X65454819Y-126738094D01*
X64788152Y-125309523D02*
X65454819Y-125309523D01*
X64407200Y-125547618D02*
X65121485Y-125785713D01*
X65121485Y-125785713D02*
X65121485Y-125166666D01*
X65454819Y-135738094D02*
X64454819Y-135738094D01*
X64454819Y-135738094D02*
X64454819Y-135499999D01*
X64454819Y-135499999D02*
X64502438Y-135357142D01*
X64502438Y-135357142D02*
X64597676Y-135261904D01*
X64597676Y-135261904D02*
X64692914Y-135214285D01*
X64692914Y-135214285D02*
X64883390Y-135166666D01*
X64883390Y-135166666D02*
X65026247Y-135166666D01*
X65026247Y-135166666D02*
X65216723Y-135214285D01*
X65216723Y-135214285D02*
X65311961Y-135261904D01*
X65311961Y-135261904D02*
X65407200Y-135357142D01*
X65407200Y-135357142D02*
X65454819Y-135499999D01*
X65454819Y-135499999D02*
X65454819Y-135738094D01*
X64454819Y-134261904D02*
X64454819Y-134738094D01*
X64454819Y-134738094D02*
X64931009Y-134785713D01*
X64931009Y-134785713D02*
X64883390Y-134738094D01*
X64883390Y-134738094D02*
X64835771Y-134642856D01*
X64835771Y-134642856D02*
X64835771Y-134404761D01*
X64835771Y-134404761D02*
X64883390Y-134309523D01*
X64883390Y-134309523D02*
X64931009Y-134261904D01*
X64931009Y-134261904D02*
X65026247Y-134214285D01*
X65026247Y-134214285D02*
X65264342Y-134214285D01*
X65264342Y-134214285D02*
X65359580Y-134261904D01*
X65359580Y-134261904D02*
X65407200Y-134309523D01*
X65407200Y-134309523D02*
X65454819Y-134404761D01*
X65454819Y-134404761D02*
X65454819Y-134642856D01*
X65454819Y-134642856D02*
X65407200Y-134738094D01*
X65407200Y-134738094D02*
X65359580Y-134785713D01*
X68954819Y-126738094D02*
X67954819Y-126738094D01*
X67954819Y-126738094D02*
X67954819Y-126499999D01*
X67954819Y-126499999D02*
X68002438Y-126357142D01*
X68002438Y-126357142D02*
X68097676Y-126261904D01*
X68097676Y-126261904D02*
X68192914Y-126214285D01*
X68192914Y-126214285D02*
X68383390Y-126166666D01*
X68383390Y-126166666D02*
X68526247Y-126166666D01*
X68526247Y-126166666D02*
X68716723Y-126214285D01*
X68716723Y-126214285D02*
X68811961Y-126261904D01*
X68811961Y-126261904D02*
X68907200Y-126357142D01*
X68907200Y-126357142D02*
X68954819Y-126499999D01*
X68954819Y-126499999D02*
X68954819Y-126738094D01*
X67954819Y-125309523D02*
X67954819Y-125499999D01*
X67954819Y-125499999D02*
X68002438Y-125595237D01*
X68002438Y-125595237D02*
X68050057Y-125642856D01*
X68050057Y-125642856D02*
X68192914Y-125738094D01*
X68192914Y-125738094D02*
X68383390Y-125785713D01*
X68383390Y-125785713D02*
X68764342Y-125785713D01*
X68764342Y-125785713D02*
X68859580Y-125738094D01*
X68859580Y-125738094D02*
X68907200Y-125690475D01*
X68907200Y-125690475D02*
X68954819Y-125595237D01*
X68954819Y-125595237D02*
X68954819Y-125404761D01*
X68954819Y-125404761D02*
X68907200Y-125309523D01*
X68907200Y-125309523D02*
X68859580Y-125261904D01*
X68859580Y-125261904D02*
X68764342Y-125214285D01*
X68764342Y-125214285D02*
X68526247Y-125214285D01*
X68526247Y-125214285D02*
X68431009Y-125261904D01*
X68431009Y-125261904D02*
X68383390Y-125309523D01*
X68383390Y-125309523D02*
X68335771Y-125404761D01*
X68335771Y-125404761D02*
X68335771Y-125595237D01*
X68335771Y-125595237D02*
X68383390Y-125690475D01*
X68383390Y-125690475D02*
X68431009Y-125738094D01*
X68431009Y-125738094D02*
X68526247Y-125785713D01*
X68954819Y-135738094D02*
X67954819Y-135738094D01*
X67954819Y-135738094D02*
X67954819Y-135499999D01*
X67954819Y-135499999D02*
X68002438Y-135357142D01*
X68002438Y-135357142D02*
X68097676Y-135261904D01*
X68097676Y-135261904D02*
X68192914Y-135214285D01*
X68192914Y-135214285D02*
X68383390Y-135166666D01*
X68383390Y-135166666D02*
X68526247Y-135166666D01*
X68526247Y-135166666D02*
X68716723Y-135214285D01*
X68716723Y-135214285D02*
X68811961Y-135261904D01*
X68811961Y-135261904D02*
X68907200Y-135357142D01*
X68907200Y-135357142D02*
X68954819Y-135499999D01*
X68954819Y-135499999D02*
X68954819Y-135738094D01*
X67954819Y-134833332D02*
X67954819Y-134166666D01*
X67954819Y-134166666D02*
X68954819Y-134595237D01*
X72454819Y-126738094D02*
X71454819Y-126738094D01*
X71454819Y-126738094D02*
X71454819Y-126499999D01*
X71454819Y-126499999D02*
X71502438Y-126357142D01*
X71502438Y-126357142D02*
X71597676Y-126261904D01*
X71597676Y-126261904D02*
X71692914Y-126214285D01*
X71692914Y-126214285D02*
X71883390Y-126166666D01*
X71883390Y-126166666D02*
X72026247Y-126166666D01*
X72026247Y-126166666D02*
X72216723Y-126214285D01*
X72216723Y-126214285D02*
X72311961Y-126261904D01*
X72311961Y-126261904D02*
X72407200Y-126357142D01*
X72407200Y-126357142D02*
X72454819Y-126499999D01*
X72454819Y-126499999D02*
X72454819Y-126738094D01*
X71883390Y-125595237D02*
X71835771Y-125690475D01*
X71835771Y-125690475D02*
X71788152Y-125738094D01*
X71788152Y-125738094D02*
X71692914Y-125785713D01*
X71692914Y-125785713D02*
X71645295Y-125785713D01*
X71645295Y-125785713D02*
X71550057Y-125738094D01*
X71550057Y-125738094D02*
X71502438Y-125690475D01*
X71502438Y-125690475D02*
X71454819Y-125595237D01*
X71454819Y-125595237D02*
X71454819Y-125404761D01*
X71454819Y-125404761D02*
X71502438Y-125309523D01*
X71502438Y-125309523D02*
X71550057Y-125261904D01*
X71550057Y-125261904D02*
X71645295Y-125214285D01*
X71645295Y-125214285D02*
X71692914Y-125214285D01*
X71692914Y-125214285D02*
X71788152Y-125261904D01*
X71788152Y-125261904D02*
X71835771Y-125309523D01*
X71835771Y-125309523D02*
X71883390Y-125404761D01*
X71883390Y-125404761D02*
X71883390Y-125595237D01*
X71883390Y-125595237D02*
X71931009Y-125690475D01*
X71931009Y-125690475D02*
X71978628Y-125738094D01*
X71978628Y-125738094D02*
X72073866Y-125785713D01*
X72073866Y-125785713D02*
X72264342Y-125785713D01*
X72264342Y-125785713D02*
X72359580Y-125738094D01*
X72359580Y-125738094D02*
X72407200Y-125690475D01*
X72407200Y-125690475D02*
X72454819Y-125595237D01*
X72454819Y-125595237D02*
X72454819Y-125404761D01*
X72454819Y-125404761D02*
X72407200Y-125309523D01*
X72407200Y-125309523D02*
X72359580Y-125261904D01*
X72359580Y-125261904D02*
X72264342Y-125214285D01*
X72264342Y-125214285D02*
X72073866Y-125214285D01*
X72073866Y-125214285D02*
X71978628Y-125261904D01*
X71978628Y-125261904D02*
X71931009Y-125309523D01*
X71931009Y-125309523D02*
X71883390Y-125404761D01*
X72454819Y-135738094D02*
X71454819Y-135738094D01*
X71454819Y-135738094D02*
X71454819Y-135499999D01*
X71454819Y-135499999D02*
X71502438Y-135357142D01*
X71502438Y-135357142D02*
X71597676Y-135261904D01*
X71597676Y-135261904D02*
X71692914Y-135214285D01*
X71692914Y-135214285D02*
X71883390Y-135166666D01*
X71883390Y-135166666D02*
X72026247Y-135166666D01*
X72026247Y-135166666D02*
X72216723Y-135214285D01*
X72216723Y-135214285D02*
X72311961Y-135261904D01*
X72311961Y-135261904D02*
X72407200Y-135357142D01*
X72407200Y-135357142D02*
X72454819Y-135499999D01*
X72454819Y-135499999D02*
X72454819Y-135738094D01*
X72454819Y-134690475D02*
X72454819Y-134499999D01*
X72454819Y-134499999D02*
X72407200Y-134404761D01*
X72407200Y-134404761D02*
X72359580Y-134357142D01*
X72359580Y-134357142D02*
X72216723Y-134261904D01*
X72216723Y-134261904D02*
X72026247Y-134214285D01*
X72026247Y-134214285D02*
X71645295Y-134214285D01*
X71645295Y-134214285D02*
X71550057Y-134261904D01*
X71550057Y-134261904D02*
X71502438Y-134309523D01*
X71502438Y-134309523D02*
X71454819Y-134404761D01*
X71454819Y-134404761D02*
X71454819Y-134595237D01*
X71454819Y-134595237D02*
X71502438Y-134690475D01*
X71502438Y-134690475D02*
X71550057Y-134738094D01*
X71550057Y-134738094D02*
X71645295Y-134785713D01*
X71645295Y-134785713D02*
X71883390Y-134785713D01*
X71883390Y-134785713D02*
X71978628Y-134738094D01*
X71978628Y-134738094D02*
X72026247Y-134690475D01*
X72026247Y-134690475D02*
X72073866Y-134595237D01*
X72073866Y-134595237D02*
X72073866Y-134404761D01*
X72073866Y-134404761D02*
X72026247Y-134309523D01*
X72026247Y-134309523D02*
X71978628Y-134261904D01*
X71978628Y-134261904D02*
X71883390Y-134214285D01*
X103583333Y-133204819D02*
X103250000Y-132728628D01*
X103011905Y-133204819D02*
X103011905Y-132204819D01*
X103011905Y-132204819D02*
X103392857Y-132204819D01*
X103392857Y-132204819D02*
X103488095Y-132252438D01*
X103488095Y-132252438D02*
X103535714Y-132300057D01*
X103535714Y-132300057D02*
X103583333Y-132395295D01*
X103583333Y-132395295D02*
X103583333Y-132538152D01*
X103583333Y-132538152D02*
X103535714Y-132633390D01*
X103535714Y-132633390D02*
X103488095Y-132681009D01*
X103488095Y-132681009D02*
X103392857Y-132728628D01*
X103392857Y-132728628D02*
X103011905Y-132728628D01*
X103916667Y-132204819D02*
X104535714Y-132204819D01*
X104535714Y-132204819D02*
X104202381Y-132585771D01*
X104202381Y-132585771D02*
X104345238Y-132585771D01*
X104345238Y-132585771D02*
X104440476Y-132633390D01*
X104440476Y-132633390D02*
X104488095Y-132681009D01*
X104488095Y-132681009D02*
X104535714Y-132776247D01*
X104535714Y-132776247D02*
X104535714Y-133014342D01*
X104535714Y-133014342D02*
X104488095Y-133109580D01*
X104488095Y-133109580D02*
X104440476Y-133157200D01*
X104440476Y-133157200D02*
X104345238Y-133204819D01*
X104345238Y-133204819D02*
X104059524Y-133204819D01*
X104059524Y-133204819D02*
X103964286Y-133157200D01*
X103964286Y-133157200D02*
X103916667Y-133109580D01*
X103583333Y-128704819D02*
X103250000Y-128228628D01*
X103011905Y-128704819D02*
X103011905Y-127704819D01*
X103011905Y-127704819D02*
X103392857Y-127704819D01*
X103392857Y-127704819D02*
X103488095Y-127752438D01*
X103488095Y-127752438D02*
X103535714Y-127800057D01*
X103535714Y-127800057D02*
X103583333Y-127895295D01*
X103583333Y-127895295D02*
X103583333Y-128038152D01*
X103583333Y-128038152D02*
X103535714Y-128133390D01*
X103535714Y-128133390D02*
X103488095Y-128181009D01*
X103488095Y-128181009D02*
X103392857Y-128228628D01*
X103392857Y-128228628D02*
X103011905Y-128228628D01*
X104440476Y-127704819D02*
X104250000Y-127704819D01*
X104250000Y-127704819D02*
X104154762Y-127752438D01*
X104154762Y-127752438D02*
X104107143Y-127800057D01*
X104107143Y-127800057D02*
X104011905Y-127942914D01*
X104011905Y-127942914D02*
X103964286Y-128133390D01*
X103964286Y-128133390D02*
X103964286Y-128514342D01*
X103964286Y-128514342D02*
X104011905Y-128609580D01*
X104011905Y-128609580D02*
X104059524Y-128657200D01*
X104059524Y-128657200D02*
X104154762Y-128704819D01*
X104154762Y-128704819D02*
X104345238Y-128704819D01*
X104345238Y-128704819D02*
X104440476Y-128657200D01*
X104440476Y-128657200D02*
X104488095Y-128609580D01*
X104488095Y-128609580D02*
X104535714Y-128514342D01*
X104535714Y-128514342D02*
X104535714Y-128276247D01*
X104535714Y-128276247D02*
X104488095Y-128181009D01*
X104488095Y-128181009D02*
X104440476Y-128133390D01*
X104440476Y-128133390D02*
X104345238Y-128085771D01*
X104345238Y-128085771D02*
X104154762Y-128085771D01*
X104154762Y-128085771D02*
X104059524Y-128133390D01*
X104059524Y-128133390D02*
X104011905Y-128181009D01*
X104011905Y-128181009D02*
X103964286Y-128276247D01*
X78333333Y-124384819D02*
X78000000Y-123908628D01*
X77761905Y-124384819D02*
X77761905Y-123384819D01*
X77761905Y-123384819D02*
X78142857Y-123384819D01*
X78142857Y-123384819D02*
X78238095Y-123432438D01*
X78238095Y-123432438D02*
X78285714Y-123480057D01*
X78285714Y-123480057D02*
X78333333Y-123575295D01*
X78333333Y-123575295D02*
X78333333Y-123718152D01*
X78333333Y-123718152D02*
X78285714Y-123813390D01*
X78285714Y-123813390D02*
X78238095Y-123861009D01*
X78238095Y-123861009D02*
X78142857Y-123908628D01*
X78142857Y-123908628D02*
X77761905Y-123908628D01*
X78809524Y-124384819D02*
X79000000Y-124384819D01*
X79000000Y-124384819D02*
X79095238Y-124337200D01*
X79095238Y-124337200D02*
X79142857Y-124289580D01*
X79142857Y-124289580D02*
X79238095Y-124146723D01*
X79238095Y-124146723D02*
X79285714Y-123956247D01*
X79285714Y-123956247D02*
X79285714Y-123575295D01*
X79285714Y-123575295D02*
X79238095Y-123480057D01*
X79238095Y-123480057D02*
X79190476Y-123432438D01*
X79190476Y-123432438D02*
X79095238Y-123384819D01*
X79095238Y-123384819D02*
X78904762Y-123384819D01*
X78904762Y-123384819D02*
X78809524Y-123432438D01*
X78809524Y-123432438D02*
X78761905Y-123480057D01*
X78761905Y-123480057D02*
X78714286Y-123575295D01*
X78714286Y-123575295D02*
X78714286Y-123813390D01*
X78714286Y-123813390D02*
X78761905Y-123908628D01*
X78761905Y-123908628D02*
X78809524Y-123956247D01*
X78809524Y-123956247D02*
X78904762Y-124003866D01*
X78904762Y-124003866D02*
X79095238Y-124003866D01*
X79095238Y-124003866D02*
X79190476Y-123956247D01*
X79190476Y-123956247D02*
X79238095Y-123908628D01*
X79238095Y-123908628D02*
X79285714Y-123813390D01*
X77857142Y-113524819D02*
X77523809Y-113048628D01*
X77285714Y-113524819D02*
X77285714Y-112524819D01*
X77285714Y-112524819D02*
X77666666Y-112524819D01*
X77666666Y-112524819D02*
X77761904Y-112572438D01*
X77761904Y-112572438D02*
X77809523Y-112620057D01*
X77809523Y-112620057D02*
X77857142Y-112715295D01*
X77857142Y-112715295D02*
X77857142Y-112858152D01*
X77857142Y-112858152D02*
X77809523Y-112953390D01*
X77809523Y-112953390D02*
X77761904Y-113001009D01*
X77761904Y-113001009D02*
X77666666Y-113048628D01*
X77666666Y-113048628D02*
X77285714Y-113048628D01*
X78809523Y-113524819D02*
X78238095Y-113524819D01*
X78523809Y-113524819D02*
X78523809Y-112524819D01*
X78523809Y-112524819D02*
X78428571Y-112667676D01*
X78428571Y-112667676D02*
X78333333Y-112762914D01*
X78333333Y-112762914D02*
X78238095Y-112810533D01*
X79190476Y-112620057D02*
X79238095Y-112572438D01*
X79238095Y-112572438D02*
X79333333Y-112524819D01*
X79333333Y-112524819D02*
X79571428Y-112524819D01*
X79571428Y-112524819D02*
X79666666Y-112572438D01*
X79666666Y-112572438D02*
X79714285Y-112620057D01*
X79714285Y-112620057D02*
X79761904Y-112715295D01*
X79761904Y-112715295D02*
X79761904Y-112810533D01*
X79761904Y-112810533D02*
X79714285Y-112953390D01*
X79714285Y-112953390D02*
X79142857Y-113524819D01*
X79142857Y-113524819D02*
X79761904Y-113524819D01*
X110457142Y-120024819D02*
X110123809Y-119548628D01*
X109885714Y-120024819D02*
X109885714Y-119024819D01*
X109885714Y-119024819D02*
X110266666Y-119024819D01*
X110266666Y-119024819D02*
X110361904Y-119072438D01*
X110361904Y-119072438D02*
X110409523Y-119120057D01*
X110409523Y-119120057D02*
X110457142Y-119215295D01*
X110457142Y-119215295D02*
X110457142Y-119358152D01*
X110457142Y-119358152D02*
X110409523Y-119453390D01*
X110409523Y-119453390D02*
X110361904Y-119501009D01*
X110361904Y-119501009D02*
X110266666Y-119548628D01*
X110266666Y-119548628D02*
X109885714Y-119548628D01*
X111409523Y-120024819D02*
X110838095Y-120024819D01*
X111123809Y-120024819D02*
X111123809Y-119024819D01*
X111123809Y-119024819D02*
X111028571Y-119167676D01*
X111028571Y-119167676D02*
X110933333Y-119262914D01*
X110933333Y-119262914D02*
X110838095Y-119310533D01*
X112314285Y-119024819D02*
X111838095Y-119024819D01*
X111838095Y-119024819D02*
X111790476Y-119501009D01*
X111790476Y-119501009D02*
X111838095Y-119453390D01*
X111838095Y-119453390D02*
X111933333Y-119405771D01*
X111933333Y-119405771D02*
X112171428Y-119405771D01*
X112171428Y-119405771D02*
X112266666Y-119453390D01*
X112266666Y-119453390D02*
X112314285Y-119501009D01*
X112314285Y-119501009D02*
X112361904Y-119596247D01*
X112361904Y-119596247D02*
X112361904Y-119834342D01*
X112361904Y-119834342D02*
X112314285Y-119929580D01*
X112314285Y-119929580D02*
X112266666Y-119977200D01*
X112266666Y-119977200D02*
X112171428Y-120024819D01*
X112171428Y-120024819D02*
X111933333Y-120024819D01*
X111933333Y-120024819D02*
X111838095Y-119977200D01*
X111838095Y-119977200D02*
X111790476Y-119929580D01*
X75924819Y-143842857D02*
X75448628Y-144176190D01*
X75924819Y-144414285D02*
X74924819Y-144414285D01*
X74924819Y-144414285D02*
X74924819Y-144033333D01*
X74924819Y-144033333D02*
X74972438Y-143938095D01*
X74972438Y-143938095D02*
X75020057Y-143890476D01*
X75020057Y-143890476D02*
X75115295Y-143842857D01*
X75115295Y-143842857D02*
X75258152Y-143842857D01*
X75258152Y-143842857D02*
X75353390Y-143890476D01*
X75353390Y-143890476D02*
X75401009Y-143938095D01*
X75401009Y-143938095D02*
X75448628Y-144033333D01*
X75448628Y-144033333D02*
X75448628Y-144414285D01*
X75924819Y-142890476D02*
X75924819Y-143461904D01*
X75924819Y-143176190D02*
X74924819Y-143176190D01*
X74924819Y-143176190D02*
X75067676Y-143271428D01*
X75067676Y-143271428D02*
X75162914Y-143366666D01*
X75162914Y-143366666D02*
X75210533Y-143461904D01*
X75353390Y-142319047D02*
X75305771Y-142414285D01*
X75305771Y-142414285D02*
X75258152Y-142461904D01*
X75258152Y-142461904D02*
X75162914Y-142509523D01*
X75162914Y-142509523D02*
X75115295Y-142509523D01*
X75115295Y-142509523D02*
X75020057Y-142461904D01*
X75020057Y-142461904D02*
X74972438Y-142414285D01*
X74972438Y-142414285D02*
X74924819Y-142319047D01*
X74924819Y-142319047D02*
X74924819Y-142128571D01*
X74924819Y-142128571D02*
X74972438Y-142033333D01*
X74972438Y-142033333D02*
X75020057Y-141985714D01*
X75020057Y-141985714D02*
X75115295Y-141938095D01*
X75115295Y-141938095D02*
X75162914Y-141938095D01*
X75162914Y-141938095D02*
X75258152Y-141985714D01*
X75258152Y-141985714D02*
X75305771Y-142033333D01*
X75305771Y-142033333D02*
X75353390Y-142128571D01*
X75353390Y-142128571D02*
X75353390Y-142319047D01*
X75353390Y-142319047D02*
X75401009Y-142414285D01*
X75401009Y-142414285D02*
X75448628Y-142461904D01*
X75448628Y-142461904D02*
X75543866Y-142509523D01*
X75543866Y-142509523D02*
X75734342Y-142509523D01*
X75734342Y-142509523D02*
X75829580Y-142461904D01*
X75829580Y-142461904D02*
X75877200Y-142414285D01*
X75877200Y-142414285D02*
X75924819Y-142319047D01*
X75924819Y-142319047D02*
X75924819Y-142128571D01*
X75924819Y-142128571D02*
X75877200Y-142033333D01*
X75877200Y-142033333D02*
X75829580Y-141985714D01*
X75829580Y-141985714D02*
X75734342Y-141938095D01*
X75734342Y-141938095D02*
X75543866Y-141938095D01*
X75543866Y-141938095D02*
X75448628Y-141985714D01*
X75448628Y-141985714D02*
X75401009Y-142033333D01*
X75401009Y-142033333D02*
X75353390Y-142128571D01*
X78824819Y-143842857D02*
X78348628Y-144176190D01*
X78824819Y-144414285D02*
X77824819Y-144414285D01*
X77824819Y-144414285D02*
X77824819Y-144033333D01*
X77824819Y-144033333D02*
X77872438Y-143938095D01*
X77872438Y-143938095D02*
X77920057Y-143890476D01*
X77920057Y-143890476D02*
X78015295Y-143842857D01*
X78015295Y-143842857D02*
X78158152Y-143842857D01*
X78158152Y-143842857D02*
X78253390Y-143890476D01*
X78253390Y-143890476D02*
X78301009Y-143938095D01*
X78301009Y-143938095D02*
X78348628Y-144033333D01*
X78348628Y-144033333D02*
X78348628Y-144414285D01*
X78824819Y-142890476D02*
X78824819Y-143461904D01*
X78824819Y-143176190D02*
X77824819Y-143176190D01*
X77824819Y-143176190D02*
X77967676Y-143271428D01*
X77967676Y-143271428D02*
X78062914Y-143366666D01*
X78062914Y-143366666D02*
X78110533Y-143461904D01*
X78824819Y-142414285D02*
X78824819Y-142223809D01*
X78824819Y-142223809D02*
X78777200Y-142128571D01*
X78777200Y-142128571D02*
X78729580Y-142080952D01*
X78729580Y-142080952D02*
X78586723Y-141985714D01*
X78586723Y-141985714D02*
X78396247Y-141938095D01*
X78396247Y-141938095D02*
X78015295Y-141938095D01*
X78015295Y-141938095D02*
X77920057Y-141985714D01*
X77920057Y-141985714D02*
X77872438Y-142033333D01*
X77872438Y-142033333D02*
X77824819Y-142128571D01*
X77824819Y-142128571D02*
X77824819Y-142319047D01*
X77824819Y-142319047D02*
X77872438Y-142414285D01*
X77872438Y-142414285D02*
X77920057Y-142461904D01*
X77920057Y-142461904D02*
X78015295Y-142509523D01*
X78015295Y-142509523D02*
X78253390Y-142509523D01*
X78253390Y-142509523D02*
X78348628Y-142461904D01*
X78348628Y-142461904D02*
X78396247Y-142414285D01*
X78396247Y-142414285D02*
X78443866Y-142319047D01*
X78443866Y-142319047D02*
X78443866Y-142128571D01*
X78443866Y-142128571D02*
X78396247Y-142033333D01*
X78396247Y-142033333D02*
X78348628Y-141985714D01*
X78348628Y-141985714D02*
X78253390Y-141938095D01*
X75931009Y-119782142D02*
X75978628Y-119639285D01*
X75978628Y-119639285D02*
X76026247Y-119591666D01*
X76026247Y-119591666D02*
X76121485Y-119544047D01*
X76121485Y-119544047D02*
X76264342Y-119544047D01*
X76264342Y-119544047D02*
X76359580Y-119591666D01*
X76359580Y-119591666D02*
X76407200Y-119639285D01*
X76407200Y-119639285D02*
X76454819Y-119734523D01*
X76454819Y-119734523D02*
X76454819Y-120115475D01*
X76454819Y-120115475D02*
X75454819Y-120115475D01*
X75454819Y-120115475D02*
X75454819Y-119782142D01*
X75454819Y-119782142D02*
X75502438Y-119686904D01*
X75502438Y-119686904D02*
X75550057Y-119639285D01*
X75550057Y-119639285D02*
X75645295Y-119591666D01*
X75645295Y-119591666D02*
X75740533Y-119591666D01*
X75740533Y-119591666D02*
X75835771Y-119639285D01*
X75835771Y-119639285D02*
X75883390Y-119686904D01*
X75883390Y-119686904D02*
X75931009Y-119782142D01*
X75931009Y-119782142D02*
X75931009Y-120115475D01*
X75454819Y-118924999D02*
X75454819Y-118734523D01*
X75454819Y-118734523D02*
X75502438Y-118639285D01*
X75502438Y-118639285D02*
X75597676Y-118544047D01*
X75597676Y-118544047D02*
X75788152Y-118496428D01*
X75788152Y-118496428D02*
X76121485Y-118496428D01*
X76121485Y-118496428D02*
X76311961Y-118544047D01*
X76311961Y-118544047D02*
X76407200Y-118639285D01*
X76407200Y-118639285D02*
X76454819Y-118734523D01*
X76454819Y-118734523D02*
X76454819Y-118924999D01*
X76454819Y-118924999D02*
X76407200Y-119020237D01*
X76407200Y-119020237D02*
X76311961Y-119115475D01*
X76311961Y-119115475D02*
X76121485Y-119163094D01*
X76121485Y-119163094D02*
X75788152Y-119163094D01*
X75788152Y-119163094D02*
X75597676Y-119115475D01*
X75597676Y-119115475D02*
X75502438Y-119020237D01*
X75502438Y-119020237D02*
X75454819Y-118924999D01*
X75454819Y-117877380D02*
X75454819Y-117686904D01*
X75454819Y-117686904D02*
X75502438Y-117591666D01*
X75502438Y-117591666D02*
X75597676Y-117496428D01*
X75597676Y-117496428D02*
X75788152Y-117448809D01*
X75788152Y-117448809D02*
X76121485Y-117448809D01*
X76121485Y-117448809D02*
X76311961Y-117496428D01*
X76311961Y-117496428D02*
X76407200Y-117591666D01*
X76407200Y-117591666D02*
X76454819Y-117686904D01*
X76454819Y-117686904D02*
X76454819Y-117877380D01*
X76454819Y-117877380D02*
X76407200Y-117972618D01*
X76407200Y-117972618D02*
X76311961Y-118067856D01*
X76311961Y-118067856D02*
X76121485Y-118115475D01*
X76121485Y-118115475D02*
X75788152Y-118115475D01*
X75788152Y-118115475D02*
X75597676Y-118067856D01*
X75597676Y-118067856D02*
X75502438Y-117972618D01*
X75502438Y-117972618D02*
X75454819Y-117877380D01*
X75454819Y-117163094D02*
X75454819Y-116591666D01*
X76454819Y-116877380D02*
X75454819Y-116877380D01*
X105297618Y-119454819D02*
X104964285Y-118978628D01*
X104726190Y-119454819D02*
X104726190Y-118454819D01*
X104726190Y-118454819D02*
X105107142Y-118454819D01*
X105107142Y-118454819D02*
X105202380Y-118502438D01*
X105202380Y-118502438D02*
X105249999Y-118550057D01*
X105249999Y-118550057D02*
X105297618Y-118645295D01*
X105297618Y-118645295D02*
X105297618Y-118788152D01*
X105297618Y-118788152D02*
X105249999Y-118883390D01*
X105249999Y-118883390D02*
X105202380Y-118931009D01*
X105202380Y-118931009D02*
X105107142Y-118978628D01*
X105107142Y-118978628D02*
X104726190Y-118978628D01*
X105726190Y-118931009D02*
X106059523Y-118931009D01*
X106202380Y-119454819D02*
X105726190Y-119454819D01*
X105726190Y-119454819D02*
X105726190Y-118454819D01*
X105726190Y-118454819D02*
X106202380Y-118454819D01*
X106583333Y-119407200D02*
X106726190Y-119454819D01*
X106726190Y-119454819D02*
X106964285Y-119454819D01*
X106964285Y-119454819D02*
X107059523Y-119407200D01*
X107059523Y-119407200D02*
X107107142Y-119359580D01*
X107107142Y-119359580D02*
X107154761Y-119264342D01*
X107154761Y-119264342D02*
X107154761Y-119169104D01*
X107154761Y-119169104D02*
X107107142Y-119073866D01*
X107107142Y-119073866D02*
X107059523Y-119026247D01*
X107059523Y-119026247D02*
X106964285Y-118978628D01*
X106964285Y-118978628D02*
X106773809Y-118931009D01*
X106773809Y-118931009D02*
X106678571Y-118883390D01*
X106678571Y-118883390D02*
X106630952Y-118835771D01*
X106630952Y-118835771D02*
X106583333Y-118740533D01*
X106583333Y-118740533D02*
X106583333Y-118645295D01*
X106583333Y-118645295D02*
X106630952Y-118550057D01*
X106630952Y-118550057D02*
X106678571Y-118502438D01*
X106678571Y-118502438D02*
X106773809Y-118454819D01*
X106773809Y-118454819D02*
X107011904Y-118454819D01*
X107011904Y-118454819D02*
X107154761Y-118502438D01*
X107583333Y-118931009D02*
X107916666Y-118931009D01*
X108059523Y-119454819D02*
X107583333Y-119454819D01*
X107583333Y-119454819D02*
X107583333Y-118454819D01*
X107583333Y-118454819D02*
X108059523Y-118454819D01*
X108345238Y-118454819D02*
X108916666Y-118454819D01*
X108630952Y-119454819D02*
X108630952Y-118454819D01*
X84023809Y-146907200D02*
X84166666Y-146954819D01*
X84166666Y-146954819D02*
X84404761Y-146954819D01*
X84404761Y-146954819D02*
X84499999Y-146907200D01*
X84499999Y-146907200D02*
X84547618Y-146859580D01*
X84547618Y-146859580D02*
X84595237Y-146764342D01*
X84595237Y-146764342D02*
X84595237Y-146669104D01*
X84595237Y-146669104D02*
X84547618Y-146573866D01*
X84547618Y-146573866D02*
X84499999Y-146526247D01*
X84499999Y-146526247D02*
X84404761Y-146478628D01*
X84404761Y-146478628D02*
X84214285Y-146431009D01*
X84214285Y-146431009D02*
X84119047Y-146383390D01*
X84119047Y-146383390D02*
X84071428Y-146335771D01*
X84071428Y-146335771D02*
X84023809Y-146240533D01*
X84023809Y-146240533D02*
X84023809Y-146145295D01*
X84023809Y-146145295D02*
X84071428Y-146050057D01*
X84071428Y-146050057D02*
X84119047Y-146002438D01*
X84119047Y-146002438D02*
X84214285Y-145954819D01*
X84214285Y-145954819D02*
X84452380Y-145954819D01*
X84452380Y-145954819D02*
X84595237Y-146002438D01*
X84880952Y-145954819D02*
X85452380Y-145954819D01*
X85166666Y-146954819D02*
X85166666Y-145954819D01*
X85738095Y-146669104D02*
X86214285Y-146669104D01*
X85642857Y-146954819D02*
X85976190Y-145954819D01*
X85976190Y-145954819D02*
X86309523Y-146954819D01*
X87214285Y-146954819D02*
X86880952Y-146478628D01*
X86642857Y-146954819D02*
X86642857Y-145954819D01*
X86642857Y-145954819D02*
X87023809Y-145954819D01*
X87023809Y-145954819D02*
X87119047Y-146002438D01*
X87119047Y-146002438D02*
X87166666Y-146050057D01*
X87166666Y-146050057D02*
X87214285Y-146145295D01*
X87214285Y-146145295D02*
X87214285Y-146288152D01*
X87214285Y-146288152D02*
X87166666Y-146383390D01*
X87166666Y-146383390D02*
X87119047Y-146431009D01*
X87119047Y-146431009D02*
X87023809Y-146478628D01*
X87023809Y-146478628D02*
X86642857Y-146478628D01*
X87500000Y-145954819D02*
X88071428Y-145954819D01*
X87785714Y-146954819D02*
X87785714Y-145954819D01*
X113138095Y-132654819D02*
X113138095Y-133464342D01*
X113138095Y-133464342D02*
X113185714Y-133559580D01*
X113185714Y-133559580D02*
X113233333Y-133607200D01*
X113233333Y-133607200D02*
X113328571Y-133654819D01*
X113328571Y-133654819D02*
X113519047Y-133654819D01*
X113519047Y-133654819D02*
X113614285Y-133607200D01*
X113614285Y-133607200D02*
X113661904Y-133559580D01*
X113661904Y-133559580D02*
X113709523Y-133464342D01*
X113709523Y-133464342D02*
X113709523Y-132654819D01*
X114614285Y-132654819D02*
X114423809Y-132654819D01*
X114423809Y-132654819D02*
X114328571Y-132702438D01*
X114328571Y-132702438D02*
X114280952Y-132750057D01*
X114280952Y-132750057D02*
X114185714Y-132892914D01*
X114185714Y-132892914D02*
X114138095Y-133083390D01*
X114138095Y-133083390D02*
X114138095Y-133464342D01*
X114138095Y-133464342D02*
X114185714Y-133559580D01*
X114185714Y-133559580D02*
X114233333Y-133607200D01*
X114233333Y-133607200D02*
X114328571Y-133654819D01*
X114328571Y-133654819D02*
X114519047Y-133654819D01*
X114519047Y-133654819D02*
X114614285Y-133607200D01*
X114614285Y-133607200D02*
X114661904Y-133559580D01*
X114661904Y-133559580D02*
X114709523Y-133464342D01*
X114709523Y-133464342D02*
X114709523Y-133226247D01*
X114709523Y-133226247D02*
X114661904Y-133131009D01*
X114661904Y-133131009D02*
X114614285Y-133083390D01*
X114614285Y-133083390D02*
X114519047Y-133035771D01*
X114519047Y-133035771D02*
X114328571Y-133035771D01*
X114328571Y-133035771D02*
X114233333Y-133083390D01*
X114233333Y-133083390D02*
X114185714Y-133131009D01*
X114185714Y-133131009D02*
X114138095Y-133226247D01*
X82690476Y-138454819D02*
X82690476Y-137454819D01*
X82690476Y-137454819D02*
X83071428Y-137454819D01*
X83071428Y-137454819D02*
X83166666Y-137502438D01*
X83166666Y-137502438D02*
X83214285Y-137550057D01*
X83214285Y-137550057D02*
X83261904Y-137645295D01*
X83261904Y-137645295D02*
X83261904Y-137788152D01*
X83261904Y-137788152D02*
X83214285Y-137883390D01*
X83214285Y-137883390D02*
X83166666Y-137931009D01*
X83166666Y-137931009D02*
X83071428Y-137978628D01*
X83071428Y-137978628D02*
X82690476Y-137978628D01*
X83880952Y-137454819D02*
X84071428Y-137454819D01*
X84071428Y-137454819D02*
X84166666Y-137502438D01*
X84166666Y-137502438D02*
X84261904Y-137597676D01*
X84261904Y-137597676D02*
X84309523Y-137788152D01*
X84309523Y-137788152D02*
X84309523Y-138121485D01*
X84309523Y-138121485D02*
X84261904Y-138311961D01*
X84261904Y-138311961D02*
X84166666Y-138407200D01*
X84166666Y-138407200D02*
X84071428Y-138454819D01*
X84071428Y-138454819D02*
X83880952Y-138454819D01*
X83880952Y-138454819D02*
X83785714Y-138407200D01*
X83785714Y-138407200D02*
X83690476Y-138311961D01*
X83690476Y-138311961D02*
X83642857Y-138121485D01*
X83642857Y-138121485D02*
X83642857Y-137788152D01*
X83642857Y-137788152D02*
X83690476Y-137597676D01*
X83690476Y-137597676D02*
X83785714Y-137502438D01*
X83785714Y-137502438D02*
X83880952Y-137454819D01*
X84642857Y-137454819D02*
X84880952Y-138454819D01*
X84880952Y-138454819D02*
X85071428Y-137740533D01*
X85071428Y-137740533D02*
X85261904Y-138454819D01*
X85261904Y-138454819D02*
X85500000Y-137454819D01*
X85880952Y-137931009D02*
X86214285Y-137931009D01*
X86357142Y-138454819D02*
X85880952Y-138454819D01*
X85880952Y-138454819D02*
X85880952Y-137454819D01*
X85880952Y-137454819D02*
X86357142Y-137454819D01*
X87357142Y-138454819D02*
X87023809Y-137978628D01*
X86785714Y-138454819D02*
X86785714Y-137454819D01*
X86785714Y-137454819D02*
X87166666Y-137454819D01*
X87166666Y-137454819D02*
X87261904Y-137502438D01*
X87261904Y-137502438D02*
X87309523Y-137550057D01*
X87309523Y-137550057D02*
X87357142Y-137645295D01*
X87357142Y-137645295D02*
X87357142Y-137788152D01*
X87357142Y-137788152D02*
X87309523Y-137883390D01*
X87309523Y-137883390D02*
X87261904Y-137931009D01*
X87261904Y-137931009D02*
X87166666Y-137978628D01*
X87166666Y-137978628D02*
X86785714Y-137978628D01*
X52769642Y-82524819D02*
X52436309Y-82048628D01*
X52198214Y-82524819D02*
X52198214Y-81524819D01*
X52198214Y-81524819D02*
X52579166Y-81524819D01*
X52579166Y-81524819D02*
X52674404Y-81572438D01*
X52674404Y-81572438D02*
X52722023Y-81620057D01*
X52722023Y-81620057D02*
X52769642Y-81715295D01*
X52769642Y-81715295D02*
X52769642Y-81858152D01*
X52769642Y-81858152D02*
X52722023Y-81953390D01*
X52722023Y-81953390D02*
X52674404Y-82001009D01*
X52674404Y-82001009D02*
X52579166Y-82048628D01*
X52579166Y-82048628D02*
X52198214Y-82048628D01*
X53150595Y-81620057D02*
X53198214Y-81572438D01*
X53198214Y-81572438D02*
X53293452Y-81524819D01*
X53293452Y-81524819D02*
X53531547Y-81524819D01*
X53531547Y-81524819D02*
X53626785Y-81572438D01*
X53626785Y-81572438D02*
X53674404Y-81620057D01*
X53674404Y-81620057D02*
X53722023Y-81715295D01*
X53722023Y-81715295D02*
X53722023Y-81810533D01*
X53722023Y-81810533D02*
X53674404Y-81953390D01*
X53674404Y-81953390D02*
X53102976Y-82524819D01*
X53102976Y-82524819D02*
X53722023Y-82524819D01*
X54055357Y-81524819D02*
X54674404Y-81524819D01*
X54674404Y-81524819D02*
X54341071Y-81905771D01*
X54341071Y-81905771D02*
X54483928Y-81905771D01*
X54483928Y-81905771D02*
X54579166Y-81953390D01*
X54579166Y-81953390D02*
X54626785Y-82001009D01*
X54626785Y-82001009D02*
X54674404Y-82096247D01*
X54674404Y-82096247D02*
X54674404Y-82334342D01*
X54674404Y-82334342D02*
X54626785Y-82429580D01*
X54626785Y-82429580D02*
X54579166Y-82477200D01*
X54579166Y-82477200D02*
X54483928Y-82524819D01*
X54483928Y-82524819D02*
X54198214Y-82524819D01*
X54198214Y-82524819D02*
X54102976Y-82477200D01*
X54102976Y-82477200D02*
X54055357Y-82429580D01*
X52944642Y-72884819D02*
X52611309Y-72408628D01*
X52373214Y-72884819D02*
X52373214Y-71884819D01*
X52373214Y-71884819D02*
X52754166Y-71884819D01*
X52754166Y-71884819D02*
X52849404Y-71932438D01*
X52849404Y-71932438D02*
X52897023Y-71980057D01*
X52897023Y-71980057D02*
X52944642Y-72075295D01*
X52944642Y-72075295D02*
X52944642Y-72218152D01*
X52944642Y-72218152D02*
X52897023Y-72313390D01*
X52897023Y-72313390D02*
X52849404Y-72361009D01*
X52849404Y-72361009D02*
X52754166Y-72408628D01*
X52754166Y-72408628D02*
X52373214Y-72408628D01*
X53325595Y-71980057D02*
X53373214Y-71932438D01*
X53373214Y-71932438D02*
X53468452Y-71884819D01*
X53468452Y-71884819D02*
X53706547Y-71884819D01*
X53706547Y-71884819D02*
X53801785Y-71932438D01*
X53801785Y-71932438D02*
X53849404Y-71980057D01*
X53849404Y-71980057D02*
X53897023Y-72075295D01*
X53897023Y-72075295D02*
X53897023Y-72170533D01*
X53897023Y-72170533D02*
X53849404Y-72313390D01*
X53849404Y-72313390D02*
X53277976Y-72884819D01*
X53277976Y-72884819D02*
X53897023Y-72884819D01*
X54277976Y-71980057D02*
X54325595Y-71932438D01*
X54325595Y-71932438D02*
X54420833Y-71884819D01*
X54420833Y-71884819D02*
X54658928Y-71884819D01*
X54658928Y-71884819D02*
X54754166Y-71932438D01*
X54754166Y-71932438D02*
X54801785Y-71980057D01*
X54801785Y-71980057D02*
X54849404Y-72075295D01*
X54849404Y-72075295D02*
X54849404Y-72170533D01*
X54849404Y-72170533D02*
X54801785Y-72313390D01*
X54801785Y-72313390D02*
X54230357Y-72884819D01*
X54230357Y-72884819D02*
X54849404Y-72884819D01*
X60769642Y-82524819D02*
X60436309Y-82048628D01*
X60198214Y-82524819D02*
X60198214Y-81524819D01*
X60198214Y-81524819D02*
X60579166Y-81524819D01*
X60579166Y-81524819D02*
X60674404Y-81572438D01*
X60674404Y-81572438D02*
X60722023Y-81620057D01*
X60722023Y-81620057D02*
X60769642Y-81715295D01*
X60769642Y-81715295D02*
X60769642Y-81858152D01*
X60769642Y-81858152D02*
X60722023Y-81953390D01*
X60722023Y-81953390D02*
X60674404Y-82001009D01*
X60674404Y-82001009D02*
X60579166Y-82048628D01*
X60579166Y-82048628D02*
X60198214Y-82048628D01*
X61150595Y-81620057D02*
X61198214Y-81572438D01*
X61198214Y-81572438D02*
X61293452Y-81524819D01*
X61293452Y-81524819D02*
X61531547Y-81524819D01*
X61531547Y-81524819D02*
X61626785Y-81572438D01*
X61626785Y-81572438D02*
X61674404Y-81620057D01*
X61674404Y-81620057D02*
X61722023Y-81715295D01*
X61722023Y-81715295D02*
X61722023Y-81810533D01*
X61722023Y-81810533D02*
X61674404Y-81953390D01*
X61674404Y-81953390D02*
X61102976Y-82524819D01*
X61102976Y-82524819D02*
X61722023Y-82524819D01*
X62674404Y-82524819D02*
X62102976Y-82524819D01*
X62388690Y-82524819D02*
X62388690Y-81524819D01*
X62388690Y-81524819D02*
X62293452Y-81667676D01*
X62293452Y-81667676D02*
X62198214Y-81762914D01*
X62198214Y-81762914D02*
X62102976Y-81810533D01*
X60944642Y-72884819D02*
X60611309Y-72408628D01*
X60373214Y-72884819D02*
X60373214Y-71884819D01*
X60373214Y-71884819D02*
X60754166Y-71884819D01*
X60754166Y-71884819D02*
X60849404Y-71932438D01*
X60849404Y-71932438D02*
X60897023Y-71980057D01*
X60897023Y-71980057D02*
X60944642Y-72075295D01*
X60944642Y-72075295D02*
X60944642Y-72218152D01*
X60944642Y-72218152D02*
X60897023Y-72313390D01*
X60897023Y-72313390D02*
X60849404Y-72361009D01*
X60849404Y-72361009D02*
X60754166Y-72408628D01*
X60754166Y-72408628D02*
X60373214Y-72408628D01*
X61325595Y-71980057D02*
X61373214Y-71932438D01*
X61373214Y-71932438D02*
X61468452Y-71884819D01*
X61468452Y-71884819D02*
X61706547Y-71884819D01*
X61706547Y-71884819D02*
X61801785Y-71932438D01*
X61801785Y-71932438D02*
X61849404Y-71980057D01*
X61849404Y-71980057D02*
X61897023Y-72075295D01*
X61897023Y-72075295D02*
X61897023Y-72170533D01*
X61897023Y-72170533D02*
X61849404Y-72313390D01*
X61849404Y-72313390D02*
X61277976Y-72884819D01*
X61277976Y-72884819D02*
X61897023Y-72884819D01*
X62516071Y-71884819D02*
X62611309Y-71884819D01*
X62611309Y-71884819D02*
X62706547Y-71932438D01*
X62706547Y-71932438D02*
X62754166Y-71980057D01*
X62754166Y-71980057D02*
X62801785Y-72075295D01*
X62801785Y-72075295D02*
X62849404Y-72265771D01*
X62849404Y-72265771D02*
X62849404Y-72503866D01*
X62849404Y-72503866D02*
X62801785Y-72694342D01*
X62801785Y-72694342D02*
X62754166Y-72789580D01*
X62754166Y-72789580D02*
X62706547Y-72837200D01*
X62706547Y-72837200D02*
X62611309Y-72884819D01*
X62611309Y-72884819D02*
X62516071Y-72884819D01*
X62516071Y-72884819D02*
X62420833Y-72837200D01*
X62420833Y-72837200D02*
X62373214Y-72789580D01*
X62373214Y-72789580D02*
X62325595Y-72694342D01*
X62325595Y-72694342D02*
X62277976Y-72503866D01*
X62277976Y-72503866D02*
X62277976Y-72265771D01*
X62277976Y-72265771D02*
X62325595Y-72075295D01*
X62325595Y-72075295D02*
X62373214Y-71980057D01*
X62373214Y-71980057D02*
X62420833Y-71932438D01*
X62420833Y-71932438D02*
X62516071Y-71884819D01*
X68769642Y-82524819D02*
X68436309Y-82048628D01*
X68198214Y-82524819D02*
X68198214Y-81524819D01*
X68198214Y-81524819D02*
X68579166Y-81524819D01*
X68579166Y-81524819D02*
X68674404Y-81572438D01*
X68674404Y-81572438D02*
X68722023Y-81620057D01*
X68722023Y-81620057D02*
X68769642Y-81715295D01*
X68769642Y-81715295D02*
X68769642Y-81858152D01*
X68769642Y-81858152D02*
X68722023Y-81953390D01*
X68722023Y-81953390D02*
X68674404Y-82001009D01*
X68674404Y-82001009D02*
X68579166Y-82048628D01*
X68579166Y-82048628D02*
X68198214Y-82048628D01*
X69722023Y-82524819D02*
X69150595Y-82524819D01*
X69436309Y-82524819D02*
X69436309Y-81524819D01*
X69436309Y-81524819D02*
X69341071Y-81667676D01*
X69341071Y-81667676D02*
X69245833Y-81762914D01*
X69245833Y-81762914D02*
X69150595Y-81810533D01*
X70055357Y-81524819D02*
X70722023Y-81524819D01*
X70722023Y-81524819D02*
X70293452Y-82524819D01*
X68857142Y-72884819D02*
X68523809Y-72408628D01*
X68285714Y-72884819D02*
X68285714Y-71884819D01*
X68285714Y-71884819D02*
X68666666Y-71884819D01*
X68666666Y-71884819D02*
X68761904Y-71932438D01*
X68761904Y-71932438D02*
X68809523Y-71980057D01*
X68809523Y-71980057D02*
X68857142Y-72075295D01*
X68857142Y-72075295D02*
X68857142Y-72218152D01*
X68857142Y-72218152D02*
X68809523Y-72313390D01*
X68809523Y-72313390D02*
X68761904Y-72361009D01*
X68761904Y-72361009D02*
X68666666Y-72408628D01*
X68666666Y-72408628D02*
X68285714Y-72408628D01*
X69809523Y-72884819D02*
X69238095Y-72884819D01*
X69523809Y-72884819D02*
X69523809Y-71884819D01*
X69523809Y-71884819D02*
X69428571Y-72027676D01*
X69428571Y-72027676D02*
X69333333Y-72122914D01*
X69333333Y-72122914D02*
X69238095Y-72170533D01*
X70666666Y-71884819D02*
X70476190Y-71884819D01*
X70476190Y-71884819D02*
X70380952Y-71932438D01*
X70380952Y-71932438D02*
X70333333Y-71980057D01*
X70333333Y-71980057D02*
X70238095Y-72122914D01*
X70238095Y-72122914D02*
X70190476Y-72313390D01*
X70190476Y-72313390D02*
X70190476Y-72694342D01*
X70190476Y-72694342D02*
X70238095Y-72789580D01*
X70238095Y-72789580D02*
X70285714Y-72837200D01*
X70285714Y-72837200D02*
X70380952Y-72884819D01*
X70380952Y-72884819D02*
X70571428Y-72884819D01*
X70571428Y-72884819D02*
X70666666Y-72837200D01*
X70666666Y-72837200D02*
X70714285Y-72789580D01*
X70714285Y-72789580D02*
X70761904Y-72694342D01*
X70761904Y-72694342D02*
X70761904Y-72456247D01*
X70761904Y-72456247D02*
X70714285Y-72361009D01*
X70714285Y-72361009D02*
X70666666Y-72313390D01*
X70666666Y-72313390D02*
X70571428Y-72265771D01*
X70571428Y-72265771D02*
X70380952Y-72265771D01*
X70380952Y-72265771D02*
X70285714Y-72313390D01*
X70285714Y-72313390D02*
X70238095Y-72361009D01*
X70238095Y-72361009D02*
X70190476Y-72456247D01*
X76769642Y-82524819D02*
X76436309Y-82048628D01*
X76198214Y-82524819D02*
X76198214Y-81524819D01*
X76198214Y-81524819D02*
X76579166Y-81524819D01*
X76579166Y-81524819D02*
X76674404Y-81572438D01*
X76674404Y-81572438D02*
X76722023Y-81620057D01*
X76722023Y-81620057D02*
X76769642Y-81715295D01*
X76769642Y-81715295D02*
X76769642Y-81858152D01*
X76769642Y-81858152D02*
X76722023Y-81953390D01*
X76722023Y-81953390D02*
X76674404Y-82001009D01*
X76674404Y-82001009D02*
X76579166Y-82048628D01*
X76579166Y-82048628D02*
X76198214Y-82048628D01*
X77722023Y-82524819D02*
X77150595Y-82524819D01*
X77436309Y-82524819D02*
X77436309Y-81524819D01*
X77436309Y-81524819D02*
X77341071Y-81667676D01*
X77341071Y-81667676D02*
X77245833Y-81762914D01*
X77245833Y-81762914D02*
X77150595Y-81810533D01*
X78579166Y-81858152D02*
X78579166Y-82524819D01*
X78341071Y-81477200D02*
X78102976Y-82191485D01*
X78102976Y-82191485D02*
X78722023Y-82191485D01*
X76944642Y-72884819D02*
X76611309Y-72408628D01*
X76373214Y-72884819D02*
X76373214Y-71884819D01*
X76373214Y-71884819D02*
X76754166Y-71884819D01*
X76754166Y-71884819D02*
X76849404Y-71932438D01*
X76849404Y-71932438D02*
X76897023Y-71980057D01*
X76897023Y-71980057D02*
X76944642Y-72075295D01*
X76944642Y-72075295D02*
X76944642Y-72218152D01*
X76944642Y-72218152D02*
X76897023Y-72313390D01*
X76897023Y-72313390D02*
X76849404Y-72361009D01*
X76849404Y-72361009D02*
X76754166Y-72408628D01*
X76754166Y-72408628D02*
X76373214Y-72408628D01*
X77897023Y-72884819D02*
X77325595Y-72884819D01*
X77611309Y-72884819D02*
X77611309Y-71884819D01*
X77611309Y-71884819D02*
X77516071Y-72027676D01*
X77516071Y-72027676D02*
X77420833Y-72122914D01*
X77420833Y-72122914D02*
X77325595Y-72170533D01*
X78230357Y-71884819D02*
X78849404Y-71884819D01*
X78849404Y-71884819D02*
X78516071Y-72265771D01*
X78516071Y-72265771D02*
X78658928Y-72265771D01*
X78658928Y-72265771D02*
X78754166Y-72313390D01*
X78754166Y-72313390D02*
X78801785Y-72361009D01*
X78801785Y-72361009D02*
X78849404Y-72456247D01*
X78849404Y-72456247D02*
X78849404Y-72694342D01*
X78849404Y-72694342D02*
X78801785Y-72789580D01*
X78801785Y-72789580D02*
X78754166Y-72837200D01*
X78754166Y-72837200D02*
X78658928Y-72884819D01*
X78658928Y-72884819D02*
X78373214Y-72884819D01*
X78373214Y-72884819D02*
X78277976Y-72837200D01*
X78277976Y-72837200D02*
X78230357Y-72789580D01*
X84769642Y-82524819D02*
X84436309Y-82048628D01*
X84198214Y-82524819D02*
X84198214Y-81524819D01*
X84198214Y-81524819D02*
X84579166Y-81524819D01*
X84579166Y-81524819D02*
X84674404Y-81572438D01*
X84674404Y-81572438D02*
X84722023Y-81620057D01*
X84722023Y-81620057D02*
X84769642Y-81715295D01*
X84769642Y-81715295D02*
X84769642Y-81858152D01*
X84769642Y-81858152D02*
X84722023Y-81953390D01*
X84722023Y-81953390D02*
X84674404Y-82001009D01*
X84674404Y-82001009D02*
X84579166Y-82048628D01*
X84579166Y-82048628D02*
X84198214Y-82048628D01*
X85722023Y-82524819D02*
X85150595Y-82524819D01*
X85436309Y-82524819D02*
X85436309Y-81524819D01*
X85436309Y-81524819D02*
X85341071Y-81667676D01*
X85341071Y-81667676D02*
X85245833Y-81762914D01*
X85245833Y-81762914D02*
X85150595Y-81810533D01*
X86674404Y-82524819D02*
X86102976Y-82524819D01*
X86388690Y-82524819D02*
X86388690Y-81524819D01*
X86388690Y-81524819D02*
X86293452Y-81667676D01*
X86293452Y-81667676D02*
X86198214Y-81762914D01*
X86198214Y-81762914D02*
X86102976Y-81810533D01*
X84944642Y-72884819D02*
X84611309Y-72408628D01*
X84373214Y-72884819D02*
X84373214Y-71884819D01*
X84373214Y-71884819D02*
X84754166Y-71884819D01*
X84754166Y-71884819D02*
X84849404Y-71932438D01*
X84849404Y-71932438D02*
X84897023Y-71980057D01*
X84897023Y-71980057D02*
X84944642Y-72075295D01*
X84944642Y-72075295D02*
X84944642Y-72218152D01*
X84944642Y-72218152D02*
X84897023Y-72313390D01*
X84897023Y-72313390D02*
X84849404Y-72361009D01*
X84849404Y-72361009D02*
X84754166Y-72408628D01*
X84754166Y-72408628D02*
X84373214Y-72408628D01*
X85897023Y-72884819D02*
X85325595Y-72884819D01*
X85611309Y-72884819D02*
X85611309Y-71884819D01*
X85611309Y-71884819D02*
X85516071Y-72027676D01*
X85516071Y-72027676D02*
X85420833Y-72122914D01*
X85420833Y-72122914D02*
X85325595Y-72170533D01*
X86516071Y-71884819D02*
X86611309Y-71884819D01*
X86611309Y-71884819D02*
X86706547Y-71932438D01*
X86706547Y-71932438D02*
X86754166Y-71980057D01*
X86754166Y-71980057D02*
X86801785Y-72075295D01*
X86801785Y-72075295D02*
X86849404Y-72265771D01*
X86849404Y-72265771D02*
X86849404Y-72503866D01*
X86849404Y-72503866D02*
X86801785Y-72694342D01*
X86801785Y-72694342D02*
X86754166Y-72789580D01*
X86754166Y-72789580D02*
X86706547Y-72837200D01*
X86706547Y-72837200D02*
X86611309Y-72884819D01*
X86611309Y-72884819D02*
X86516071Y-72884819D01*
X86516071Y-72884819D02*
X86420833Y-72837200D01*
X86420833Y-72837200D02*
X86373214Y-72789580D01*
X86373214Y-72789580D02*
X86325595Y-72694342D01*
X86325595Y-72694342D02*
X86277976Y-72503866D01*
X86277976Y-72503866D02*
X86277976Y-72265771D01*
X86277976Y-72265771D02*
X86325595Y-72075295D01*
X86325595Y-72075295D02*
X86373214Y-71980057D01*
X86373214Y-71980057D02*
X86420833Y-71932438D01*
X86420833Y-71932438D02*
X86516071Y-71884819D01*
X93245833Y-82524819D02*
X92912500Y-82048628D01*
X92674405Y-82524819D02*
X92674405Y-81524819D01*
X92674405Y-81524819D02*
X93055357Y-81524819D01*
X93055357Y-81524819D02*
X93150595Y-81572438D01*
X93150595Y-81572438D02*
X93198214Y-81620057D01*
X93198214Y-81620057D02*
X93245833Y-81715295D01*
X93245833Y-81715295D02*
X93245833Y-81858152D01*
X93245833Y-81858152D02*
X93198214Y-81953390D01*
X93198214Y-81953390D02*
X93150595Y-82001009D01*
X93150595Y-82001009D02*
X93055357Y-82048628D01*
X93055357Y-82048628D02*
X92674405Y-82048628D01*
X93817262Y-81953390D02*
X93722024Y-81905771D01*
X93722024Y-81905771D02*
X93674405Y-81858152D01*
X93674405Y-81858152D02*
X93626786Y-81762914D01*
X93626786Y-81762914D02*
X93626786Y-81715295D01*
X93626786Y-81715295D02*
X93674405Y-81620057D01*
X93674405Y-81620057D02*
X93722024Y-81572438D01*
X93722024Y-81572438D02*
X93817262Y-81524819D01*
X93817262Y-81524819D02*
X94007738Y-81524819D01*
X94007738Y-81524819D02*
X94102976Y-81572438D01*
X94102976Y-81572438D02*
X94150595Y-81620057D01*
X94150595Y-81620057D02*
X94198214Y-81715295D01*
X94198214Y-81715295D02*
X94198214Y-81762914D01*
X94198214Y-81762914D02*
X94150595Y-81858152D01*
X94150595Y-81858152D02*
X94102976Y-81905771D01*
X94102976Y-81905771D02*
X94007738Y-81953390D01*
X94007738Y-81953390D02*
X93817262Y-81953390D01*
X93817262Y-81953390D02*
X93722024Y-82001009D01*
X93722024Y-82001009D02*
X93674405Y-82048628D01*
X93674405Y-82048628D02*
X93626786Y-82143866D01*
X93626786Y-82143866D02*
X93626786Y-82334342D01*
X93626786Y-82334342D02*
X93674405Y-82429580D01*
X93674405Y-82429580D02*
X93722024Y-82477200D01*
X93722024Y-82477200D02*
X93817262Y-82524819D01*
X93817262Y-82524819D02*
X94007738Y-82524819D01*
X94007738Y-82524819D02*
X94102976Y-82477200D01*
X94102976Y-82477200D02*
X94150595Y-82429580D01*
X94150595Y-82429580D02*
X94198214Y-82334342D01*
X94198214Y-82334342D02*
X94198214Y-82143866D01*
X94198214Y-82143866D02*
X94150595Y-82048628D01*
X94150595Y-82048628D02*
X94102976Y-82001009D01*
X94102976Y-82001009D02*
X94007738Y-81953390D01*
X93420833Y-72884819D02*
X93087500Y-72408628D01*
X92849405Y-72884819D02*
X92849405Y-71884819D01*
X92849405Y-71884819D02*
X93230357Y-71884819D01*
X93230357Y-71884819D02*
X93325595Y-71932438D01*
X93325595Y-71932438D02*
X93373214Y-71980057D01*
X93373214Y-71980057D02*
X93420833Y-72075295D01*
X93420833Y-72075295D02*
X93420833Y-72218152D01*
X93420833Y-72218152D02*
X93373214Y-72313390D01*
X93373214Y-72313390D02*
X93325595Y-72361009D01*
X93325595Y-72361009D02*
X93230357Y-72408628D01*
X93230357Y-72408628D02*
X92849405Y-72408628D01*
X93754167Y-71884819D02*
X94420833Y-71884819D01*
X94420833Y-71884819D02*
X93992262Y-72884819D01*
X101245833Y-82524819D02*
X100912500Y-82048628D01*
X100674405Y-82524819D02*
X100674405Y-81524819D01*
X100674405Y-81524819D02*
X101055357Y-81524819D01*
X101055357Y-81524819D02*
X101150595Y-81572438D01*
X101150595Y-81572438D02*
X101198214Y-81620057D01*
X101198214Y-81620057D02*
X101245833Y-81715295D01*
X101245833Y-81715295D02*
X101245833Y-81858152D01*
X101245833Y-81858152D02*
X101198214Y-81953390D01*
X101198214Y-81953390D02*
X101150595Y-82001009D01*
X101150595Y-82001009D02*
X101055357Y-82048628D01*
X101055357Y-82048628D02*
X100674405Y-82048628D01*
X102150595Y-81524819D02*
X101674405Y-81524819D01*
X101674405Y-81524819D02*
X101626786Y-82001009D01*
X101626786Y-82001009D02*
X101674405Y-81953390D01*
X101674405Y-81953390D02*
X101769643Y-81905771D01*
X101769643Y-81905771D02*
X102007738Y-81905771D01*
X102007738Y-81905771D02*
X102102976Y-81953390D01*
X102102976Y-81953390D02*
X102150595Y-82001009D01*
X102150595Y-82001009D02*
X102198214Y-82096247D01*
X102198214Y-82096247D02*
X102198214Y-82334342D01*
X102198214Y-82334342D02*
X102150595Y-82429580D01*
X102150595Y-82429580D02*
X102102976Y-82477200D01*
X102102976Y-82477200D02*
X102007738Y-82524819D01*
X102007738Y-82524819D02*
X101769643Y-82524819D01*
X101769643Y-82524819D02*
X101674405Y-82477200D01*
X101674405Y-82477200D02*
X101626786Y-82429580D01*
X101420833Y-72884819D02*
X101087500Y-72408628D01*
X100849405Y-72884819D02*
X100849405Y-71884819D01*
X100849405Y-71884819D02*
X101230357Y-71884819D01*
X101230357Y-71884819D02*
X101325595Y-71932438D01*
X101325595Y-71932438D02*
X101373214Y-71980057D01*
X101373214Y-71980057D02*
X101420833Y-72075295D01*
X101420833Y-72075295D02*
X101420833Y-72218152D01*
X101420833Y-72218152D02*
X101373214Y-72313390D01*
X101373214Y-72313390D02*
X101325595Y-72361009D01*
X101325595Y-72361009D02*
X101230357Y-72408628D01*
X101230357Y-72408628D02*
X100849405Y-72408628D01*
X102277976Y-72218152D02*
X102277976Y-72884819D01*
X102039881Y-71837200D02*
X101801786Y-72551485D01*
X101801786Y-72551485D02*
X102420833Y-72551485D01*
X109333333Y-82524819D02*
X109000000Y-82048628D01*
X108761905Y-82524819D02*
X108761905Y-81524819D01*
X108761905Y-81524819D02*
X109142857Y-81524819D01*
X109142857Y-81524819D02*
X109238095Y-81572438D01*
X109238095Y-81572438D02*
X109285714Y-81620057D01*
X109285714Y-81620057D02*
X109333333Y-81715295D01*
X109333333Y-81715295D02*
X109333333Y-81858152D01*
X109333333Y-81858152D02*
X109285714Y-81953390D01*
X109285714Y-81953390D02*
X109238095Y-82001009D01*
X109238095Y-82001009D02*
X109142857Y-82048628D01*
X109142857Y-82048628D02*
X108761905Y-82048628D01*
X109714286Y-81620057D02*
X109761905Y-81572438D01*
X109761905Y-81572438D02*
X109857143Y-81524819D01*
X109857143Y-81524819D02*
X110095238Y-81524819D01*
X110095238Y-81524819D02*
X110190476Y-81572438D01*
X110190476Y-81572438D02*
X110238095Y-81620057D01*
X110238095Y-81620057D02*
X110285714Y-81715295D01*
X110285714Y-81715295D02*
X110285714Y-81810533D01*
X110285714Y-81810533D02*
X110238095Y-81953390D01*
X110238095Y-81953390D02*
X109666667Y-82524819D01*
X109666667Y-82524819D02*
X110285714Y-82524819D01*
X109333333Y-72884819D02*
X109000000Y-72408628D01*
X108761905Y-72884819D02*
X108761905Y-71884819D01*
X108761905Y-71884819D02*
X109142857Y-71884819D01*
X109142857Y-71884819D02*
X109238095Y-71932438D01*
X109238095Y-71932438D02*
X109285714Y-71980057D01*
X109285714Y-71980057D02*
X109333333Y-72075295D01*
X109333333Y-72075295D02*
X109333333Y-72218152D01*
X109333333Y-72218152D02*
X109285714Y-72313390D01*
X109285714Y-72313390D02*
X109238095Y-72361009D01*
X109238095Y-72361009D02*
X109142857Y-72408628D01*
X109142857Y-72408628D02*
X108761905Y-72408628D01*
X110285714Y-72884819D02*
X109714286Y-72884819D01*
X110000000Y-72884819D02*
X110000000Y-71884819D01*
X110000000Y-71884819D02*
X109904762Y-72027676D01*
X109904762Y-72027676D02*
X109809524Y-72122914D01*
X109809524Y-72122914D02*
X109714286Y-72170533D01*
D13*
%TO.C,J1*%
X73420000Y-149150000D02*
X73420000Y-151070000D01*
X73420000Y-154785000D02*
X73420000Y-153080000D01*
X82580000Y-151070000D02*
X82580000Y-149150000D01*
X82580000Y-153080000D02*
X82580000Y-154785000D01*
X82580000Y-154785000D02*
X73420000Y-154785000D01*
%TO.C,U2*%
X102100000Y-135410000D02*
X83700000Y-135410000D01*
X102100000Y-116810000D02*
X102100000Y-115810000D01*
X102100000Y-115810000D02*
X100600000Y-115810000D01*
X83700000Y-135410000D02*
X83700000Y-134710000D01*
X83700000Y-115810000D02*
X85200000Y-115810000D01*
X83700000Y-115810000D02*
X83700000Y-116810000D01*
X102100000Y-135160000D02*
X102100000Y-134660000D01*
X102600000Y-134660000D01*
X102100000Y-135160000D01*
G36*
X102100000Y-135160000D02*
G01*
X102100000Y-134660000D01*
X102600000Y-134660000D01*
X102100000Y-135160000D01*
G37*
%TO.C,U11*%
X45880000Y-132140000D02*
X51121000Y-132140000D01*
X45880000Y-132140000D02*
X45880000Y-111700000D01*
X47720000Y-132140000D02*
X47720000Y-111700000D01*
X51121000Y-132140000D02*
X51121000Y-130464000D01*
X51121000Y-130810000D02*
X54530000Y-130810000D01*
X51121000Y-128615000D02*
X51121000Y-127924000D01*
X51121000Y-128270000D02*
X54515000Y-128270000D01*
X51121000Y-126075000D02*
X51121000Y-125384000D01*
X51121000Y-125730000D02*
X54515000Y-125730000D01*
X45880000Y-123769000D02*
X47720000Y-123769000D01*
X51121000Y-123535000D02*
X51121000Y-122844000D01*
X51121000Y-123190000D02*
X54515000Y-123190000D01*
X51121000Y-120995000D02*
X51121000Y-120304000D01*
X51121000Y-120650000D02*
X54515000Y-120650000D01*
X45880000Y-120070000D02*
X47720000Y-120070000D01*
X51121000Y-118455000D02*
X51121000Y-117764000D01*
X51121000Y-118110000D02*
X54515000Y-118110000D01*
X51121000Y-115915000D02*
X51121000Y-115224000D01*
X51121000Y-115570000D02*
X54515000Y-115570000D01*
X51121000Y-113375000D02*
X51121000Y-111700000D01*
X51121000Y-113030000D02*
X54515000Y-113030000D01*
X45880000Y-111700000D02*
X51121000Y-111700000D01*
%TO.C,C1*%
X106646267Y-130260000D02*
X106353733Y-130260000D01*
X106646267Y-129240000D02*
X106353733Y-129240000D01*
%TO.C,C2*%
X106646267Y-131760000D02*
X106353733Y-131760000D01*
X106646267Y-130740000D02*
X106353733Y-130740000D01*
%TO.C,C3*%
X106353733Y-126240000D02*
X106646267Y-126240000D01*
X106353733Y-127260000D02*
X106646267Y-127260000D01*
%TO.C,C4*%
X116846267Y-124710000D02*
X116553733Y-124710000D01*
X116846267Y-123690000D02*
X116553733Y-123690000D01*
%TO.C,C5*%
X80490000Y-118353733D02*
X80490000Y-118646267D01*
X81510000Y-118353733D02*
X81510000Y-118646267D01*
%TO.C,C6*%
X103490000Y-122646267D02*
X103490000Y-122353733D01*
X104510000Y-122646267D02*
X104510000Y-122353733D01*
%TO.C,C7*%
X116846267Y-123110000D02*
X116553733Y-123110000D01*
X116846267Y-122090000D02*
X116553733Y-122090000D01*
%TO.C,C8*%
X110953733Y-123690000D02*
X111246267Y-123690000D01*
X110953733Y-124710000D02*
X111246267Y-124710000D01*
%TO.C,C9*%
X110953733Y-122090000D02*
X111246267Y-122090000D01*
X110953733Y-123110000D02*
X111246267Y-123110000D01*
%TO.C,C10*%
X59490000Y-118000000D02*
X59490000Y-117000000D01*
X58990000Y-117500000D02*
X59990000Y-117500000D01*
X58804437Y-116760000D02*
X60490000Y-116760000D01*
X58804437Y-116760000D02*
X57740000Y-115695563D01*
X65195563Y-116760000D02*
X63510000Y-116760000D01*
X65195563Y-116760000D02*
X66260000Y-115695563D01*
X57740000Y-115695563D02*
X57740000Y-108240000D01*
X66260000Y-115695563D02*
X66260000Y-108240000D01*
X57740000Y-108240000D02*
X60490000Y-108240000D01*
X66260000Y-108240000D02*
X63510000Y-108240000D01*
%TO.C,C11*%
X68490000Y-118000000D02*
X68490000Y-117000000D01*
X67990000Y-117500000D02*
X68990000Y-117500000D01*
X67804437Y-116760000D02*
X69490000Y-116760000D01*
X67804437Y-116760000D02*
X66740000Y-115695563D01*
X74195563Y-116760000D02*
X72510000Y-116760000D01*
X74195563Y-116760000D02*
X75260000Y-115695563D01*
X66740000Y-115695563D02*
X66740000Y-108240000D01*
X75260000Y-115695563D02*
X75260000Y-108240000D01*
X66740000Y-108240000D02*
X69490000Y-108240000D01*
X75260000Y-108240000D02*
X72510000Y-108240000D01*
%TO.C,D1*%
X118360000Y-121735000D02*
X118360000Y-120265000D01*
X118360000Y-120265000D02*
X115900000Y-120265000D01*
X115900000Y-121735000D02*
X118360000Y-121735000D01*
%TO.C,D2*%
X63150000Y-117990000D02*
X59850000Y-117990000D01*
X63150000Y-117990000D02*
X63150000Y-123500000D01*
X59850000Y-117990000D02*
X59850000Y-123500000D01*
%TO.C,D3*%
X63150000Y-126990000D02*
X59850000Y-126990000D01*
X63150000Y-126990000D02*
X63150000Y-132500000D01*
X59850000Y-126990000D02*
X59850000Y-132500000D01*
%TO.C,D4*%
X66650000Y-117990000D02*
X63350000Y-117990000D01*
X66650000Y-117990000D02*
X66650000Y-123500000D01*
X63350000Y-117990000D02*
X63350000Y-123500000D01*
%TO.C,D5*%
X66650000Y-126990000D02*
X63350000Y-126990000D01*
X66650000Y-126990000D02*
X66650000Y-132500000D01*
X63350000Y-126990000D02*
X63350000Y-132500000D01*
%TO.C,D6*%
X70150000Y-117990000D02*
X66850000Y-117990000D01*
X70150000Y-117990000D02*
X70150000Y-123500000D01*
X66850000Y-117990000D02*
X66850000Y-123500000D01*
%TO.C,D7*%
X70150000Y-126990000D02*
X66850000Y-126990000D01*
X70150000Y-126990000D02*
X70150000Y-132500000D01*
X66850000Y-126990000D02*
X66850000Y-132500000D01*
%TO.C,D8*%
X73650000Y-117990000D02*
X70350000Y-117990000D01*
X73650000Y-117990000D02*
X73650000Y-123500000D01*
X70350000Y-117990000D02*
X70350000Y-123500000D01*
%TO.C,D9*%
X73650000Y-126990000D02*
X70350000Y-126990000D01*
X73650000Y-126990000D02*
X73650000Y-132500000D01*
X70350000Y-126990000D02*
X70350000Y-132500000D01*
%TO.C,R3*%
X106245276Y-132227500D02*
X106754724Y-132227500D01*
X106245276Y-133272500D02*
X106754724Y-133272500D01*
%TO.C,R6*%
X106754724Y-128772500D02*
X106245276Y-128772500D01*
X106754724Y-127727500D02*
X106245276Y-127727500D01*
%TO.C,R9*%
X78754724Y-121977500D02*
X78245276Y-121977500D01*
X78754724Y-123022500D02*
X78245276Y-123022500D01*
%TO.C,R12*%
X78245276Y-115022500D02*
X78754724Y-115022500D01*
X78245276Y-113977500D02*
X78754724Y-113977500D01*
%TO.C,R15*%
X110845276Y-120477500D02*
X111354724Y-120477500D01*
X110845276Y-121522500D02*
X111354724Y-121522500D01*
%TO.C,R18*%
X76377500Y-143454724D02*
X76377500Y-142945276D01*
X77422500Y-143454724D02*
X77422500Y-142945276D01*
%TO.C,R19*%
X79277500Y-143454724D02*
X79277500Y-142945276D01*
X80322500Y-143454724D02*
X80322500Y-142945276D01*
D14*
%TO.C,BOOT*%
X79950000Y-116500000D02*
X79720000Y-116500000D01*
X79950000Y-116500000D02*
X79950000Y-120500000D01*
X77050000Y-116500000D02*
X77280000Y-116500000D01*
X79950000Y-120500000D02*
X79720000Y-120500000D01*
X77280000Y-120500000D02*
X77050000Y-120500000D01*
X77050000Y-120500000D02*
X77050000Y-116500000D01*
%TO.C,RESET*%
X107950000Y-120500000D02*
X107950000Y-124500000D01*
X107720000Y-120500000D02*
X107950000Y-120500000D01*
X105050000Y-120500000D02*
X105280000Y-120500000D01*
X107950000Y-124500000D02*
X107720000Y-124500000D01*
X105050000Y-124500000D02*
X105050000Y-120500000D01*
X105050000Y-124500000D02*
X105280000Y-124500000D01*
%TO.C,START*%
X87450000Y-148000000D02*
X87220000Y-148000000D01*
X87450000Y-148000000D02*
X87450000Y-152000000D01*
X84550000Y-148000000D02*
X84780000Y-148000000D01*
X87450000Y-152000000D02*
X87220000Y-152000000D01*
X84780000Y-152000000D02*
X84550000Y-152000000D01*
X84550000Y-152000000D02*
X84550000Y-148000000D01*
D13*
%TO.C,U6*%
X115750000Y-132110000D02*
X111990000Y-132110000D01*
X115750000Y-125290000D02*
X111990000Y-125290000D01*
X111990000Y-132110000D02*
X111990000Y-130850000D01*
X111990000Y-125290000D02*
X111990000Y-126550000D01*
X117270000Y-132340000D02*
X116790000Y-132340000D01*
X117030000Y-132010000D01*
X117270000Y-132340000D01*
G36*
X117270000Y-132340000D02*
G01*
X116790000Y-132340000D01*
X117030000Y-132010000D01*
X117270000Y-132340000D01*
G37*
D14*
%TO.C,POWER*%
X88700000Y-144875000D02*
X81300000Y-144875000D01*
X88700000Y-139125000D02*
X88700000Y-144875000D01*
X81300000Y-144875000D02*
X81300000Y-139125000D01*
X81300000Y-139125000D02*
X88700000Y-139125000D01*
D11*
X80660000Y-141475000D02*
G75*
G02*
X80460000Y-141475000I-100000J0D01*
G01*
X80460000Y-141475000D02*
G75*
G02*
X80660000Y-141475000I100000J0D01*
G01*
D13*
%TO.C,R23*%
X53157776Y-82977500D02*
X53667224Y-82977500D01*
X53157776Y-84022500D02*
X53667224Y-84022500D01*
%TO.C,R22*%
X53842224Y-71522500D02*
X53332776Y-71522500D01*
X53842224Y-70477500D02*
X53332776Y-70477500D01*
%TO.C,R21*%
X61157776Y-82977500D02*
X61667224Y-82977500D01*
X61157776Y-84022500D02*
X61667224Y-84022500D01*
%TO.C,R20*%
X61842224Y-71522500D02*
X61332776Y-71522500D01*
X61842224Y-70477500D02*
X61332776Y-70477500D01*
%TO.C,R17*%
X69157776Y-82977500D02*
X69667224Y-82977500D01*
X69157776Y-84022500D02*
X69667224Y-84022500D01*
%TO.C,R16*%
X69754724Y-71522500D02*
X69245276Y-71522500D01*
X69754724Y-70477500D02*
X69245276Y-70477500D01*
%TO.C,R14*%
X77157776Y-82977500D02*
X77667224Y-82977500D01*
X77157776Y-84022500D02*
X77667224Y-84022500D01*
%TO.C,R13*%
X77842224Y-71522500D02*
X77332776Y-71522500D01*
X77842224Y-70477500D02*
X77332776Y-70477500D01*
%TO.C,R11*%
X85157776Y-82977500D02*
X85667224Y-82977500D01*
X85157776Y-84022500D02*
X85667224Y-84022500D01*
%TO.C,R10*%
X85842224Y-71522500D02*
X85332776Y-71522500D01*
X85842224Y-70477500D02*
X85332776Y-70477500D01*
%TO.C,R8*%
X93157776Y-82977500D02*
X93667224Y-82977500D01*
X93157776Y-84022500D02*
X93667224Y-84022500D01*
%TO.C,R7*%
X93842224Y-71522500D02*
X93332776Y-71522500D01*
X93842224Y-70477500D02*
X93332776Y-70477500D01*
%TO.C,R5*%
X101157776Y-82977500D02*
X101667224Y-82977500D01*
X101157776Y-84022500D02*
X101667224Y-84022500D01*
%TO.C,R4*%
X101842224Y-71522500D02*
X101332776Y-71522500D01*
X101842224Y-70477500D02*
X101332776Y-70477500D01*
%TO.C,R2*%
X109245276Y-82977500D02*
X109754724Y-82977500D01*
X109245276Y-84022500D02*
X109754724Y-84022500D01*
%TO.C,R1*%
X109754724Y-71522500D02*
X109245276Y-71522500D01*
X109754724Y-70477500D02*
X109245276Y-70477500D01*
%TD*%
M02*
