%TF.GenerationSoftware,KiCad,Pcbnew,9.0.0*%
%TF.CreationDate,2025-11-25T21:07:28+01:00*%
%TF.ProjectId,Line follower,4c696e65-2066-46f6-9c6c-6f7765722e6b,rev?*%
%TF.SameCoordinates,Original*%
%TF.FileFunction,Copper,L2,Bot*%
%TF.FilePolarity,Positive*%
%FSLAX46Y46*%
G04 Gerber Fmt 4.6, Leading zero omitted, Abs format (unit mm)*
G04 Created by KiCad (PCBNEW 9.0.0) date 2025-11-25 21:07:28*
%MOMM*%
%LPD*%
G01*
G04 APERTURE LIST*
%TA.AperFunction,ComponentPad*%
%ADD10C,4.400000*%
%TD*%
%TA.AperFunction,HeatsinkPad*%
%ADD11O,1.000000X2.100000*%
%TD*%
%TA.AperFunction,HeatsinkPad*%
%ADD12O,1.000000X1.800000*%
%TD*%
%TA.AperFunction,HeatsinkPad*%
%ADD13C,0.600000*%
%TD*%
%TA.AperFunction,ComponentPad*%
%ADD14R,1.800000X1.800000*%
%TD*%
%TA.AperFunction,ComponentPad*%
%ADD15C,1.800000*%
%TD*%
%TA.AperFunction,ComponentPad*%
%ADD16R,1.575000X1.575000*%
%TD*%
%TA.AperFunction,ComponentPad*%
%ADD17C,1.575000*%
%TD*%
%TA.AperFunction,ComponentPad*%
%ADD18R,1.600000X1.600000*%
%TD*%
%TA.AperFunction,ComponentPad*%
%ADD19C,1.600000*%
%TD*%
%TA.AperFunction,ViaPad*%
%ADD20C,0.600000*%
%TD*%
%TA.AperFunction,Conductor*%
%ADD21C,1.500000*%
%TD*%
%TA.AperFunction,Conductor*%
%ADD22C,0.250000*%
%TD*%
%TA.AperFunction,Conductor*%
%ADD23C,0.500000*%
%TD*%
G04 APERTURE END LIST*
D10*
%TO.P,IN,1,1*%
%TO.N,/MOTORA OUT*%
X93000000Y-150120000D03*
%TD*%
%TO.P,OUT,1,1*%
%TO.N,/MOTORA IN*%
X93000000Y-142000000D03*
%TD*%
%TO.P,OUT,1,1*%
%TO.N,/MOTORB OUT*%
X68860000Y-150120000D03*
%TD*%
%TO.P,IN,1,1*%
%TO.N,/MOTORB IN*%
X68860000Y-142290000D03*
%TD*%
D11*
%TO.P,J1,S1,SHIELD*%
%TO.N,GND*%
X73680000Y-147875000D03*
D12*
X73680000Y-152075000D03*
D11*
X82320000Y-147875000D03*
D12*
X82320000Y-152075000D03*
%TD*%
D13*
%TO.P,U2,41,GND*%
%TO.N,GND*%
X95800000Y-127000000D03*
X95800000Y-125600000D03*
X95100000Y-127700000D03*
X95100000Y-126300000D03*
X95100000Y-124900000D03*
X94400000Y-127000000D03*
X94400000Y-125600000D03*
X93700000Y-127700000D03*
X93700000Y-126300000D03*
X93700000Y-124900000D03*
X93000000Y-127000000D03*
X93000000Y-125600000D03*
%TD*%
D14*
%TO.P,U11,1,SENSE_A*%
%TO.N,GND*%
X55580000Y-130810000D03*
D15*
%TO.P,U11,2,OUT1*%
%TO.N,/MOTORB OUT*%
X50500000Y-129540000D03*
%TO.P,U11,3,OUT2*%
%TO.N,/MOTORB IN*%
X55580000Y-128270000D03*
%TO.P,U11,4,Vs*%
%TO.N,/VCC_5V*%
X50500000Y-127000000D03*
%TO.P,U11,5,IN1*%
%TO.N,/AIN1*%
X55580000Y-125730000D03*
%TO.P,U11,6,EnA*%
%TO.N,/EnA*%
X50500000Y-124460000D03*
%TO.P,U11,7,IN2*%
%TO.N,/AIN2*%
X55580000Y-123190000D03*
%TO.P,U11,8,GND*%
%TO.N,GND*%
X50500000Y-121920000D03*
%TO.P,U11,9,Vss*%
%TO.N,/VCC_3.3V*%
X55580000Y-120650000D03*
%TO.P,U11,10,IN3*%
%TO.N,/BIN1*%
X50500000Y-119380000D03*
%TO.P,U11,11,EnB*%
%TO.N,/EnB*%
X55580000Y-118110000D03*
%TO.P,U11,12,IN4*%
%TO.N,/BIN2*%
X50500000Y-116840000D03*
%TO.P,U11,13,OUT3*%
%TO.N,/MOTORA OUT*%
X55580000Y-115570000D03*
%TO.P,U11,14,OUT4*%
%TO.N,/MOTORA IN*%
X50500000Y-114300000D03*
%TO.P,U11,15,SENSE_B*%
%TO.N,GND*%
X55580000Y-113030000D03*
%TD*%
D16*
%TO.P,POWER,1,1*%
%TO.N,/VCC_5V*%
X83750000Y-141475000D03*
D17*
%TO.P,POWER,2,2*%
%TO.N,GND*%
X86250000Y-141475000D03*
%TD*%
D18*
%TO.P,U10,1*%
%TO.N,/Sensor 8*%
X54540000Y-80000000D03*
D19*
%TO.P,U10,2*%
%TO.N,GND*%
X52000000Y-80000000D03*
%TO.P,U10,3*%
X52000000Y-74500000D03*
%TO.P,U10,4*%
%TO.N,Net-(R22-Pad1)*%
X54540000Y-74500000D03*
%TD*%
D18*
%TO.P,U9,1*%
%TO.N,/Sensor 7*%
X62540000Y-80000000D03*
D19*
%TO.P,U9,2*%
%TO.N,GND*%
X60000000Y-80000000D03*
%TO.P,U9,3*%
X60000000Y-74500000D03*
%TO.P,U9,4*%
%TO.N,Net-(R20-Pad1)*%
X62540000Y-74500000D03*
%TD*%
D18*
%TO.P,U8,1*%
%TO.N,/Sensor 6*%
X70540000Y-80000000D03*
D19*
%TO.P,U8,2*%
%TO.N,GND*%
X68000000Y-80000000D03*
%TO.P,U8,3*%
X68000000Y-74500000D03*
%TO.P,U8,4*%
%TO.N,Net-(R16-Pad1)*%
X70540000Y-74500000D03*
%TD*%
D18*
%TO.P,U7,1*%
%TO.N,/Sensor 5*%
X78540000Y-80000000D03*
D19*
%TO.P,U7,2*%
%TO.N,GND*%
X76000000Y-80000000D03*
%TO.P,U7,3*%
X76000000Y-74500000D03*
%TO.P,U7,4*%
%TO.N,Net-(R13-Pad1)*%
X78540000Y-74500000D03*
%TD*%
D18*
%TO.P,U5,1*%
%TO.N,/Sensor 4*%
X86540000Y-80000000D03*
D19*
%TO.P,U5,2*%
%TO.N,GND*%
X84000000Y-80000000D03*
%TO.P,U5,3*%
X84000000Y-74500000D03*
%TO.P,U5,4*%
%TO.N,Net-(R10-Pad1)*%
X86540000Y-74500000D03*
%TD*%
%TO.P,U4,4*%
%TO.N,Net-(R7-Pad1)*%
X94540000Y-74500000D03*
%TO.P,U4,3*%
%TO.N,GND*%
X92000000Y-74500000D03*
%TO.P,U4,2*%
X92000000Y-80000000D03*
D18*
%TO.P,U4,1*%
%TO.N,/Sensor 3*%
X94540000Y-80000000D03*
%TD*%
%TO.P,U3,1*%
%TO.N,/Sensor 2*%
X102540000Y-80000000D03*
D19*
%TO.P,U3,2*%
%TO.N,GND*%
X100000000Y-80000000D03*
%TO.P,U3,3*%
X100000000Y-74500000D03*
%TO.P,U3,4*%
%TO.N,Net-(R4-Pad1)*%
X102540000Y-74500000D03*
%TD*%
D18*
%TO.P,U1,1*%
%TO.N,/Sensor 1*%
X110540000Y-80000000D03*
D19*
%TO.P,U1,2*%
%TO.N,GND*%
X108000000Y-80000000D03*
%TO.P,U1,3*%
X108000000Y-74500000D03*
%TO.P,U1,4*%
%TO.N,Net-(R1-Pad1)*%
X110540000Y-74500000D03*
%TD*%
D20*
%TO.N,/MOTORA IN*%
X73500000Y-126000000D03*
%TO.N,/MOTORA OUT*%
X70000000Y-126000000D03*
%TO.N,/MOTORB IN*%
X66371064Y-126185698D03*
%TO.N,/MOTORB OUT*%
X63000000Y-126000000D03*
%TO.N,GND*%
X114000000Y-121500000D03*
%TO.N,/EnA*%
X87500000Y-129000000D03*
%TO.N,/EnB*%
X87500000Y-127500000D03*
%TO.N,GND*%
X103500000Y-134000000D03*
%TO.N,/VCC_3.3V*%
X96000000Y-147000000D03*
%TO.N,/MOTORB OUT*%
X63500000Y-141500000D03*
%TO.N,GND*%
X118700000Y-133000000D03*
%TO.N,/Sensor 1*%
X112500000Y-82700000D03*
X106100000Y-85300000D03*
X80800000Y-109800000D03*
X97000000Y-120100000D03*
%TO.N,/Sensor 2*%
X104500000Y-82700000D03*
X97300000Y-114400000D03*
%TO.N,/Sensor 3*%
X96100000Y-114400000D03*
X96700000Y-82700000D03*
%TO.N,/Sensor 4*%
X94800000Y-114400000D03*
X88900000Y-82800000D03*
%TO.N,/Sensor 5*%
X80100000Y-82600000D03*
X93600000Y-114400000D03*
%TO.N,/Sensor 6*%
X72800000Y-82700000D03*
X92300000Y-114400000D03*
%TO.N,/Sensor 7*%
X91000000Y-114400000D03*
X64800000Y-82700000D03*
%TO.N,/Sensor 8*%
X98700000Y-111100000D03*
X99900000Y-113800000D03*
X56900000Y-83000000D03*
X83200000Y-110600000D03*
%TO.N,/EnA*%
X73032737Y-139425000D03*
%TO.N,/START*%
X79000000Y-133250000D03*
X75750000Y-139500000D03*
%TO.N,GND*%
X77000000Y-139750000D03*
%TO.N,/USB_DP*%
X79000000Y-139250000D03*
%TO.N,/VCC_3.3V*%
X98500000Y-144250000D03*
%TO.N,GND*%
X108750000Y-126750000D03*
%TO.N,/USB_DP*%
X97000000Y-118000000D03*
%TO.N,/USB_DN*%
X85750000Y-129750000D03*
%TO.N,GND*%
X86000000Y-135500000D03*
%TO.N,/USB_DP*%
X95250000Y-119750000D03*
%TO.N,GND*%
X79750000Y-139750000D03*
%TO.N,/USB_DP*%
X86750000Y-129750000D03*
%TO.N,/USB_DN*%
X78500000Y-138500000D03*
%TO.N,GND*%
X104000000Y-130500000D03*
X108750000Y-120750000D03*
X116618750Y-119700000D03*
%TO.N,/VCC_5V*%
X66500000Y-116000000D03*
%TO.N,/EnB*%
X73008175Y-137425566D03*
%TO.N,/VCC_5V*%
X75600000Y-146000000D03*
X80400000Y-146000000D03*
%TD*%
D21*
%TO.N,/MOTORA IN*%
X56167710Y-111000000D02*
X53800000Y-111000000D01*
X63467710Y-118300000D02*
X56167710Y-111000000D01*
%TO.N,/MOTORA OUT*%
X58070000Y-115570000D02*
X62500000Y-120000000D01*
%TO.N,/MOTORA IN*%
X65300000Y-118300000D02*
X63467710Y-118300000D01*
X73000000Y-126000000D02*
X65300000Y-118300000D01*
X53800000Y-111000000D02*
X50500000Y-114300000D01*
X73500000Y-126000000D02*
X73000000Y-126000000D01*
%TO.N,/MOTORA OUT*%
X55580000Y-115570000D02*
X58070000Y-115570000D01*
X62500000Y-120000000D02*
X64000000Y-120000000D01*
X64000000Y-120000000D02*
X70000000Y-126000000D01*
%TO.N,/MOTORB IN*%
X59000000Y-127000000D02*
X59000000Y-125000000D01*
X66371064Y-125628936D02*
X66371064Y-126185698D01*
X57730000Y-128270000D02*
X59000000Y-127000000D01*
X55580000Y-128270000D02*
X57730000Y-128270000D01*
X59000000Y-125000000D02*
X60500000Y-123500000D01*
X64500000Y-123500000D02*
X66500000Y-125500000D01*
X60500000Y-123500000D02*
X64500000Y-123500000D01*
X66500000Y-125500000D02*
X66371064Y-125628936D01*
%TO.N,/MOTORA OUT*%
X70000000Y-126000000D02*
X72000000Y-128000000D01*
X72000000Y-128000000D02*
X75404163Y-128000000D01*
X89000000Y-146120000D02*
X89000000Y-127000000D01*
X80404163Y-123000000D02*
X75404163Y-128000000D01*
X93000000Y-150120000D02*
X89000000Y-146120000D01*
X85000000Y-123000000D02*
X80404163Y-123000000D01*
X89000000Y-127000000D02*
X85000000Y-123000000D01*
%TO.N,/MOTORB IN*%
X65500000Y-129500000D02*
X66500000Y-128500000D01*
X66500000Y-128500000D02*
X66500000Y-126314634D01*
%TO.N,/MOTORA IN*%
X85704163Y-121300000D02*
X80000000Y-121300000D01*
X73500000Y-126000000D02*
X75000000Y-126000000D01*
X75000000Y-126000000D02*
X79700000Y-121300000D01*
X79700000Y-121300000D02*
X80000000Y-121300000D01*
X90700000Y-126295836D02*
X85704163Y-121300000D01*
X90700000Y-139700000D02*
X90700000Y-126295836D01*
X94525000Y-141750000D02*
X92750000Y-141750000D01*
X92750000Y-141750000D02*
X90700000Y-139700000D01*
%TO.N,/MOTORB IN*%
X65500000Y-129500000D02*
X65500000Y-140500000D01*
%TO.N,/MOTORB OUT*%
X61500000Y-133500000D02*
X61500000Y-129000000D01*
X63000000Y-126000000D02*
X63000000Y-127500000D01*
X63000000Y-127500000D02*
X61500000Y-129000000D01*
%TO.N,/VCC_5V*%
X53500000Y-137500000D02*
X55000000Y-137500000D01*
X55000000Y-137500000D02*
X63750000Y-146250000D01*
X48000000Y-130500000D02*
X48000000Y-132000000D01*
X63750000Y-146250000D02*
X69750000Y-146250000D01*
X48000000Y-132000000D02*
X53500000Y-137500000D01*
X69750000Y-146250000D02*
X74525000Y-141475000D01*
X74525000Y-141475000D02*
X83750000Y-141475000D01*
%TO.N,/MOTORB OUT*%
X61500000Y-133500000D02*
X59500000Y-135500000D01*
X59500000Y-135500000D02*
X54000000Y-135500000D01*
X54000000Y-135500000D02*
X50500000Y-132000000D01*
X50500000Y-132000000D02*
X50500000Y-129540000D01*
D22*
%TO.N,/EnA*%
X87000000Y-128500000D02*
X87500000Y-129000000D01*
X79000000Y-128500000D02*
X87000000Y-128500000D01*
%TO.N,/EnB*%
X87000000Y-127000000D02*
X87500000Y-127500000D01*
X79000000Y-127000000D02*
X87000000Y-127000000D01*
%TO.N,/EnA*%
X77950000Y-129550000D02*
X79000000Y-128500000D01*
X77950000Y-136186396D02*
X77950000Y-129550000D01*
X74711396Y-139425000D02*
X77950000Y-136186396D01*
X73032737Y-139425000D02*
X74711396Y-139425000D01*
%TO.N,/VCC_3.3V*%
X98500000Y-146500000D02*
X98000000Y-147000000D01*
X98000000Y-147000000D02*
X96000000Y-147000000D01*
D21*
%TO.N,/VCC_5V*%
X48000000Y-112595837D02*
X51295837Y-109300000D01*
X59800000Y-109300000D02*
X66500000Y-116000000D01*
X51295837Y-109300000D02*
X59800000Y-109300000D01*
X48000000Y-130500000D02*
X48000000Y-112595837D01*
X48000000Y-130500000D02*
X48000000Y-128227208D01*
X48000000Y-128227208D02*
X49227208Y-127000000D01*
X49227208Y-127000000D02*
X50500000Y-127000000D01*
D22*
%TO.N,GND*%
X77000000Y-139750000D02*
X77000000Y-139800000D01*
X77000000Y-139800000D02*
X77400000Y-140200000D01*
X77400000Y-140200000D02*
X79400000Y-140200000D01*
X79400000Y-140200000D02*
X79750000Y-139850000D01*
X79750000Y-139850000D02*
X79750000Y-139750000D01*
D23*
%TO.N,/Sensor 1*%
X80800000Y-109800000D02*
X80800000Y-113000000D01*
X111100000Y-85300000D02*
X106100000Y-85300000D01*
X112500000Y-83900000D02*
X111900000Y-84500000D01*
X90300000Y-122500000D02*
X94600000Y-122500000D01*
X94600000Y-122500000D02*
X97000000Y-120100000D01*
X112500000Y-82700000D02*
X112500000Y-83900000D01*
X111900000Y-84500000D02*
X111100000Y-85300000D01*
X80800000Y-113000000D02*
X90300000Y-122500000D01*
%TO.N,/Sensor 3*%
X85500000Y-88910050D02*
X85500000Y-106189950D01*
%TO.N,/Sensor 4*%
X88520102Y-110200000D02*
X91800000Y-110200000D01*
%TO.N,/Sensor 6*%
X73400000Y-84200000D02*
X83400000Y-94200000D01*
X83400000Y-107059800D02*
X87940204Y-111600000D01*
%TO.N,/Sensor 3*%
X92100000Y-109500000D02*
X96100000Y-113500000D01*
%TO.N,/Sensor 6*%
X72800000Y-82700000D02*
X73400000Y-83300000D01*
X91210050Y-111600000D02*
X92300000Y-112689950D01*
%TO.N,/Sensor 4*%
X84800000Y-88620101D02*
X84800000Y-106479900D01*
%TO.N,/Sensor 5*%
X93600000Y-113000000D02*
X93600000Y-114400000D01*
%TO.N,/Sensor 2*%
X92500000Y-108800000D02*
X93100000Y-108800000D01*
%TO.N,/Sensor 6*%
X73400000Y-83300000D02*
X73400000Y-84200000D01*
%TO.N,/Sensor 5*%
X91500000Y-110900000D02*
X93600000Y-113000000D01*
%TO.N,/Sensor 7*%
X72300000Y-84500000D02*
X82600000Y-94800000D01*
%TO.N,/Sensor 2*%
X104500000Y-84100000D02*
X104300000Y-84300000D01*
%TO.N,/Sensor 5*%
X84100000Y-93800000D02*
X84100000Y-106769850D01*
X80100000Y-89800000D02*
X84100000Y-93800000D01*
%TO.N,/Sensor 6*%
X83400000Y-94200000D02*
X83400000Y-107059800D01*
%TO.N,/Sensor 7*%
X82600000Y-94800000D02*
X82600000Y-107249745D01*
X66600000Y-84500000D02*
X72300000Y-84500000D01*
%TO.N,/Sensor 4*%
X94800000Y-113200000D02*
X94800000Y-114400000D01*
%TO.N,/Sensor 2*%
X93100000Y-108800000D02*
X97300000Y-113000000D01*
%TO.N,/Sensor 4*%
X88900000Y-84520100D02*
X84800000Y-88620101D01*
X91800000Y-110200000D02*
X94800000Y-113200000D01*
%TO.N,/Sensor 5*%
X88230153Y-110900000D02*
X91500000Y-110900000D01*
%TO.N,/Sensor 3*%
X88810051Y-109500000D02*
X92100000Y-109500000D01*
%TO.N,/Sensor 4*%
X88900000Y-82800000D02*
X88900000Y-84520100D01*
%TO.N,/Sensor 7*%
X82600000Y-107249745D02*
X88350255Y-113000000D01*
%TO.N,/Sensor 3*%
X96100000Y-113500000D02*
X96100000Y-114400000D01*
X85500000Y-106189950D02*
X88810051Y-109500000D01*
%TO.N,/Sensor 6*%
X92300000Y-112689950D02*
X92300000Y-114400000D01*
%TO.N,/Sensor 3*%
X90910050Y-83500000D02*
X85500000Y-88910050D01*
%TO.N,/Sensor 5*%
X80100000Y-82600000D02*
X80100000Y-89800000D01*
%TO.N,/Sensor 3*%
X96700000Y-83500000D02*
X90910050Y-83500000D01*
%TO.N,/Sensor 4*%
X84800000Y-106479900D02*
X88520102Y-110200000D01*
%TO.N,/Sensor 7*%
X91000000Y-113000000D02*
X91000000Y-114400000D01*
%TO.N,/Sensor 2*%
X88200000Y-107900000D02*
X89100000Y-108800000D01*
%TO.N,/Sensor 6*%
X87940204Y-111600000D02*
X91210050Y-111600000D01*
%TO.N,/Sensor 5*%
X84100000Y-106769850D02*
X88230153Y-110900000D01*
%TO.N,/Sensor 2*%
X86600000Y-106300000D02*
X88200000Y-107900000D01*
X86600000Y-88800000D02*
X86600000Y-106300000D01*
X89100000Y-108800000D02*
X92500000Y-108800000D01*
X90200000Y-85200000D02*
X86600000Y-88800000D01*
%TO.N,/Sensor 7*%
X64800000Y-82700000D02*
X66600000Y-84500000D01*
X88350255Y-113000000D02*
X91000000Y-113000000D01*
%TO.N,/Sensor 2*%
X104300000Y-84300000D02*
X103400000Y-85200000D01*
X91200000Y-85200000D02*
X90200000Y-85200000D01*
X104500000Y-82700000D02*
X104500000Y-84100000D01*
%TO.N,/Sensor 3*%
X96700000Y-82700000D02*
X96700000Y-83500000D01*
%TO.N,/Sensor 2*%
X103400000Y-85200000D02*
X91200000Y-85200000D01*
X97300000Y-113000000D02*
X97300000Y-114400000D01*
%TO.N,/Sensor 8*%
X72010050Y-85200000D02*
X81900000Y-95089950D01*
X56900000Y-83000000D02*
X56900000Y-83200000D01*
X81900000Y-109300000D02*
X83200000Y-110600000D01*
X81900000Y-95089950D02*
X81900000Y-109300000D01*
X58900000Y-85200000D02*
X72010050Y-85200000D01*
X56900000Y-83200000D02*
X58900000Y-85200000D01*
X98700000Y-111100000D02*
X99900000Y-112300000D01*
X99900000Y-112300000D02*
X99900000Y-113800000D01*
D22*
%TO.N,/USB_DP*%
X79000000Y-139250000D02*
X86500000Y-131750000D01*
X86500000Y-131750000D02*
X86750000Y-131500000D01*
X86750000Y-131500000D02*
X86750000Y-129750000D01*
%TO.N,/VCC_3.3V*%
X98500000Y-146500000D02*
X98500000Y-144250000D01*
%TO.N,/START*%
X79000000Y-136250000D02*
X79000000Y-133250000D01*
X75750000Y-139500000D02*
X79000000Y-136250000D01*
%TO.N,/USB_DP*%
X95250000Y-119750000D02*
X97000000Y-118000000D01*
%TO.N,/USB_DN*%
X78500000Y-138500000D02*
X85750000Y-131250000D01*
X85750000Y-131250000D02*
X85750000Y-129750000D01*
D23*
%TO.N,/VCC_5V*%
X75600000Y-146000000D02*
X80400000Y-146000000D01*
D21*
%TO.N,/MOTORB OUT*%
X63500000Y-141500000D02*
X63500000Y-135500000D01*
X63500000Y-135500000D02*
X61500000Y-133500000D01*
%TO.N,/MOTORB IN*%
X68475000Y-141750000D02*
X66750000Y-141750000D01*
X65500000Y-140500000D02*
X66750000Y-141750000D01*
D22*
%TO.N,/EnB*%
X77500000Y-136000000D02*
X76074434Y-137425566D01*
X79000000Y-127000000D02*
X77500000Y-128500000D01*
X77500000Y-128500000D02*
X77500000Y-136000000D01*
X76074434Y-137425566D02*
X73008175Y-137425566D01*
%TD*%
%TA.AperFunction,Conductor*%
%TO.N,GND*%
G36*
X113442539Y-69520185D02*
G01*
X113488294Y-69572989D01*
X113499500Y-69624500D01*
X113499500Y-82397809D01*
X113479815Y-82464848D01*
X113427011Y-82510603D01*
X113357853Y-82520547D01*
X113294297Y-82491522D01*
X113260939Y-82445261D01*
X113209397Y-82320827D01*
X113209390Y-82320814D01*
X113121789Y-82189711D01*
X113121786Y-82189707D01*
X113010292Y-82078213D01*
X113010288Y-82078210D01*
X112879185Y-81990609D01*
X112879172Y-81990602D01*
X112733501Y-81930264D01*
X112733489Y-81930261D01*
X112578845Y-81899500D01*
X112578842Y-81899500D01*
X112421158Y-81899500D01*
X112421155Y-81899500D01*
X112266510Y-81930261D01*
X112266498Y-81930264D01*
X112120827Y-81990602D01*
X112120814Y-81990609D01*
X111989711Y-82078210D01*
X111989707Y-82078213D01*
X111878213Y-82189707D01*
X111878210Y-82189711D01*
X111790609Y-82320814D01*
X111790602Y-82320827D01*
X111730264Y-82466498D01*
X111730261Y-82466510D01*
X111699500Y-82621153D01*
X111699500Y-82778846D01*
X111730261Y-82933489D01*
X111730263Y-82933497D01*
X111740061Y-82957151D01*
X111749500Y-83004604D01*
X111749500Y-83537769D01*
X111729815Y-83604808D01*
X111713181Y-83625450D01*
X111404142Y-83934489D01*
X110825451Y-84513181D01*
X110764128Y-84546666D01*
X110737770Y-84549500D01*
X106404604Y-84549500D01*
X106357155Y-84540062D01*
X106333497Y-84530263D01*
X106333493Y-84530262D01*
X106333488Y-84530260D01*
X106178845Y-84499500D01*
X106178842Y-84499500D01*
X106021158Y-84499500D01*
X106021155Y-84499500D01*
X105866510Y-84530261D01*
X105866498Y-84530264D01*
X105720827Y-84590602D01*
X105720814Y-84590609D01*
X105589711Y-84678210D01*
X105589707Y-84678213D01*
X105478213Y-84789707D01*
X105478210Y-84789711D01*
X105390609Y-84920814D01*
X105390602Y-84920827D01*
X105330264Y-85066498D01*
X105330261Y-85066510D01*
X105299500Y-85221153D01*
X105299500Y-85378846D01*
X105330261Y-85533489D01*
X105330264Y-85533501D01*
X105390602Y-85679172D01*
X105390609Y-85679185D01*
X105478210Y-85810288D01*
X105478213Y-85810292D01*
X105589707Y-85921786D01*
X105589711Y-85921789D01*
X105720814Y-86009390D01*
X105720827Y-86009397D01*
X105820060Y-86050500D01*
X105866503Y-86069737D01*
X106021153Y-86100499D01*
X106021156Y-86100500D01*
X106021158Y-86100500D01*
X106178844Y-86100500D01*
X106178845Y-86100499D01*
X106255152Y-86085320D01*
X106333488Y-86069739D01*
X106333489Y-86069738D01*
X106333497Y-86069737D01*
X106357155Y-86059937D01*
X106404604Y-86050500D01*
X111173920Y-86050500D01*
X111271462Y-86031096D01*
X111318913Y-86021658D01*
X111455495Y-85965084D01*
X111520487Y-85921658D01*
X111520487Y-85921657D01*
X111520489Y-85921657D01*
X111534969Y-85911981D01*
X111578416Y-85882952D01*
X112482952Y-84978416D01*
X112482952Y-84978415D01*
X113082951Y-84378416D01*
X113085957Y-84373917D01*
X113165084Y-84255495D01*
X113221658Y-84118913D01*
X113249605Y-83978419D01*
X113250500Y-83973920D01*
X113250500Y-83004604D01*
X113252124Y-82996434D01*
X113251209Y-82991363D01*
X113259931Y-82957168D01*
X113260935Y-82954746D01*
X113304768Y-82900341D01*
X113371060Y-82878269D01*
X113438761Y-82895540D01*
X113486378Y-82946672D01*
X113499500Y-83002189D01*
X113499500Y-86375500D01*
X113479815Y-86442539D01*
X113427011Y-86488294D01*
X113375500Y-86499500D01*
X91934108Y-86499500D01*
X91806812Y-86533608D01*
X91692686Y-86599500D01*
X91692683Y-86599502D01*
X91599502Y-86692683D01*
X91599500Y-86692686D01*
X91533608Y-86806812D01*
X91499500Y-86934108D01*
X91499500Y-104065891D01*
X91533608Y-104193187D01*
X91566554Y-104250250D01*
X91599500Y-104307314D01*
X91692686Y-104400500D01*
X91806814Y-104466392D01*
X91934108Y-104500500D01*
X104934495Y-104500500D01*
X104960225Y-104503198D01*
X119335498Y-107552499D01*
X120901231Y-107884624D01*
X120962726Y-107917791D01*
X120996528Y-107978940D01*
X120999500Y-108005925D01*
X120999500Y-158875500D01*
X120979815Y-158942539D01*
X120927011Y-158988294D01*
X120875500Y-158999500D01*
X112733547Y-158999500D01*
X112666508Y-158979815D01*
X112652181Y-158969071D01*
X109201207Y-155968224D01*
X109098267Y-155878711D01*
X114149500Y-155878711D01*
X114149500Y-156121288D01*
X114181161Y-156361785D01*
X114243947Y-156596104D01*
X114336773Y-156820205D01*
X114336776Y-156820212D01*
X114458064Y-157030289D01*
X114458066Y-157030292D01*
X114458067Y-157030293D01*
X114605733Y-157222736D01*
X114605739Y-157222743D01*
X114777256Y-157394260D01*
X114777262Y-157394265D01*
X114969711Y-157541936D01*
X115179788Y-157663224D01*
X115403900Y-157756054D01*
X115638211Y-157818838D01*
X115818586Y-157842584D01*
X115878711Y-157850500D01*
X115878712Y-157850500D01*
X116121289Y-157850500D01*
X116169388Y-157844167D01*
X116361789Y-157818838D01*
X116596100Y-157756054D01*
X116820212Y-157663224D01*
X117030289Y-157541936D01*
X117222738Y-157394265D01*
X117394265Y-157222738D01*
X117541936Y-157030289D01*
X117663224Y-156820212D01*
X117756054Y-156596100D01*
X117818838Y-156361789D01*
X117850500Y-156121288D01*
X117850500Y-155878712D01*
X117818838Y-155638211D01*
X117756054Y-155403900D01*
X117663224Y-155179788D01*
X117541936Y-154969711D01*
X117394265Y-154777262D01*
X117394260Y-154777256D01*
X117222743Y-154605739D01*
X117222736Y-154605733D01*
X117030293Y-154458067D01*
X117030292Y-154458066D01*
X117030289Y-154458064D01*
X116820212Y-154336776D01*
X116820205Y-154336773D01*
X116596104Y-154243947D01*
X116361785Y-154181161D01*
X116121289Y-154149500D01*
X116121288Y-154149500D01*
X115878712Y-154149500D01*
X115878711Y-154149500D01*
X115638214Y-154181161D01*
X115403895Y-154243947D01*
X115179794Y-154336773D01*
X115179785Y-154336777D01*
X114969706Y-154458067D01*
X114777263Y-154605733D01*
X114777256Y-154605739D01*
X114605739Y-154777256D01*
X114605733Y-154777263D01*
X114458067Y-154969706D01*
X114336777Y-155179785D01*
X114336773Y-155179794D01*
X114243947Y-155403895D01*
X114181161Y-155638214D01*
X114149500Y-155878711D01*
X109098267Y-155878711D01*
X105944835Y-153136596D01*
X105941576Y-153133762D01*
X105907314Y-153099500D01*
X105892020Y-153090670D01*
X105883002Y-153082828D01*
X105878698Y-153079085D01*
X105878692Y-153079081D01*
X105852803Y-153066449D01*
X105835148Y-153057835D01*
X105793186Y-153033608D01*
X105776129Y-153029037D01*
X105760257Y-153021293D01*
X105716925Y-153012862D01*
X105712678Y-153012036D01*
X105665892Y-152999500D01*
X105648235Y-152999500D01*
X105636504Y-152997218D01*
X105636502Y-152997218D01*
X105634032Y-152996737D01*
X105630895Y-152996127D01*
X105588426Y-152999091D01*
X105586880Y-152999199D01*
X105578251Y-152999500D01*
X93620554Y-152999500D01*
X93553515Y-152979815D01*
X93507760Y-152927011D01*
X93497816Y-152857853D01*
X93526841Y-152794297D01*
X93585619Y-152756523D01*
X93592961Y-152754609D01*
X93748772Y-152719046D01*
X94035065Y-152618868D01*
X94308341Y-152487265D01*
X94565164Y-152325892D01*
X94802304Y-152136779D01*
X95016779Y-151922304D01*
X95205892Y-151685164D01*
X95367265Y-151428341D01*
X95498868Y-151155065D01*
X95599046Y-150868772D01*
X95666540Y-150573063D01*
X95700500Y-150271657D01*
X95700500Y-149968343D01*
X95666540Y-149666937D01*
X95599046Y-149371228D01*
X95498868Y-149084935D01*
X95388385Y-148855515D01*
X95367266Y-148811661D01*
X95327496Y-148748367D01*
X95205892Y-148554836D01*
X95016779Y-148317696D01*
X94802304Y-148103221D01*
X94565164Y-147914108D01*
X94335401Y-147769738D01*
X94308338Y-147752733D01*
X94035068Y-147621133D01*
X93748783Y-147520957D01*
X93748771Y-147520953D01*
X93516613Y-147467965D01*
X93453063Y-147453460D01*
X93453060Y-147453459D01*
X93453048Y-147453457D01*
X93151663Y-147419500D01*
X93151657Y-147419500D01*
X92848343Y-147419500D01*
X92848336Y-147419500D01*
X92546951Y-147453457D01*
X92546933Y-147453460D01*
X92251441Y-147520904D01*
X92181702Y-147516631D01*
X92136168Y-147487694D01*
X91569627Y-146921153D01*
X95199500Y-146921153D01*
X95199500Y-147078846D01*
X95230261Y-147233489D01*
X95230264Y-147233501D01*
X95290602Y-147379172D01*
X95290609Y-147379185D01*
X95378210Y-147510288D01*
X95378213Y-147510292D01*
X95489707Y-147621786D01*
X95489711Y-147621789D01*
X95620814Y-147709390D01*
X95620827Y-147709397D01*
X95725451Y-147752733D01*
X95766503Y-147769737D01*
X95921153Y-147800499D01*
X95921156Y-147800500D01*
X95921158Y-147800500D01*
X96078844Y-147800500D01*
X96078845Y-147800499D01*
X96233497Y-147769737D01*
X96379179Y-147709394D01*
X96473459Y-147646398D01*
X96540136Y-147625520D01*
X96542350Y-147625500D01*
X98061607Y-147625500D01*
X98122029Y-147613481D01*
X98182452Y-147601463D01*
X98215792Y-147587652D01*
X98296286Y-147554312D01*
X98362169Y-147510289D01*
X98398733Y-147485858D01*
X98485858Y-147398733D01*
X98485859Y-147398731D01*
X98492925Y-147391665D01*
X98492928Y-147391661D01*
X98898729Y-146985860D01*
X98898733Y-146985858D01*
X98985858Y-146898733D01*
X99037256Y-146821809D01*
X99054312Y-146796285D01*
X99092656Y-146703714D01*
X99101463Y-146682452D01*
X99113530Y-146621786D01*
X99121255Y-146582950D01*
X99121255Y-146582945D01*
X99125500Y-146561607D01*
X99125500Y-146438393D01*
X99125500Y-144792350D01*
X99145185Y-144725311D01*
X99146398Y-144723459D01*
X99161739Y-144700499D01*
X99209394Y-144629179D01*
X99269737Y-144483497D01*
X99300500Y-144328842D01*
X99300500Y-144171158D01*
X99300500Y-144171155D01*
X99300499Y-144171153D01*
X99284815Y-144092304D01*
X99269737Y-144016503D01*
X99269735Y-144016498D01*
X99209397Y-143870827D01*
X99209390Y-143870814D01*
X99121789Y-143739711D01*
X99121786Y-143739707D01*
X99010292Y-143628213D01*
X99010288Y-143628210D01*
X98879185Y-143540609D01*
X98879172Y-143540602D01*
X98733501Y-143480264D01*
X98733489Y-143480261D01*
X98578845Y-143449500D01*
X98578842Y-143449500D01*
X98421158Y-143449500D01*
X98421155Y-143449500D01*
X98266510Y-143480261D01*
X98266498Y-143480264D01*
X98120827Y-143540602D01*
X98120814Y-143540609D01*
X97989711Y-143628210D01*
X97989707Y-143628213D01*
X97878213Y-143739707D01*
X97878210Y-143739711D01*
X97790609Y-143870814D01*
X97790602Y-143870827D01*
X97730264Y-144016498D01*
X97730261Y-144016510D01*
X97699500Y-144171153D01*
X97699500Y-144328846D01*
X97730261Y-144483489D01*
X97730264Y-144483501D01*
X97790602Y-144629172D01*
X97790609Y-144629184D01*
X97853602Y-144723459D01*
X97874480Y-144790136D01*
X97874500Y-144792350D01*
X97874500Y-146189548D01*
X97865855Y-146218988D01*
X97859332Y-146248975D01*
X97855577Y-146253990D01*
X97854815Y-146256587D01*
X97838181Y-146277229D01*
X97777229Y-146338181D01*
X97715906Y-146371666D01*
X97689548Y-146374500D01*
X96542350Y-146374500D01*
X96475311Y-146354815D01*
X96473459Y-146353602D01*
X96379184Y-146290609D01*
X96379172Y-146290602D01*
X96233501Y-146230264D01*
X96233489Y-146230261D01*
X96078845Y-146199500D01*
X96078842Y-146199500D01*
X95921158Y-146199500D01*
X95921155Y-146199500D01*
X95766510Y-146230261D01*
X95766498Y-146230264D01*
X95620827Y-146290602D01*
X95620814Y-146290609D01*
X95489711Y-146378210D01*
X95489707Y-146378213D01*
X95378213Y-146489707D01*
X95378210Y-146489711D01*
X95290609Y-146620814D01*
X95290602Y-146620827D01*
X95230264Y-146766498D01*
X95230261Y-146766510D01*
X95199500Y-146921153D01*
X91569627Y-146921153D01*
X90286819Y-145638345D01*
X90253334Y-145577022D01*
X90250500Y-145550664D01*
X90250500Y-143048610D01*
X90270185Y-142981571D01*
X90322989Y-142935816D01*
X90392147Y-142925872D01*
X90455703Y-142954897D01*
X90491541Y-143007655D01*
X90501133Y-143035068D01*
X90632733Y-143308338D01*
X90632735Y-143308341D01*
X90794108Y-143565164D01*
X90983221Y-143802304D01*
X91197696Y-144016779D01*
X91434836Y-144205892D01*
X91691659Y-144367265D01*
X91964935Y-144498868D01*
X92179951Y-144574105D01*
X92251216Y-144599042D01*
X92251228Y-144599046D01*
X92546937Y-144666540D01*
X92546946Y-144666541D01*
X92546951Y-144666542D01*
X92747874Y-144689180D01*
X92848337Y-144700499D01*
X92848340Y-144700500D01*
X92848343Y-144700500D01*
X93151660Y-144700500D01*
X93151661Y-144700499D01*
X93305694Y-144683144D01*
X93453048Y-144666542D01*
X93453051Y-144666541D01*
X93453063Y-144666540D01*
X93748772Y-144599046D01*
X94035065Y-144498868D01*
X94308341Y-144367265D01*
X94565164Y-144205892D01*
X94802304Y-144016779D01*
X95016779Y-143802304D01*
X95205892Y-143565164D01*
X95367265Y-143308341D01*
X95498868Y-143035065D01*
X95599046Y-142748772D01*
X95666540Y-142453063D01*
X95694397Y-142205819D01*
X95699681Y-142181404D01*
X95744709Y-142042826D01*
X95761504Y-141936784D01*
X95775500Y-141848422D01*
X95775500Y-141651577D01*
X95744709Y-141457173D01*
X95683882Y-141269970D01*
X95594523Y-141094594D01*
X95512470Y-140981659D01*
X95502570Y-140968032D01*
X95491170Y-140948950D01*
X95367268Y-140691664D01*
X95334572Y-140639629D01*
X95205892Y-140434836D01*
X95016779Y-140197696D01*
X94802304Y-139983221D01*
X94797402Y-139979312D01*
X94726457Y-139922735D01*
X94565164Y-139794108D01*
X94308341Y-139632735D01*
X94308338Y-139632733D01*
X94035068Y-139501133D01*
X93748783Y-139400957D01*
X93748771Y-139400953D01*
X93508674Y-139346153D01*
X93453063Y-139333460D01*
X93453060Y-139333459D01*
X93453048Y-139333457D01*
X93151663Y-139299500D01*
X93151657Y-139299500D01*
X92848343Y-139299500D01*
X92848336Y-139299500D01*
X92546951Y-139333457D01*
X92546933Y-139333460D01*
X92251441Y-139400904D01*
X92241771Y-139400311D01*
X92232695Y-139403697D01*
X92207471Y-139398209D01*
X92181702Y-139396631D01*
X92172067Y-139390508D01*
X92164422Y-139388845D01*
X92136168Y-139367694D01*
X91986819Y-139218345D01*
X91953334Y-139157022D01*
X91950500Y-139130664D01*
X91950500Y-135878711D01*
X114149500Y-135878711D01*
X114149500Y-136121288D01*
X114181161Y-136361785D01*
X114243947Y-136596104D01*
X114327257Y-136797232D01*
X114336776Y-136820212D01*
X114458064Y-137030289D01*
X114458066Y-137030292D01*
X114458067Y-137030293D01*
X114605733Y-137222736D01*
X114605739Y-137222743D01*
X114777256Y-137394260D01*
X114777262Y-137394265D01*
X114969711Y-137541936D01*
X115179788Y-137663224D01*
X115403900Y-137756054D01*
X115638211Y-137818838D01*
X115818586Y-137842584D01*
X115878711Y-137850500D01*
X115878712Y-137850500D01*
X116121289Y-137850500D01*
X116169388Y-137844167D01*
X116361789Y-137818838D01*
X116596100Y-137756054D01*
X116820212Y-137663224D01*
X117030289Y-137541936D01*
X117222738Y-137394265D01*
X117394265Y-137222738D01*
X117541936Y-137030289D01*
X117663224Y-136820212D01*
X117756054Y-136596100D01*
X117818838Y-136361789D01*
X117850500Y-136121288D01*
X117850500Y-135878712D01*
X117818838Y-135638211D01*
X117756054Y-135403900D01*
X117663224Y-135179788D01*
X117541936Y-134969711D01*
X117394265Y-134777262D01*
X117394260Y-134777256D01*
X117222743Y-134605739D01*
X117222736Y-134605733D01*
X117030293Y-134458067D01*
X117030292Y-134458066D01*
X117030289Y-134458064D01*
X116820212Y-134336776D01*
X116820205Y-134336773D01*
X116596104Y-134243947D01*
X116361785Y-134181161D01*
X116121289Y-134149500D01*
X116121288Y-134149500D01*
X115878712Y-134149500D01*
X115878711Y-134149500D01*
X115638214Y-134181161D01*
X115403895Y-134243947D01*
X115179794Y-134336773D01*
X115179785Y-134336777D01*
X114969706Y-134458067D01*
X114777263Y-134605733D01*
X114777256Y-134605739D01*
X114605739Y-134777256D01*
X114605733Y-134777263D01*
X114458067Y-134969706D01*
X114336777Y-135179785D01*
X114336773Y-135179794D01*
X114243947Y-135403895D01*
X114181161Y-135638214D01*
X114149500Y-135878711D01*
X91950500Y-135878711D01*
X91950500Y-126197413D01*
X91919709Y-126003013D01*
X91919709Y-126003012D01*
X91919709Y-126003010D01*
X91878951Y-125877571D01*
X91878374Y-125875795D01*
X91858886Y-125815815D01*
X91858884Y-125815809D01*
X91803478Y-125707069D01*
X91769524Y-125640431D01*
X91653828Y-125481190D01*
X86518809Y-120346172D01*
X86359568Y-120230476D01*
X86184193Y-120141117D01*
X85996989Y-120080290D01*
X85857050Y-120058127D01*
X85857049Y-120058127D01*
X85835261Y-120054676D01*
X85802583Y-120049500D01*
X85802580Y-120049500D01*
X80098417Y-120049500D01*
X79601583Y-120049500D01*
X79601580Y-120049500D01*
X79568901Y-120054676D01*
X79547114Y-120058127D01*
X79547113Y-120058127D01*
X79407174Y-120080290D01*
X79407173Y-120080290D01*
X79219969Y-120141117D01*
X79044591Y-120230478D01*
X78885360Y-120346165D01*
X78885355Y-120346169D01*
X74518345Y-124713181D01*
X74457022Y-124746666D01*
X74430664Y-124749500D01*
X73569336Y-124749500D01*
X73502297Y-124729815D01*
X73481655Y-124713181D01*
X66216825Y-117448351D01*
X66183340Y-117387028D01*
X66188324Y-117317336D01*
X66230196Y-117261403D01*
X66295660Y-117236986D01*
X66323905Y-117238197D01*
X66401580Y-117250500D01*
X66401584Y-117250500D01*
X66598422Y-117250500D01*
X66792826Y-117219709D01*
X66980026Y-117158884D01*
X67155405Y-117069524D01*
X67314646Y-116953828D01*
X67453828Y-116814646D01*
X67569524Y-116655405D01*
X67658884Y-116480026D01*
X67719709Y-116292826D01*
X67749045Y-116107606D01*
X67750500Y-116098422D01*
X67750500Y-115901578D01*
X67719709Y-115707173D01*
X67689756Y-115614989D01*
X67658884Y-115519974D01*
X67658882Y-115519971D01*
X67658882Y-115519969D01*
X67581573Y-115368243D01*
X67569524Y-115344595D01*
X67453828Y-115185354D01*
X60614646Y-108346172D01*
X60455405Y-108230476D01*
X60429051Y-108217048D01*
X60280030Y-108141117D01*
X60092826Y-108080290D01*
X59898422Y-108049500D01*
X59898417Y-108049500D01*
X51394253Y-108049500D01*
X51197420Y-108049500D01*
X51197415Y-108049500D01*
X51003009Y-108080291D01*
X50942185Y-108100053D01*
X50942185Y-108100054D01*
X50898940Y-108114105D01*
X50815807Y-108141117D01*
X50640431Y-108230476D01*
X50515033Y-108321584D01*
X50481191Y-108346171D01*
X47046174Y-111781188D01*
X47046174Y-111781189D01*
X47046172Y-111781191D01*
X46999034Y-111846071D01*
X46930476Y-111940431D01*
X46841115Y-112115810D01*
X46841114Y-112115813D01*
X46805287Y-112226082D01*
X46780290Y-112303013D01*
X46780290Y-112303014D01*
X46749500Y-112497414D01*
X46749500Y-132098422D01*
X46780290Y-132292826D01*
X46841117Y-132480030D01*
X46887412Y-132570888D01*
X46930476Y-132655405D01*
X47046172Y-132814646D01*
X52685355Y-138453829D01*
X52844595Y-138569524D01*
X53019974Y-138658884D01*
X53144977Y-138699500D01*
X53207174Y-138719709D01*
X53239575Y-138724840D01*
X53401578Y-138750500D01*
X53401583Y-138750500D01*
X53401584Y-138750500D01*
X53598417Y-138750500D01*
X54430664Y-138750500D01*
X54497703Y-138770185D01*
X54518345Y-138786819D01*
X62935355Y-147203829D01*
X63094595Y-147319524D01*
X63180613Y-147363352D01*
X63269973Y-147408884D01*
X63269979Y-147408886D01*
X63302646Y-147419500D01*
X63302647Y-147419500D01*
X63379910Y-147444604D01*
X63457173Y-147469709D01*
X63651578Y-147500500D01*
X63651583Y-147500500D01*
X63651584Y-147500500D01*
X63848417Y-147500500D01*
X67532150Y-147500500D01*
X67599189Y-147520185D01*
X67644944Y-147572989D01*
X67654888Y-147642147D01*
X67625863Y-147705703D01*
X67585952Y-147736220D01*
X67551661Y-147752733D01*
X67294837Y-147914107D01*
X67057696Y-148103220D01*
X66843220Y-148317696D01*
X66654107Y-148554837D01*
X66492733Y-148811661D01*
X66361133Y-149084931D01*
X66260957Y-149371216D01*
X66260953Y-149371228D01*
X66193460Y-149666937D01*
X66193457Y-149666951D01*
X66159500Y-149968336D01*
X66159500Y-150271663D01*
X66193457Y-150573048D01*
X66193460Y-150573062D01*
X66260953Y-150868771D01*
X66260957Y-150868783D01*
X66361133Y-151155068D01*
X66492733Y-151428338D01*
X66492735Y-151428341D01*
X66654108Y-151685164D01*
X66843221Y-151922304D01*
X67057696Y-152136779D01*
X67294836Y-152325892D01*
X67551659Y-152487265D01*
X67824935Y-152618868D01*
X68039951Y-152694105D01*
X68111216Y-152719042D01*
X68111228Y-152719046D01*
X68267039Y-152754609D01*
X68328017Y-152788718D01*
X68360875Y-152850379D01*
X68355180Y-152920016D01*
X68312740Y-152975520D01*
X68247030Y-152999268D01*
X68239446Y-152999500D01*
X57417433Y-152999500D01*
X57369101Y-152996128D01*
X57351768Y-152999500D01*
X57334102Y-152999500D01*
X57291479Y-153010921D01*
X57283070Y-153012863D01*
X57239749Y-153021291D01*
X57239740Y-153021294D01*
X57234603Y-153023801D01*
X57212339Y-153032126D01*
X57206824Y-153033603D01*
X57206811Y-153033609D01*
X57168585Y-153055677D01*
X57168586Y-153055678D01*
X57164844Y-153057838D01*
X57121305Y-153079083D01*
X57107980Y-153090668D01*
X57097636Y-153096641D01*
X57097636Y-153096642D01*
X57092686Y-153099500D01*
X57061469Y-153130715D01*
X57055157Y-153136601D01*
X50347819Y-158969071D01*
X50284314Y-158998207D01*
X50266453Y-158999500D01*
X42124500Y-158999500D01*
X42057461Y-158979815D01*
X42011706Y-158927011D01*
X42000500Y-158875500D01*
X42000500Y-155878711D01*
X45149500Y-155878711D01*
X45149500Y-156121288D01*
X45181161Y-156361785D01*
X45243947Y-156596104D01*
X45336773Y-156820205D01*
X45336776Y-156820212D01*
X45458064Y-157030289D01*
X45458066Y-157030292D01*
X45458067Y-157030293D01*
X45605733Y-157222736D01*
X45605739Y-157222743D01*
X45777256Y-157394260D01*
X45777262Y-157394265D01*
X45969711Y-157541936D01*
X46179788Y-157663224D01*
X46403900Y-157756054D01*
X46638211Y-157818838D01*
X46818586Y-157842584D01*
X46878711Y-157850500D01*
X46878712Y-157850500D01*
X47121289Y-157850500D01*
X47169388Y-157844167D01*
X47361789Y-157818838D01*
X47596100Y-157756054D01*
X47820212Y-157663224D01*
X48030289Y-157541936D01*
X48222738Y-157394265D01*
X48394265Y-157222738D01*
X48541936Y-157030289D01*
X48663224Y-156820212D01*
X48756054Y-156596100D01*
X48818838Y-156361789D01*
X48850500Y-156121288D01*
X48850500Y-155878712D01*
X48818838Y-155638211D01*
X48756054Y-155403900D01*
X48663224Y-155179788D01*
X48541936Y-154969711D01*
X48394265Y-154777262D01*
X48394260Y-154777256D01*
X48222743Y-154605739D01*
X48222736Y-154605733D01*
X48030293Y-154458067D01*
X48030292Y-154458066D01*
X48030289Y-154458064D01*
X47820212Y-154336776D01*
X47820205Y-154336773D01*
X47596104Y-154243947D01*
X47361785Y-154181161D01*
X47121289Y-154149500D01*
X47121288Y-154149500D01*
X46878712Y-154149500D01*
X46878711Y-154149500D01*
X46638214Y-154181161D01*
X46403895Y-154243947D01*
X46179794Y-154336773D01*
X46179785Y-154336777D01*
X45969706Y-154458067D01*
X45777263Y-154605733D01*
X45777256Y-154605739D01*
X45605739Y-154777256D01*
X45605733Y-154777263D01*
X45458067Y-154969706D01*
X45336777Y-155179785D01*
X45336773Y-155179794D01*
X45243947Y-155403895D01*
X45181161Y-155638214D01*
X45149500Y-155878711D01*
X42000500Y-155878711D01*
X42000500Y-135878711D01*
X45149500Y-135878711D01*
X45149500Y-136121288D01*
X45181161Y-136361785D01*
X45243947Y-136596104D01*
X45327257Y-136797232D01*
X45336776Y-136820212D01*
X45458064Y-137030289D01*
X45458066Y-137030292D01*
X45458067Y-137030293D01*
X45605733Y-137222736D01*
X45605739Y-137222743D01*
X45777256Y-137394260D01*
X45777262Y-137394265D01*
X45969711Y-137541936D01*
X46179788Y-137663224D01*
X46403900Y-137756054D01*
X46638211Y-137818838D01*
X46818586Y-137842584D01*
X46878711Y-137850500D01*
X46878712Y-137850500D01*
X47121289Y-137850500D01*
X47169388Y-137844167D01*
X47361789Y-137818838D01*
X47596100Y-137756054D01*
X47820212Y-137663224D01*
X48030289Y-137541936D01*
X48222738Y-137394265D01*
X48394265Y-137222738D01*
X48541936Y-137030289D01*
X48663224Y-136820212D01*
X48756054Y-136596100D01*
X48818838Y-136361789D01*
X48850500Y-136121288D01*
X48850500Y-135878712D01*
X48818838Y-135638211D01*
X48756054Y-135403900D01*
X48663224Y-135179788D01*
X48541936Y-134969711D01*
X48394265Y-134777262D01*
X48394260Y-134777256D01*
X48222743Y-134605739D01*
X48222736Y-134605733D01*
X48030293Y-134458067D01*
X48030292Y-134458066D01*
X48030289Y-134458064D01*
X47820212Y-134336776D01*
X47820205Y-134336773D01*
X47596104Y-134243947D01*
X47361785Y-134181161D01*
X47121289Y-134149500D01*
X47121288Y-134149500D01*
X46878712Y-134149500D01*
X46878711Y-134149500D01*
X46638214Y-134181161D01*
X46403895Y-134243947D01*
X46179794Y-134336773D01*
X46179785Y-134336777D01*
X45969706Y-134458067D01*
X45777263Y-134605733D01*
X45777256Y-134605739D01*
X45605739Y-134777256D01*
X45605733Y-134777263D01*
X45458067Y-134969706D01*
X45336777Y-135179785D01*
X45336773Y-135179794D01*
X45243947Y-135403895D01*
X45181161Y-135638214D01*
X45149500Y-135878711D01*
X42000500Y-135878711D01*
X42000500Y-108005925D01*
X42020185Y-107938886D01*
X42072989Y-107893131D01*
X42098769Y-107884624D01*
X43664502Y-107552499D01*
X58039774Y-104503198D01*
X58065505Y-104500500D01*
X71065890Y-104500500D01*
X71065892Y-104500500D01*
X71193186Y-104466392D01*
X71307314Y-104400500D01*
X71400500Y-104307314D01*
X71466392Y-104193186D01*
X71500500Y-104065892D01*
X71500500Y-86934108D01*
X71466392Y-86806814D01*
X71400500Y-86692686D01*
X71307314Y-86599500D01*
X71250250Y-86566554D01*
X71193187Y-86533608D01*
X71129539Y-86516554D01*
X71065892Y-86499500D01*
X71065891Y-86499500D01*
X49624500Y-86499500D01*
X49557461Y-86479815D01*
X49511706Y-86427011D01*
X49500500Y-86375500D01*
X49500500Y-82921153D01*
X56099500Y-82921153D01*
X56099500Y-83078846D01*
X56130261Y-83233494D01*
X56130264Y-83233502D01*
X56147131Y-83274223D01*
X56154187Y-83297483D01*
X56178340Y-83418907D01*
X56178342Y-83418915D01*
X56234913Y-83555490D01*
X56234914Y-83555491D01*
X56234916Y-83555495D01*
X56247226Y-83573918D01*
X56257391Y-83589132D01*
X56317051Y-83678420D01*
X56317052Y-83678421D01*
X58317049Y-85678416D01*
X58421584Y-85782951D01*
X58421585Y-85782952D01*
X58544498Y-85865080D01*
X58544511Y-85865087D01*
X58587649Y-85882955D01*
X58681087Y-85921658D01*
X58681091Y-85921658D01*
X58681092Y-85921659D01*
X58826079Y-85950500D01*
X58826082Y-85950500D01*
X58826083Y-85950500D01*
X58973917Y-85950500D01*
X71647820Y-85950500D01*
X71714859Y-85970185D01*
X71735501Y-85986819D01*
X81113181Y-95364498D01*
X81146666Y-95425821D01*
X81149500Y-95452179D01*
X81149500Y-108902242D01*
X81129815Y-108969281D01*
X81077011Y-109015036D01*
X81007853Y-109024980D01*
X81001309Y-109023859D01*
X80878846Y-108999500D01*
X80878842Y-108999500D01*
X80721158Y-108999500D01*
X80721155Y-108999500D01*
X80566510Y-109030261D01*
X80566498Y-109030264D01*
X80420827Y-109090602D01*
X80420814Y-109090609D01*
X80289711Y-109178210D01*
X80289707Y-109178213D01*
X80178213Y-109289707D01*
X80178210Y-109289711D01*
X80090609Y-109420814D01*
X80090602Y-109420827D01*
X80030264Y-109566498D01*
X80030261Y-109566510D01*
X79999500Y-109721153D01*
X79999500Y-109878846D01*
X80030261Y-110033489D01*
X80030263Y-110033497D01*
X80040061Y-110057151D01*
X80049500Y-110104604D01*
X80049500Y-113073918D01*
X80049500Y-113073920D01*
X80049499Y-113073920D01*
X80078340Y-113218907D01*
X80078343Y-113218917D01*
X80134913Y-113355490D01*
X80134914Y-113355491D01*
X80134916Y-113355495D01*
X80154852Y-113385331D01*
X80217047Y-113478415D01*
X80217051Y-113478420D01*
X80217052Y-113478421D01*
X89821584Y-123082952D01*
X89821586Y-123082954D01*
X89851058Y-123102645D01*
X89895270Y-123132186D01*
X89944505Y-123165084D01*
X89944506Y-123165084D01*
X89944507Y-123165085D01*
X89944509Y-123165086D01*
X90081082Y-123221656D01*
X90081087Y-123221658D01*
X90081091Y-123221658D01*
X90081092Y-123221659D01*
X90226079Y-123250500D01*
X90226082Y-123250500D01*
X94673920Y-123250500D01*
X94771462Y-123231096D01*
X94818913Y-123221658D01*
X94955495Y-123165084D01*
X95004729Y-123132186D01*
X95004734Y-123132183D01*
X95061903Y-123093985D01*
X95078416Y-123082952D01*
X97315295Y-120846070D01*
X97355519Y-120819193D01*
X97379179Y-120809394D01*
X97510289Y-120721789D01*
X97621789Y-120610289D01*
X97709394Y-120479179D01*
X97769737Y-120333497D01*
X97800500Y-120178842D01*
X97800500Y-120021158D01*
X97800500Y-120021155D01*
X97800499Y-120021153D01*
X97798795Y-120012585D01*
X97769737Y-119866503D01*
X97754139Y-119828846D01*
X97709397Y-119720827D01*
X97709390Y-119720814D01*
X97621789Y-119589711D01*
X97621786Y-119589707D01*
X97510292Y-119478213D01*
X97510288Y-119478210D01*
X97379185Y-119390609D01*
X97379172Y-119390602D01*
X97233501Y-119330264D01*
X97233489Y-119330261D01*
X97078845Y-119299500D01*
X97078842Y-119299500D01*
X96921158Y-119299500D01*
X96921156Y-119299500D01*
X96902557Y-119303199D01*
X96832966Y-119296970D01*
X96777789Y-119254105D01*
X96754547Y-119188215D01*
X96770616Y-119120218D01*
X96790684Y-119093904D01*
X97058797Y-118825791D01*
X97120118Y-118792308D01*
X97122128Y-118791889D01*
X97233497Y-118769737D01*
X97379179Y-118709394D01*
X97510289Y-118621789D01*
X97621789Y-118510289D01*
X97709394Y-118379179D01*
X97769737Y-118233497D01*
X97800500Y-118078842D01*
X97800500Y-117921158D01*
X97800500Y-117921155D01*
X97800499Y-117921153D01*
X97769738Y-117766510D01*
X97769738Y-117766508D01*
X97769737Y-117766503D01*
X97763878Y-117752358D01*
X97709397Y-117620827D01*
X97709390Y-117620814D01*
X97621789Y-117489711D01*
X97621786Y-117489707D01*
X97510292Y-117378213D01*
X97510288Y-117378210D01*
X97379185Y-117290609D01*
X97379172Y-117290602D01*
X97233501Y-117230264D01*
X97233489Y-117230261D01*
X97078845Y-117199500D01*
X97078842Y-117199500D01*
X96921158Y-117199500D01*
X96921155Y-117199500D01*
X96766510Y-117230261D01*
X96766498Y-117230264D01*
X96620827Y-117290602D01*
X96620814Y-117290609D01*
X96489711Y-117378210D01*
X96489707Y-117378213D01*
X96378213Y-117489707D01*
X96378210Y-117489711D01*
X96290609Y-117620814D01*
X96290602Y-117620827D01*
X96230264Y-117766498D01*
X96230261Y-117766508D01*
X96208141Y-117877714D01*
X96175756Y-117939625D01*
X96174205Y-117941203D01*
X95191203Y-118924205D01*
X95129880Y-118957690D01*
X95127714Y-118958141D01*
X95016508Y-118980261D01*
X95016498Y-118980264D01*
X94870827Y-119040602D01*
X94870814Y-119040609D01*
X94739711Y-119128210D01*
X94739707Y-119128213D01*
X94628213Y-119239707D01*
X94628210Y-119239711D01*
X94540609Y-119370814D01*
X94540602Y-119370827D01*
X94480264Y-119516498D01*
X94480261Y-119516510D01*
X94449500Y-119671153D01*
X94449500Y-119828846D01*
X94480261Y-119983489D01*
X94480264Y-119983501D01*
X94540602Y-120129172D01*
X94540609Y-120129185D01*
X94628210Y-120260288D01*
X94628213Y-120260292D01*
X94739707Y-120371786D01*
X94739711Y-120371789D01*
X94870814Y-120459390D01*
X94870827Y-120459397D01*
X94956072Y-120494706D01*
X95016503Y-120519737D01*
X95171153Y-120550499D01*
X95171156Y-120550500D01*
X95188769Y-120550500D01*
X95255808Y-120570185D01*
X95301563Y-120622989D01*
X95311507Y-120692147D01*
X95282482Y-120755703D01*
X95276450Y-120762181D01*
X94325451Y-121713181D01*
X94264128Y-121746666D01*
X94237770Y-121749500D01*
X90662230Y-121749500D01*
X90595191Y-121729815D01*
X90574549Y-121713181D01*
X81586819Y-112725451D01*
X81553334Y-112664128D01*
X81550500Y-112637770D01*
X81550500Y-110311230D01*
X81570185Y-110244191D01*
X81622989Y-110198436D01*
X81692147Y-110188492D01*
X81755703Y-110217517D01*
X81762181Y-110223549D01*
X82453927Y-110915295D01*
X82480806Y-110955521D01*
X82490606Y-110979179D01*
X82490607Y-110979181D01*
X82578207Y-111110284D01*
X82578213Y-111110292D01*
X82689707Y-111221786D01*
X82689711Y-111221789D01*
X82820814Y-111309390D01*
X82820827Y-111309397D01*
X82966498Y-111369735D01*
X82966503Y-111369737D01*
X83121153Y-111400499D01*
X83121156Y-111400500D01*
X83121158Y-111400500D01*
X83278844Y-111400500D01*
X83278845Y-111400499D01*
X83433497Y-111369737D01*
X83579179Y-111309394D01*
X83710289Y-111221789D01*
X83821789Y-111110289D01*
X83909394Y-110979179D01*
X83969737Y-110833497D01*
X84000500Y-110678842D01*
X84000500Y-110521158D01*
X84000500Y-110521155D01*
X84000499Y-110521153D01*
X83974531Y-110390606D01*
X83969737Y-110366503D01*
X83969735Y-110366498D01*
X83909397Y-110220827D01*
X83909390Y-110220814D01*
X83821789Y-110089711D01*
X83821786Y-110089707D01*
X83710292Y-109978213D01*
X83710284Y-109978207D01*
X83579181Y-109890607D01*
X83579179Y-109890606D01*
X83555521Y-109880806D01*
X83515295Y-109853927D01*
X82686819Y-109025451D01*
X82653334Y-108964128D01*
X82650500Y-108937770D01*
X82650500Y-108660974D01*
X82670185Y-108593935D01*
X82722989Y-108548180D01*
X82792147Y-108538236D01*
X82855703Y-108567261D01*
X82862181Y-108573293D01*
X87767303Y-113478415D01*
X87767304Y-113478416D01*
X87871839Y-113582951D01*
X87871842Y-113582953D01*
X87871843Y-113582954D01*
X87994758Y-113665083D01*
X87994761Y-113665085D01*
X88044920Y-113685861D01*
X88051335Y-113688518D01*
X88131343Y-113721659D01*
X88247496Y-113744763D01*
X88270635Y-113749365D01*
X88276336Y-113750500D01*
X88276337Y-113750500D01*
X88276338Y-113750500D01*
X88424173Y-113750500D01*
X90125500Y-113750500D01*
X90134185Y-113753050D01*
X90143147Y-113751762D01*
X90167187Y-113762740D01*
X90192539Y-113770185D01*
X90198466Y-113777025D01*
X90206703Y-113780787D01*
X90220992Y-113803021D01*
X90238294Y-113822989D01*
X90240581Y-113833503D01*
X90244477Y-113839565D01*
X90249500Y-113874500D01*
X90249500Y-114095396D01*
X90240062Y-114142844D01*
X90230263Y-114166503D01*
X90230262Y-114166506D01*
X90230260Y-114166511D01*
X90199500Y-114321153D01*
X90199500Y-114478846D01*
X90230261Y-114633489D01*
X90230264Y-114633501D01*
X90290602Y-114779172D01*
X90290609Y-114779185D01*
X90378210Y-114910288D01*
X90378213Y-114910292D01*
X90489707Y-115021786D01*
X90489711Y-115021789D01*
X90620814Y-115109390D01*
X90620827Y-115109397D01*
X90766498Y-115169735D01*
X90766503Y-115169737D01*
X90921153Y-115200499D01*
X90921156Y-115200500D01*
X90921158Y-115200500D01*
X91078844Y-115200500D01*
X91078845Y-115200499D01*
X91233497Y-115169737D01*
X91379179Y-115109394D01*
X91510289Y-115021789D01*
X91514154Y-115017924D01*
X91562319Y-114969760D01*
X91623642Y-114936275D01*
X91693334Y-114941259D01*
X91737681Y-114969760D01*
X91789707Y-115021786D01*
X91789711Y-115021789D01*
X91920814Y-115109390D01*
X91920827Y-115109397D01*
X92066498Y-115169735D01*
X92066503Y-115169737D01*
X92221153Y-115200499D01*
X92221156Y-115200500D01*
X92221158Y-115200500D01*
X92378844Y-115200500D01*
X92378845Y-115200499D01*
X92533497Y-115169737D01*
X92679179Y-115109394D01*
X92810289Y-115021789D01*
X92814154Y-115017924D01*
X92862319Y-114969760D01*
X92923642Y-114936275D01*
X92993334Y-114941259D01*
X93037681Y-114969760D01*
X93089707Y-115021786D01*
X93089711Y-115021789D01*
X93220814Y-115109390D01*
X93220827Y-115109397D01*
X93366498Y-115169735D01*
X93366503Y-115169737D01*
X93521153Y-115200499D01*
X93521156Y-115200500D01*
X93521158Y-115200500D01*
X93678844Y-115200500D01*
X93678845Y-115200499D01*
X93833497Y-115169737D01*
X93979179Y-115109394D01*
X94110289Y-115021789D01*
X94112312Y-115019766D01*
X94113634Y-115019043D01*
X94114999Y-115017924D01*
X94115211Y-115018182D01*
X94173632Y-114986276D01*
X94243324Y-114991255D01*
X94284939Y-115017999D01*
X94285001Y-115017924D01*
X94285648Y-115018454D01*
X94287688Y-115019766D01*
X94289711Y-115021789D01*
X94420814Y-115109390D01*
X94420827Y-115109397D01*
X94566498Y-115169735D01*
X94566503Y-115169737D01*
X94721153Y-115200499D01*
X94721156Y-115200500D01*
X94721158Y-115200500D01*
X94878844Y-115200500D01*
X94878845Y-115200499D01*
X95033497Y-115169737D01*
X95179179Y-115109394D01*
X95310289Y-115021789D01*
X95314154Y-115017924D01*
X95362319Y-114969760D01*
X95423642Y-114936275D01*
X95493334Y-114941259D01*
X95537681Y-114969760D01*
X95589707Y-115021786D01*
X95589711Y-115021789D01*
X95720814Y-115109390D01*
X95720827Y-115109397D01*
X95866498Y-115169735D01*
X95866503Y-115169737D01*
X96021153Y-115200499D01*
X96021156Y-115200500D01*
X96021158Y-115200500D01*
X96178844Y-115200500D01*
X96178845Y-115200499D01*
X96333497Y-115169737D01*
X96479179Y-115109394D01*
X96610289Y-115021789D01*
X96612312Y-115019766D01*
X96613634Y-115019043D01*
X96614999Y-115017924D01*
X96615211Y-115018182D01*
X96673632Y-114986276D01*
X96743324Y-114991255D01*
X96784939Y-115017999D01*
X96785001Y-115017924D01*
X96785648Y-115018454D01*
X96787688Y-115019766D01*
X96789711Y-115021789D01*
X96920814Y-115109390D01*
X96920827Y-115109397D01*
X97066498Y-115169735D01*
X97066503Y-115169737D01*
X97221153Y-115200499D01*
X97221156Y-115200500D01*
X97221158Y-115200500D01*
X97378844Y-115200500D01*
X97378845Y-115200499D01*
X97533497Y-115169737D01*
X97679179Y-115109394D01*
X97810289Y-115021789D01*
X97921789Y-114910289D01*
X98009394Y-114779179D01*
X98069737Y-114633497D01*
X98100500Y-114478842D01*
X98100500Y-114321158D01*
X98100500Y-114321155D01*
X98100499Y-114321153D01*
X98069739Y-114166511D01*
X98069738Y-114166508D01*
X98069737Y-114166503D01*
X98059937Y-114142844D01*
X98050500Y-114095396D01*
X98050500Y-112926079D01*
X98021659Y-112781092D01*
X98021658Y-112781091D01*
X98021658Y-112781087D01*
X97965084Y-112644505D01*
X97932186Y-112595270D01*
X97932185Y-112595268D01*
X97882956Y-112521589D01*
X97882952Y-112521584D01*
X96464115Y-111102747D01*
X96382521Y-111021153D01*
X97899500Y-111021153D01*
X97899500Y-111178846D01*
X97930261Y-111333489D01*
X97930264Y-111333501D01*
X97990602Y-111479172D01*
X97990609Y-111479185D01*
X98078210Y-111610288D01*
X98078213Y-111610292D01*
X98189710Y-111721789D01*
X98278609Y-111781189D01*
X98320821Y-111809394D01*
X98344475Y-111819191D01*
X98384703Y-111846071D01*
X99113181Y-112574548D01*
X99146666Y-112635871D01*
X99149500Y-112662229D01*
X99149500Y-113495396D01*
X99140062Y-113542844D01*
X99130263Y-113566503D01*
X99130262Y-113566506D01*
X99130260Y-113566511D01*
X99099500Y-113721153D01*
X99099500Y-113878846D01*
X99130261Y-114033489D01*
X99130264Y-114033501D01*
X99190602Y-114179172D01*
X99190609Y-114179185D01*
X99278210Y-114310288D01*
X99278213Y-114310292D01*
X99389707Y-114421786D01*
X99389711Y-114421789D01*
X99520814Y-114509390D01*
X99520827Y-114509397D01*
X99666498Y-114569735D01*
X99666503Y-114569737D01*
X99821153Y-114600499D01*
X99821156Y-114600500D01*
X99821158Y-114600500D01*
X99978844Y-114600500D01*
X99978845Y-114600499D01*
X100133497Y-114569737D01*
X100279179Y-114509394D01*
X100410289Y-114421789D01*
X100521789Y-114310289D01*
X100609394Y-114179179D01*
X100669737Y-114033497D01*
X100700500Y-113878842D01*
X100700500Y-113721158D01*
X100700500Y-113721155D01*
X100700499Y-113721153D01*
X100669739Y-113566511D01*
X100669738Y-113566508D01*
X100669737Y-113566503D01*
X100659937Y-113542844D01*
X100650500Y-113495396D01*
X100650500Y-112226079D01*
X100621659Y-112081092D01*
X100621658Y-112081091D01*
X100621658Y-112081087D01*
X100621656Y-112081082D01*
X100565087Y-111944511D01*
X100565080Y-111944498D01*
X100482952Y-111821585D01*
X100442555Y-111781188D01*
X100378416Y-111717049D01*
X99446071Y-110784703D01*
X99419191Y-110744475D01*
X99409394Y-110720821D01*
X99381346Y-110678844D01*
X99321789Y-110589710D01*
X99210292Y-110478213D01*
X99210288Y-110478210D01*
X99079185Y-110390609D01*
X99079172Y-110390602D01*
X98933501Y-110330264D01*
X98933489Y-110330261D01*
X98778845Y-110299500D01*
X98778842Y-110299500D01*
X98621158Y-110299500D01*
X98621155Y-110299500D01*
X98466510Y-110330261D01*
X98466498Y-110330264D01*
X98320827Y-110390602D01*
X98320814Y-110390609D01*
X98189711Y-110478210D01*
X98189707Y-110478213D01*
X98078213Y-110589707D01*
X98078210Y-110589711D01*
X97990609Y-110720814D01*
X97990602Y-110720827D01*
X97930264Y-110866498D01*
X97930261Y-110866510D01*
X97899500Y-111021153D01*
X96382521Y-111021153D01*
X93578421Y-108217052D01*
X93578420Y-108217051D01*
X93464775Y-108141117D01*
X93464773Y-108141115D01*
X93455499Y-108134918D01*
X93455490Y-108134913D01*
X93318917Y-108078343D01*
X93318907Y-108078340D01*
X93173920Y-108049500D01*
X93173918Y-108049500D01*
X92573918Y-108049500D01*
X89462229Y-108049500D01*
X89395190Y-108029815D01*
X89374548Y-108013181D01*
X88678416Y-107317048D01*
X87386819Y-106025451D01*
X87353334Y-105964128D01*
X87350500Y-105937770D01*
X87350500Y-89162230D01*
X87370185Y-89095191D01*
X87386819Y-89074549D01*
X90474549Y-85986819D01*
X90535872Y-85953334D01*
X90562230Y-85950500D01*
X103473920Y-85950500D01*
X103571462Y-85931096D01*
X103618913Y-85921658D01*
X103755495Y-85865084D01*
X103837502Y-85810289D01*
X103878416Y-85782952D01*
X104768206Y-84893159D01*
X104768211Y-84893156D01*
X104778414Y-84882952D01*
X104778416Y-84882952D01*
X105082952Y-84578416D01*
X105135681Y-84499500D01*
X105165084Y-84455495D01*
X105198875Y-84373917D01*
X105221659Y-84318912D01*
X105250500Y-84173917D01*
X105250500Y-84026082D01*
X105250500Y-83004604D01*
X105259939Y-82957151D01*
X105260934Y-82954749D01*
X105269737Y-82933497D01*
X105300500Y-82778842D01*
X105300500Y-82621158D01*
X105300500Y-82621155D01*
X105300499Y-82621153D01*
X105297853Y-82607853D01*
X105269737Y-82466503D01*
X105269735Y-82466498D01*
X105209397Y-82320827D01*
X105209390Y-82320814D01*
X105121789Y-82189711D01*
X105121786Y-82189707D01*
X105010292Y-82078213D01*
X105010288Y-82078210D01*
X104879185Y-81990609D01*
X104879172Y-81990602D01*
X104838897Y-81973920D01*
X106069499Y-81973920D01*
X106098340Y-82118907D01*
X106098343Y-82118917D01*
X106154912Y-82255488D01*
X106154919Y-82255501D01*
X106237048Y-82378415D01*
X106237051Y-82378419D01*
X106341580Y-82482948D01*
X106341584Y-82482951D01*
X106464498Y-82565080D01*
X106464511Y-82565087D01*
X106599880Y-82621158D01*
X106601087Y-82621658D01*
X106601091Y-82621658D01*
X106601092Y-82621659D01*
X106746079Y-82650500D01*
X106746082Y-82650500D01*
X106893920Y-82650500D01*
X107019598Y-82625500D01*
X107038913Y-82621658D01*
X107144547Y-82577902D01*
X107175488Y-82565087D01*
X107175488Y-82565086D01*
X107175495Y-82565084D01*
X107298416Y-82482951D01*
X107402951Y-82378416D01*
X107485084Y-82255495D01*
X107541658Y-82118913D01*
X107559292Y-82030263D01*
X107570500Y-81973920D01*
X107570500Y-81826079D01*
X107541659Y-81681092D01*
X107541658Y-81681091D01*
X107541658Y-81681087D01*
X107541656Y-81681082D01*
X107485087Y-81544511D01*
X107485080Y-81544498D01*
X107402951Y-81421584D01*
X107402948Y-81421580D01*
X107298419Y-81317051D01*
X107298415Y-81317048D01*
X107175501Y-81234919D01*
X107175488Y-81234912D01*
X107038917Y-81178343D01*
X107038907Y-81178340D01*
X106893920Y-81149500D01*
X106893918Y-81149500D01*
X106746082Y-81149500D01*
X106746080Y-81149500D01*
X106601092Y-81178340D01*
X106601082Y-81178343D01*
X106464511Y-81234912D01*
X106464498Y-81234919D01*
X106341584Y-81317048D01*
X106341580Y-81317051D01*
X106237051Y-81421580D01*
X106237048Y-81421584D01*
X106154919Y-81544498D01*
X106154912Y-81544511D01*
X106098343Y-81681082D01*
X106098340Y-81681092D01*
X106069500Y-81826079D01*
X106069500Y-81826082D01*
X106069500Y-81973918D01*
X106069500Y-81973920D01*
X106069499Y-81973920D01*
X104838897Y-81973920D01*
X104743850Y-81934551D01*
X104733501Y-81930264D01*
X104733489Y-81930261D01*
X104578845Y-81899500D01*
X104578842Y-81899500D01*
X104421158Y-81899500D01*
X104421155Y-81899500D01*
X104266510Y-81930261D01*
X104266498Y-81930264D01*
X104120827Y-81990602D01*
X104120814Y-81990609D01*
X103989711Y-82078210D01*
X103989707Y-82078213D01*
X103878213Y-82189707D01*
X103878210Y-82189711D01*
X103790609Y-82320814D01*
X103790602Y-82320827D01*
X103730264Y-82466498D01*
X103730261Y-82466510D01*
X103699500Y-82621153D01*
X103699500Y-82778846D01*
X103730261Y-82933489D01*
X103730263Y-82933497D01*
X103740061Y-82957151D01*
X103749500Y-83004604D01*
X103749500Y-83737770D01*
X103729815Y-83804809D01*
X103713181Y-83825451D01*
X103125451Y-84413181D01*
X103064128Y-84446666D01*
X103037770Y-84449500D01*
X96992244Y-84449500D01*
X96925205Y-84429815D01*
X96879450Y-84377011D01*
X96869506Y-84307853D01*
X96898531Y-84244297D01*
X96944791Y-84210939D01*
X96948910Y-84209233D01*
X97055495Y-84165084D01*
X97178416Y-84082951D01*
X97282951Y-83978416D01*
X97365084Y-83855495D01*
X97421658Y-83718913D01*
X97450500Y-83573918D01*
X97450500Y-83004604D01*
X97459939Y-82957151D01*
X97460934Y-82954749D01*
X97469737Y-82933497D01*
X97500500Y-82778842D01*
X97500500Y-82621158D01*
X97500500Y-82621155D01*
X97500499Y-82621153D01*
X97497853Y-82607853D01*
X97469737Y-82466503D01*
X97469735Y-82466498D01*
X97409397Y-82320827D01*
X97409390Y-82320814D01*
X97321789Y-82189711D01*
X97321786Y-82189707D01*
X97210292Y-82078213D01*
X97210288Y-82078210D01*
X97079185Y-81990609D01*
X97079172Y-81990602D01*
X97038897Y-81973920D01*
X98069499Y-81973920D01*
X98098340Y-82118907D01*
X98098343Y-82118917D01*
X98154912Y-82255488D01*
X98154919Y-82255501D01*
X98237048Y-82378415D01*
X98237051Y-82378419D01*
X98341580Y-82482948D01*
X98341584Y-82482951D01*
X98464498Y-82565080D01*
X98464511Y-82565087D01*
X98599880Y-82621158D01*
X98601087Y-82621658D01*
X98601091Y-82621658D01*
X98601092Y-82621659D01*
X98746079Y-82650500D01*
X98746082Y-82650500D01*
X98893920Y-82650500D01*
X99019598Y-82625500D01*
X99038913Y-82621658D01*
X99144547Y-82577902D01*
X99175488Y-82565087D01*
X99175488Y-82565086D01*
X99175495Y-82565084D01*
X99298416Y-82482951D01*
X99402951Y-82378416D01*
X99485084Y-82255495D01*
X99541658Y-82118913D01*
X99559292Y-82030263D01*
X99570500Y-81973920D01*
X99570500Y-81826079D01*
X99541659Y-81681092D01*
X99541658Y-81681091D01*
X99541658Y-81681087D01*
X99541656Y-81681082D01*
X99485087Y-81544511D01*
X99485080Y-81544498D01*
X99402951Y-81421584D01*
X99402948Y-81421580D01*
X99298419Y-81317051D01*
X99298415Y-81317048D01*
X99175501Y-81234919D01*
X99175488Y-81234912D01*
X99038917Y-81178343D01*
X99038907Y-81178340D01*
X98893920Y-81149500D01*
X98893918Y-81149500D01*
X98746082Y-81149500D01*
X98746080Y-81149500D01*
X98601092Y-81178340D01*
X98601082Y-81178343D01*
X98464511Y-81234912D01*
X98464498Y-81234919D01*
X98341584Y-81317048D01*
X98341580Y-81317051D01*
X98237051Y-81421580D01*
X98237048Y-81421584D01*
X98154919Y-81544498D01*
X98154912Y-81544511D01*
X98098343Y-81681082D01*
X98098340Y-81681092D01*
X98069500Y-81826079D01*
X98069500Y-81826082D01*
X98069500Y-81973918D01*
X98069500Y-81973920D01*
X98069499Y-81973920D01*
X97038897Y-81973920D01*
X96943850Y-81934551D01*
X96933501Y-81930264D01*
X96933489Y-81930261D01*
X96778845Y-81899500D01*
X96778842Y-81899500D01*
X96621158Y-81899500D01*
X96621155Y-81899500D01*
X96466510Y-81930261D01*
X96466498Y-81930264D01*
X96320827Y-81990602D01*
X96320814Y-81990609D01*
X96189711Y-82078210D01*
X96189707Y-82078213D01*
X96078213Y-82189707D01*
X96078210Y-82189711D01*
X95990609Y-82320814D01*
X95990602Y-82320827D01*
X95930264Y-82466498D01*
X95930261Y-82466510D01*
X95899500Y-82621153D01*
X95899500Y-82625500D01*
X95879815Y-82692539D01*
X95827011Y-82738294D01*
X95775500Y-82749500D01*
X91308271Y-82749500D01*
X91241232Y-82729815D01*
X91195477Y-82677011D01*
X91185533Y-82607853D01*
X91214558Y-82544297D01*
X91239380Y-82522398D01*
X91264515Y-82505602D01*
X91298416Y-82482951D01*
X91402951Y-82378416D01*
X91485084Y-82255495D01*
X91541658Y-82118913D01*
X91559292Y-82030263D01*
X91570500Y-81973920D01*
X91570500Y-81826079D01*
X91541659Y-81681092D01*
X91541658Y-81681091D01*
X91541658Y-81681087D01*
X91541656Y-81681082D01*
X91485087Y-81544511D01*
X91485080Y-81544498D01*
X91402951Y-81421584D01*
X91402948Y-81421580D01*
X91298419Y-81317051D01*
X91298415Y-81317048D01*
X91175501Y-81234919D01*
X91175488Y-81234912D01*
X91038917Y-81178343D01*
X91038907Y-81178340D01*
X90893920Y-81149500D01*
X90893918Y-81149500D01*
X90746082Y-81149500D01*
X90746080Y-81149500D01*
X90601092Y-81178340D01*
X90601082Y-81178343D01*
X90464511Y-81234912D01*
X90464498Y-81234919D01*
X90341584Y-81317048D01*
X90341580Y-81317051D01*
X90237051Y-81421580D01*
X90237048Y-81421584D01*
X90154919Y-81544498D01*
X90154912Y-81544511D01*
X90098343Y-81681082D01*
X90098340Y-81681092D01*
X90069500Y-81826079D01*
X90069500Y-81826082D01*
X90069500Y-81973918D01*
X90069500Y-81973920D01*
X90069499Y-81973920D01*
X90098340Y-82118907D01*
X90098343Y-82118917D01*
X90154912Y-82255488D01*
X90154919Y-82255501D01*
X90237048Y-82378415D01*
X90237051Y-82378419D01*
X90341580Y-82482948D01*
X90341584Y-82482951D01*
X90464498Y-82565080D01*
X90464510Y-82565087D01*
X90533462Y-82593647D01*
X90558670Y-82604088D01*
X90613074Y-82647928D01*
X90635139Y-82714222D01*
X90617860Y-82781922D01*
X90576965Y-82823784D01*
X90568204Y-82829262D01*
X90554555Y-82834916D01*
X90488815Y-82878842D01*
X90487283Y-82879865D01*
X90487260Y-82879880D01*
X90431631Y-82917050D01*
X90431630Y-82917051D01*
X89862181Y-83486501D01*
X89800858Y-83519986D01*
X89731166Y-83515002D01*
X89675233Y-83473130D01*
X89650816Y-83407666D01*
X89650500Y-83398820D01*
X89650500Y-83104604D01*
X89659939Y-83057151D01*
X89669737Y-83033497D01*
X89700500Y-82878842D01*
X89700500Y-82721158D01*
X89700500Y-82721155D01*
X89700499Y-82721153D01*
X89694807Y-82692539D01*
X89669737Y-82566503D01*
X89669735Y-82566498D01*
X89609397Y-82420827D01*
X89609390Y-82420814D01*
X89521789Y-82289711D01*
X89521786Y-82289707D01*
X89410292Y-82178213D01*
X89410288Y-82178210D01*
X89279185Y-82090609D01*
X89279172Y-82090602D01*
X89133501Y-82030264D01*
X89133489Y-82030261D01*
X88978845Y-81999500D01*
X88978842Y-81999500D01*
X88821158Y-81999500D01*
X88821155Y-81999500D01*
X88666510Y-82030261D01*
X88666498Y-82030264D01*
X88520827Y-82090602D01*
X88520814Y-82090609D01*
X88389711Y-82178210D01*
X88389707Y-82178213D01*
X88278213Y-82289707D01*
X88278210Y-82289711D01*
X88190609Y-82420814D01*
X88190602Y-82420827D01*
X88130264Y-82566498D01*
X88130261Y-82566510D01*
X88099500Y-82721153D01*
X88099500Y-82878843D01*
X88130261Y-83033489D01*
X88130263Y-83033497D01*
X88140061Y-83057151D01*
X88149500Y-83104604D01*
X88149500Y-84157870D01*
X88129815Y-84224909D01*
X88113181Y-84245551D01*
X84217052Y-88141679D01*
X84217049Y-88141682D01*
X84185839Y-88188391D01*
X84185840Y-88188392D01*
X84134914Y-88264609D01*
X84078343Y-88401183D01*
X84078340Y-88401193D01*
X84049500Y-88546180D01*
X84049500Y-92388770D01*
X84029815Y-92455809D01*
X83977011Y-92501564D01*
X83907853Y-92511508D01*
X83844297Y-92482483D01*
X83837819Y-92476451D01*
X80886819Y-89525451D01*
X80853334Y-89464128D01*
X80850500Y-89437770D01*
X80850500Y-82904604D01*
X80859939Y-82857151D01*
X80869737Y-82833497D01*
X80900500Y-82678842D01*
X80900500Y-82521158D01*
X80900500Y-82521155D01*
X80900499Y-82521153D01*
X80892900Y-82482951D01*
X80869737Y-82366503D01*
X80850818Y-82320827D01*
X80809397Y-82220827D01*
X80809390Y-82220814D01*
X80721789Y-82089711D01*
X80721786Y-82089707D01*
X80610292Y-81978213D01*
X80610288Y-81978210D01*
X80603868Y-81973920D01*
X82069499Y-81973920D01*
X82098340Y-82118907D01*
X82098343Y-82118917D01*
X82154912Y-82255488D01*
X82154919Y-82255501D01*
X82237048Y-82378415D01*
X82237051Y-82378419D01*
X82341580Y-82482948D01*
X82341584Y-82482951D01*
X82464498Y-82565080D01*
X82464511Y-82565087D01*
X82599880Y-82621158D01*
X82601087Y-82621658D01*
X82601091Y-82621658D01*
X82601092Y-82621659D01*
X82746079Y-82650500D01*
X82746082Y-82650500D01*
X82893920Y-82650500D01*
X83019598Y-82625500D01*
X83038913Y-82621658D01*
X83144547Y-82577902D01*
X83175488Y-82565087D01*
X83175488Y-82565086D01*
X83175495Y-82565084D01*
X83298416Y-82482951D01*
X83402951Y-82378416D01*
X83485084Y-82255495D01*
X83541658Y-82118913D01*
X83559292Y-82030263D01*
X83570500Y-81973920D01*
X83570500Y-81826079D01*
X83541659Y-81681092D01*
X83541658Y-81681091D01*
X83541658Y-81681087D01*
X83541656Y-81681082D01*
X83485087Y-81544511D01*
X83485080Y-81544498D01*
X83402951Y-81421584D01*
X83402948Y-81421580D01*
X83298419Y-81317051D01*
X83298415Y-81317048D01*
X83175501Y-81234919D01*
X83175488Y-81234912D01*
X83038917Y-81178343D01*
X83038907Y-81178340D01*
X82893920Y-81149500D01*
X82893918Y-81149500D01*
X82746082Y-81149500D01*
X82746080Y-81149500D01*
X82601092Y-81178340D01*
X82601082Y-81178343D01*
X82464511Y-81234912D01*
X82464498Y-81234919D01*
X82341584Y-81317048D01*
X82341580Y-81317051D01*
X82237051Y-81421580D01*
X82237048Y-81421584D01*
X82154919Y-81544498D01*
X82154912Y-81544511D01*
X82098343Y-81681082D01*
X82098340Y-81681092D01*
X82069500Y-81826079D01*
X82069500Y-81826082D01*
X82069500Y-81973918D01*
X82069500Y-81973920D01*
X82069499Y-81973920D01*
X80603868Y-81973920D01*
X80527798Y-81923092D01*
X80479184Y-81890609D01*
X80479172Y-81890602D01*
X80333501Y-81830264D01*
X80333489Y-81830261D01*
X80178845Y-81799500D01*
X80178842Y-81799500D01*
X80021158Y-81799500D01*
X80021155Y-81799500D01*
X79866510Y-81830261D01*
X79866498Y-81830264D01*
X79720827Y-81890602D01*
X79720814Y-81890609D01*
X79589711Y-81978210D01*
X79589707Y-81978213D01*
X79478213Y-82089707D01*
X79478210Y-82089711D01*
X79390609Y-82220814D01*
X79390602Y-82220827D01*
X79330264Y-82366498D01*
X79330261Y-82366510D01*
X79299500Y-82521153D01*
X79299500Y-82678846D01*
X79330261Y-82833489D01*
X79330263Y-82833497D01*
X79340061Y-82857151D01*
X79349500Y-82904604D01*
X79349500Y-88788770D01*
X79329815Y-88855809D01*
X79277011Y-88901564D01*
X79207853Y-88911508D01*
X79144297Y-88882483D01*
X79137819Y-88876451D01*
X74186819Y-83925451D01*
X74153334Y-83864128D01*
X74150500Y-83837770D01*
X74150500Y-83226079D01*
X74121659Y-83081092D01*
X74121658Y-83081091D01*
X74121658Y-83081087D01*
X74121656Y-83081082D01*
X74065087Y-82944511D01*
X74065080Y-82944498D01*
X73982952Y-82821585D01*
X73939709Y-82778342D01*
X73878416Y-82717049D01*
X73546072Y-82384705D01*
X73519191Y-82344473D01*
X73509397Y-82320828D01*
X73509394Y-82320822D01*
X73509394Y-82320821D01*
X73448884Y-82230261D01*
X73421789Y-82189710D01*
X73310292Y-82078213D01*
X73310288Y-82078210D01*
X73179185Y-81990609D01*
X73179172Y-81990602D01*
X73138897Y-81973920D01*
X74069499Y-81973920D01*
X74098340Y-82118907D01*
X74098343Y-82118917D01*
X74154912Y-82255488D01*
X74154919Y-82255501D01*
X74237048Y-82378415D01*
X74237051Y-82378419D01*
X74341580Y-82482948D01*
X74341584Y-82482951D01*
X74464498Y-82565080D01*
X74464511Y-82565087D01*
X74599880Y-82621158D01*
X74601087Y-82621658D01*
X74601091Y-82621658D01*
X74601092Y-82621659D01*
X74746079Y-82650500D01*
X74746082Y-82650500D01*
X74893920Y-82650500D01*
X75019598Y-82625500D01*
X75038913Y-82621658D01*
X75144547Y-82577902D01*
X75175488Y-82565087D01*
X75175488Y-82565086D01*
X75175495Y-82565084D01*
X75298416Y-82482951D01*
X75402951Y-82378416D01*
X75485084Y-82255495D01*
X75541658Y-82118913D01*
X75559292Y-82030263D01*
X75570500Y-81973920D01*
X75570500Y-81826079D01*
X75541659Y-81681092D01*
X75541658Y-81681091D01*
X75541658Y-81681087D01*
X75541656Y-81681082D01*
X75485087Y-81544511D01*
X75485080Y-81544498D01*
X75402951Y-81421584D01*
X75402948Y-81421580D01*
X75298419Y-81317051D01*
X75298415Y-81317048D01*
X75175501Y-81234919D01*
X75175488Y-81234912D01*
X75038917Y-81178343D01*
X75038907Y-81178340D01*
X74893920Y-81149500D01*
X74893918Y-81149500D01*
X74746082Y-81149500D01*
X74746080Y-81149500D01*
X74601092Y-81178340D01*
X74601082Y-81178343D01*
X74464511Y-81234912D01*
X74464498Y-81234919D01*
X74341584Y-81317048D01*
X74341580Y-81317051D01*
X74237051Y-81421580D01*
X74237048Y-81421584D01*
X74154919Y-81544498D01*
X74154912Y-81544511D01*
X74098343Y-81681082D01*
X74098340Y-81681092D01*
X74069500Y-81826079D01*
X74069500Y-81826082D01*
X74069500Y-81973918D01*
X74069500Y-81973920D01*
X74069499Y-81973920D01*
X73138897Y-81973920D01*
X73043850Y-81934551D01*
X73033501Y-81930264D01*
X73033489Y-81930261D01*
X72878845Y-81899500D01*
X72878842Y-81899500D01*
X72721158Y-81899500D01*
X72721155Y-81899500D01*
X72566510Y-81930261D01*
X72566498Y-81930264D01*
X72420827Y-81990602D01*
X72420814Y-81990609D01*
X72289711Y-82078210D01*
X72289707Y-82078213D01*
X72178213Y-82189707D01*
X72178210Y-82189711D01*
X72090609Y-82320814D01*
X72090602Y-82320827D01*
X72030264Y-82466498D01*
X72030261Y-82466510D01*
X71999500Y-82621153D01*
X71999500Y-82778846D01*
X72030261Y-82933489D01*
X72030264Y-82933501D01*
X72090602Y-83079172D01*
X72090609Y-83079185D01*
X72178210Y-83210288D01*
X72178213Y-83210292D01*
X72289710Y-83321789D01*
X72377315Y-83380324D01*
X72420821Y-83409394D01*
X72420826Y-83409396D01*
X72420828Y-83409397D01*
X72444473Y-83419191D01*
X72451406Y-83423823D01*
X72456451Y-83424921D01*
X72484704Y-83446071D01*
X72601938Y-83563305D01*
X72635423Y-83624628D01*
X72630439Y-83694320D01*
X72588567Y-83750253D01*
X72523103Y-83774670D01*
X72490065Y-83772603D01*
X72373920Y-83749500D01*
X72373918Y-83749500D01*
X66962229Y-83749500D01*
X66895190Y-83729815D01*
X66874548Y-83713181D01*
X66218518Y-83057151D01*
X65546071Y-82384703D01*
X65519191Y-82344475D01*
X65509394Y-82320821D01*
X65448884Y-82230261D01*
X65421789Y-82189710D01*
X65310292Y-82078213D01*
X65310288Y-82078210D01*
X65179185Y-81990609D01*
X65179172Y-81990602D01*
X65138897Y-81973920D01*
X66069499Y-81973920D01*
X66098340Y-82118907D01*
X66098343Y-82118917D01*
X66154912Y-82255488D01*
X66154919Y-82255501D01*
X66237048Y-82378415D01*
X66237051Y-82378419D01*
X66341580Y-82482948D01*
X66341584Y-82482951D01*
X66464498Y-82565080D01*
X66464511Y-82565087D01*
X66599880Y-82621158D01*
X66601087Y-82621658D01*
X66601091Y-82621658D01*
X66601092Y-82621659D01*
X66746079Y-82650500D01*
X66746082Y-82650500D01*
X66893920Y-82650500D01*
X67019598Y-82625500D01*
X67038913Y-82621658D01*
X67144547Y-82577902D01*
X67175488Y-82565087D01*
X67175488Y-82565086D01*
X67175495Y-82565084D01*
X67298416Y-82482951D01*
X67402951Y-82378416D01*
X67485084Y-82255495D01*
X67541658Y-82118913D01*
X67559292Y-82030263D01*
X67570500Y-81973920D01*
X67570500Y-81826079D01*
X67541659Y-81681092D01*
X67541658Y-81681091D01*
X67541658Y-81681087D01*
X67541656Y-81681082D01*
X67485087Y-81544511D01*
X67485080Y-81544498D01*
X67402951Y-81421584D01*
X67402948Y-81421580D01*
X67298419Y-81317051D01*
X67298415Y-81317048D01*
X67175501Y-81234919D01*
X67175488Y-81234912D01*
X67038917Y-81178343D01*
X67038907Y-81178340D01*
X66893920Y-81149500D01*
X66893918Y-81149500D01*
X66746082Y-81149500D01*
X66746080Y-81149500D01*
X66601092Y-81178340D01*
X66601082Y-81178343D01*
X66464511Y-81234912D01*
X66464498Y-81234919D01*
X66341584Y-81317048D01*
X66341580Y-81317051D01*
X66237051Y-81421580D01*
X66237048Y-81421584D01*
X66154919Y-81544498D01*
X66154912Y-81544511D01*
X66098343Y-81681082D01*
X66098340Y-81681092D01*
X66069500Y-81826079D01*
X66069500Y-81826082D01*
X66069500Y-81973918D01*
X66069500Y-81973920D01*
X66069499Y-81973920D01*
X65138897Y-81973920D01*
X65043850Y-81934551D01*
X65033501Y-81930264D01*
X65033489Y-81930261D01*
X64878845Y-81899500D01*
X64878842Y-81899500D01*
X64721158Y-81899500D01*
X64721155Y-81899500D01*
X64566510Y-81930261D01*
X64566498Y-81930264D01*
X64420827Y-81990602D01*
X64420814Y-81990609D01*
X64289711Y-82078210D01*
X64289707Y-82078213D01*
X64178213Y-82189707D01*
X64178210Y-82189711D01*
X64090609Y-82320814D01*
X64090602Y-82320827D01*
X64030264Y-82466498D01*
X64030261Y-82466510D01*
X63999500Y-82621153D01*
X63999500Y-82778846D01*
X64030261Y-82933489D01*
X64030264Y-82933501D01*
X64090602Y-83079172D01*
X64090609Y-83079185D01*
X64178210Y-83210288D01*
X64178213Y-83210292D01*
X64289710Y-83321789D01*
X64404996Y-83398820D01*
X64420821Y-83409394D01*
X64444475Y-83419191D01*
X64484703Y-83446071D01*
X64973121Y-83934489D01*
X65276452Y-84237819D01*
X65309937Y-84299142D01*
X65304953Y-84368833D01*
X65263081Y-84424767D01*
X65197617Y-84449184D01*
X65188771Y-84449500D01*
X59262229Y-84449500D01*
X59195190Y-84429815D01*
X59174548Y-84413181D01*
X57731561Y-82970193D01*
X57698076Y-82908870D01*
X57697625Y-82906703D01*
X57681131Y-82823784D01*
X57669737Y-82766503D01*
X57658053Y-82738294D01*
X57609397Y-82620827D01*
X57609390Y-82620814D01*
X57521789Y-82489711D01*
X57521786Y-82489707D01*
X57410292Y-82378213D01*
X57410288Y-82378210D01*
X57279185Y-82290609D01*
X57279172Y-82290602D01*
X57133501Y-82230264D01*
X57133489Y-82230261D01*
X56978845Y-82199500D01*
X56978842Y-82199500D01*
X56821158Y-82199500D01*
X56821155Y-82199500D01*
X56666510Y-82230261D01*
X56666498Y-82230264D01*
X56520827Y-82290602D01*
X56520814Y-82290609D01*
X56389711Y-82378210D01*
X56389707Y-82378213D01*
X56278213Y-82489707D01*
X56278210Y-82489711D01*
X56190609Y-82620814D01*
X56190602Y-82620827D01*
X56130264Y-82766498D01*
X56130261Y-82766510D01*
X56099500Y-82921153D01*
X49500500Y-82921153D01*
X49500500Y-81973920D01*
X50069499Y-81973920D01*
X50098340Y-82118907D01*
X50098343Y-82118917D01*
X50154912Y-82255488D01*
X50154919Y-82255501D01*
X50237048Y-82378415D01*
X50237051Y-82378419D01*
X50341580Y-82482948D01*
X50341584Y-82482951D01*
X50464498Y-82565080D01*
X50464511Y-82565087D01*
X50599880Y-82621158D01*
X50601087Y-82621658D01*
X50601091Y-82621658D01*
X50601092Y-82621659D01*
X50746079Y-82650500D01*
X50746082Y-82650500D01*
X50893920Y-82650500D01*
X51019598Y-82625500D01*
X51038913Y-82621658D01*
X51144547Y-82577902D01*
X51175488Y-82565087D01*
X51175488Y-82565086D01*
X51175495Y-82565084D01*
X51298416Y-82482951D01*
X51402951Y-82378416D01*
X51485084Y-82255495D01*
X51541658Y-82118913D01*
X51559292Y-82030263D01*
X51570500Y-81973920D01*
X58069499Y-81973920D01*
X58098340Y-82118907D01*
X58098343Y-82118917D01*
X58154912Y-82255488D01*
X58154919Y-82255501D01*
X58237048Y-82378415D01*
X58237051Y-82378419D01*
X58341580Y-82482948D01*
X58341584Y-82482951D01*
X58464498Y-82565080D01*
X58464511Y-82565087D01*
X58599880Y-82621158D01*
X58601087Y-82621658D01*
X58601091Y-82621658D01*
X58601092Y-82621659D01*
X58746079Y-82650500D01*
X58746082Y-82650500D01*
X58893920Y-82650500D01*
X59019598Y-82625500D01*
X59038913Y-82621658D01*
X59144547Y-82577902D01*
X59175488Y-82565087D01*
X59175488Y-82565086D01*
X59175495Y-82565084D01*
X59298416Y-82482951D01*
X59402951Y-82378416D01*
X59485084Y-82255495D01*
X59541658Y-82118913D01*
X59559292Y-82030263D01*
X59570500Y-81973920D01*
X59570500Y-81826079D01*
X59541659Y-81681092D01*
X59541658Y-81681091D01*
X59541658Y-81681087D01*
X59541656Y-81681082D01*
X59485087Y-81544511D01*
X59485080Y-81544498D01*
X59402951Y-81421584D01*
X59402948Y-81421580D01*
X59298419Y-81317051D01*
X59298415Y-81317048D01*
X59175501Y-81234919D01*
X59175488Y-81234912D01*
X59038917Y-81178343D01*
X59038907Y-81178340D01*
X58893920Y-81149500D01*
X58893918Y-81149500D01*
X58746082Y-81149500D01*
X58746080Y-81149500D01*
X58601092Y-81178340D01*
X58601082Y-81178343D01*
X58464511Y-81234912D01*
X58464498Y-81234919D01*
X58341584Y-81317048D01*
X58341580Y-81317051D01*
X58237051Y-81421580D01*
X58237048Y-81421584D01*
X58154919Y-81544498D01*
X58154912Y-81544511D01*
X58098343Y-81681082D01*
X58098340Y-81681092D01*
X58069500Y-81826079D01*
X58069500Y-81826082D01*
X58069500Y-81973918D01*
X58069500Y-81973920D01*
X58069499Y-81973920D01*
X51570500Y-81973920D01*
X51570500Y-81826079D01*
X51541659Y-81681092D01*
X51541658Y-81681091D01*
X51541658Y-81681087D01*
X51541656Y-81681082D01*
X51485087Y-81544511D01*
X51485080Y-81544498D01*
X51402951Y-81421584D01*
X51402948Y-81421580D01*
X51298419Y-81317051D01*
X51298415Y-81317048D01*
X51175501Y-81234919D01*
X51175488Y-81234912D01*
X51038917Y-81178343D01*
X51038907Y-81178340D01*
X50893920Y-81149500D01*
X50893918Y-81149500D01*
X50746082Y-81149500D01*
X50746080Y-81149500D01*
X50601092Y-81178340D01*
X50601082Y-81178343D01*
X50464511Y-81234912D01*
X50464498Y-81234919D01*
X50341584Y-81317048D01*
X50341580Y-81317051D01*
X50237051Y-81421580D01*
X50237048Y-81421584D01*
X50154919Y-81544498D01*
X50154912Y-81544511D01*
X50098343Y-81681082D01*
X50098340Y-81681092D01*
X50069500Y-81826079D01*
X50069500Y-81826082D01*
X50069500Y-81973918D01*
X50069500Y-81973920D01*
X50069499Y-81973920D01*
X49500500Y-81973920D01*
X49500500Y-77131902D01*
X49869500Y-77131902D01*
X49869500Y-77368097D01*
X49906446Y-77601368D01*
X49979433Y-77825996D01*
X50086657Y-78036433D01*
X50225483Y-78227510D01*
X50392490Y-78394517D01*
X50583567Y-78533343D01*
X50682991Y-78584002D01*
X50794003Y-78640566D01*
X50794005Y-78640566D01*
X50794008Y-78640568D01*
X50859726Y-78661921D01*
X51018631Y-78713553D01*
X51251903Y-78750500D01*
X51251908Y-78750500D01*
X51488097Y-78750500D01*
X51721368Y-78713553D01*
X51764615Y-78699501D01*
X51945992Y-78640568D01*
X52156433Y-78533343D01*
X52347510Y-78394517D01*
X52514517Y-78227510D01*
X52653343Y-78036433D01*
X52760568Y-77825992D01*
X52833553Y-77601368D01*
X52870500Y-77368097D01*
X52870500Y-77131902D01*
X52833553Y-76898631D01*
X52760566Y-76674003D01*
X52653342Y-76463566D01*
X52514517Y-76272490D01*
X52347510Y-76105483D01*
X52156433Y-75966657D01*
X52095241Y-75935478D01*
X51945996Y-75859433D01*
X51721368Y-75786446D01*
X51488097Y-75749500D01*
X51488092Y-75749500D01*
X51251908Y-75749500D01*
X51251903Y-75749500D01*
X51018631Y-75786446D01*
X50794003Y-75859433D01*
X50583566Y-75966657D01*
X50474550Y-76045862D01*
X50392490Y-76105483D01*
X50392488Y-76105485D01*
X50392487Y-76105485D01*
X50225485Y-76272487D01*
X50225485Y-76272488D01*
X50225483Y-76272490D01*
X50165862Y-76354550D01*
X50086657Y-76463566D01*
X49979433Y-76674003D01*
X49906446Y-76898631D01*
X49869500Y-77131902D01*
X49500500Y-77131902D01*
X49500500Y-74397648D01*
X53239500Y-74397648D01*
X53239500Y-74602351D01*
X53271522Y-74804534D01*
X53334781Y-74999223D01*
X53427715Y-75181613D01*
X53548028Y-75347213D01*
X53692786Y-75491971D01*
X53847014Y-75604022D01*
X53858390Y-75612287D01*
X53974607Y-75671503D01*
X54040776Y-75705218D01*
X54040778Y-75705218D01*
X54040781Y-75705220D01*
X54126882Y-75733196D01*
X54235465Y-75768477D01*
X54263234Y-75772875D01*
X54285332Y-75776375D01*
X54348467Y-75806304D01*
X54385399Y-75865615D01*
X54384401Y-75935478D01*
X54345792Y-75993710D01*
X54338821Y-75999165D01*
X54192496Y-76105478D01*
X54192487Y-76105485D01*
X54025485Y-76272487D01*
X54025485Y-76272488D01*
X54025483Y-76272490D01*
X53965862Y-76354550D01*
X53886657Y-76463566D01*
X53779433Y-76674003D01*
X53706446Y-76898631D01*
X53669500Y-77131902D01*
X53669500Y-77368097D01*
X53706446Y-77601368D01*
X53779433Y-77825996D01*
X53886657Y-78036433D01*
X54025483Y-78227510D01*
X54192490Y-78394517D01*
X54303516Y-78475182D01*
X54346181Y-78530512D01*
X54352160Y-78600126D01*
X54319554Y-78661921D01*
X54258715Y-78696278D01*
X54230630Y-78699500D01*
X53692129Y-78699500D01*
X53692123Y-78699501D01*
X53632516Y-78705908D01*
X53497671Y-78756202D01*
X53497664Y-78756206D01*
X53382455Y-78842452D01*
X53382452Y-78842455D01*
X53296206Y-78957664D01*
X53296202Y-78957671D01*
X53245908Y-79092517D01*
X53239501Y-79152116D01*
X53239501Y-79152123D01*
X53239500Y-79152135D01*
X53239500Y-80847870D01*
X53239501Y-80847876D01*
X53245908Y-80907483D01*
X53296202Y-81042328D01*
X53296206Y-81042335D01*
X53382452Y-81157544D01*
X53382455Y-81157547D01*
X53497664Y-81243793D01*
X53497671Y-81243797D01*
X53632517Y-81294091D01*
X53632516Y-81294091D01*
X53639444Y-81294835D01*
X53692127Y-81300500D01*
X55387872Y-81300499D01*
X55447483Y-81294091D01*
X55582331Y-81243796D01*
X55697546Y-81157546D01*
X55783796Y-81042331D01*
X55834091Y-80907483D01*
X55840500Y-80847873D01*
X55840499Y-79152128D01*
X55834091Y-79092517D01*
X55783796Y-78957669D01*
X55783795Y-78957668D01*
X55783793Y-78957664D01*
X55692232Y-78835355D01*
X55694086Y-78833966D01*
X55666648Y-78783718D01*
X55671632Y-78714026D01*
X55713504Y-78658093D01*
X55741890Y-78643374D01*
X55741499Y-78642429D01*
X55745990Y-78640569D01*
X55745996Y-78640566D01*
X55956433Y-78533343D01*
X56147510Y-78394517D01*
X56314517Y-78227510D01*
X56453343Y-78036433D01*
X56560568Y-77825992D01*
X56633553Y-77601368D01*
X56670500Y-77368097D01*
X56670500Y-77131902D01*
X57869500Y-77131902D01*
X57869500Y-77368097D01*
X57906446Y-77601368D01*
X57979433Y-77825996D01*
X58086657Y-78036433D01*
X58225483Y-78227510D01*
X58392490Y-78394517D01*
X58583567Y-78533343D01*
X58682991Y-78584002D01*
X58794003Y-78640566D01*
X58794005Y-78640566D01*
X58794008Y-78640568D01*
X58859726Y-78661921D01*
X59018631Y-78713553D01*
X59251903Y-78750500D01*
X59251908Y-78750500D01*
X59488097Y-78750500D01*
X59721368Y-78713553D01*
X59764615Y-78699501D01*
X59945992Y-78640568D01*
X60156433Y-78533343D01*
X60347510Y-78394517D01*
X60514517Y-78227510D01*
X60653343Y-78036433D01*
X60760568Y-77825992D01*
X60833553Y-77601368D01*
X60870500Y-77368097D01*
X60870500Y-77131902D01*
X60833553Y-76898631D01*
X60760566Y-76674003D01*
X60653342Y-76463566D01*
X60514517Y-76272490D01*
X60347510Y-76105483D01*
X60156433Y-75966657D01*
X60095241Y-75935478D01*
X59945996Y-75859433D01*
X59721368Y-75786446D01*
X59488097Y-75749500D01*
X59488092Y-75749500D01*
X59251908Y-75749500D01*
X59251903Y-75749500D01*
X59018631Y-75786446D01*
X58794003Y-75859433D01*
X58583566Y-75966657D01*
X58474550Y-76045862D01*
X58392490Y-76105483D01*
X58392488Y-76105485D01*
X58392487Y-76105485D01*
X58225485Y-76272487D01*
X58225485Y-76272488D01*
X58225483Y-76272490D01*
X58165862Y-76354550D01*
X58086657Y-76463566D01*
X57979433Y-76674003D01*
X57906446Y-76898631D01*
X57869500Y-77131902D01*
X56670500Y-77131902D01*
X56633553Y-76898631D01*
X56560566Y-76674003D01*
X56453342Y-76463566D01*
X56314517Y-76272490D01*
X56147510Y-76105483D01*
X55956433Y-75966657D01*
X55895241Y-75935478D01*
X55745996Y-75859433D01*
X55521369Y-75786447D01*
X55374130Y-75763126D01*
X55310996Y-75733196D01*
X55274065Y-75673885D01*
X55275063Y-75604022D01*
X55313673Y-75545790D01*
X55320637Y-75540340D01*
X55387219Y-75491966D01*
X55531966Y-75347219D01*
X55531968Y-75347215D01*
X55531971Y-75347213D01*
X55584732Y-75274590D01*
X55652287Y-75181610D01*
X55745220Y-74999219D01*
X55808477Y-74804534D01*
X55840500Y-74602352D01*
X55840500Y-74397648D01*
X61239500Y-74397648D01*
X61239500Y-74602351D01*
X61271522Y-74804534D01*
X61334781Y-74999223D01*
X61427715Y-75181613D01*
X61548028Y-75347213D01*
X61692786Y-75491971D01*
X61847014Y-75604022D01*
X61858390Y-75612287D01*
X61974607Y-75671503D01*
X62040776Y-75705218D01*
X62040778Y-75705218D01*
X62040781Y-75705220D01*
X62126882Y-75733196D01*
X62235465Y-75768477D01*
X62263234Y-75772875D01*
X62285332Y-75776375D01*
X62348467Y-75806304D01*
X62385399Y-75865615D01*
X62384401Y-75935478D01*
X62345792Y-75993710D01*
X62338821Y-75999165D01*
X62192496Y-76105478D01*
X62192487Y-76105485D01*
X62025485Y-76272487D01*
X62025485Y-76272488D01*
X62025483Y-76272490D01*
X61965862Y-76354550D01*
X61886657Y-76463566D01*
X61779433Y-76674003D01*
X61706446Y-76898631D01*
X61669500Y-77131902D01*
X61669500Y-77368097D01*
X61706446Y-77601368D01*
X61779433Y-77825996D01*
X61886657Y-78036433D01*
X62025483Y-78227510D01*
X62192490Y-78394517D01*
X62303516Y-78475182D01*
X62346181Y-78530512D01*
X62352160Y-78600126D01*
X62319554Y-78661921D01*
X62258715Y-78696278D01*
X62230630Y-78699500D01*
X61692129Y-78699500D01*
X61692123Y-78699501D01*
X61632516Y-78705908D01*
X61497671Y-78756202D01*
X61497664Y-78756206D01*
X61382455Y-78842452D01*
X61382452Y-78842455D01*
X61296206Y-78957664D01*
X61296202Y-78957671D01*
X61245908Y-79092517D01*
X61239501Y-79152116D01*
X61239501Y-79152123D01*
X61239500Y-79152135D01*
X61239500Y-80847870D01*
X61239501Y-80847876D01*
X61245908Y-80907483D01*
X61296202Y-81042328D01*
X61296206Y-81042335D01*
X61382452Y-81157544D01*
X61382455Y-81157547D01*
X61497664Y-81243793D01*
X61497671Y-81243797D01*
X61632517Y-81294091D01*
X61632516Y-81294091D01*
X61639444Y-81294835D01*
X61692127Y-81300500D01*
X63387872Y-81300499D01*
X63447483Y-81294091D01*
X63582331Y-81243796D01*
X63697546Y-81157546D01*
X63783796Y-81042331D01*
X63834091Y-80907483D01*
X63840500Y-80847873D01*
X63840499Y-79152128D01*
X63834091Y-79092517D01*
X63783796Y-78957669D01*
X63783795Y-78957668D01*
X63783793Y-78957664D01*
X63692232Y-78835355D01*
X63694086Y-78833966D01*
X63666648Y-78783718D01*
X63671632Y-78714026D01*
X63713504Y-78658093D01*
X63741890Y-78643374D01*
X63741499Y-78642429D01*
X63745990Y-78640569D01*
X63745996Y-78640566D01*
X63956433Y-78533343D01*
X64147510Y-78394517D01*
X64314517Y-78227510D01*
X64453343Y-78036433D01*
X64560568Y-77825992D01*
X64633553Y-77601368D01*
X64670500Y-77368097D01*
X64670500Y-77131902D01*
X65869500Y-77131902D01*
X65869500Y-77368097D01*
X65906446Y-77601368D01*
X65979433Y-77825996D01*
X66086657Y-78036433D01*
X66225483Y-78227510D01*
X66392490Y-78394517D01*
X66583567Y-78533343D01*
X66682991Y-78584002D01*
X66794003Y-78640566D01*
X66794005Y-78640566D01*
X66794008Y-78640568D01*
X66859726Y-78661921D01*
X67018631Y-78713553D01*
X67251903Y-78750500D01*
X67251908Y-78750500D01*
X67488097Y-78750500D01*
X67721368Y-78713553D01*
X67764615Y-78699501D01*
X67945992Y-78640568D01*
X68156433Y-78533343D01*
X68347510Y-78394517D01*
X68514517Y-78227510D01*
X68653343Y-78036433D01*
X68760568Y-77825992D01*
X68833553Y-77601368D01*
X68870500Y-77368097D01*
X68870500Y-77131902D01*
X68833553Y-76898631D01*
X68760566Y-76674003D01*
X68653342Y-76463566D01*
X68514517Y-76272490D01*
X68347510Y-76105483D01*
X68156433Y-75966657D01*
X68095241Y-75935478D01*
X67945996Y-75859433D01*
X67721368Y-75786446D01*
X67488097Y-75749500D01*
X67488092Y-75749500D01*
X67251908Y-75749500D01*
X67251903Y-75749500D01*
X67018631Y-75786446D01*
X66794003Y-75859433D01*
X66583566Y-75966657D01*
X66474550Y-76045862D01*
X66392490Y-76105483D01*
X66392488Y-76105485D01*
X66392487Y-76105485D01*
X66225485Y-76272487D01*
X66225485Y-76272488D01*
X66225483Y-76272490D01*
X66165862Y-76354550D01*
X66086657Y-76463566D01*
X65979433Y-76674003D01*
X65906446Y-76898631D01*
X65869500Y-77131902D01*
X64670500Y-77131902D01*
X64633553Y-76898631D01*
X64560566Y-76674003D01*
X64453342Y-76463566D01*
X64314517Y-76272490D01*
X64147510Y-76105483D01*
X63956433Y-75966657D01*
X63895241Y-75935478D01*
X63745996Y-75859433D01*
X63521369Y-75786447D01*
X63374130Y-75763126D01*
X63310996Y-75733196D01*
X63274065Y-75673885D01*
X63275063Y-75604022D01*
X63313673Y-75545790D01*
X63320637Y-75540340D01*
X63387219Y-75491966D01*
X63531966Y-75347219D01*
X63531968Y-75347215D01*
X63531971Y-75347213D01*
X63584732Y-75274590D01*
X63652287Y-75181610D01*
X63745220Y-74999219D01*
X63808477Y-74804534D01*
X63840500Y-74602352D01*
X63840500Y-74397648D01*
X69239500Y-74397648D01*
X69239500Y-74602351D01*
X69271522Y-74804534D01*
X69334781Y-74999223D01*
X69427715Y-75181613D01*
X69548028Y-75347213D01*
X69692786Y-75491971D01*
X69847014Y-75604022D01*
X69858390Y-75612287D01*
X69974607Y-75671503D01*
X70040776Y-75705218D01*
X70040778Y-75705218D01*
X70040781Y-75705220D01*
X70126882Y-75733196D01*
X70235465Y-75768477D01*
X70263234Y-75772875D01*
X70285332Y-75776375D01*
X70348467Y-75806304D01*
X70385399Y-75865615D01*
X70384401Y-75935478D01*
X70345792Y-75993710D01*
X70338821Y-75999165D01*
X70192496Y-76105478D01*
X70192487Y-76105485D01*
X70025485Y-76272487D01*
X70025485Y-76272488D01*
X70025483Y-76272490D01*
X69965862Y-76354550D01*
X69886657Y-76463566D01*
X69779433Y-76674003D01*
X69706446Y-76898631D01*
X69669500Y-77131902D01*
X69669500Y-77368097D01*
X69706446Y-77601368D01*
X69779433Y-77825996D01*
X69886657Y-78036433D01*
X70025483Y-78227510D01*
X70192490Y-78394517D01*
X70303516Y-78475182D01*
X70346181Y-78530512D01*
X70352160Y-78600126D01*
X70319554Y-78661921D01*
X70258715Y-78696278D01*
X70230630Y-78699500D01*
X69692129Y-78699500D01*
X69692123Y-78699501D01*
X69632516Y-78705908D01*
X69497671Y-78756202D01*
X69497664Y-78756206D01*
X69382455Y-78842452D01*
X69382452Y-78842455D01*
X69296206Y-78957664D01*
X69296202Y-78957671D01*
X69245908Y-79092517D01*
X69239501Y-79152116D01*
X69239501Y-79152123D01*
X69239500Y-79152135D01*
X69239500Y-80847870D01*
X69239501Y-80847876D01*
X69245908Y-80907483D01*
X69296202Y-81042328D01*
X69296206Y-81042335D01*
X69382452Y-81157544D01*
X69382455Y-81157547D01*
X69497664Y-81243793D01*
X69497671Y-81243797D01*
X69632517Y-81294091D01*
X69632516Y-81294091D01*
X69639444Y-81294835D01*
X69692127Y-81300500D01*
X71387872Y-81300499D01*
X71447483Y-81294091D01*
X71582331Y-81243796D01*
X71697546Y-81157546D01*
X71783796Y-81042331D01*
X71834091Y-80907483D01*
X71840500Y-80847873D01*
X71840499Y-79152128D01*
X71834091Y-79092517D01*
X71783796Y-78957669D01*
X71783795Y-78957668D01*
X71783793Y-78957664D01*
X71692232Y-78835355D01*
X71694086Y-78833966D01*
X71666648Y-78783718D01*
X71671632Y-78714026D01*
X71713504Y-78658093D01*
X71741890Y-78643374D01*
X71741499Y-78642429D01*
X71745990Y-78640569D01*
X71745996Y-78640566D01*
X71956433Y-78533343D01*
X72147510Y-78394517D01*
X72314517Y-78227510D01*
X72453343Y-78036433D01*
X72560568Y-77825992D01*
X72633553Y-77601368D01*
X72670500Y-77368097D01*
X72670500Y-77131902D01*
X73869500Y-77131902D01*
X73869500Y-77368097D01*
X73906446Y-77601368D01*
X73979433Y-77825996D01*
X74086657Y-78036433D01*
X74225483Y-78227510D01*
X74392490Y-78394517D01*
X74583567Y-78533343D01*
X74682991Y-78584002D01*
X74794003Y-78640566D01*
X74794005Y-78640566D01*
X74794008Y-78640568D01*
X74859726Y-78661921D01*
X75018631Y-78713553D01*
X75251903Y-78750500D01*
X75251908Y-78750500D01*
X75488097Y-78750500D01*
X75721368Y-78713553D01*
X75764615Y-78699501D01*
X75945992Y-78640568D01*
X76156433Y-78533343D01*
X76347510Y-78394517D01*
X76514517Y-78227510D01*
X76653343Y-78036433D01*
X76760568Y-77825992D01*
X76833553Y-77601368D01*
X76870500Y-77368097D01*
X76870500Y-77131902D01*
X76833553Y-76898631D01*
X76760566Y-76674003D01*
X76653342Y-76463566D01*
X76514517Y-76272490D01*
X76347510Y-76105483D01*
X76156433Y-75966657D01*
X76095241Y-75935478D01*
X75945996Y-75859433D01*
X75721368Y-75786446D01*
X75488097Y-75749500D01*
X75488092Y-75749500D01*
X75251908Y-75749500D01*
X75251903Y-75749500D01*
X75018631Y-75786446D01*
X74794003Y-75859433D01*
X74583566Y-75966657D01*
X74474550Y-76045862D01*
X74392490Y-76105483D01*
X74392488Y-76105485D01*
X74392487Y-76105485D01*
X74225485Y-76272487D01*
X74225485Y-76272488D01*
X74225483Y-76272490D01*
X74165862Y-76354550D01*
X74086657Y-76463566D01*
X73979433Y-76674003D01*
X73906446Y-76898631D01*
X73869500Y-77131902D01*
X72670500Y-77131902D01*
X72633553Y-76898631D01*
X72560566Y-76674003D01*
X72453342Y-76463566D01*
X72314517Y-76272490D01*
X72147510Y-76105483D01*
X71956433Y-75966657D01*
X71895241Y-75935478D01*
X71745996Y-75859433D01*
X71521369Y-75786447D01*
X71374130Y-75763126D01*
X71310996Y-75733196D01*
X71274065Y-75673885D01*
X71275063Y-75604022D01*
X71313673Y-75545790D01*
X71320637Y-75540340D01*
X71387219Y-75491966D01*
X71531966Y-75347219D01*
X71531968Y-75347215D01*
X71531971Y-75347213D01*
X71584732Y-75274590D01*
X71652287Y-75181610D01*
X71745220Y-74999219D01*
X71808477Y-74804534D01*
X71840500Y-74602352D01*
X71840500Y-74397648D01*
X77239500Y-74397648D01*
X77239500Y-74602351D01*
X77271522Y-74804534D01*
X77334781Y-74999223D01*
X77427715Y-75181613D01*
X77548028Y-75347213D01*
X77692786Y-75491971D01*
X77847014Y-75604022D01*
X77858390Y-75612287D01*
X77974607Y-75671503D01*
X78040776Y-75705218D01*
X78040778Y-75705218D01*
X78040781Y-75705220D01*
X78126882Y-75733196D01*
X78235465Y-75768477D01*
X78263234Y-75772875D01*
X78285332Y-75776375D01*
X78348467Y-75806304D01*
X78385399Y-75865615D01*
X78384401Y-75935478D01*
X78345792Y-75993710D01*
X78338821Y-75999165D01*
X78192496Y-76105478D01*
X78192487Y-76105485D01*
X78025485Y-76272487D01*
X78025485Y-76272488D01*
X78025483Y-76272490D01*
X77965862Y-76354550D01*
X77886657Y-76463566D01*
X77779433Y-76674003D01*
X77706446Y-76898631D01*
X77669500Y-77131902D01*
X77669500Y-77368097D01*
X77706446Y-77601368D01*
X77779433Y-77825996D01*
X77886657Y-78036433D01*
X78025483Y-78227510D01*
X78192490Y-78394517D01*
X78303516Y-78475182D01*
X78346181Y-78530512D01*
X78352160Y-78600126D01*
X78319554Y-78661921D01*
X78258715Y-78696278D01*
X78230630Y-78699500D01*
X77692129Y-78699500D01*
X77692123Y-78699501D01*
X77632516Y-78705908D01*
X77497671Y-78756202D01*
X77497664Y-78756206D01*
X77382455Y-78842452D01*
X77382452Y-78842455D01*
X77296206Y-78957664D01*
X77296202Y-78957671D01*
X77245908Y-79092517D01*
X77239501Y-79152116D01*
X77239501Y-79152123D01*
X77239500Y-79152135D01*
X77239500Y-80847870D01*
X77239501Y-80847876D01*
X77245908Y-80907483D01*
X77296202Y-81042328D01*
X77296206Y-81042335D01*
X77382452Y-81157544D01*
X77382455Y-81157547D01*
X77497664Y-81243793D01*
X77497671Y-81243797D01*
X77632517Y-81294091D01*
X77632516Y-81294091D01*
X77639444Y-81294835D01*
X77692127Y-81300500D01*
X79387872Y-81300499D01*
X79447483Y-81294091D01*
X79582331Y-81243796D01*
X79697546Y-81157546D01*
X79783796Y-81042331D01*
X79834091Y-80907483D01*
X79840500Y-80847873D01*
X79840499Y-79152128D01*
X79834091Y-79092517D01*
X79783796Y-78957669D01*
X79783795Y-78957668D01*
X79783793Y-78957664D01*
X79692232Y-78835355D01*
X79694086Y-78833966D01*
X79666648Y-78783718D01*
X79671632Y-78714026D01*
X79713504Y-78658093D01*
X79741890Y-78643374D01*
X79741499Y-78642429D01*
X79745990Y-78640569D01*
X79745996Y-78640566D01*
X79956433Y-78533343D01*
X80147510Y-78394517D01*
X80314517Y-78227510D01*
X80453343Y-78036433D01*
X80560568Y-77825992D01*
X80633553Y-77601368D01*
X80670500Y-77368097D01*
X80670500Y-77131902D01*
X81869500Y-77131902D01*
X81869500Y-77368097D01*
X81906446Y-77601368D01*
X81979433Y-77825996D01*
X82086657Y-78036433D01*
X82225483Y-78227510D01*
X82392490Y-78394517D01*
X82583567Y-78533343D01*
X82682991Y-78584002D01*
X82794003Y-78640566D01*
X82794005Y-78640566D01*
X82794008Y-78640568D01*
X82859726Y-78661921D01*
X83018631Y-78713553D01*
X83251903Y-78750500D01*
X83251908Y-78750500D01*
X83488097Y-78750500D01*
X83721368Y-78713553D01*
X83764615Y-78699501D01*
X83945992Y-78640568D01*
X84156433Y-78533343D01*
X84347510Y-78394517D01*
X84514517Y-78227510D01*
X84653343Y-78036433D01*
X84760568Y-77825992D01*
X84833553Y-77601368D01*
X84870500Y-77368097D01*
X84870500Y-77131902D01*
X84833553Y-76898631D01*
X84760566Y-76674003D01*
X84653342Y-76463566D01*
X84514517Y-76272490D01*
X84347510Y-76105483D01*
X84156433Y-75966657D01*
X84095241Y-75935478D01*
X83945996Y-75859433D01*
X83721368Y-75786446D01*
X83488097Y-75749500D01*
X83488092Y-75749500D01*
X83251908Y-75749500D01*
X83251903Y-75749500D01*
X83018631Y-75786446D01*
X82794003Y-75859433D01*
X82583566Y-75966657D01*
X82474550Y-76045862D01*
X82392490Y-76105483D01*
X82392488Y-76105485D01*
X82392487Y-76105485D01*
X82225485Y-76272487D01*
X82225485Y-76272488D01*
X82225483Y-76272490D01*
X82165862Y-76354550D01*
X82086657Y-76463566D01*
X81979433Y-76674003D01*
X81906446Y-76898631D01*
X81869500Y-77131902D01*
X80670500Y-77131902D01*
X80633553Y-76898631D01*
X80560566Y-76674003D01*
X80453342Y-76463566D01*
X80314517Y-76272490D01*
X80147510Y-76105483D01*
X79956433Y-75966657D01*
X79895241Y-75935478D01*
X79745996Y-75859433D01*
X79521369Y-75786447D01*
X79374130Y-75763126D01*
X79310996Y-75733196D01*
X79274065Y-75673885D01*
X79275063Y-75604022D01*
X79313673Y-75545790D01*
X79320637Y-75540340D01*
X79387219Y-75491966D01*
X79531966Y-75347219D01*
X79531968Y-75347215D01*
X79531971Y-75347213D01*
X79584732Y-75274590D01*
X79652287Y-75181610D01*
X79745220Y-74999219D01*
X79808477Y-74804534D01*
X79840500Y-74602352D01*
X79840500Y-74397648D01*
X85239500Y-74397648D01*
X85239500Y-74602351D01*
X85271522Y-74804534D01*
X85334781Y-74999223D01*
X85427715Y-75181613D01*
X85548028Y-75347213D01*
X85692786Y-75491971D01*
X85847014Y-75604022D01*
X85858390Y-75612287D01*
X85974607Y-75671503D01*
X86040776Y-75705218D01*
X86040778Y-75705218D01*
X86040781Y-75705220D01*
X86126882Y-75733196D01*
X86235465Y-75768477D01*
X86263234Y-75772875D01*
X86285332Y-75776375D01*
X86348467Y-75806304D01*
X86385399Y-75865615D01*
X86384401Y-75935478D01*
X86345792Y-75993710D01*
X86338821Y-75999165D01*
X86192496Y-76105478D01*
X86192487Y-76105485D01*
X86025485Y-76272487D01*
X86025485Y-76272488D01*
X86025483Y-76272490D01*
X85965862Y-76354550D01*
X85886657Y-76463566D01*
X85779433Y-76674003D01*
X85706446Y-76898631D01*
X85669500Y-77131902D01*
X85669500Y-77368097D01*
X85706446Y-77601368D01*
X85779433Y-77825996D01*
X85886657Y-78036433D01*
X86025483Y-78227510D01*
X86192490Y-78394517D01*
X86303516Y-78475182D01*
X86346181Y-78530512D01*
X86352160Y-78600126D01*
X86319554Y-78661921D01*
X86258715Y-78696278D01*
X86230630Y-78699500D01*
X85692129Y-78699500D01*
X85692123Y-78699501D01*
X85632516Y-78705908D01*
X85497671Y-78756202D01*
X85497664Y-78756206D01*
X85382455Y-78842452D01*
X85382452Y-78842455D01*
X85296206Y-78957664D01*
X85296202Y-78957671D01*
X85245908Y-79092517D01*
X85239501Y-79152116D01*
X85239501Y-79152123D01*
X85239500Y-79152135D01*
X85239500Y-80847870D01*
X85239501Y-80847876D01*
X85245908Y-80907483D01*
X85296202Y-81042328D01*
X85296206Y-81042335D01*
X85382452Y-81157544D01*
X85382455Y-81157547D01*
X85497664Y-81243793D01*
X85497671Y-81243797D01*
X85632517Y-81294091D01*
X85632516Y-81294091D01*
X85639444Y-81294835D01*
X85692127Y-81300500D01*
X87387872Y-81300499D01*
X87447483Y-81294091D01*
X87582331Y-81243796D01*
X87697546Y-81157546D01*
X87783796Y-81042331D01*
X87834091Y-80907483D01*
X87840500Y-80847873D01*
X87840499Y-79152128D01*
X87834091Y-79092517D01*
X87783796Y-78957669D01*
X87783795Y-78957668D01*
X87783793Y-78957664D01*
X87692232Y-78835355D01*
X87694086Y-78833966D01*
X87666648Y-78783718D01*
X87671632Y-78714026D01*
X87713504Y-78658093D01*
X87741890Y-78643374D01*
X87741499Y-78642429D01*
X87745990Y-78640569D01*
X87745996Y-78640566D01*
X87956433Y-78533343D01*
X88147510Y-78394517D01*
X88314517Y-78227510D01*
X88453343Y-78036433D01*
X88560568Y-77825992D01*
X88633553Y-77601368D01*
X88670500Y-77368097D01*
X88670500Y-77131902D01*
X89869500Y-77131902D01*
X89869500Y-77368097D01*
X89906446Y-77601368D01*
X89979433Y-77825996D01*
X90086657Y-78036433D01*
X90225483Y-78227510D01*
X90392490Y-78394517D01*
X90583567Y-78533343D01*
X90682991Y-78584002D01*
X90794003Y-78640566D01*
X90794005Y-78640566D01*
X90794008Y-78640568D01*
X90859726Y-78661921D01*
X91018631Y-78713553D01*
X91251903Y-78750500D01*
X91251908Y-78750500D01*
X91488097Y-78750500D01*
X91721368Y-78713553D01*
X91764615Y-78699501D01*
X91945992Y-78640568D01*
X92156433Y-78533343D01*
X92347510Y-78394517D01*
X92514517Y-78227510D01*
X92653343Y-78036433D01*
X92760568Y-77825992D01*
X92833553Y-77601368D01*
X92870500Y-77368097D01*
X92870500Y-77131902D01*
X92833553Y-76898631D01*
X92760566Y-76674003D01*
X92653342Y-76463566D01*
X92514517Y-76272490D01*
X92347510Y-76105483D01*
X92156433Y-75966657D01*
X92095241Y-75935478D01*
X91945996Y-75859433D01*
X91721368Y-75786446D01*
X91488097Y-75749500D01*
X91488092Y-75749500D01*
X91251908Y-75749500D01*
X91251903Y-75749500D01*
X91018631Y-75786446D01*
X90794003Y-75859433D01*
X90583566Y-75966657D01*
X90474550Y-76045862D01*
X90392490Y-76105483D01*
X90392488Y-76105485D01*
X90392487Y-76105485D01*
X90225485Y-76272487D01*
X90225485Y-76272488D01*
X90225483Y-76272490D01*
X90165862Y-76354550D01*
X90086657Y-76463566D01*
X89979433Y-76674003D01*
X89906446Y-76898631D01*
X89869500Y-77131902D01*
X88670500Y-77131902D01*
X88633553Y-76898631D01*
X88560566Y-76674003D01*
X88453342Y-76463566D01*
X88314517Y-76272490D01*
X88147510Y-76105483D01*
X87956433Y-75966657D01*
X87895241Y-75935478D01*
X87745996Y-75859433D01*
X87521369Y-75786447D01*
X87374130Y-75763126D01*
X87310996Y-75733196D01*
X87274065Y-75673885D01*
X87275063Y-75604022D01*
X87313673Y-75545790D01*
X87320637Y-75540340D01*
X87387219Y-75491966D01*
X87531966Y-75347219D01*
X87531968Y-75347215D01*
X87531971Y-75347213D01*
X87584732Y-75274590D01*
X87652287Y-75181610D01*
X87745220Y-74999219D01*
X87808477Y-74804534D01*
X87840500Y-74602352D01*
X87840500Y-74397648D01*
X93239500Y-74397648D01*
X93239500Y-74602351D01*
X93271522Y-74804534D01*
X93334781Y-74999223D01*
X93427715Y-75181613D01*
X93548028Y-75347213D01*
X93692786Y-75491971D01*
X93847014Y-75604022D01*
X93858390Y-75612287D01*
X93974607Y-75671503D01*
X94040776Y-75705218D01*
X94040778Y-75705218D01*
X94040781Y-75705220D01*
X94126882Y-75733196D01*
X94235465Y-75768477D01*
X94263234Y-75772875D01*
X94285332Y-75776375D01*
X94348467Y-75806304D01*
X94385399Y-75865615D01*
X94384401Y-75935478D01*
X94345792Y-75993710D01*
X94338821Y-75999165D01*
X94192496Y-76105478D01*
X94192487Y-76105485D01*
X94025485Y-76272487D01*
X94025485Y-76272488D01*
X94025483Y-76272490D01*
X93965862Y-76354550D01*
X93886657Y-76463566D01*
X93779433Y-76674003D01*
X93706446Y-76898631D01*
X93669500Y-77131902D01*
X93669500Y-77368097D01*
X93706446Y-77601368D01*
X93779433Y-77825996D01*
X93886657Y-78036433D01*
X94025483Y-78227510D01*
X94192490Y-78394517D01*
X94303516Y-78475182D01*
X94346181Y-78530512D01*
X94352160Y-78600126D01*
X94319554Y-78661921D01*
X94258715Y-78696278D01*
X94230630Y-78699500D01*
X93692129Y-78699500D01*
X93692123Y-78699501D01*
X93632516Y-78705908D01*
X93497671Y-78756202D01*
X93497664Y-78756206D01*
X93382455Y-78842452D01*
X93382452Y-78842455D01*
X93296206Y-78957664D01*
X93296202Y-78957671D01*
X93245908Y-79092517D01*
X93239501Y-79152116D01*
X93239501Y-79152123D01*
X93239500Y-79152135D01*
X93239500Y-80847870D01*
X93239501Y-80847876D01*
X93245908Y-80907483D01*
X93296202Y-81042328D01*
X93296206Y-81042335D01*
X93382452Y-81157544D01*
X93382455Y-81157547D01*
X93497664Y-81243793D01*
X93497671Y-81243797D01*
X93632517Y-81294091D01*
X93632516Y-81294091D01*
X93639444Y-81294835D01*
X93692127Y-81300500D01*
X95387872Y-81300499D01*
X95447483Y-81294091D01*
X95582331Y-81243796D01*
X95697546Y-81157546D01*
X95783796Y-81042331D01*
X95834091Y-80907483D01*
X95840500Y-80847873D01*
X95840499Y-79152128D01*
X95834091Y-79092517D01*
X95783796Y-78957669D01*
X95783795Y-78957668D01*
X95783793Y-78957664D01*
X95692232Y-78835355D01*
X95694086Y-78833966D01*
X95666648Y-78783718D01*
X95671632Y-78714026D01*
X95713504Y-78658093D01*
X95741890Y-78643374D01*
X95741499Y-78642429D01*
X95745990Y-78640569D01*
X95745996Y-78640566D01*
X95956433Y-78533343D01*
X96147510Y-78394517D01*
X96314517Y-78227510D01*
X96453343Y-78036433D01*
X96560568Y-77825992D01*
X96633553Y-77601368D01*
X96670500Y-77368097D01*
X96670500Y-77131902D01*
X97869500Y-77131902D01*
X97869500Y-77368097D01*
X97906446Y-77601368D01*
X97979433Y-77825996D01*
X98086657Y-78036433D01*
X98225483Y-78227510D01*
X98392490Y-78394517D01*
X98583567Y-78533343D01*
X98682991Y-78584002D01*
X98794003Y-78640566D01*
X98794005Y-78640566D01*
X98794008Y-78640568D01*
X98859726Y-78661921D01*
X99018631Y-78713553D01*
X99251903Y-78750500D01*
X99251908Y-78750500D01*
X99488097Y-78750500D01*
X99721368Y-78713553D01*
X99764615Y-78699501D01*
X99945992Y-78640568D01*
X100156433Y-78533343D01*
X100347510Y-78394517D01*
X100514517Y-78227510D01*
X100653343Y-78036433D01*
X100760568Y-77825992D01*
X100833553Y-77601368D01*
X100870500Y-77368097D01*
X100870500Y-77131902D01*
X100833553Y-76898631D01*
X100760566Y-76674003D01*
X100653342Y-76463566D01*
X100514517Y-76272490D01*
X100347510Y-76105483D01*
X100156433Y-75966657D01*
X100095241Y-75935478D01*
X99945996Y-75859433D01*
X99721368Y-75786446D01*
X99488097Y-75749500D01*
X99488092Y-75749500D01*
X99251908Y-75749500D01*
X99251903Y-75749500D01*
X99018631Y-75786446D01*
X98794003Y-75859433D01*
X98583566Y-75966657D01*
X98474550Y-76045862D01*
X98392490Y-76105483D01*
X98392488Y-76105485D01*
X98392487Y-76105485D01*
X98225485Y-76272487D01*
X98225485Y-76272488D01*
X98225483Y-76272490D01*
X98165862Y-76354550D01*
X98086657Y-76463566D01*
X97979433Y-76674003D01*
X97906446Y-76898631D01*
X97869500Y-77131902D01*
X96670500Y-77131902D01*
X96633553Y-76898631D01*
X96560566Y-76674003D01*
X96453342Y-76463566D01*
X96314517Y-76272490D01*
X96147510Y-76105483D01*
X95956433Y-75966657D01*
X95895241Y-75935478D01*
X95745996Y-75859433D01*
X95521369Y-75786447D01*
X95374130Y-75763126D01*
X95310996Y-75733196D01*
X95274065Y-75673885D01*
X95275063Y-75604022D01*
X95313673Y-75545790D01*
X95320637Y-75540340D01*
X95387219Y-75491966D01*
X95531966Y-75347219D01*
X95531968Y-75347215D01*
X95531971Y-75347213D01*
X95584732Y-75274590D01*
X95652287Y-75181610D01*
X95745220Y-74999219D01*
X95808477Y-74804534D01*
X95840500Y-74602352D01*
X95840500Y-74397648D01*
X101239500Y-74397648D01*
X101239500Y-74602351D01*
X101271522Y-74804534D01*
X101334781Y-74999223D01*
X101427715Y-75181613D01*
X101548028Y-75347213D01*
X101692786Y-75491971D01*
X101847014Y-75604022D01*
X101858390Y-75612287D01*
X101974607Y-75671503D01*
X102040776Y-75705218D01*
X102040778Y-75705218D01*
X102040781Y-75705220D01*
X102126882Y-75733196D01*
X102235465Y-75768477D01*
X102263234Y-75772875D01*
X102285332Y-75776375D01*
X102348467Y-75806304D01*
X102385399Y-75865615D01*
X102384401Y-75935478D01*
X102345792Y-75993710D01*
X102338821Y-75999165D01*
X102192496Y-76105478D01*
X102192487Y-76105485D01*
X102025485Y-76272487D01*
X102025485Y-76272488D01*
X102025483Y-76272490D01*
X101965862Y-76354550D01*
X101886657Y-76463566D01*
X101779433Y-76674003D01*
X101706446Y-76898631D01*
X101669500Y-77131902D01*
X101669500Y-77368097D01*
X101706446Y-77601368D01*
X101779433Y-77825996D01*
X101886657Y-78036433D01*
X102025483Y-78227510D01*
X102192490Y-78394517D01*
X102303516Y-78475182D01*
X102346181Y-78530512D01*
X102352160Y-78600126D01*
X102319554Y-78661921D01*
X102258715Y-78696278D01*
X102230630Y-78699500D01*
X101692129Y-78699500D01*
X101692123Y-78699501D01*
X101632516Y-78705908D01*
X101497671Y-78756202D01*
X101497664Y-78756206D01*
X101382455Y-78842452D01*
X101382452Y-78842455D01*
X101296206Y-78957664D01*
X101296202Y-78957671D01*
X101245908Y-79092517D01*
X101239501Y-79152116D01*
X101239501Y-79152123D01*
X101239500Y-79152135D01*
X101239500Y-80847870D01*
X101239501Y-80847876D01*
X101245908Y-80907483D01*
X101296202Y-81042328D01*
X101296206Y-81042335D01*
X101382452Y-81157544D01*
X101382455Y-81157547D01*
X101497664Y-81243793D01*
X101497671Y-81243797D01*
X101632517Y-81294091D01*
X101632516Y-81294091D01*
X101639444Y-81294835D01*
X101692127Y-81300500D01*
X103387872Y-81300499D01*
X103447483Y-81294091D01*
X103582331Y-81243796D01*
X103697546Y-81157546D01*
X103783796Y-81042331D01*
X103834091Y-80907483D01*
X103840500Y-80847873D01*
X103840499Y-79152128D01*
X103834091Y-79092517D01*
X103783796Y-78957669D01*
X103783795Y-78957668D01*
X103783793Y-78957664D01*
X103692232Y-78835355D01*
X103694086Y-78833966D01*
X103666648Y-78783718D01*
X103671632Y-78714026D01*
X103713504Y-78658093D01*
X103741890Y-78643374D01*
X103741499Y-78642429D01*
X103745990Y-78640569D01*
X103745996Y-78640566D01*
X103956433Y-78533343D01*
X104147510Y-78394517D01*
X104314517Y-78227510D01*
X104453343Y-78036433D01*
X104560568Y-77825992D01*
X104633553Y-77601368D01*
X104670500Y-77368097D01*
X104670500Y-77131902D01*
X105869500Y-77131902D01*
X105869500Y-77368097D01*
X105906446Y-77601368D01*
X105979433Y-77825996D01*
X106086657Y-78036433D01*
X106225483Y-78227510D01*
X106392490Y-78394517D01*
X106583567Y-78533343D01*
X106682991Y-78584002D01*
X106794003Y-78640566D01*
X106794005Y-78640566D01*
X106794008Y-78640568D01*
X106859726Y-78661921D01*
X107018631Y-78713553D01*
X107251903Y-78750500D01*
X107251908Y-78750500D01*
X107488097Y-78750500D01*
X107721368Y-78713553D01*
X107764615Y-78699501D01*
X107945992Y-78640568D01*
X108156433Y-78533343D01*
X108347510Y-78394517D01*
X108514517Y-78227510D01*
X108653343Y-78036433D01*
X108760568Y-77825992D01*
X108833553Y-77601368D01*
X108870500Y-77368097D01*
X108870500Y-77131902D01*
X108833553Y-76898631D01*
X108760566Y-76674003D01*
X108653342Y-76463566D01*
X108514517Y-76272490D01*
X108347510Y-76105483D01*
X108156433Y-75966657D01*
X108095241Y-75935478D01*
X107945996Y-75859433D01*
X107721368Y-75786446D01*
X107488097Y-75749500D01*
X107488092Y-75749500D01*
X107251908Y-75749500D01*
X107251903Y-75749500D01*
X107018631Y-75786446D01*
X106794003Y-75859433D01*
X106583566Y-75966657D01*
X106474550Y-76045862D01*
X106392490Y-76105483D01*
X106392488Y-76105485D01*
X106392487Y-76105485D01*
X106225485Y-76272487D01*
X106225485Y-76272488D01*
X106225483Y-76272490D01*
X106165862Y-76354550D01*
X106086657Y-76463566D01*
X105979433Y-76674003D01*
X105906446Y-76898631D01*
X105869500Y-77131902D01*
X104670500Y-77131902D01*
X104633553Y-76898631D01*
X104560566Y-76674003D01*
X104453342Y-76463566D01*
X104314517Y-76272490D01*
X104147510Y-76105483D01*
X103956433Y-75966657D01*
X103895241Y-75935478D01*
X103745996Y-75859433D01*
X103521369Y-75786447D01*
X103374130Y-75763126D01*
X103310996Y-75733196D01*
X103274065Y-75673885D01*
X103275063Y-75604022D01*
X103313673Y-75545790D01*
X103320637Y-75540340D01*
X103387219Y-75491966D01*
X103531966Y-75347219D01*
X103531968Y-75347215D01*
X103531971Y-75347213D01*
X103584732Y-75274590D01*
X103652287Y-75181610D01*
X103745220Y-74999219D01*
X103808477Y-74804534D01*
X103840500Y-74602352D01*
X103840500Y-74397648D01*
X109239500Y-74397648D01*
X109239500Y-74602351D01*
X109271522Y-74804534D01*
X109334781Y-74999223D01*
X109427715Y-75181613D01*
X109548028Y-75347213D01*
X109692786Y-75491971D01*
X109847014Y-75604022D01*
X109858390Y-75612287D01*
X109974607Y-75671503D01*
X110040776Y-75705218D01*
X110040778Y-75705218D01*
X110040781Y-75705220D01*
X110126882Y-75733196D01*
X110235465Y-75768477D01*
X110263234Y-75772875D01*
X110285332Y-75776375D01*
X110348467Y-75806304D01*
X110385399Y-75865615D01*
X110384401Y-75935478D01*
X110345792Y-75993710D01*
X110338821Y-75999165D01*
X110192496Y-76105478D01*
X110192487Y-76105485D01*
X110025485Y-76272487D01*
X110025485Y-76272488D01*
X110025483Y-76272490D01*
X109965862Y-76354550D01*
X109886657Y-76463566D01*
X109779433Y-76674003D01*
X109706446Y-76898631D01*
X109669500Y-77131902D01*
X109669500Y-77368097D01*
X109706446Y-77601368D01*
X109779433Y-77825996D01*
X109886657Y-78036433D01*
X110025483Y-78227510D01*
X110192490Y-78394517D01*
X110303516Y-78475182D01*
X110346181Y-78530512D01*
X110352160Y-78600126D01*
X110319554Y-78661921D01*
X110258715Y-78696278D01*
X110230630Y-78699500D01*
X109692129Y-78699500D01*
X109692123Y-78699501D01*
X109632516Y-78705908D01*
X109497671Y-78756202D01*
X109497664Y-78756206D01*
X109382455Y-78842452D01*
X109382452Y-78842455D01*
X109296206Y-78957664D01*
X109296202Y-78957671D01*
X109245908Y-79092517D01*
X109239501Y-79152116D01*
X109239501Y-79152123D01*
X109239500Y-79152135D01*
X109239500Y-80847870D01*
X109239501Y-80847876D01*
X109245908Y-80907483D01*
X109296202Y-81042328D01*
X109296206Y-81042335D01*
X109382452Y-81157544D01*
X109382455Y-81157547D01*
X109497664Y-81243793D01*
X109497671Y-81243797D01*
X109632517Y-81294091D01*
X109632516Y-81294091D01*
X109639444Y-81294835D01*
X109692127Y-81300500D01*
X111387872Y-81300499D01*
X111447483Y-81294091D01*
X111582331Y-81243796D01*
X111697546Y-81157546D01*
X111783796Y-81042331D01*
X111834091Y-80907483D01*
X111840500Y-80847873D01*
X111840499Y-79152128D01*
X111834091Y-79092517D01*
X111783796Y-78957669D01*
X111783795Y-78957668D01*
X111783793Y-78957664D01*
X111692232Y-78835355D01*
X111694086Y-78833966D01*
X111666648Y-78783718D01*
X111671632Y-78714026D01*
X111713504Y-78658093D01*
X111741890Y-78643374D01*
X111741499Y-78642429D01*
X111745990Y-78640569D01*
X111745996Y-78640566D01*
X111956433Y-78533343D01*
X112147510Y-78394517D01*
X112314517Y-78227510D01*
X112453343Y-78036433D01*
X112560568Y-77825992D01*
X112633553Y-77601368D01*
X112670500Y-77368097D01*
X112670500Y-77131902D01*
X112633553Y-76898631D01*
X112560566Y-76674003D01*
X112453342Y-76463566D01*
X112314517Y-76272490D01*
X112147510Y-76105483D01*
X111956433Y-75966657D01*
X111895241Y-75935478D01*
X111745996Y-75859433D01*
X111521369Y-75786447D01*
X111374130Y-75763126D01*
X111310996Y-75733196D01*
X111274065Y-75673885D01*
X111275063Y-75604022D01*
X111313673Y-75545790D01*
X111320637Y-75540340D01*
X111387219Y-75491966D01*
X111531966Y-75347219D01*
X111531968Y-75347215D01*
X111531971Y-75347213D01*
X111584732Y-75274590D01*
X111652287Y-75181610D01*
X111745220Y-74999219D01*
X111808477Y-74804534D01*
X111840500Y-74602352D01*
X111840500Y-74397648D01*
X111808477Y-74195466D01*
X111745220Y-74000781D01*
X111745218Y-74000778D01*
X111745218Y-74000776D01*
X111711503Y-73934607D01*
X111652287Y-73818390D01*
X111644556Y-73807749D01*
X111531971Y-73652786D01*
X111387213Y-73508028D01*
X111221613Y-73387715D01*
X111221612Y-73387714D01*
X111221610Y-73387713D01*
X111164653Y-73358691D01*
X111039223Y-73294781D01*
X110844534Y-73231522D01*
X110669995Y-73203878D01*
X110642352Y-73199500D01*
X110437648Y-73199500D01*
X110413329Y-73203351D01*
X110235465Y-73231522D01*
X110040776Y-73294781D01*
X109858386Y-73387715D01*
X109692786Y-73508028D01*
X109548028Y-73652786D01*
X109427715Y-73818386D01*
X109334781Y-74000776D01*
X109271522Y-74195465D01*
X109239500Y-74397648D01*
X103840500Y-74397648D01*
X103808477Y-74195466D01*
X103745220Y-74000781D01*
X103745218Y-74000778D01*
X103745218Y-74000776D01*
X103711503Y-73934607D01*
X103652287Y-73818390D01*
X103644556Y-73807749D01*
X103531971Y-73652786D01*
X103387213Y-73508028D01*
X103221613Y-73387715D01*
X103221612Y-73387714D01*
X103221610Y-73387713D01*
X103164653Y-73358691D01*
X103039223Y-73294781D01*
X102844534Y-73231522D01*
X102669995Y-73203878D01*
X102642352Y-73199500D01*
X102437648Y-73199500D01*
X102413329Y-73203351D01*
X102235465Y-73231522D01*
X102040776Y-73294781D01*
X101858386Y-73387715D01*
X101692786Y-73508028D01*
X101548028Y-73652786D01*
X101427715Y-73818386D01*
X101334781Y-74000776D01*
X101271522Y-74195465D01*
X101239500Y-74397648D01*
X95840500Y-74397648D01*
X95808477Y-74195466D01*
X95745220Y-74000781D01*
X95745218Y-74000778D01*
X95745218Y-74000776D01*
X95711503Y-73934607D01*
X95652287Y-73818390D01*
X95644556Y-73807749D01*
X95531971Y-73652786D01*
X95387213Y-73508028D01*
X95221613Y-73387715D01*
X95221612Y-73387714D01*
X95221610Y-73387713D01*
X95164653Y-73358691D01*
X95039223Y-73294781D01*
X94844534Y-73231522D01*
X94669995Y-73203878D01*
X94642352Y-73199500D01*
X94437648Y-73199500D01*
X94413329Y-73203351D01*
X94235465Y-73231522D01*
X94040776Y-73294781D01*
X93858386Y-73387715D01*
X93692786Y-73508028D01*
X93548028Y-73652786D01*
X93427715Y-73818386D01*
X93334781Y-74000776D01*
X93271522Y-74195465D01*
X93239500Y-74397648D01*
X87840500Y-74397648D01*
X87808477Y-74195466D01*
X87745220Y-74000781D01*
X87745218Y-74000778D01*
X87745218Y-74000776D01*
X87711503Y-73934607D01*
X87652287Y-73818390D01*
X87644556Y-73807749D01*
X87531971Y-73652786D01*
X87387213Y-73508028D01*
X87221613Y-73387715D01*
X87221612Y-73387714D01*
X87221610Y-73387713D01*
X87164653Y-73358691D01*
X87039223Y-73294781D01*
X86844534Y-73231522D01*
X86669995Y-73203878D01*
X86642352Y-73199500D01*
X86437648Y-73199500D01*
X86413329Y-73203351D01*
X86235465Y-73231522D01*
X86040776Y-73294781D01*
X85858386Y-73387715D01*
X85692786Y-73508028D01*
X85548028Y-73652786D01*
X85427715Y-73818386D01*
X85334781Y-74000776D01*
X85271522Y-74195465D01*
X85239500Y-74397648D01*
X79840500Y-74397648D01*
X79808477Y-74195466D01*
X79745220Y-74000781D01*
X79745218Y-74000778D01*
X79745218Y-74000776D01*
X79711503Y-73934607D01*
X79652287Y-73818390D01*
X79644556Y-73807749D01*
X79531971Y-73652786D01*
X79387213Y-73508028D01*
X79221613Y-73387715D01*
X79221612Y-73387714D01*
X79221610Y-73387713D01*
X79164653Y-73358691D01*
X79039223Y-73294781D01*
X78844534Y-73231522D01*
X78669995Y-73203878D01*
X78642352Y-73199500D01*
X78437648Y-73199500D01*
X78413329Y-73203351D01*
X78235465Y-73231522D01*
X78040776Y-73294781D01*
X77858386Y-73387715D01*
X77692786Y-73508028D01*
X77548028Y-73652786D01*
X77427715Y-73818386D01*
X77334781Y-74000776D01*
X77271522Y-74195465D01*
X77239500Y-74397648D01*
X71840500Y-74397648D01*
X71808477Y-74195466D01*
X71745220Y-74000781D01*
X71745218Y-74000778D01*
X71745218Y-74000776D01*
X71711503Y-73934607D01*
X71652287Y-73818390D01*
X71644556Y-73807749D01*
X71531971Y-73652786D01*
X71387213Y-73508028D01*
X71221613Y-73387715D01*
X71221612Y-73387714D01*
X71221610Y-73387713D01*
X71164653Y-73358691D01*
X71039223Y-73294781D01*
X70844534Y-73231522D01*
X70669995Y-73203878D01*
X70642352Y-73199500D01*
X70437648Y-73199500D01*
X70413329Y-73203351D01*
X70235465Y-73231522D01*
X70040776Y-73294781D01*
X69858386Y-73387715D01*
X69692786Y-73508028D01*
X69548028Y-73652786D01*
X69427715Y-73818386D01*
X69334781Y-74000776D01*
X69271522Y-74195465D01*
X69239500Y-74397648D01*
X63840500Y-74397648D01*
X63808477Y-74195466D01*
X63745220Y-74000781D01*
X63745218Y-74000778D01*
X63745218Y-74000776D01*
X63711503Y-73934607D01*
X63652287Y-73818390D01*
X63644556Y-73807749D01*
X63531971Y-73652786D01*
X63387213Y-73508028D01*
X63221613Y-73387715D01*
X63221612Y-73387714D01*
X63221610Y-73387713D01*
X63164653Y-73358691D01*
X63039223Y-73294781D01*
X62844534Y-73231522D01*
X62669995Y-73203878D01*
X62642352Y-73199500D01*
X62437648Y-73199500D01*
X62413329Y-73203351D01*
X62235465Y-73231522D01*
X62040776Y-73294781D01*
X61858386Y-73387715D01*
X61692786Y-73508028D01*
X61548028Y-73652786D01*
X61427715Y-73818386D01*
X61334781Y-74000776D01*
X61271522Y-74195465D01*
X61239500Y-74397648D01*
X55840500Y-74397648D01*
X55808477Y-74195466D01*
X55745220Y-74000781D01*
X55745218Y-74000778D01*
X55745218Y-74000776D01*
X55711503Y-73934607D01*
X55652287Y-73818390D01*
X55644556Y-73807749D01*
X55531971Y-73652786D01*
X55387213Y-73508028D01*
X55221613Y-73387715D01*
X55221612Y-73387714D01*
X55221610Y-73387713D01*
X55164653Y-73358691D01*
X55039223Y-73294781D01*
X54844534Y-73231522D01*
X54669995Y-73203878D01*
X54642352Y-73199500D01*
X54437648Y-73199500D01*
X54413329Y-73203351D01*
X54235465Y-73231522D01*
X54040776Y-73294781D01*
X53858386Y-73387715D01*
X53692786Y-73508028D01*
X53548028Y-73652786D01*
X53427715Y-73818386D01*
X53334781Y-74000776D01*
X53271522Y-74195465D01*
X53239500Y-74397648D01*
X49500500Y-74397648D01*
X49500500Y-69624500D01*
X49520185Y-69557461D01*
X49572989Y-69511706D01*
X49624500Y-69500500D01*
X113375500Y-69500500D01*
X113442539Y-69520185D01*
G37*
%TD.AperFunction*%
%TA.AperFunction,Conductor*%
G36*
X87688773Y-129945548D02*
G01*
X87736384Y-129996685D01*
X87749500Y-130052190D01*
X87749500Y-146218422D01*
X87780290Y-146412826D01*
X87841117Y-146600030D01*
X87927589Y-146769739D01*
X87930476Y-146775405D01*
X88046172Y-146934646D01*
X88046174Y-146934648D01*
X90367694Y-149256168D01*
X90401179Y-149317491D01*
X90400904Y-149371441D01*
X90333460Y-149666933D01*
X90333457Y-149666951D01*
X90299500Y-149968336D01*
X90299500Y-150271663D01*
X90333457Y-150573048D01*
X90333460Y-150573062D01*
X90400953Y-150868771D01*
X90400957Y-150868783D01*
X90501133Y-151155068D01*
X90632733Y-151428338D01*
X90632735Y-151428341D01*
X90794108Y-151685164D01*
X90983221Y-151922304D01*
X91197696Y-152136779D01*
X91434836Y-152325892D01*
X91691659Y-152487265D01*
X91964935Y-152618868D01*
X92179951Y-152694105D01*
X92251216Y-152719042D01*
X92251228Y-152719046D01*
X92407039Y-152754609D01*
X92468017Y-152788718D01*
X92500875Y-152850379D01*
X92495180Y-152920016D01*
X92452740Y-152975520D01*
X92387030Y-152999268D01*
X92379446Y-152999500D01*
X69480554Y-152999500D01*
X69413515Y-152979815D01*
X69367760Y-152927011D01*
X69357816Y-152857853D01*
X69386841Y-152794297D01*
X69445619Y-152756523D01*
X69452961Y-152754609D01*
X69608772Y-152719046D01*
X69895065Y-152618868D01*
X70168341Y-152487265D01*
X70425164Y-152325892D01*
X70662304Y-152136779D01*
X70876779Y-151922304D01*
X71065892Y-151685164D01*
X71227265Y-151428341D01*
X71358868Y-151155065D01*
X71459046Y-150868772D01*
X71526540Y-150573063D01*
X71560500Y-150271657D01*
X71560500Y-149968343D01*
X71526540Y-149666937D01*
X71459046Y-149371228D01*
X71358868Y-149084935D01*
X71248385Y-148855515D01*
X71227266Y-148811661D01*
X71187496Y-148748367D01*
X71065892Y-148554836D01*
X70878006Y-148319234D01*
X74534500Y-148319234D01*
X74534500Y-148470765D01*
X74573719Y-148617136D01*
X74611602Y-148682750D01*
X74649485Y-148748365D01*
X74756635Y-148855515D01*
X74887865Y-148931281D01*
X75034234Y-148970500D01*
X75034236Y-148970500D01*
X75185764Y-148970500D01*
X75185766Y-148970500D01*
X75332135Y-148931281D01*
X75463365Y-148855515D01*
X75570515Y-148748365D01*
X75646281Y-148617135D01*
X75685500Y-148470766D01*
X75685500Y-148319234D01*
X80314500Y-148319234D01*
X80314500Y-148470765D01*
X80353719Y-148617136D01*
X80391602Y-148682750D01*
X80429485Y-148748365D01*
X80536635Y-148855515D01*
X80667865Y-148931281D01*
X80814234Y-148970500D01*
X80814236Y-148970500D01*
X80965764Y-148970500D01*
X80965766Y-148970500D01*
X81112135Y-148931281D01*
X81243365Y-148855515D01*
X81350515Y-148748365D01*
X81426281Y-148617135D01*
X81465500Y-148470766D01*
X81465500Y-148319234D01*
X81426281Y-148172865D01*
X81350515Y-148041635D01*
X81243365Y-147934485D01*
X81177750Y-147896602D01*
X81112136Y-147858719D01*
X81038950Y-147839109D01*
X80965766Y-147819500D01*
X80814234Y-147819500D01*
X80667863Y-147858719D01*
X80536635Y-147934485D01*
X80536632Y-147934487D01*
X80429487Y-148041632D01*
X80429485Y-148041635D01*
X80353719Y-148172863D01*
X80314500Y-148319234D01*
X75685500Y-148319234D01*
X75646281Y-148172865D01*
X75570515Y-148041635D01*
X75463365Y-147934485D01*
X75397750Y-147896602D01*
X75332136Y-147858719D01*
X75258950Y-147839109D01*
X75185766Y-147819500D01*
X75034234Y-147819500D01*
X74887863Y-147858719D01*
X74756635Y-147934485D01*
X74756632Y-147934487D01*
X74649487Y-148041632D01*
X74649485Y-148041635D01*
X74573719Y-148172863D01*
X74534500Y-148319234D01*
X70878006Y-148319234D01*
X70876779Y-148317696D01*
X70662304Y-148103221D01*
X70425164Y-147914108D01*
X70195401Y-147769738D01*
X70168338Y-147752733D01*
X70045355Y-147693507D01*
X69993495Y-147646684D01*
X69975183Y-147579257D01*
X69996231Y-147512633D01*
X70049958Y-147467965D01*
X70060834Y-147463857D01*
X70230026Y-147408884D01*
X70405405Y-147319524D01*
X70564646Y-147203828D01*
X71847321Y-145921153D01*
X74799500Y-145921153D01*
X74799500Y-146078846D01*
X74830261Y-146233489D01*
X74830264Y-146233501D01*
X74890602Y-146379172D01*
X74890609Y-146379185D01*
X74978210Y-146510288D01*
X74978213Y-146510292D01*
X75089707Y-146621786D01*
X75089711Y-146621789D01*
X75220814Y-146709390D01*
X75220827Y-146709397D01*
X75320060Y-146750500D01*
X75366503Y-146769737D01*
X75499968Y-146796285D01*
X75521153Y-146800499D01*
X75521156Y-146800500D01*
X75521158Y-146800500D01*
X75678844Y-146800500D01*
X75678845Y-146800499D01*
X75755152Y-146785320D01*
X75833488Y-146769739D01*
X75833489Y-146769738D01*
X75833497Y-146769737D01*
X75857155Y-146759937D01*
X75904604Y-146750500D01*
X80095396Y-146750500D01*
X80142844Y-146759937D01*
X80166503Y-146769737D01*
X80166508Y-146769738D01*
X80166511Y-146769739D01*
X80321153Y-146800499D01*
X80321156Y-146800500D01*
X80321158Y-146800500D01*
X80478844Y-146800500D01*
X80478845Y-146800499D01*
X80633497Y-146769737D01*
X80779179Y-146709394D01*
X80910289Y-146621789D01*
X81021789Y-146510289D01*
X81109394Y-146379179D01*
X81169737Y-146233497D01*
X81200500Y-146078842D01*
X81200500Y-145921158D01*
X81200500Y-145921155D01*
X81200499Y-145921153D01*
X81169738Y-145766510D01*
X81169737Y-145766503D01*
X81116653Y-145638345D01*
X81109397Y-145620827D01*
X81109390Y-145620814D01*
X81021789Y-145489711D01*
X81021786Y-145489707D01*
X80910292Y-145378213D01*
X80910288Y-145378210D01*
X80779185Y-145290609D01*
X80779172Y-145290602D01*
X80633501Y-145230264D01*
X80633489Y-145230261D01*
X80478845Y-145199500D01*
X80478842Y-145199500D01*
X80321158Y-145199500D01*
X80321155Y-145199500D01*
X80166511Y-145230260D01*
X80166506Y-145230262D01*
X80166504Y-145230262D01*
X80166503Y-145230263D01*
X80142844Y-145240062D01*
X80095396Y-145249500D01*
X75904604Y-145249500D01*
X75857155Y-145240062D01*
X75833497Y-145230263D01*
X75833493Y-145230262D01*
X75833488Y-145230260D01*
X75678845Y-145199500D01*
X75678842Y-145199500D01*
X75521158Y-145199500D01*
X75521155Y-145199500D01*
X75366510Y-145230261D01*
X75366498Y-145230264D01*
X75220827Y-145290602D01*
X75220814Y-145290609D01*
X75089711Y-145378210D01*
X75089707Y-145378213D01*
X74978213Y-145489707D01*
X74978210Y-145489711D01*
X74890609Y-145620814D01*
X74890602Y-145620827D01*
X74830264Y-145766498D01*
X74830261Y-145766510D01*
X74799500Y-145921153D01*
X71847321Y-145921153D01*
X75006656Y-142761819D01*
X75067979Y-142728334D01*
X75094337Y-142725500D01*
X82749286Y-142725500D01*
X82792618Y-142733317D01*
X82855017Y-142756591D01*
X82914627Y-142763000D01*
X84585372Y-142762999D01*
X84644983Y-142756591D01*
X84779831Y-142706296D01*
X84895046Y-142620046D01*
X84981296Y-142504831D01*
X85031591Y-142369983D01*
X85038000Y-142310373D01*
X85037999Y-140639628D01*
X85031591Y-140580017D01*
X84981296Y-140445169D01*
X84981295Y-140445168D01*
X84981293Y-140445164D01*
X84895047Y-140329955D01*
X84895044Y-140329952D01*
X84779835Y-140243706D01*
X84779828Y-140243702D01*
X84644982Y-140193408D01*
X84644983Y-140193408D01*
X84585383Y-140187001D01*
X84585381Y-140187000D01*
X84585373Y-140187000D01*
X84585364Y-140187000D01*
X82914629Y-140187000D01*
X82914623Y-140187001D01*
X82855016Y-140193408D01*
X82792619Y-140216682D01*
X82749286Y-140224500D01*
X79362546Y-140224500D01*
X79295507Y-140204815D01*
X79249752Y-140152011D01*
X79239808Y-140082853D01*
X79268833Y-140019297D01*
X79315094Y-139985939D01*
X79379172Y-139959397D01*
X79379172Y-139959396D01*
X79379179Y-139959394D01*
X79510289Y-139871789D01*
X79621789Y-139760289D01*
X79709394Y-139629179D01*
X79769737Y-139483497D01*
X79791858Y-139372282D01*
X79824240Y-139310375D01*
X79825735Y-139308853D01*
X86985858Y-132148733D01*
X86985858Y-132148731D01*
X86996063Y-132138527D01*
X86996065Y-132138523D01*
X87235857Y-131898734D01*
X87304311Y-131796286D01*
X87351463Y-131682452D01*
X87375500Y-131561607D01*
X87375500Y-131438394D01*
X87375500Y-130292350D01*
X87395185Y-130225311D01*
X87396398Y-130223459D01*
X87396809Y-130222843D01*
X87459394Y-130129179D01*
X87510939Y-130004738D01*
X87554779Y-129950334D01*
X87621074Y-129928269D01*
X87688773Y-129945548D01*
G37*
%TD.AperFunction*%
%TA.AperFunction,Conductor*%
G36*
X77642625Y-138594478D02*
G01*
X77698558Y-138636350D01*
X77720908Y-138686469D01*
X77730261Y-138733489D01*
X77730264Y-138733501D01*
X77790602Y-138879172D01*
X77790609Y-138879185D01*
X77878210Y-139010288D01*
X77878213Y-139010292D01*
X77989710Y-139121789D01*
X78079862Y-139182026D01*
X78120821Y-139209394D01*
X78122945Y-139210274D01*
X78123885Y-139211031D01*
X78126192Y-139212264D01*
X78125958Y-139212701D01*
X78177349Y-139254107D01*
X78199421Y-139320399D01*
X78199500Y-139324837D01*
X78199500Y-139328846D01*
X78230261Y-139483489D01*
X78230264Y-139483501D01*
X78290602Y-139629172D01*
X78290609Y-139629185D01*
X78378210Y-139760288D01*
X78378213Y-139760292D01*
X78489707Y-139871786D01*
X78489711Y-139871789D01*
X78620814Y-139959390D01*
X78620827Y-139959397D01*
X78684906Y-139985939D01*
X78739310Y-140029779D01*
X78761375Y-140096073D01*
X78744096Y-140163773D01*
X78692959Y-140211384D01*
X78637454Y-140224500D01*
X76456941Y-140224500D01*
X76389902Y-140204815D01*
X76344147Y-140152011D01*
X76334203Y-140082853D01*
X76363228Y-140019297D01*
X76369260Y-140012819D01*
X76371786Y-140010292D01*
X76371789Y-140010289D01*
X76459394Y-139879179D01*
X76519737Y-139733497D01*
X76541858Y-139622282D01*
X76574240Y-139560375D01*
X76575734Y-139558854D01*
X77511611Y-138622977D01*
X77572933Y-138589494D01*
X77642625Y-138594478D01*
G37*
%TD.AperFunction*%
%TA.AperFunction,Conductor*%
G36*
X55665413Y-112270185D02*
G01*
X55686055Y-112286819D01*
X57507055Y-114107819D01*
X57540540Y-114169142D01*
X57535556Y-114238834D01*
X57493684Y-114294767D01*
X57428220Y-114319184D01*
X57419374Y-114319500D01*
X56240394Y-114319500D01*
X56184099Y-114305985D01*
X56117606Y-114272104D01*
X56117603Y-114272103D01*
X55907952Y-114203985D01*
X55751370Y-114179185D01*
X55690222Y-114169500D01*
X55469778Y-114169500D01*
X55408630Y-114179185D01*
X55252047Y-114203985D01*
X55042396Y-114272103D01*
X55042393Y-114272104D01*
X54845974Y-114372187D01*
X54667641Y-114501752D01*
X54667636Y-114501756D01*
X54511756Y-114657636D01*
X54511752Y-114657641D01*
X54382187Y-114835974D01*
X54282104Y-115032393D01*
X54282103Y-115032396D01*
X54213985Y-115242047D01*
X54179500Y-115459778D01*
X54179500Y-115680221D01*
X54213985Y-115897952D01*
X54282103Y-116107603D01*
X54282104Y-116107606D01*
X54332960Y-116207414D01*
X54381355Y-116302394D01*
X54382187Y-116304025D01*
X54511752Y-116482358D01*
X54511756Y-116482363D01*
X54667636Y-116638243D01*
X54667641Y-116638247D01*
X54807254Y-116739682D01*
X54849920Y-116795012D01*
X54855899Y-116864625D01*
X54823293Y-116926420D01*
X54807254Y-116940318D01*
X54667641Y-117041752D01*
X54667636Y-117041756D01*
X54511756Y-117197636D01*
X54511752Y-117197641D01*
X54382187Y-117375974D01*
X54282104Y-117572393D01*
X54282103Y-117572396D01*
X54213985Y-117782047D01*
X54179500Y-117999778D01*
X54179500Y-118220221D01*
X54213985Y-118437952D01*
X54282103Y-118647603D01*
X54282104Y-118647606D01*
X54350122Y-118781096D01*
X54381355Y-118842394D01*
X54382187Y-118844025D01*
X54511752Y-119022358D01*
X54511756Y-119022363D01*
X54667636Y-119178243D01*
X54667641Y-119178247D01*
X54807254Y-119279682D01*
X54849920Y-119335012D01*
X54855899Y-119404625D01*
X54823293Y-119466420D01*
X54807254Y-119480318D01*
X54667641Y-119581752D01*
X54667636Y-119581756D01*
X54511756Y-119737636D01*
X54511752Y-119737641D01*
X54382187Y-119915974D01*
X54282104Y-120112393D01*
X54282103Y-120112396D01*
X54213985Y-120322047D01*
X54182674Y-120519737D01*
X54179500Y-120539778D01*
X54179500Y-120760222D01*
X54187288Y-120809394D01*
X54213985Y-120977952D01*
X54282103Y-121187603D01*
X54282104Y-121187606D01*
X54382187Y-121384025D01*
X54511752Y-121562358D01*
X54511756Y-121562363D01*
X54667636Y-121718243D01*
X54667641Y-121718247D01*
X54807254Y-121819682D01*
X54849920Y-121875012D01*
X54855899Y-121944625D01*
X54823293Y-122006420D01*
X54807254Y-122020318D01*
X54667641Y-122121752D01*
X54667636Y-122121756D01*
X54511756Y-122277636D01*
X54511752Y-122277641D01*
X54382187Y-122455974D01*
X54282104Y-122652393D01*
X54282103Y-122652396D01*
X54213985Y-122862047D01*
X54179500Y-123079778D01*
X54179500Y-123300221D01*
X54213985Y-123517952D01*
X54282103Y-123727603D01*
X54282104Y-123727606D01*
X54332960Y-123827414D01*
X54381355Y-123922394D01*
X54382187Y-123924025D01*
X54511752Y-124102358D01*
X54511756Y-124102363D01*
X54667636Y-124258243D01*
X54667641Y-124258247D01*
X54807254Y-124359682D01*
X54849920Y-124415012D01*
X54855899Y-124484625D01*
X54823293Y-124546420D01*
X54807254Y-124560318D01*
X54667641Y-124661752D01*
X54667636Y-124661756D01*
X54511756Y-124817636D01*
X54511752Y-124817641D01*
X54382187Y-124995974D01*
X54282104Y-125192393D01*
X54282103Y-125192396D01*
X54213985Y-125402047D01*
X54179500Y-125619778D01*
X54179500Y-125840221D01*
X54213985Y-126057952D01*
X54282103Y-126267603D01*
X54282104Y-126267606D01*
X54336410Y-126374184D01*
X54381355Y-126462394D01*
X54382187Y-126464025D01*
X54511752Y-126642358D01*
X54511756Y-126642363D01*
X54667636Y-126798243D01*
X54667641Y-126798247D01*
X54807254Y-126899682D01*
X54849920Y-126955012D01*
X54855899Y-127024625D01*
X54823293Y-127086420D01*
X54807254Y-127100318D01*
X54667641Y-127201752D01*
X54667636Y-127201756D01*
X54511756Y-127357636D01*
X54511752Y-127357641D01*
X54382187Y-127535974D01*
X54282104Y-127732393D01*
X54282103Y-127732396D01*
X54213985Y-127942047D01*
X54179500Y-128159778D01*
X54179500Y-128380221D01*
X54213985Y-128597952D01*
X54282103Y-128807603D01*
X54282104Y-128807606D01*
X54329986Y-128901577D01*
X54381355Y-129002394D01*
X54382187Y-129004025D01*
X54511752Y-129182358D01*
X54511756Y-129182363D01*
X54667636Y-129338243D01*
X54667641Y-129338247D01*
X54754817Y-129401583D01*
X54845978Y-129467815D01*
X54944420Y-129517974D01*
X55042393Y-129567895D01*
X55042396Y-129567896D01*
X55147221Y-129601955D01*
X55252049Y-129636015D01*
X55469778Y-129670500D01*
X55469779Y-129670500D01*
X55690221Y-129670500D01*
X55690222Y-129670500D01*
X55907951Y-129636015D01*
X56117606Y-129567895D01*
X56184099Y-129534015D01*
X56240394Y-129520500D01*
X57828422Y-129520500D01*
X58022826Y-129489709D01*
X58210026Y-129428884D01*
X58385405Y-129339524D01*
X58544646Y-129223828D01*
X59953828Y-127814646D01*
X60069524Y-127655405D01*
X60158884Y-127480026D01*
X60219709Y-127292827D01*
X60234134Y-127201752D01*
X60250500Y-127098422D01*
X60250500Y-125569336D01*
X60270185Y-125502297D01*
X60286819Y-125481655D01*
X60981655Y-124786819D01*
X61042978Y-124753334D01*
X61069336Y-124750500D01*
X62210678Y-124750500D01*
X62277717Y-124770185D01*
X62323472Y-124822989D01*
X62333416Y-124892147D01*
X62304391Y-124955703D01*
X62283564Y-124974818D01*
X62185352Y-125046173D01*
X62046174Y-125185351D01*
X62046174Y-125185352D01*
X62046172Y-125185354D01*
X61996485Y-125253741D01*
X61930476Y-125344594D01*
X61841117Y-125519970D01*
X61780290Y-125707173D01*
X61749500Y-125901577D01*
X61749500Y-126930664D01*
X61729815Y-126997703D01*
X61713181Y-127018345D01*
X60546174Y-128185351D01*
X60546174Y-128185352D01*
X60546172Y-128185354D01*
X60537119Y-128197815D01*
X60430476Y-128344594D01*
X60340669Y-128520851D01*
X60339608Y-128524612D01*
X60280291Y-128707169D01*
X60280291Y-128707172D01*
X60249500Y-128901577D01*
X60249500Y-132930664D01*
X60229815Y-132997703D01*
X60213181Y-133018345D01*
X59018345Y-134213181D01*
X58957022Y-134246666D01*
X58930664Y-134249500D01*
X54569336Y-134249500D01*
X54502297Y-134229815D01*
X54481655Y-134213181D01*
X51786819Y-131518345D01*
X51753334Y-131457022D01*
X51750500Y-131430664D01*
X51750500Y-130200391D01*
X51764016Y-130144095D01*
X51797895Y-130077606D01*
X51866015Y-129867951D01*
X51900500Y-129650222D01*
X51900500Y-129429778D01*
X51866015Y-129212049D01*
X51797895Y-129002394D01*
X51797895Y-129002393D01*
X51749500Y-128907414D01*
X51697815Y-128805978D01*
X51678835Y-128779854D01*
X51568244Y-128627637D01*
X51412363Y-128471756D01*
X51412358Y-128471752D01*
X51272745Y-128370318D01*
X51230079Y-128314989D01*
X51224100Y-128245375D01*
X51256705Y-128183580D01*
X51272745Y-128169682D01*
X51412358Y-128068247D01*
X51412356Y-128068247D01*
X51412365Y-128068242D01*
X51568242Y-127912365D01*
X51697815Y-127734022D01*
X51797895Y-127537606D01*
X51866015Y-127327951D01*
X51900500Y-127110222D01*
X51900500Y-126889778D01*
X51866015Y-126672049D01*
X51816074Y-126518345D01*
X51797896Y-126462396D01*
X51797895Y-126462393D01*
X51740508Y-126349767D01*
X51697815Y-126265978D01*
X51622866Y-126162819D01*
X51568247Y-126087641D01*
X51568243Y-126087636D01*
X51412363Y-125931756D01*
X51412358Y-125931752D01*
X51272745Y-125830318D01*
X51230079Y-125774989D01*
X51224100Y-125705375D01*
X51256705Y-125643580D01*
X51272745Y-125629682D01*
X51412358Y-125528247D01*
X51412356Y-125528247D01*
X51412365Y-125528242D01*
X51568242Y-125372365D01*
X51697815Y-125194022D01*
X51797895Y-124997606D01*
X51866015Y-124787951D01*
X51900500Y-124570222D01*
X51900500Y-124349778D01*
X51866015Y-124132049D01*
X51797895Y-123922394D01*
X51797895Y-123922393D01*
X51749500Y-123827414D01*
X51697815Y-123725978D01*
X51570467Y-123550697D01*
X51568247Y-123547641D01*
X51568243Y-123547636D01*
X51412363Y-123391756D01*
X51412358Y-123391752D01*
X51234025Y-123262187D01*
X51234024Y-123262186D01*
X51234022Y-123262185D01*
X51154480Y-123221656D01*
X51037606Y-123162104D01*
X51037603Y-123162103D01*
X50827952Y-123093985D01*
X50719086Y-123076742D01*
X50610222Y-123059500D01*
X50389778Y-123059500D01*
X50317201Y-123070995D01*
X50172047Y-123093985D01*
X49962396Y-123162103D01*
X49962393Y-123162104D01*
X49765974Y-123262187D01*
X49587641Y-123391752D01*
X49587636Y-123391756D01*
X49462181Y-123517212D01*
X49400858Y-123550697D01*
X49331166Y-123545713D01*
X49275233Y-123503841D01*
X49250816Y-123438377D01*
X49250500Y-123429531D01*
X49250500Y-120410469D01*
X49270185Y-120343430D01*
X49322989Y-120297675D01*
X49392147Y-120287731D01*
X49455703Y-120316756D01*
X49462181Y-120322788D01*
X49587636Y-120448243D01*
X49587641Y-120448247D01*
X49728382Y-120550500D01*
X49765978Y-120577815D01*
X49894375Y-120643237D01*
X49962393Y-120677895D01*
X49962396Y-120677896D01*
X50067221Y-120711955D01*
X50172049Y-120746015D01*
X50389778Y-120780500D01*
X50389779Y-120780500D01*
X50610221Y-120780500D01*
X50610222Y-120780500D01*
X50827951Y-120746015D01*
X51037606Y-120677895D01*
X51234022Y-120577815D01*
X51412365Y-120448242D01*
X51568242Y-120292365D01*
X51697815Y-120114022D01*
X51797895Y-119917606D01*
X51866015Y-119707951D01*
X51900500Y-119490222D01*
X51900500Y-119269778D01*
X51866015Y-119052049D01*
X51797895Y-118842394D01*
X51797895Y-118842393D01*
X51760874Y-118769737D01*
X51697815Y-118645978D01*
X51570467Y-118470697D01*
X51568247Y-118467641D01*
X51568243Y-118467636D01*
X51412363Y-118311756D01*
X51412358Y-118311752D01*
X51272745Y-118210318D01*
X51230079Y-118154989D01*
X51224100Y-118085375D01*
X51256705Y-118023580D01*
X51272745Y-118009682D01*
X51412358Y-117908247D01*
X51412356Y-117908247D01*
X51412365Y-117908242D01*
X51568242Y-117752365D01*
X51697815Y-117574022D01*
X51797895Y-117377606D01*
X51866015Y-117167951D01*
X51900500Y-116950222D01*
X51900500Y-116729778D01*
X51866015Y-116512049D01*
X51797895Y-116302394D01*
X51797895Y-116302393D01*
X51749500Y-116207414D01*
X51697815Y-116105978D01*
X51570467Y-115930697D01*
X51568247Y-115927641D01*
X51568243Y-115927636D01*
X51412363Y-115771756D01*
X51412358Y-115771752D01*
X51272745Y-115670318D01*
X51230079Y-115614989D01*
X51224100Y-115545375D01*
X51256705Y-115483580D01*
X51272745Y-115469682D01*
X51412358Y-115368247D01*
X51412356Y-115368247D01*
X51412365Y-115368242D01*
X51568242Y-115212365D01*
X51697815Y-115034022D01*
X51797895Y-114837606D01*
X51820955Y-114766630D01*
X51851203Y-114717269D01*
X54281656Y-112286819D01*
X54342979Y-112253334D01*
X54369337Y-112250500D01*
X55598374Y-112250500D01*
X55665413Y-112270185D01*
G37*
%TD.AperFunction*%
%TD*%
M02*
