%TF.GenerationSoftware,KiCad,Pcbnew,9.0.0*%
%TF.CreationDate,2025-11-25T21:07:29+01:00*%
%TF.ProjectId,Line follower,4c696e65-2066-46f6-9c6c-6f7765722e6b,rev?*%
%TF.SameCoordinates,Original*%
%TF.FileFunction,Legend,Bot*%
%TF.FilePolarity,Positive*%
%FSLAX46Y46*%
G04 Gerber Fmt 4.6, Leading zero omitted, Abs format (unit mm)*
G04 Created by KiCad (PCBNEW 9.0.0) date 2025-11-25 21:07:29*
%MOMM*%
%LPD*%
G01*
G04 APERTURE LIST*
%ADD10C,0.000000*%
%ADD11C,0.100000*%
%ADD12C,0.250000*%
%ADD13C,0.150000*%
%ADD14C,0.127000*%
%ADD15C,0.240000*%
G04 APERTURE END LIST*
D10*
G36*
X80401978Y-113689452D02*
G01*
X80394773Y-113779278D01*
X80382309Y-113868283D01*
X80364502Y-113956967D01*
X80341266Y-114045828D01*
X80312516Y-114135365D01*
X80278168Y-114226079D01*
X80238136Y-114318468D01*
X80192335Y-114413031D01*
X80140681Y-114510268D01*
X80083088Y-114610677D01*
X79960822Y-114813128D01*
X79841744Y-115002819D01*
X79725439Y-115180200D01*
X79611491Y-115345719D01*
X79499488Y-115499828D01*
X79389013Y-115642976D01*
X79279653Y-115775612D01*
X79170993Y-115898187D01*
X79062619Y-116011149D01*
X78954117Y-116114950D01*
X78845070Y-116210038D01*
X78735066Y-116296863D01*
X78623690Y-116375876D01*
X78510527Y-116447526D01*
X78395163Y-116512262D01*
X78277182Y-116570535D01*
X78167187Y-116618875D01*
X78049842Y-116665729D01*
X77925757Y-116710959D01*
X77795540Y-116754428D01*
X77519145Y-116835535D01*
X77225530Y-116907952D01*
X76919563Y-116970584D01*
X76606116Y-117022333D01*
X76290058Y-117062104D01*
X75976261Y-117088799D01*
X75976114Y-117089658D01*
X75869630Y-117092023D01*
X75676584Y-117094000D01*
X75140595Y-117095860D01*
X74436133Y-117092967D01*
X74161905Y-116956541D01*
X74043689Y-116894011D01*
X73929818Y-116826307D01*
X73820478Y-116753651D01*
X73715859Y-116676266D01*
X73616148Y-116594374D01*
X73521533Y-116508197D01*
X73432202Y-116417958D01*
X73348344Y-116323879D01*
X73270145Y-116226182D01*
X73197794Y-116125091D01*
X73131479Y-116020827D01*
X73071388Y-115913613D01*
X73017709Y-115803671D01*
X72970630Y-115691224D01*
X72930338Y-115576494D01*
X72897022Y-115459704D01*
X72884687Y-115403650D01*
X72874386Y-115341612D01*
X72866096Y-115274322D01*
X72859796Y-115202514D01*
X72855466Y-115126920D01*
X72853617Y-115065859D01*
X73271433Y-115065859D01*
X73271902Y-115134069D01*
X73273221Y-115197645D01*
X73275491Y-115257080D01*
X73278811Y-115312865D01*
X73283282Y-115365493D01*
X73289006Y-115415456D01*
X73296082Y-115463244D01*
X73304611Y-115509351D01*
X73314693Y-115554267D01*
X73326430Y-115598486D01*
X73339920Y-115642498D01*
X73355266Y-115686796D01*
X73372568Y-115731872D01*
X73391925Y-115778217D01*
X73413439Y-115826324D01*
X73437211Y-115876684D01*
X73480660Y-115959996D01*
X73528609Y-116039324D01*
X73581108Y-116114705D01*
X73638208Y-116186172D01*
X73699958Y-116253759D01*
X73766409Y-116317502D01*
X73837610Y-116377434D01*
X73913612Y-116433590D01*
X73994465Y-116486005D01*
X74080219Y-116534713D01*
X74170924Y-116579748D01*
X74266631Y-116621145D01*
X74367389Y-116658939D01*
X74473249Y-116693163D01*
X74584260Y-116723853D01*
X74700473Y-116751043D01*
X74700418Y-116751073D01*
X74700404Y-116751081D01*
X74700390Y-116751088D01*
X74700375Y-116751096D01*
X74700361Y-116751102D01*
X74744456Y-116759271D01*
X74798360Y-116767141D01*
X74929814Y-116781690D01*
X75083158Y-116794166D01*
X75246826Y-116803984D01*
X75409253Y-116810559D01*
X75558874Y-116813307D01*
X75684124Y-116811643D01*
X75733996Y-116808974D01*
X75773438Y-116804983D01*
X75821945Y-116799078D01*
X75901059Y-116790409D01*
X76107334Y-116769428D01*
X76299078Y-116746719D01*
X76501009Y-116715420D01*
X76708960Y-116676500D01*
X76918764Y-116630926D01*
X77126254Y-116579669D01*
X77327265Y-116523697D01*
X77517628Y-116463978D01*
X77693177Y-116401482D01*
X77789000Y-116363918D01*
X77881571Y-116325478D01*
X77971022Y-116286082D01*
X78057483Y-116245649D01*
X78141086Y-116204100D01*
X78221960Y-116161353D01*
X78300237Y-116117329D01*
X78376047Y-116071946D01*
X78449522Y-116025123D01*
X78520793Y-115976782D01*
X78589990Y-115926840D01*
X78657244Y-115875218D01*
X78722686Y-115821835D01*
X78786447Y-115766610D01*
X78848657Y-115709463D01*
X78909449Y-115650314D01*
X78989961Y-115565731D01*
X79072554Y-115471378D01*
X79156396Y-115368618D01*
X79240658Y-115258813D01*
X79324511Y-115143327D01*
X79407124Y-115023524D01*
X79487668Y-114900766D01*
X79565313Y-114776418D01*
X79639229Y-114651841D01*
X79708586Y-114528400D01*
X79772554Y-114407458D01*
X79830305Y-114290377D01*
X79881007Y-114178522D01*
X79923832Y-114073256D01*
X79957948Y-113975941D01*
X79982528Y-113887942D01*
X79989829Y-113851136D01*
X79995585Y-113809707D01*
X79999831Y-113764266D01*
X80002605Y-113715424D01*
X80003942Y-113663793D01*
X80003879Y-113609983D01*
X80002452Y-113554607D01*
X79999699Y-113498276D01*
X79995656Y-113441601D01*
X79990359Y-113385194D01*
X79983845Y-113329666D01*
X79976150Y-113275628D01*
X79967311Y-113223692D01*
X79957365Y-113174469D01*
X79946348Y-113128570D01*
X79934296Y-113086608D01*
X79891529Y-112962301D01*
X79841995Y-112839803D01*
X79785236Y-112718574D01*
X79720797Y-112598073D01*
X79648220Y-112477760D01*
X79567049Y-112357092D01*
X79476826Y-112235530D01*
X79377094Y-112112532D01*
X79267398Y-111987557D01*
X79147279Y-111860065D01*
X79016281Y-111729515D01*
X78873948Y-111595365D01*
X78719821Y-111457076D01*
X78553445Y-111314105D01*
X78374363Y-111165913D01*
X78182117Y-111011958D01*
X77782844Y-110695615D01*
X77484855Y-110456516D01*
X77368626Y-110361713D01*
X77271461Y-110281159D01*
X77191271Y-110213167D01*
X77125972Y-110156048D01*
X77106753Y-110139078D01*
X77088451Y-110123348D01*
X77071034Y-110108838D01*
X77054469Y-110095527D01*
X77038725Y-110083397D01*
X77023769Y-110072425D01*
X77009569Y-110062594D01*
X76996092Y-110053882D01*
X76983306Y-110046271D01*
X76971180Y-110039738D01*
X76959679Y-110034266D01*
X76948773Y-110029834D01*
X76938429Y-110026421D01*
X76928615Y-110024008D01*
X76923897Y-110023170D01*
X76919298Y-110022575D01*
X76914816Y-110022220D01*
X76910447Y-110022102D01*
X76887579Y-110022910D01*
X76862249Y-110025295D01*
X76834657Y-110029194D01*
X76805003Y-110034547D01*
X76773487Y-110041292D01*
X76740310Y-110049368D01*
X76669771Y-110069265D01*
X76594986Y-110093749D01*
X76517558Y-110122329D01*
X76439087Y-110154512D01*
X76361173Y-110189809D01*
X76314674Y-110213257D01*
X76268707Y-110239000D01*
X76223425Y-110266895D01*
X76178979Y-110296794D01*
X76135519Y-110328555D01*
X76093199Y-110362031D01*
X76052170Y-110397077D01*
X76012583Y-110433549D01*
X75974590Y-110471301D01*
X75938342Y-110510188D01*
X75903991Y-110550066D01*
X75871689Y-110590788D01*
X75841587Y-110632211D01*
X75813838Y-110674188D01*
X75788592Y-110716576D01*
X75766001Y-110759228D01*
X75746630Y-110798551D01*
X75730042Y-110833178D01*
X75716357Y-110863442D01*
X75705698Y-110889672D01*
X75701541Y-110901378D01*
X75698186Y-110912199D01*
X75695647Y-110922177D01*
X75693941Y-110931354D01*
X75693082Y-110939770D01*
X75693086Y-110947467D01*
X75693967Y-110954486D01*
X75695741Y-110960869D01*
X75698423Y-110966657D01*
X75702028Y-110971891D01*
X75706571Y-110976613D01*
X75712068Y-110980863D01*
X75718534Y-110984684D01*
X75725983Y-110988116D01*
X75734431Y-110991202D01*
X75743893Y-110993981D01*
X75754385Y-110996496D01*
X75765921Y-110998788D01*
X75792187Y-111002868D01*
X75822813Y-111006552D01*
X75857920Y-111010169D01*
X75929213Y-111018214D01*
X75995767Y-111027913D01*
X76057815Y-111039398D01*
X76115589Y-111052801D01*
X76142945Y-111060264D01*
X76169320Y-111068256D01*
X76194742Y-111076794D01*
X76219240Y-111085894D01*
X76242843Y-111095574D01*
X76265581Y-111105850D01*
X76287482Y-111116738D01*
X76308576Y-111128255D01*
X76328891Y-111140417D01*
X76348455Y-111153242D01*
X76367300Y-111166745D01*
X76385452Y-111180944D01*
X76402942Y-111195854D01*
X76419798Y-111211493D01*
X76436049Y-111227877D01*
X76451724Y-111245022D01*
X76466852Y-111262946D01*
X76481463Y-111281665D01*
X76495585Y-111301194D01*
X76509247Y-111321552D01*
X76522478Y-111342754D01*
X76535307Y-111364818D01*
X76559876Y-111411594D01*
X76581924Y-111458026D01*
X76602058Y-111503973D01*
X76620327Y-111549707D01*
X76636782Y-111595504D01*
X76651472Y-111641635D01*
X76664447Y-111688373D01*
X76675755Y-111735993D01*
X76685448Y-111784767D01*
X76693574Y-111834969D01*
X76700184Y-111886871D01*
X76705326Y-111940747D01*
X76709051Y-111996871D01*
X76711409Y-112055515D01*
X76712448Y-112116952D01*
X76710770Y-112249300D01*
X76701673Y-112556741D01*
X76567038Y-112682005D01*
X76511618Y-112730290D01*
X76452990Y-112774755D01*
X76390760Y-112815497D01*
X76324536Y-112852614D01*
X76253922Y-112886202D01*
X76178526Y-112916359D01*
X76097954Y-112943182D01*
X76011811Y-112966769D01*
X75919705Y-112987216D01*
X75821241Y-113004622D01*
X75716026Y-113019083D01*
X75603665Y-113030696D01*
X75483766Y-113039560D01*
X75355934Y-113045770D01*
X75219775Y-113049425D01*
X75074897Y-113050622D01*
X74992239Y-113050030D01*
X74918914Y-113047812D01*
X74854347Y-113043386D01*
X74797960Y-113036171D01*
X74772654Y-113031335D01*
X74749178Y-113025584D01*
X74727459Y-113018843D01*
X74707425Y-113011042D01*
X74689004Y-113002107D01*
X74672124Y-112991964D01*
X74656713Y-112980542D01*
X74642699Y-112967768D01*
X74630010Y-112953569D01*
X74618575Y-112937871D01*
X74608320Y-112920603D01*
X74599174Y-112901692D01*
X74591066Y-112881064D01*
X74583922Y-112858648D01*
X74577671Y-112834369D01*
X74572241Y-112808156D01*
X74563556Y-112749636D01*
X74557291Y-112682505D01*
X74552869Y-112606180D01*
X74549714Y-112520080D01*
X74547480Y-112459026D01*
X74544579Y-112402062D01*
X74541133Y-112350437D01*
X74537261Y-112305399D01*
X74535204Y-112285741D01*
X74533086Y-112268197D01*
X74530922Y-112252924D01*
X74528728Y-112240078D01*
X74526519Y-112229815D01*
X74524309Y-112222291D01*
X74523209Y-112219605D01*
X74522114Y-112217663D01*
X74521027Y-112216483D01*
X74519950Y-112216085D01*
X74515611Y-112217146D01*
X74509826Y-112220273D01*
X74494194Y-112232377D01*
X74473608Y-112251709D01*
X74448627Y-112277584D01*
X74387699Y-112346207D01*
X74315861Y-112432746D01*
X74237563Y-112531700D01*
X74157257Y-112637569D01*
X74079393Y-112744852D01*
X74008420Y-112848051D01*
X73920945Y-112984166D01*
X73838753Y-113121320D01*
X73761895Y-113259360D01*
X73690424Y-113398136D01*
X73624389Y-113537497D01*
X73563842Y-113677291D01*
X73508834Y-113817368D01*
X73459415Y-113957577D01*
X73415638Y-114097766D01*
X73377553Y-114237785D01*
X73345211Y-114377483D01*
X73318663Y-114516707D01*
X73297960Y-114655308D01*
X73283153Y-114793135D01*
X73274294Y-114930035D01*
X73271433Y-115065859D01*
X72853617Y-115065859D01*
X72853084Y-115048274D01*
X72852629Y-114967308D01*
X72854079Y-114884755D01*
X72857414Y-114801348D01*
X72862613Y-114717819D01*
X72869653Y-114634903D01*
X72878515Y-114553331D01*
X72889177Y-114473836D01*
X72901617Y-114397151D01*
X72915814Y-114324010D01*
X72931748Y-114255145D01*
X72978128Y-114083994D01*
X73029852Y-113916446D01*
X73087126Y-113752006D01*
X73150157Y-113590180D01*
X73219149Y-113430471D01*
X73294308Y-113272387D01*
X73375840Y-113115431D01*
X73463950Y-112959109D01*
X73570724Y-112783728D01*
X73690877Y-112598781D01*
X73822742Y-112406256D01*
X73964655Y-112208138D01*
X74114950Y-112006416D01*
X74271961Y-111803076D01*
X74434023Y-111600105D01*
X74599470Y-111399492D01*
X74766637Y-111203221D01*
X74933858Y-111013282D01*
X75099468Y-110831661D01*
X75261801Y-110660344D01*
X75419192Y-110501320D01*
X75569975Y-110356575D01*
X75712485Y-110228097D01*
X75845057Y-110117872D01*
X75888120Y-110084904D01*
X75933201Y-110052428D01*
X75980085Y-110020553D01*
X76028557Y-109989388D01*
X76078402Y-109959040D01*
X76129405Y-109929617D01*
X76181353Y-109901229D01*
X76234028Y-109873982D01*
X76287218Y-109847985D01*
X76340706Y-109823346D01*
X76394279Y-109800174D01*
X76447720Y-109778577D01*
X76500816Y-109758662D01*
X76553351Y-109740538D01*
X76605111Y-109724313D01*
X76655881Y-109710096D01*
X76723501Y-109694272D01*
X76797205Y-109680593D01*
X76876126Y-109669056D01*
X76959395Y-109659661D01*
X77046144Y-109652403D01*
X77135504Y-109647281D01*
X77226607Y-109644292D01*
X77318585Y-109643434D01*
X77410569Y-109644704D01*
X77501691Y-109648101D01*
X77591083Y-109653621D01*
X77677876Y-109661262D01*
X77761202Y-109671022D01*
X77840192Y-109682898D01*
X77913979Y-109696889D01*
X77981693Y-109712991D01*
X77996298Y-109717022D01*
X78009360Y-109721132D01*
X78021106Y-109725664D01*
X78031763Y-109730965D01*
X78041559Y-109737380D01*
X78050720Y-109745255D01*
X78059474Y-109754936D01*
X78068047Y-109766768D01*
X78076667Y-109781096D01*
X78085561Y-109798266D01*
X78094956Y-109818625D01*
X78105079Y-109842516D01*
X78128418Y-109902282D01*
X78157395Y-109980329D01*
X78198111Y-110087968D01*
X78238893Y-110188988D01*
X78280625Y-110284630D01*
X78324189Y-110376137D01*
X78370469Y-110464749D01*
X78420348Y-110551710D01*
X78474709Y-110638260D01*
X78534435Y-110725642D01*
X78600409Y-110815098D01*
X78673515Y-110907870D01*
X78754635Y-111005199D01*
X78844653Y-111108327D01*
X78944452Y-111218496D01*
X79054916Y-111336949D01*
X79311367Y-111603671D01*
X79440003Y-111736631D01*
X79557139Y-111860120D01*
X79663400Y-111975051D01*
X79759411Y-112082334D01*
X79845797Y-112182883D01*
X79923183Y-112277610D01*
X79992194Y-112367426D01*
X80053455Y-112453243D01*
X80107591Y-112535975D01*
X80155226Y-112616533D01*
X80196987Y-112695828D01*
X80233497Y-112774775D01*
X80265383Y-112854283D01*
X80293268Y-112935266D01*
X80317778Y-113018636D01*
X80339537Y-113105305D01*
X80362099Y-113210539D01*
X80379912Y-113311957D01*
X80392891Y-113410058D01*
X80400952Y-113505341D01*
X80404009Y-113598307D01*
X80402549Y-113663793D01*
X80401978Y-113689452D01*
G37*
G36*
X89735882Y-116766060D02*
G01*
X89673098Y-116907854D01*
X89592708Y-117080828D01*
X89516214Y-117247492D01*
X89484038Y-117321646D01*
X89455632Y-117390816D01*
X89430787Y-117455853D01*
X89409294Y-117517610D01*
X89390944Y-117576937D01*
X89375529Y-117634687D01*
X89362840Y-117691710D01*
X89352668Y-117748858D01*
X89344805Y-117806982D01*
X89339041Y-117866935D01*
X89335169Y-117929567D01*
X89332979Y-117995730D01*
X89332262Y-118066276D01*
X89332810Y-118142056D01*
X89334283Y-118274032D01*
X89334981Y-118386685D01*
X89334903Y-118468074D01*
X89334574Y-118493315D01*
X89334050Y-118506263D01*
X89332426Y-118512276D01*
X89328680Y-118520120D01*
X89315244Y-118540879D01*
X89294583Y-118567703D01*
X89267537Y-118599757D01*
X89197647Y-118676206D01*
X89112292Y-118763533D01*
X89018191Y-118855046D01*
X88922062Y-118944053D01*
X88830622Y-119023863D01*
X88788761Y-119058227D01*
X88750591Y-119087782D01*
X88668258Y-119147250D01*
X88584602Y-119203877D01*
X88499707Y-119257629D01*
X88413654Y-119308471D01*
X88326526Y-119356371D01*
X88238407Y-119401292D01*
X88149380Y-119443203D01*
X88059526Y-119482067D01*
X87968928Y-119517852D01*
X87877670Y-119550523D01*
X87785835Y-119580046D01*
X87693504Y-119606387D01*
X87600762Y-119629512D01*
X87507689Y-119649386D01*
X87414371Y-119665977D01*
X87320888Y-119679249D01*
X87320928Y-119679288D01*
X87320969Y-119679327D01*
X87321051Y-119679404D01*
X87246816Y-119686909D01*
X87169760Y-119691490D01*
X87090398Y-119693224D01*
X87009243Y-119692190D01*
X86926809Y-119688463D01*
X86843609Y-119682122D01*
X86760158Y-119673242D01*
X86676967Y-119661902D01*
X86594552Y-119648179D01*
X86513426Y-119632149D01*
X86434101Y-119613890D01*
X86357092Y-119593478D01*
X86282912Y-119570992D01*
X86212075Y-119546507D01*
X86145094Y-119520102D01*
X86082483Y-119491853D01*
X86016044Y-119457600D01*
X85947258Y-119417999D01*
X85876124Y-119373046D01*
X85802638Y-119322740D01*
X85726799Y-119267080D01*
X85648606Y-119206063D01*
X85568055Y-119139689D01*
X85485146Y-119067955D01*
X85399876Y-118990860D01*
X85312242Y-118908402D01*
X85222244Y-118820580D01*
X85129878Y-118727392D01*
X84938038Y-118524911D01*
X84736705Y-118300945D01*
X84515908Y-118045575D01*
X84312769Y-117802304D01*
X84126818Y-117570255D01*
X83957583Y-117348551D01*
X83804594Y-117136315D01*
X83667380Y-116932671D01*
X83545469Y-116736742D01*
X83438391Y-116547650D01*
X83345674Y-116364518D01*
X83266848Y-116186470D01*
X83201441Y-116012629D01*
X83148983Y-115842118D01*
X83109001Y-115674059D01*
X83081027Y-115507576D01*
X83078521Y-115482304D01*
X83517956Y-115482304D01*
X83519541Y-115576006D01*
X83524501Y-115664068D01*
X83533030Y-115744792D01*
X83545321Y-115816483D01*
X83564425Y-115892966D01*
X83589977Y-115973575D01*
X83622015Y-116058375D01*
X83660579Y-116147428D01*
X83705708Y-116240798D01*
X83757443Y-116338549D01*
X83815822Y-116440745D01*
X83880886Y-116547448D01*
X83952674Y-116658723D01*
X84031226Y-116774633D01*
X84116582Y-116895241D01*
X84208780Y-117020612D01*
X84413865Y-117285894D01*
X84646798Y-117570988D01*
X84809241Y-117759307D01*
X84986435Y-117954146D01*
X85173315Y-118150510D01*
X85364815Y-118343407D01*
X85555868Y-118527842D01*
X85741408Y-118698821D01*
X85916371Y-118851353D01*
X85998302Y-118919140D01*
X86075689Y-118980442D01*
X86100568Y-118998958D01*
X86127402Y-119017609D01*
X86156041Y-119036321D01*
X86186334Y-119055020D01*
X86251280Y-119092083D01*
X86321039Y-119128202D01*
X86394409Y-119162784D01*
X86470186Y-119195234D01*
X86547167Y-119224958D01*
X86624152Y-119251363D01*
X86624201Y-119251005D01*
X86673011Y-119264834D01*
X86727929Y-119277113D01*
X86788112Y-119287822D01*
X86852718Y-119296942D01*
X86920904Y-119304452D01*
X86991827Y-119310334D01*
X87064646Y-119314567D01*
X87138518Y-119317132D01*
X87212599Y-119318010D01*
X87286048Y-119317181D01*
X87358021Y-119314624D01*
X87427677Y-119310322D01*
X87494172Y-119304254D01*
X87556665Y-119296400D01*
X87614312Y-119286741D01*
X87666271Y-119275257D01*
X87782446Y-119242833D01*
X87893791Y-119205706D01*
X88000319Y-119163867D01*
X88102041Y-119117306D01*
X88198967Y-119066015D01*
X88291110Y-119009983D01*
X88378482Y-118949202D01*
X88461092Y-118883661D01*
X88538954Y-118813352D01*
X88612078Y-118738264D01*
X88680476Y-118658389D01*
X88744158Y-118573717D01*
X88803138Y-118484238D01*
X88857425Y-118389943D01*
X88907032Y-118290823D01*
X88951970Y-118186868D01*
X88994308Y-118074540D01*
X89012885Y-118019513D01*
X89029833Y-117964693D01*
X89045224Y-117909666D01*
X89059133Y-117854019D01*
X89071633Y-117797338D01*
X89082799Y-117739211D01*
X89092703Y-117679223D01*
X89101419Y-117616961D01*
X89115584Y-117483962D01*
X89125883Y-117336908D01*
X89132906Y-117172489D01*
X89146412Y-116751484D01*
X88958448Y-116737704D01*
X88867653Y-116730001D01*
X88781649Y-116720645D01*
X88700248Y-116709565D01*
X88623265Y-116696694D01*
X88550513Y-116681964D01*
X88481804Y-116665305D01*
X88416952Y-116646650D01*
X88355770Y-116625930D01*
X88298071Y-116603077D01*
X88243670Y-116578022D01*
X88192378Y-116550697D01*
X88144009Y-116521033D01*
X88098377Y-116488962D01*
X88055295Y-116454416D01*
X88014575Y-116417326D01*
X87976032Y-116377624D01*
X87937102Y-116332879D01*
X87901242Y-116287195D01*
X87868462Y-116240598D01*
X87838770Y-116193116D01*
X87812174Y-116144777D01*
X87788683Y-116095609D01*
X87768306Y-116045639D01*
X87751052Y-115994896D01*
X87736929Y-115943407D01*
X87725946Y-115891201D01*
X87718111Y-115838303D01*
X87713434Y-115784744D01*
X87711923Y-115730549D01*
X87713586Y-115675748D01*
X87718433Y-115620367D01*
X87726471Y-115564436D01*
X87744173Y-115479937D01*
X87767620Y-115399395D01*
X87796732Y-115322879D01*
X87831432Y-115250460D01*
X87850852Y-115215809D01*
X87871640Y-115182208D01*
X87893785Y-115149668D01*
X87917278Y-115118195D01*
X87942108Y-115087800D01*
X87968267Y-115058491D01*
X87995743Y-115030278D01*
X88024528Y-115003167D01*
X88085984Y-114952294D01*
X88152554Y-114905941D01*
X88224160Y-114864181D01*
X88300724Y-114827083D01*
X88382167Y-114794718D01*
X88468410Y-114767158D01*
X88559375Y-114744472D01*
X88654982Y-114726731D01*
X88773469Y-114708485D01*
X88820322Y-114700801D01*
X88859275Y-114693465D01*
X88875874Y-114689784D01*
X88890599Y-114686018D01*
X88903484Y-114682109D01*
X88914563Y-114678000D01*
X88923870Y-114673633D01*
X88931439Y-114668952D01*
X88937303Y-114663899D01*
X88941496Y-114658416D01*
X88944051Y-114652446D01*
X88945004Y-114645932D01*
X88944387Y-114638817D01*
X88942234Y-114631042D01*
X88938579Y-114622551D01*
X88933456Y-114613286D01*
X88926899Y-114603190D01*
X88918941Y-114592206D01*
X88898958Y-114567342D01*
X88873779Y-114538235D01*
X88808910Y-114465456D01*
X88754163Y-114405069D01*
X88697111Y-114344706D01*
X88638001Y-114284573D01*
X88577077Y-114224876D01*
X88514587Y-114165822D01*
X88450777Y-114107614D01*
X88385893Y-114050460D01*
X88320182Y-113994565D01*
X88253889Y-113940135D01*
X88187261Y-113887375D01*
X88120545Y-113836491D01*
X88053986Y-113787689D01*
X87987831Y-113741175D01*
X87922326Y-113697154D01*
X87857717Y-113655832D01*
X87794251Y-113617414D01*
X87721405Y-113575985D01*
X87649046Y-113537553D01*
X87577010Y-113502074D01*
X87505131Y-113469503D01*
X87433245Y-113439796D01*
X87361187Y-113412906D01*
X87288793Y-113388791D01*
X87215898Y-113367404D01*
X87142337Y-113348701D01*
X87067947Y-113332637D01*
X86992561Y-113319167D01*
X86916016Y-113308247D01*
X86838146Y-113299832D01*
X86758788Y-113293876D01*
X86677776Y-113290336D01*
X86594947Y-113289166D01*
X86511776Y-113290685D01*
X86430584Y-113295278D01*
X86351220Y-113303000D01*
X86273532Y-113313904D01*
X86197371Y-113328046D01*
X86122586Y-113345479D01*
X86049027Y-113366258D01*
X85976541Y-113390437D01*
X85904980Y-113418070D01*
X85834192Y-113449211D01*
X85764027Y-113483916D01*
X85694334Y-113522237D01*
X85624962Y-113564230D01*
X85555761Y-113609949D01*
X85486580Y-113659447D01*
X85417269Y-113712780D01*
X85341813Y-113774608D01*
X85271021Y-113836984D01*
X85200732Y-113904401D01*
X85126784Y-113981350D01*
X85045014Y-114072321D01*
X84951259Y-114181807D01*
X84841359Y-114314299D01*
X84711150Y-114474287D01*
X84649555Y-114549624D01*
X84589797Y-114621108D01*
X84531836Y-114688779D01*
X84475628Y-114752677D01*
X84421132Y-114812843D01*
X84368308Y-114869317D01*
X84317112Y-114922140D01*
X84267503Y-114971352D01*
X84219439Y-115016994D01*
X84172879Y-115059106D01*
X84127782Y-115097729D01*
X84084104Y-115132903D01*
X84041805Y-115164668D01*
X84000843Y-115193066D01*
X83961176Y-115218137D01*
X83922762Y-115239921D01*
X83892945Y-115255645D01*
X83866225Y-115269399D01*
X83842441Y-115281205D01*
X83831598Y-115286384D01*
X83821429Y-115291085D01*
X83811913Y-115295309D01*
X83803029Y-115299060D01*
X83794757Y-115302341D01*
X83787078Y-115305154D01*
X83779970Y-115307502D01*
X83773415Y-115309388D01*
X83767390Y-115310815D01*
X83761877Y-115311785D01*
X83756854Y-115312301D01*
X83752303Y-115312367D01*
X83748201Y-115311984D01*
X83744530Y-115311156D01*
X83742850Y-115310575D01*
X83741269Y-115309885D01*
X83739786Y-115309084D01*
X83738398Y-115308174D01*
X83737102Y-115307154D01*
X83735896Y-115306026D01*
X83734777Y-115304789D01*
X83733743Y-115303444D01*
X83731920Y-115300430D01*
X83730405Y-115296987D01*
X83729179Y-115293118D01*
X83728221Y-115288826D01*
X83727511Y-115284114D01*
X83727029Y-115278984D01*
X83726755Y-115273438D01*
X83726668Y-115267481D01*
X83727598Y-115252446D01*
X83730364Y-115236061D01*
X83734926Y-115218393D01*
X83741247Y-115199507D01*
X83749289Y-115179469D01*
X83759013Y-115158344D01*
X83770382Y-115136197D01*
X83783356Y-115113096D01*
X83797899Y-115089104D01*
X83813972Y-115064288D01*
X83831537Y-115038713D01*
X83850555Y-115012446D01*
X83870988Y-114985551D01*
X83892799Y-114958094D01*
X83915950Y-114930141D01*
X83940401Y-114901757D01*
X83968327Y-114869744D01*
X83993712Y-114840187D01*
X84016632Y-114812969D01*
X84037165Y-114787970D01*
X84055389Y-114765073D01*
X84071381Y-114744159D01*
X84085219Y-114725112D01*
X84096981Y-114707812D01*
X84106742Y-114692141D01*
X84110898Y-114684880D01*
X84114583Y-114677982D01*
X84117806Y-114671432D01*
X84120579Y-114665216D01*
X84122909Y-114659319D01*
X84124808Y-114653726D01*
X84126285Y-114648422D01*
X84127348Y-114643392D01*
X84128009Y-114638623D01*
X84128277Y-114634098D01*
X84128161Y-114629804D01*
X84127671Y-114625725D01*
X84126818Y-114621846D01*
X84125609Y-114618154D01*
X84123769Y-114614668D01*
X84120722Y-114610599D01*
X84116539Y-114605997D01*
X84111289Y-114600910D01*
X84105042Y-114595391D01*
X84097867Y-114589487D01*
X84081014Y-114576729D01*
X84061286Y-114563033D01*
X84039240Y-114548800D01*
X84015434Y-114534427D01*
X83990426Y-114520315D01*
X83965519Y-114507222D01*
X83942211Y-114495960D01*
X83920337Y-114486537D01*
X83909886Y-114482518D01*
X83899733Y-114478962D01*
X83889855Y-114475870D01*
X83880233Y-114473243D01*
X83870845Y-114471083D01*
X83861672Y-114469390D01*
X83852693Y-114468165D01*
X83843888Y-114467409D01*
X83835234Y-114467125D01*
X83826713Y-114467312D01*
X83818303Y-114467971D01*
X83809984Y-114469105D01*
X83801736Y-114470714D01*
X83793537Y-114472798D01*
X83785367Y-114475360D01*
X83777205Y-114478399D01*
X83769031Y-114481919D01*
X83760825Y-114485918D01*
X83752566Y-114490399D01*
X83744232Y-114495362D01*
X83735804Y-114500809D01*
X83727261Y-114506741D01*
X83709748Y-114520062D01*
X83691527Y-114535336D01*
X83679520Y-114547932D01*
X83667750Y-114564418D01*
X83645020Y-114608215D01*
X83623530Y-114665031D01*
X83603474Y-114733168D01*
X83585048Y-114810931D01*
X83568444Y-114896623D01*
X83553856Y-114988549D01*
X83541479Y-115085011D01*
X83531506Y-115184314D01*
X83524132Y-115284762D01*
X83519551Y-115384657D01*
X83517956Y-115482304D01*
X83078521Y-115482304D01*
X83064587Y-115341792D01*
X83059212Y-115175829D01*
X83060559Y-115111820D01*
X83062243Y-115080891D01*
X83064604Y-115050677D01*
X83067641Y-115021175D01*
X83071355Y-114992383D01*
X83075749Y-114964300D01*
X83080822Y-114936923D01*
X83086575Y-114910251D01*
X83093010Y-114884282D01*
X83100128Y-114859014D01*
X83107930Y-114834444D01*
X83116417Y-114810572D01*
X83125589Y-114787394D01*
X83135448Y-114764909D01*
X83145994Y-114743116D01*
X83157230Y-114722011D01*
X83169155Y-114701594D01*
X83181771Y-114681862D01*
X83195079Y-114662813D01*
X83209079Y-114644446D01*
X83223774Y-114626758D01*
X83239163Y-114609748D01*
X83255248Y-114593413D01*
X83272030Y-114577751D01*
X83289510Y-114562761D01*
X83307688Y-114548441D01*
X83326567Y-114534789D01*
X83346146Y-114521803D01*
X83366427Y-114509480D01*
X83387411Y-114497819D01*
X83409099Y-114486819D01*
X83452709Y-114465329D01*
X83470675Y-114455855D01*
X83486425Y-114446804D01*
X83500220Y-114437856D01*
X83512316Y-114428692D01*
X83517808Y-114423930D01*
X83522973Y-114418994D01*
X83527843Y-114413845D01*
X83532449Y-114408443D01*
X83536826Y-114402747D01*
X83541004Y-114396719D01*
X83548895Y-114383503D01*
X83556381Y-114368478D01*
X83563720Y-114351323D01*
X83571172Y-114331720D01*
X83578995Y-114309350D01*
X83596787Y-114255033D01*
X83605559Y-114228243D01*
X83613996Y-114203818D01*
X83622331Y-114181421D01*
X83630796Y-114160715D01*
X83639624Y-114141360D01*
X83649048Y-114123020D01*
X83659302Y-114105358D01*
X83670617Y-114088034D01*
X83683228Y-114070712D01*
X83697367Y-114053054D01*
X83713267Y-114034722D01*
X83731161Y-114015379D01*
X83751282Y-113994686D01*
X83773862Y-113972307D01*
X83827335Y-113921136D01*
X83866535Y-113885077D01*
X83910204Y-113846532D01*
X83956877Y-113806695D01*
X84005092Y-113766761D01*
X84053385Y-113727925D01*
X84100292Y-113691382D01*
X84144352Y-113658328D01*
X84184099Y-113629957D01*
X84319941Y-113540854D01*
X84459549Y-113458482D01*
X84602640Y-113382817D01*
X84748926Y-113313838D01*
X84898123Y-113251523D01*
X85049944Y-113195847D01*
X85204105Y-113146791D01*
X85360319Y-113104330D01*
X85677766Y-113039107D01*
X86000000Y-113000000D01*
X86324736Y-112986828D01*
X86649689Y-112999414D01*
X86972574Y-113037579D01*
X87291106Y-113101142D01*
X87603001Y-113189925D01*
X87905973Y-113303750D01*
X88053399Y-113369997D01*
X88197737Y-113442436D01*
X88338702Y-113521047D01*
X88476009Y-113605806D01*
X88609371Y-113696690D01*
X88738503Y-113793679D01*
X88863120Y-113896749D01*
X88982935Y-114005877D01*
X89093251Y-114116559D01*
X89196624Y-114230985D01*
X89292980Y-114348978D01*
X89382243Y-114470362D01*
X89464341Y-114594959D01*
X89539199Y-114722593D01*
X89606742Y-114853085D01*
X89666898Y-114986259D01*
X89719591Y-115121938D01*
X89764748Y-115259945D01*
X89802294Y-115400103D01*
X89832156Y-115542234D01*
X89854259Y-115686161D01*
X89868530Y-115831709D01*
X89874893Y-115978698D01*
X89873275Y-116126952D01*
X89867222Y-116247836D01*
X89862979Y-116301673D01*
X89857536Y-116352424D01*
X89850603Y-116401079D01*
X89841888Y-116448627D01*
X89831100Y-116496058D01*
X89817948Y-116544359D01*
X89802142Y-116594521D01*
X89783389Y-116647533D01*
X89761400Y-116704383D01*
X89741913Y-116751484D01*
X89735882Y-116766060D01*
G37*
G36*
X77099884Y-121430088D02*
G01*
X77110723Y-121430606D01*
X77121481Y-121431567D01*
X77132161Y-121432972D01*
X77142766Y-121434822D01*
X77153300Y-121437118D01*
X77163766Y-121439860D01*
X77174167Y-121443048D01*
X77184507Y-121446683D01*
X77194788Y-121450765D01*
X77215190Y-121460274D01*
X77235399Y-121471579D01*
X77255441Y-121484684D01*
X77275343Y-121499593D01*
X77295131Y-121516309D01*
X77371614Y-121584522D01*
X77379882Y-121997942D01*
X77380835Y-122096014D01*
X77380142Y-122208243D01*
X77374215Y-122462928D01*
X77362887Y-122737506D01*
X77346947Y-123007488D01*
X77330828Y-123270784D01*
X77320701Y-123508614D01*
X77317879Y-123617806D01*
X77316548Y-123720421D01*
X77316707Y-123816391D01*
X77318354Y-123905645D01*
X77321487Y-123988113D01*
X77326103Y-124063726D01*
X77332201Y-124132414D01*
X77339778Y-124194107D01*
X77348833Y-124248734D01*
X77359363Y-124296227D01*
X77371367Y-124336514D01*
X77384842Y-124369527D01*
X77406836Y-124409670D01*
X77434064Y-124450377D01*
X77466222Y-124491428D01*
X77503004Y-124532601D01*
X77544108Y-124573676D01*
X77589227Y-124614430D01*
X77638058Y-124654644D01*
X77690295Y-124694095D01*
X77745635Y-124732564D01*
X77803773Y-124769827D01*
X77864403Y-124805666D01*
X77927222Y-124839858D01*
X77991925Y-124872182D01*
X78058208Y-124902417D01*
X78125765Y-124930342D01*
X78194292Y-124955737D01*
X78318140Y-124994891D01*
X78450724Y-125029246D01*
X78590869Y-125058782D01*
X78737404Y-125083481D01*
X78889155Y-125103321D01*
X79044948Y-125118285D01*
X79203612Y-125128352D01*
X79363972Y-125133503D01*
X79524855Y-125133720D01*
X79685088Y-125128982D01*
X79843499Y-125119270D01*
X79998913Y-125104565D01*
X80150158Y-125084847D01*
X80296061Y-125060098D01*
X80435448Y-125030296D01*
X80567147Y-124995425D01*
X80632602Y-124974957D01*
X80699152Y-124951763D01*
X80766321Y-124926106D01*
X80833633Y-124898252D01*
X80900613Y-124868464D01*
X80966786Y-124837006D01*
X81031676Y-124804143D01*
X81094808Y-124770139D01*
X81155707Y-124735258D01*
X81213897Y-124699765D01*
X81268903Y-124663923D01*
X81320250Y-124627996D01*
X81367462Y-124592250D01*
X81410064Y-124556948D01*
X81447580Y-124522354D01*
X81479535Y-124488732D01*
X81501314Y-124463244D01*
X81522001Y-124437518D01*
X81541751Y-124411241D01*
X81560721Y-124384103D01*
X81579065Y-124355791D01*
X81596938Y-124325994D01*
X81614496Y-124294399D01*
X81631895Y-124260695D01*
X81649288Y-124224571D01*
X81666831Y-124185713D01*
X81702991Y-124098553D01*
X81741614Y-123996721D01*
X81783944Y-123877721D01*
X81826380Y-123756740D01*
X81861817Y-123659028D01*
X81877546Y-123617502D01*
X81892287Y-123580118D01*
X81906293Y-123546317D01*
X81919820Y-123515541D01*
X81933120Y-123487231D01*
X81946449Y-123460829D01*
X81960059Y-123435775D01*
X81974205Y-123411512D01*
X81989140Y-123387481D01*
X82005120Y-123363123D01*
X82022397Y-123337880D01*
X82041225Y-123311193D01*
X82057596Y-123289714D01*
X82076117Y-123268054D01*
X82096481Y-123246429D01*
X82118379Y-123225055D01*
X82141505Y-123204149D01*
X82165551Y-123183926D01*
X82190208Y-123164604D01*
X82215170Y-123146397D01*
X82240128Y-123129523D01*
X82264776Y-123114197D01*
X82288805Y-123100636D01*
X82311908Y-123089055D01*
X82333778Y-123079672D01*
X82354106Y-123072702D01*
X82363596Y-123070189D01*
X82372585Y-123068361D01*
X82381035Y-123067245D01*
X82388907Y-123066866D01*
X82395546Y-123067286D01*
X82402128Y-123068541D01*
X82415112Y-123073536D01*
X82427838Y-123081804D01*
X82440287Y-123093300D01*
X82452438Y-123107978D01*
X82464271Y-123125792D01*
X82475766Y-123146697D01*
X82486901Y-123170646D01*
X82497656Y-123197594D01*
X82508012Y-123227496D01*
X82517948Y-123260304D01*
X82527443Y-123295974D01*
X82536477Y-123334459D01*
X82545030Y-123375714D01*
X82553081Y-123419693D01*
X82560610Y-123466351D01*
X82568501Y-123528717D01*
X82573359Y-123591590D01*
X82575220Y-123654905D01*
X82574119Y-123718600D01*
X82570092Y-123782610D01*
X82563174Y-123846871D01*
X82553402Y-123911320D01*
X82540810Y-123975892D01*
X82525434Y-124040524D01*
X82507310Y-124105152D01*
X82486473Y-124169711D01*
X82462958Y-124234138D01*
X82408040Y-124362342D01*
X82342840Y-124489250D01*
X82267642Y-124614352D01*
X82182730Y-124737138D01*
X82088389Y-124857095D01*
X81984903Y-124973714D01*
X81872557Y-125086482D01*
X81751636Y-125194889D01*
X81622423Y-125298424D01*
X81485202Y-125396575D01*
X81399775Y-125451366D01*
X81310446Y-125503020D01*
X81217277Y-125551520D01*
X81120330Y-125596850D01*
X81019666Y-125638993D01*
X80915347Y-125677932D01*
X80807435Y-125713651D01*
X80695990Y-125746132D01*
X80581075Y-125775360D01*
X80462750Y-125801316D01*
X80341078Y-125823985D01*
X80216120Y-125843350D01*
X80087938Y-125859394D01*
X79956592Y-125872100D01*
X79822146Y-125881452D01*
X79684659Y-125887432D01*
X79684909Y-125887719D01*
X79447840Y-125892025D01*
X79215926Y-125890462D01*
X78993136Y-125883325D01*
X78783442Y-125870907D01*
X78590813Y-125853502D01*
X78502139Y-125843022D01*
X78419220Y-125831405D01*
X78342552Y-125818688D01*
X78272631Y-125804908D01*
X78209954Y-125790102D01*
X78155018Y-125774307D01*
X78059275Y-125740624D01*
X77963114Y-125700752D01*
X77866804Y-125654909D01*
X77770620Y-125603317D01*
X77674833Y-125546196D01*
X77579716Y-125483768D01*
X77485542Y-125416251D01*
X77392582Y-125343868D01*
X77301109Y-125266839D01*
X77211395Y-125185384D01*
X77123713Y-125099723D01*
X77038335Y-125010079D01*
X76955534Y-124916670D01*
X76875582Y-124819718D01*
X76798752Y-124719443D01*
X76725315Y-124616067D01*
X76610251Y-124447811D01*
X76589716Y-123679955D01*
X76579580Y-123222551D01*
X76577143Y-123025302D01*
X76576633Y-122847059D01*
X76578181Y-122686351D01*
X76581916Y-122541705D01*
X76587969Y-122411651D01*
X76596468Y-122294716D01*
X76607546Y-122189430D01*
X76621330Y-122094319D01*
X76637952Y-122007913D01*
X76657542Y-121928740D01*
X76680228Y-121855327D01*
X76706143Y-121786204D01*
X76735414Y-121719899D01*
X76768174Y-121654940D01*
X76779764Y-121633542D01*
X76790746Y-121614013D01*
X76801243Y-121596221D01*
X76811379Y-121580036D01*
X76821279Y-121565327D01*
X76831067Y-121551963D01*
X76840866Y-121539813D01*
X76850801Y-121528747D01*
X76860997Y-121518634D01*
X76871576Y-121509343D01*
X76882664Y-121500742D01*
X76894384Y-121492702D01*
X76906861Y-121485092D01*
X76920218Y-121477781D01*
X76934581Y-121470637D01*
X76950072Y-121463531D01*
X76974342Y-121453553D01*
X76998127Y-121445326D01*
X77021455Y-121438855D01*
X77044353Y-121434144D01*
X77066845Y-121431195D01*
X77077948Y-121430384D01*
X77088960Y-121430015D01*
X77099884Y-121430088D01*
G37*
G36*
X71766208Y-115619051D02*
G01*
X71691807Y-115875455D01*
X71619216Y-116115819D01*
X71542414Y-116359658D01*
X71455382Y-116626486D01*
X71226548Y-117307163D01*
X71054267Y-117819839D01*
X70910582Y-118259585D01*
X70791563Y-118640418D01*
X70693276Y-118976353D01*
X70611789Y-119281406D01*
X70543171Y-119569593D01*
X70483490Y-119854931D01*
X70428812Y-120151434D01*
X70401829Y-120334523D01*
X70380582Y-120542725D01*
X70365020Y-120778040D01*
X70355090Y-121042466D01*
X70350740Y-121338002D01*
X70351920Y-121666648D01*
X70358578Y-122030401D01*
X70370661Y-122431261D01*
X70380467Y-122747850D01*
X70385494Y-123022020D01*
X70385280Y-123265151D01*
X70379360Y-123488620D01*
X70367271Y-123703806D01*
X70348550Y-123922087D01*
X70322733Y-124154842D01*
X70289356Y-124413448D01*
X70265506Y-124599293D01*
X70255991Y-124682519D01*
X70248076Y-124759919D01*
X70241752Y-124831974D01*
X70237015Y-124899163D01*
X70233857Y-124961965D01*
X70232272Y-125020861D01*
X70232253Y-125076330D01*
X70233794Y-125128852D01*
X70236889Y-125178906D01*
X70241531Y-125226972D01*
X70247713Y-125273530D01*
X70255430Y-125319059D01*
X70264674Y-125364039D01*
X70275440Y-125408950D01*
X70297542Y-125487992D01*
X70323684Y-125565453D01*
X70356082Y-125645836D01*
X70396955Y-125733641D01*
X70448518Y-125833372D01*
X70512990Y-125949528D01*
X70592587Y-126086613D01*
X70689527Y-126249126D01*
X70831858Y-126491179D01*
X70951756Y-126710628D01*
X71005120Y-126816534D01*
X71055069Y-126922381D01*
X71102333Y-127030031D01*
X71147644Y-127141349D01*
X71191732Y-127258198D01*
X71235329Y-127382441D01*
X71323971Y-127660568D01*
X71419419Y-127990637D01*
X71527518Y-128387560D01*
X71587009Y-128602459D01*
X71651747Y-128823819D01*
X71713901Y-129025593D01*
X71741563Y-129110996D01*
X71765644Y-129181735D01*
X71779713Y-129221905D01*
X71792431Y-129258871D01*
X71803821Y-129292731D01*
X71813906Y-129323585D01*
X71822710Y-129351532D01*
X71830258Y-129376672D01*
X71836572Y-129399104D01*
X71841678Y-129418927D01*
X71845598Y-129436240D01*
X71848357Y-129451143D01*
X71849308Y-129457722D01*
X71849977Y-129463736D01*
X71850369Y-129469196D01*
X71850484Y-129474116D01*
X71850328Y-129478508D01*
X71849901Y-129482385D01*
X71849208Y-129485758D01*
X71848252Y-129488640D01*
X71847035Y-129491044D01*
X71845560Y-129492982D01*
X71843830Y-129494467D01*
X71841849Y-129495510D01*
X71831484Y-129497266D01*
X71813552Y-129498860D01*
X71789037Y-129500209D01*
X71758925Y-129501228D01*
X71724201Y-129501835D01*
X71685850Y-129501943D01*
X71644857Y-129501470D01*
X71602207Y-129500332D01*
X71392884Y-129493444D01*
X71278229Y-129147692D01*
X71224941Y-128992416D01*
X71166510Y-128833223D01*
X71101622Y-128666999D01*
X71028961Y-128490628D01*
X70947211Y-128300994D01*
X70855056Y-128094983D01*
X70751180Y-127869478D01*
X70634269Y-127621365D01*
X70504178Y-127345328D01*
X70388834Y-127095074D01*
X70286410Y-126866284D01*
X70195081Y-126654640D01*
X70113021Y-126455825D01*
X70038404Y-126265522D01*
X69969403Y-126079412D01*
X69904194Y-125893179D01*
X69871833Y-125800089D01*
X69839115Y-125709481D01*
X69806936Y-125623608D01*
X69776193Y-125544720D01*
X69747781Y-125475068D01*
X69722598Y-125416904D01*
X69701539Y-125372479D01*
X69692837Y-125356123D01*
X69685502Y-125344045D01*
X69621283Y-125248684D01*
X69621283Y-123953884D01*
X69757160Y-123814291D01*
X69814759Y-123754453D01*
X69862497Y-123703171D01*
X69883201Y-123680048D01*
X69902078Y-123658237D01*
X69919341Y-123637462D01*
X69935203Y-123617447D01*
X69949876Y-123597917D01*
X69963573Y-123578595D01*
X69976507Y-123559205D01*
X69988891Y-123539473D01*
X70000937Y-123519123D01*
X70012858Y-123497878D01*
X70024867Y-123475462D01*
X70037177Y-123451601D01*
X70062762Y-123395678D01*
X70085309Y-123334642D01*
X70104819Y-123268456D01*
X70121293Y-123197082D01*
X70134731Y-123120480D01*
X70145135Y-123038614D01*
X70152506Y-122951444D01*
X70156845Y-122858934D01*
X70158152Y-122761044D01*
X70156430Y-122657736D01*
X70151678Y-122548974D01*
X70143898Y-122434717D01*
X70119258Y-122189571D01*
X70082517Y-121921992D01*
X70007554Y-121433076D01*
X69997217Y-120169143D01*
X69994794Y-119714057D01*
X69995502Y-119309076D01*
X69999527Y-118948168D01*
X70007054Y-118625300D01*
X70018270Y-118334441D01*
X70033359Y-118069557D01*
X70052509Y-117824615D01*
X70072078Y-117631367D01*
X70491623Y-117631367D01*
X70491738Y-117645751D01*
X70492073Y-117659745D01*
X70492619Y-117673264D01*
X70493363Y-117686235D01*
X70494295Y-117698587D01*
X70495402Y-117710245D01*
X70496674Y-117721139D01*
X70498100Y-117731194D01*
X70499668Y-117740338D01*
X70501366Y-117748499D01*
X70503184Y-117755603D01*
X70505111Y-117761579D01*
X70506111Y-117764121D01*
X70507134Y-117766353D01*
X70508178Y-117768267D01*
X70509243Y-117769854D01*
X70510326Y-117771103D01*
X70511426Y-117772007D01*
X70512542Y-117772556D01*
X70513672Y-117772741D01*
X70523565Y-117758329D01*
X70543674Y-117717180D01*
X70609492Y-117567204D01*
X70808229Y-117084255D01*
X71029189Y-116524385D01*
X71122785Y-116278258D01*
X71191675Y-116088085D01*
X71232023Y-115964399D01*
X71274599Y-115821944D01*
X71317045Y-115670012D01*
X71357005Y-115517895D01*
X71392120Y-115374887D01*
X71420033Y-115250278D01*
X71438386Y-115153361D01*
X71443241Y-115118191D01*
X71444822Y-115093429D01*
X71444423Y-115069466D01*
X71444082Y-115059922D01*
X71443577Y-115051955D01*
X71443248Y-115048551D01*
X71442859Y-115045528D01*
X71442404Y-115042880D01*
X71441876Y-115040604D01*
X71441269Y-115038694D01*
X71440577Y-115037147D01*
X71439793Y-115035957D01*
X71438911Y-115035120D01*
X71437924Y-115034631D01*
X71436826Y-115034486D01*
X71435611Y-115034681D01*
X71434272Y-115035210D01*
X71432803Y-115036070D01*
X71431198Y-115037255D01*
X71429450Y-115038760D01*
X71427552Y-115040583D01*
X71423284Y-115045159D01*
X71418342Y-115050946D01*
X71412675Y-115057907D01*
X71406232Y-115066006D01*
X71389049Y-115091733D01*
X71364217Y-115134653D01*
X71295622Y-115263737D01*
X71208477Y-115436599D01*
X71110810Y-115636577D01*
X70916026Y-116051245D01*
X70834967Y-116232614D01*
X70775501Y-116374459D01*
X70742155Y-116461209D01*
X70710761Y-116547427D01*
X70681347Y-116632994D01*
X70653940Y-116717790D01*
X70628568Y-116801693D01*
X70605258Y-116884584D01*
X70584038Y-116966343D01*
X70564935Y-117046849D01*
X70547977Y-117125982D01*
X70533191Y-117203622D01*
X70520604Y-117279648D01*
X70510244Y-117353941D01*
X70502139Y-117426381D01*
X70496315Y-117496846D01*
X70492801Y-117565217D01*
X70491623Y-117631367D01*
X70072078Y-117631367D01*
X70075904Y-117593584D01*
X70099964Y-117396418D01*
X70126583Y-117211755D01*
X70156717Y-117037311D01*
X70191321Y-116870803D01*
X70231349Y-116709946D01*
X70277756Y-116552459D01*
X70331498Y-116396055D01*
X70393528Y-116238453D01*
X70464802Y-116077367D01*
X70546275Y-115910515D01*
X70638902Y-115735613D01*
X70743637Y-115550376D01*
X70861435Y-115352521D01*
X70993252Y-115139765D01*
X71302759Y-114660412D01*
X71497889Y-114362890D01*
X71657280Y-114117390D01*
X71786690Y-113914428D01*
X71891875Y-113744521D01*
X71978594Y-113598186D01*
X72052602Y-113465938D01*
X72119658Y-113338293D01*
X72185517Y-113205769D01*
X72256484Y-113054548D01*
X72319082Y-112909073D01*
X72374799Y-112764662D01*
X72425122Y-112616633D01*
X72471539Y-112460305D01*
X72515535Y-112290996D01*
X72558598Y-112104023D01*
X72602216Y-111894704D01*
X72644134Y-111689127D01*
X72684051Y-111504199D01*
X72723293Y-111337430D01*
X72763182Y-111186327D01*
X72805043Y-111048398D01*
X72850199Y-110921153D01*
X72899974Y-110802098D01*
X72955693Y-110688743D01*
X73018678Y-110578594D01*
X73090254Y-110469161D01*
X73171745Y-110357952D01*
X73264474Y-110242474D01*
X73369766Y-110120236D01*
X73488944Y-109988747D01*
X73623331Y-109845513D01*
X73774253Y-109688044D01*
X73867357Y-109590165D01*
X73968787Y-109480980D01*
X74075284Y-109364156D01*
X74183587Y-109243362D01*
X74290436Y-109122264D01*
X74392571Y-109004530D01*
X74486733Y-108893827D01*
X74569660Y-108793824D01*
X74781713Y-108536351D01*
X74984541Y-108295328D01*
X75178958Y-108069986D01*
X75365781Y-107859561D01*
X75545825Y-107663286D01*
X75719906Y-107480395D01*
X75888840Y-107310120D01*
X76053443Y-107151696D01*
X76214530Y-107004357D01*
X76372917Y-106867335D01*
X76529420Y-106739865D01*
X76684854Y-106621181D01*
X76840036Y-106510515D01*
X76995782Y-106407102D01*
X77152906Y-106310176D01*
X77312224Y-106218969D01*
X77414960Y-106163526D01*
X77507295Y-106116615D01*
X77550891Y-106095847D01*
X77593482Y-106076599D01*
X77635599Y-106058665D01*
X77677774Y-106041842D01*
X77720538Y-106025925D01*
X77764422Y-106010709D01*
X77857680Y-105981563D01*
X77961800Y-105952770D01*
X78081034Y-105922692D01*
X78146067Y-105906339D01*
X78214444Y-105888270D01*
X78284120Y-105869080D01*
X78353051Y-105849364D01*
X78419191Y-105829720D01*
X78480497Y-105810742D01*
X78534924Y-105793027D01*
X78580426Y-105777171D01*
X78645609Y-105753814D01*
X78701052Y-105736220D01*
X78727560Y-105729331D01*
X78754560Y-105723578D01*
X78783028Y-105718859D01*
X78813939Y-105715074D01*
X78848268Y-105712121D01*
X78886993Y-105709897D01*
X78981528Y-105707235D01*
X79105349Y-105706274D01*
X79266262Y-105706204D01*
X79438152Y-105707257D01*
X79585075Y-105710617D01*
X79714178Y-105717055D01*
X79774280Y-105721669D01*
X79832607Y-105727341D01*
X79890052Y-105734168D01*
X79947508Y-105742245D01*
X80066029Y-105762539D01*
X80195316Y-105788991D01*
X80342516Y-105822373D01*
X80593105Y-105875772D01*
X80912072Y-105935061D01*
X81288632Y-105998330D01*
X81712000Y-106063667D01*
X82005145Y-106108738D01*
X82273840Y-106153244D01*
X82517601Y-106197085D01*
X82735947Y-106240160D01*
X82928396Y-106282370D01*
X83094466Y-106323613D01*
X83233673Y-106363791D01*
X83293053Y-106383449D01*
X83345537Y-106402802D01*
X83379558Y-106416865D01*
X83426080Y-106437224D01*
X83548340Y-106492975D01*
X83695739Y-106562345D01*
X83851703Y-106637618D01*
X84004756Y-106710705D01*
X84140022Y-106770558D01*
X84203222Y-106796182D01*
X84264661Y-106819291D01*
X84325234Y-106840148D01*
X84385835Y-106859017D01*
X84447360Y-106876164D01*
X84510703Y-106891852D01*
X84576760Y-106906345D01*
X84646425Y-106919908D01*
X84800162Y-106945299D01*
X84979075Y-106970140D01*
X85161294Y-106995218D01*
X85319792Y-107020314D01*
X85391465Y-107033201D01*
X85458790Y-107046492D01*
X85522295Y-107060320D01*
X85582508Y-107074817D01*
X85639957Y-107090117D01*
X85695168Y-107106353D01*
X85748670Y-107123657D01*
X85800991Y-107142163D01*
X85852657Y-107162003D01*
X85904198Y-107183312D01*
X85956139Y-107206221D01*
X86009009Y-107230864D01*
X86127896Y-107290068D01*
X86243446Y-107352714D01*
X86356460Y-107419528D01*
X86467741Y-107491236D01*
X86578090Y-107568566D01*
X86688307Y-107652242D01*
X86799196Y-107742993D01*
X86911557Y-107841544D01*
X87026191Y-107948621D01*
X87143901Y-108064952D01*
X87265488Y-108191262D01*
X87391753Y-108328277D01*
X87523497Y-108476725D01*
X87661523Y-108637332D01*
X87959624Y-108997927D01*
X88594254Y-109774494D01*
X89170437Y-110463834D01*
X89701072Y-111081194D01*
X89953340Y-111367646D01*
X90199057Y-111641821D01*
X90368796Y-111827971D01*
X90552227Y-112026555D01*
X90916637Y-112415092D01*
X91075854Y-112582082D01*
X91205238Y-112715576D01*
X91293907Y-112804093D01*
X91319573Y-112827897D01*
X91330980Y-112836150D01*
X91331841Y-112835800D01*
X91332689Y-112834759D01*
X91334348Y-112830675D01*
X91335948Y-112824037D01*
X91337481Y-112814982D01*
X91340314Y-112790172D01*
X91342780Y-112757343D01*
X91344813Y-112717597D01*
X91346347Y-112672031D01*
X91347317Y-112621747D01*
X91347654Y-112567844D01*
X91348186Y-112492245D01*
X91349967Y-112427288D01*
X91351414Y-112398117D01*
X91353280Y-112370787D01*
X91355598Y-112345024D01*
X91358404Y-112320555D01*
X91361733Y-112297106D01*
X91365621Y-112274405D01*
X91370102Y-112252178D01*
X91375212Y-112230151D01*
X91380985Y-112208052D01*
X91387457Y-112185607D01*
X91394664Y-112162543D01*
X91402639Y-112138586D01*
X91432641Y-112054872D01*
X91445405Y-112023721D01*
X91456876Y-112000055D01*
X91467201Y-111984134D01*
X91471980Y-111979160D01*
X91476528Y-111976220D01*
X91480863Y-111975348D01*
X91485005Y-111976575D01*
X91488971Y-111979934D01*
X91492780Y-111985458D01*
X91500001Y-112003132D01*
X91506817Y-112029857D01*
X91513374Y-112065894D01*
X91519822Y-112111504D01*
X91532979Y-112232489D01*
X91547471Y-112394900D01*
X91562691Y-112547874D01*
X91582642Y-112694714D01*
X91608917Y-112842000D01*
X91643108Y-112996311D01*
X91686808Y-113164226D01*
X91741608Y-113352325D01*
X91809101Y-113567188D01*
X91890879Y-113815394D01*
X91972652Y-114062596D01*
X92037619Y-114267352D01*
X92064384Y-114356314D01*
X92087646Y-114437666D01*
X92107639Y-114512409D01*
X92124595Y-114581542D01*
X92138748Y-114646066D01*
X92150331Y-114706982D01*
X92159576Y-114765291D01*
X92166716Y-114821991D01*
X92171985Y-114878085D01*
X92175615Y-114934572D01*
X92177839Y-114992453D01*
X92178891Y-115052728D01*
X92179470Y-115134376D01*
X92179441Y-115167633D01*
X92179080Y-115196388D01*
X92178748Y-115209205D01*
X92178300Y-115221048D01*
X92177725Y-115231969D01*
X92177011Y-115242019D01*
X92176148Y-115251249D01*
X92175125Y-115259709D01*
X92173930Y-115267450D01*
X92172552Y-115274524D01*
X92170981Y-115280981D01*
X92169204Y-115286872D01*
X92167212Y-115292247D01*
X92164993Y-115297159D01*
X92162535Y-115301657D01*
X92159828Y-115305792D01*
X92156861Y-115309616D01*
X92153622Y-115313179D01*
X92150100Y-115316532D01*
X92146285Y-115319725D01*
X92142165Y-115322811D01*
X92137729Y-115325839D01*
X92132966Y-115328861D01*
X92127865Y-115331927D01*
X92116604Y-115338396D01*
X92105953Y-115344317D01*
X92096327Y-115349409D01*
X92087578Y-115353656D01*
X92079555Y-115357044D01*
X92075769Y-115358412D01*
X92072109Y-115359558D01*
X92068555Y-115360483D01*
X92065089Y-115361183D01*
X92061692Y-115361656D01*
X92058346Y-115361902D01*
X92055032Y-115361918D01*
X92051731Y-115361702D01*
X92048424Y-115361252D01*
X92045093Y-115360567D01*
X92041719Y-115359644D01*
X92038283Y-115358481D01*
X92034766Y-115357077D01*
X92031150Y-115355430D01*
X92027416Y-115353538D01*
X92023546Y-115351399D01*
X92015320Y-115346372D01*
X92006322Y-115340335D01*
X91996403Y-115333272D01*
X91985413Y-115325167D01*
X91963933Y-115308357D01*
X91955151Y-115300338D01*
X91947543Y-115292032D01*
X91941011Y-115283032D01*
X91935456Y-115272930D01*
X91930779Y-115261318D01*
X91926882Y-115247788D01*
X91923666Y-115231933D01*
X91921034Y-115213344D01*
X91918886Y-115191615D01*
X91917124Y-115166337D01*
X91914364Y-115103504D01*
X91911965Y-115021583D01*
X91911116Y-114994161D01*
X91910074Y-114967868D01*
X91908849Y-114942791D01*
X91907454Y-114919019D01*
X91905898Y-114896641D01*
X91904191Y-114875745D01*
X91902346Y-114856419D01*
X91900372Y-114838753D01*
X91898280Y-114822833D01*
X91896081Y-114808749D01*
X91893785Y-114796590D01*
X91891404Y-114786443D01*
X91888947Y-114778396D01*
X91887694Y-114775189D01*
X91886426Y-114772540D01*
X91885145Y-114770460D01*
X91883852Y-114768961D01*
X91882548Y-114768053D01*
X91881234Y-114767748D01*
X91877816Y-114768319D01*
X91874163Y-114769998D01*
X91870293Y-114772737D01*
X91866227Y-114776488D01*
X91857582Y-114786832D01*
X91848381Y-114800643D01*
X91838778Y-114817532D01*
X91828927Y-114837112D01*
X91818981Y-114858996D01*
X91809094Y-114882797D01*
X91799421Y-114908128D01*
X91790115Y-114934600D01*
X91781329Y-114961827D01*
X91773218Y-114989421D01*
X91765936Y-115016995D01*
X91759636Y-115044162D01*
X91754471Y-115070533D01*
X91750597Y-115095722D01*
X91748092Y-115125275D01*
X91747982Y-115157300D01*
X91750370Y-115192116D01*
X91755359Y-115230040D01*
X91763052Y-115271392D01*
X91773550Y-115316490D01*
X91786957Y-115365652D01*
X91803375Y-115419197D01*
X91845654Y-115540707D01*
X91901207Y-115683568D01*
X91970855Y-115850326D01*
X92055418Y-116043530D01*
X92192829Y-116361982D01*
X92249238Y-116503602D01*
X92297951Y-116636909D01*
X92339347Y-116764475D01*
X92373802Y-116888867D01*
X92401694Y-117012657D01*
X92423400Y-117138412D01*
X92439297Y-117268704D01*
X92449763Y-117406101D01*
X92455175Y-117553173D01*
X92455910Y-117712490D01*
X92452345Y-117886621D01*
X92444858Y-118078135D01*
X92419626Y-118523594D01*
X92404280Y-118778148D01*
X92393388Y-118991549D01*
X92389615Y-119083978D01*
X92386959Y-119167512D01*
X92385422Y-119242616D01*
X92385004Y-119309753D01*
X92385706Y-119369390D01*
X92387531Y-119421990D01*
X92390478Y-119468017D01*
X92394550Y-119507937D01*
X92399748Y-119542213D01*
X92406072Y-119571311D01*
X92413525Y-119595695D01*
X92422107Y-119615829D01*
X92431244Y-119632711D01*
X92442148Y-119650656D01*
X92454552Y-119669367D01*
X92468188Y-119688547D01*
X92482787Y-119707900D01*
X92498084Y-119727127D01*
X92513809Y-119745932D01*
X92529695Y-119764019D01*
X92545475Y-119781090D01*
X92560880Y-119796848D01*
X92575644Y-119810997D01*
X92589497Y-119823239D01*
X92602174Y-119833278D01*
X92607987Y-119837378D01*
X92613406Y-119840816D01*
X92618396Y-119843554D01*
X92622925Y-119845556D01*
X92626959Y-119846785D01*
X92630464Y-119847202D01*
X92636289Y-119839019D01*
X92640551Y-119814788D01*
X92644469Y-119720097D01*
X92642392Y-119566961D01*
X92634496Y-119359209D01*
X92601940Y-118795181D01*
X92548196Y-118058654D01*
X92509448Y-117535796D01*
X92496059Y-117321259D01*
X92486048Y-117123864D01*
X92478956Y-116933025D01*
X92474326Y-116738152D01*
X92470614Y-116293954D01*
X92471441Y-115982259D01*
X92473149Y-115846266D01*
X92475837Y-115722365D01*
X92479593Y-115609696D01*
X92484503Y-115507402D01*
X92490657Y-115414623D01*
X92498140Y-115330501D01*
X92507042Y-115254178D01*
X92517448Y-115184795D01*
X92529448Y-115121493D01*
X92543129Y-115063414D01*
X92558578Y-115009700D01*
X92575883Y-114959491D01*
X92595131Y-114911929D01*
X92616410Y-114866155D01*
X92631357Y-114837082D01*
X92638664Y-114823814D01*
X92645878Y-114811387D01*
X92653011Y-114799797D01*
X92660074Y-114789039D01*
X92667082Y-114779110D01*
X92674047Y-114770005D01*
X92680981Y-114761721D01*
X92687897Y-114754253D01*
X92694808Y-114747598D01*
X92701725Y-114741751D01*
X92708663Y-114736709D01*
X92715632Y-114732468D01*
X92722647Y-114729023D01*
X92729720Y-114726370D01*
X92736862Y-114724506D01*
X92744088Y-114723426D01*
X92751409Y-114723127D01*
X92758838Y-114723604D01*
X92766388Y-114724854D01*
X92774071Y-114726872D01*
X92781900Y-114729655D01*
X92789888Y-114733198D01*
X92798047Y-114737497D01*
X92806389Y-114742549D01*
X92814929Y-114748349D01*
X92823677Y-114754893D01*
X92832646Y-114762178D01*
X92841850Y-114770199D01*
X92851301Y-114778953D01*
X92861012Y-114788435D01*
X92932809Y-114860232D01*
X92920131Y-121743279D01*
X92916695Y-121759962D01*
X92772818Y-122458605D01*
X92711775Y-122761828D01*
X92654479Y-123058476D01*
X92607363Y-123314534D01*
X92576860Y-123495983D01*
X92534299Y-123796527D01*
X92486479Y-124158585D01*
X92447469Y-124472561D01*
X92435665Y-124577270D01*
X92431340Y-124628860D01*
X92430496Y-124632704D01*
X92428021Y-124638624D01*
X92418507Y-124656197D01*
X92403464Y-124680591D01*
X92383556Y-124710819D01*
X92359450Y-124745891D01*
X92331811Y-124784820D01*
X92301303Y-124826617D01*
X92268592Y-124870293D01*
X92162825Y-125013963D01*
X92062554Y-125159123D01*
X91967210Y-125307135D01*
X91876225Y-125459362D01*
X91789033Y-125617165D01*
X91705066Y-125781906D01*
X91623755Y-125954947D01*
X91544534Y-126137648D01*
X91466833Y-126331374D01*
X91390087Y-126537484D01*
X91237184Y-126992306D01*
X91081283Y-127513009D01*
X90917842Y-128110488D01*
X90784923Y-128608223D01*
X90675586Y-129005335D01*
X90631024Y-129161653D01*
X90593874Y-129287410D01*
X90564639Y-129380805D01*
X90543827Y-129440035D01*
X90539294Y-129451582D01*
X90534920Y-129461687D01*
X90530436Y-129470446D01*
X90525571Y-129477957D01*
X90520055Y-129484315D01*
X90516969Y-129487091D01*
X90513619Y-129489616D01*
X90509971Y-129491900D01*
X90505991Y-129493955D01*
X90496903Y-129497430D01*
X90486083Y-129500137D01*
X90473262Y-129502171D01*
X90458170Y-129503628D01*
X90440537Y-129504605D01*
X90396565Y-129505502D01*
X90339187Y-129505630D01*
X90269511Y-129506857D01*
X90242125Y-129506966D01*
X90219657Y-129505471D01*
X90202073Y-129501424D01*
X90195100Y-129498146D01*
X90189334Y-129493874D01*
X90184771Y-129488488D01*
X90181405Y-129481871D01*
X90179233Y-129473902D01*
X90178249Y-129464465D01*
X90179830Y-129440706D01*
X90186111Y-129409644D01*
X90197054Y-129370329D01*
X90212625Y-129321811D01*
X90320446Y-129016714D01*
X90375975Y-128856296D01*
X90428753Y-128696734D01*
X90478614Y-128538604D01*
X90525391Y-128382482D01*
X90568918Y-128228943D01*
X90609029Y-128078562D01*
X90645558Y-127931915D01*
X90678338Y-127789578D01*
X90691019Y-127731644D01*
X90702213Y-127679545D01*
X90711951Y-127632970D01*
X90720268Y-127591610D01*
X90727198Y-127555157D01*
X90732772Y-127523300D01*
X90735062Y-127508999D01*
X90737025Y-127495732D01*
X90738667Y-127483459D01*
X90739990Y-127472141D01*
X90741000Y-127461741D01*
X90741700Y-127452220D01*
X90742095Y-127443539D01*
X90742189Y-127435659D01*
X90741986Y-127428541D01*
X90741489Y-127422148D01*
X90740705Y-127416440D01*
X90739635Y-127411378D01*
X90738285Y-127406925D01*
X90736659Y-127403041D01*
X90734761Y-127399688D01*
X90732595Y-127396826D01*
X90730165Y-127394419D01*
X90727476Y-127392425D01*
X90724531Y-127390808D01*
X90721335Y-127389529D01*
X90715209Y-127389121D01*
X90707067Y-127391253D01*
X90685029Y-127402827D01*
X90655812Y-127423637D01*
X90620007Y-127453067D01*
X90530997Y-127535321D01*
X90422727Y-127644664D01*
X90299925Y-127776169D01*
X90167318Y-127924910D01*
X90029634Y-128085962D01*
X89891602Y-128254397D01*
X89781616Y-128390500D01*
X89680500Y-128512853D01*
X89586886Y-128622493D01*
X89499409Y-128720455D01*
X89416702Y-128807777D01*
X89337399Y-128885493D01*
X89260135Y-128954640D01*
X89183542Y-129016255D01*
X89106254Y-129071373D01*
X89026906Y-129121031D01*
X88944130Y-129166265D01*
X88856562Y-129208110D01*
X88762834Y-129247603D01*
X88661581Y-129285780D01*
X88551436Y-129323678D01*
X88431032Y-129362331D01*
X88367563Y-129382618D01*
X88308350Y-129402330D01*
X88254689Y-129420982D01*
X88207876Y-129438090D01*
X88169209Y-129453169D01*
X88153335Y-129459797D01*
X88139984Y-129465736D01*
X88129318Y-129470926D01*
X88121499Y-129475305D01*
X88116688Y-129478814D01*
X88115462Y-129480224D01*
X88115049Y-129481393D01*
X88115134Y-129482463D01*
X88115389Y-129483579D01*
X88115807Y-129484739D01*
X88116386Y-129485939D01*
X88118008Y-129488451D01*
X88120221Y-129491096D01*
X88122991Y-129493851D01*
X88126284Y-129496698D01*
X88130068Y-129499615D01*
X88134308Y-129502581D01*
X88138971Y-129505576D01*
X88144024Y-129508580D01*
X88149433Y-129511572D01*
X88155164Y-129514531D01*
X88161184Y-129517437D01*
X88167460Y-129520269D01*
X88173958Y-129523006D01*
X88180645Y-129525628D01*
X88180455Y-129524804D01*
X88187756Y-129527956D01*
X88191495Y-129530903D01*
X88191993Y-129532298D01*
X88191558Y-129533643D01*
X88187829Y-129536177D01*
X88180195Y-129538507D01*
X88168539Y-129540632D01*
X88132703Y-129544269D01*
X88079400Y-129547092D01*
X88007711Y-129549104D01*
X87916714Y-129550309D01*
X87805489Y-129550710D01*
X87738749Y-129550942D01*
X87679129Y-129551002D01*
X87626307Y-129550867D01*
X87579963Y-129550513D01*
X87539774Y-129549916D01*
X87505419Y-129549054D01*
X87490330Y-129548516D01*
X87476578Y-129547903D01*
X87464124Y-129547211D01*
X87452928Y-129546439D01*
X87442950Y-129545583D01*
X87434149Y-129544639D01*
X87426485Y-129543606D01*
X87419918Y-129542480D01*
X87414409Y-129541259D01*
X87409916Y-129539939D01*
X87406399Y-129538517D01*
X87404995Y-129537767D01*
X87403819Y-129536991D01*
X87402868Y-129536188D01*
X87402136Y-129535357D01*
X87401617Y-129534499D01*
X87401308Y-129533613D01*
X87401203Y-129532699D01*
X87401296Y-129531756D01*
X87401584Y-129530784D01*
X87402060Y-129529783D01*
X87402721Y-129528751D01*
X87403560Y-129527690D01*
X87405755Y-129525476D01*
X87408605Y-129523136D01*
X87412070Y-129520669D01*
X87456712Y-129493613D01*
X87543408Y-129443638D01*
X87659659Y-129377848D01*
X87792965Y-129303350D01*
X88087175Y-129136408D01*
X88221264Y-129057184D01*
X88347842Y-128979930D01*
X88467788Y-128904000D01*
X88581976Y-128828747D01*
X88691283Y-128753526D01*
X88796586Y-128677691D01*
X88898760Y-128600594D01*
X88998683Y-128521590D01*
X89097230Y-128440033D01*
X89195277Y-128355277D01*
X89293701Y-128266675D01*
X89393379Y-128173581D01*
X89495185Y-128075350D01*
X89599997Y-127971334D01*
X89679803Y-127889704D01*
X89761165Y-127803781D01*
X89925284Y-127623133D01*
X90085795Y-127437551D01*
X90236140Y-127255191D01*
X90369762Y-127084214D01*
X90428253Y-127005543D01*
X90480103Y-126932777D01*
X90524494Y-126866936D01*
X90560605Y-126809039D01*
X90587617Y-126760108D01*
X90604709Y-126721160D01*
X90612494Y-126695922D01*
X90621285Y-126661716D01*
X90630784Y-126620054D01*
X90640692Y-126572449D01*
X90650709Y-126520411D01*
X90660538Y-126465453D01*
X90669879Y-126409087D01*
X90678433Y-126352825D01*
X90710315Y-126154675D01*
X90748816Y-125961741D01*
X90776212Y-125849023D01*
X91244792Y-125849023D01*
X91245150Y-125852507D01*
X91245875Y-125855009D01*
X91246968Y-125856519D01*
X91248435Y-125857024D01*
X91256144Y-125855716D01*
X91265138Y-125851863D01*
X91286684Y-125836961D01*
X91312481Y-125813196D01*
X91341933Y-125781444D01*
X91374446Y-125742581D01*
X91409425Y-125697483D01*
X91446277Y-125647027D01*
X91484405Y-125592089D01*
X91562117Y-125472270D01*
X91637806Y-125345036D01*
X91673405Y-125280830D01*
X91706716Y-125217398D01*
X91737142Y-125155618D01*
X91764090Y-125096365D01*
X91854831Y-124863650D01*
X91946885Y-124583336D01*
X92038489Y-124262804D01*
X92127879Y-123909434D01*
X92213290Y-123530609D01*
X92292960Y-123133708D01*
X92365124Y-122726114D01*
X92428019Y-122315206D01*
X92441110Y-122221482D01*
X92452661Y-122137589D01*
X92462707Y-122063025D01*
X92471287Y-121997286D01*
X92478439Y-121939867D01*
X92484200Y-121890266D01*
X92488609Y-121847979D01*
X92490317Y-121829420D01*
X92491702Y-121812501D01*
X92492767Y-121797159D01*
X92493518Y-121783330D01*
X92493958Y-121770952D01*
X92494094Y-121759962D01*
X92493929Y-121750296D01*
X92493468Y-121741892D01*
X92492716Y-121734687D01*
X92491678Y-121728618D01*
X92490359Y-121723622D01*
X92488762Y-121719635D01*
X92487861Y-121718001D01*
X92486893Y-121716596D01*
X92485858Y-121715412D01*
X92484757Y-121714441D01*
X92483590Y-121713675D01*
X92482358Y-121713107D01*
X92481062Y-121712728D01*
X92479701Y-121712531D01*
X92476791Y-121712650D01*
X92473632Y-121713401D01*
X92455779Y-121728385D01*
X92433651Y-121762723D01*
X92377275Y-121887201D01*
X92305911Y-122082322D01*
X92220968Y-122343573D01*
X92123855Y-122666440D01*
X92015980Y-123046411D01*
X91898753Y-123478972D01*
X91773581Y-123959609D01*
X91664347Y-124376180D01*
X91552126Y-124786247D01*
X91450108Y-125142624D01*
X91407047Y-125285934D01*
X91371484Y-125398129D01*
X91371521Y-125398094D01*
X91371558Y-125398060D01*
X91371594Y-125398024D01*
X91371631Y-125397988D01*
X91338512Y-125499773D01*
X91310078Y-125590291D01*
X91286518Y-125668833D01*
X91276624Y-125703390D01*
X91268020Y-125734687D01*
X91260729Y-125762635D01*
X91254774Y-125787144D01*
X91250179Y-125808126D01*
X91246968Y-125825493D01*
X91245165Y-125839155D01*
X91244792Y-125849023D01*
X90776212Y-125849023D01*
X90796405Y-125765942D01*
X90855550Y-125559200D01*
X90928719Y-125333434D01*
X91018381Y-125080564D01*
X91127005Y-124792512D01*
X91257059Y-124461196D01*
X91380292Y-124147014D01*
X91478406Y-123883783D01*
X91519027Y-123767491D01*
X91554550Y-123659399D01*
X91585368Y-123557991D01*
X91611875Y-123461756D01*
X91634464Y-123369180D01*
X91653529Y-123278749D01*
X91669463Y-123188952D01*
X91682660Y-123098274D01*
X91693514Y-123005203D01*
X91702418Y-122908225D01*
X91715953Y-122696496D01*
X91721360Y-122601709D01*
X91727817Y-122508112D01*
X91735094Y-122418004D01*
X91742962Y-122333689D01*
X91751192Y-122257466D01*
X91759555Y-122191638D01*
X91767820Y-122138506D01*
X91771845Y-122117421D01*
X91775760Y-122100372D01*
X91786012Y-122065586D01*
X91801094Y-122021363D01*
X91820277Y-121969512D01*
X91842835Y-121911846D01*
X91868042Y-121850176D01*
X91895170Y-121786314D01*
X91923494Y-121722070D01*
X91952286Y-121659257D01*
X92029617Y-121492933D01*
X92088172Y-121359089D01*
X92111374Y-121299983D01*
X92131038Y-121243761D01*
X92147551Y-121188676D01*
X92161298Y-121132984D01*
X92172665Y-121074938D01*
X92182037Y-121012794D01*
X92189800Y-120944806D01*
X92196339Y-120869228D01*
X92207288Y-120688321D01*
X92217970Y-120456109D01*
X92225841Y-120210458D01*
X92228978Y-119944827D01*
X92227520Y-119664250D01*
X92221603Y-119373762D01*
X92211365Y-119078395D01*
X92196943Y-118783183D01*
X92178474Y-118493161D01*
X92156096Y-118213361D01*
X92116267Y-117778432D01*
X92079856Y-117431250D01*
X92061233Y-117282775D01*
X92041423Y-117146890D01*
X92019747Y-117020479D01*
X91995524Y-116900427D01*
X91968075Y-116783617D01*
X91936719Y-116666935D01*
X91900776Y-116547264D01*
X91859566Y-116421489D01*
X91758622Y-116139163D01*
X91628446Y-115795033D01*
X91508275Y-115472711D01*
X91457423Y-115328881D01*
X91412371Y-115194933D01*
X91372854Y-115069610D01*
X91338607Y-114951659D01*
X91309362Y-114839823D01*
X91284855Y-114732849D01*
X91264820Y-114629481D01*
X91248990Y-114528465D01*
X91237100Y-114428544D01*
X91228884Y-114328465D01*
X91224076Y-114226972D01*
X91222411Y-114122811D01*
X91223622Y-114014726D01*
X91227443Y-113901463D01*
X91243842Y-113524413D01*
X90996898Y-113269476D01*
X90578208Y-112827257D01*
X90098426Y-112296946D01*
X89484209Y-111595992D01*
X88662215Y-110641845D01*
X87966010Y-109833021D01*
X87512793Y-109311626D01*
X87450789Y-109240318D01*
X87381953Y-109159015D01*
X87232944Y-108977759D01*
X87084089Y-108790531D01*
X87015446Y-108701763D01*
X86953711Y-108620005D01*
X86895427Y-108542760D01*
X86837242Y-108467797D01*
X86779355Y-108395324D01*
X86721965Y-108325550D01*
X86665271Y-108258682D01*
X86609472Y-108194930D01*
X86554768Y-108134501D01*
X86501357Y-108077605D01*
X86449438Y-108024448D01*
X86399211Y-107975240D01*
X86350874Y-107930188D01*
X86304626Y-107889502D01*
X86260667Y-107853389D01*
X86219195Y-107822057D01*
X86180410Y-107795716D01*
X86144510Y-107774573D01*
X86114270Y-107758955D01*
X86083399Y-107744299D01*
X86051603Y-107730536D01*
X86018588Y-107717593D01*
X85984060Y-107705401D01*
X85947722Y-107693887D01*
X85909282Y-107682983D01*
X85868444Y-107672615D01*
X85778397Y-107653210D01*
X85675225Y-107635105D01*
X85556572Y-107617732D01*
X85420081Y-107600526D01*
X85317580Y-107587802D01*
X85223479Y-107574669D01*
X85136672Y-107560684D01*
X85056052Y-107545404D01*
X84980510Y-107528387D01*
X84908941Y-107509191D01*
X84840236Y-107487372D01*
X84773290Y-107462490D01*
X84706994Y-107434100D01*
X84640241Y-107401761D01*
X84571925Y-107365030D01*
X84500939Y-107323464D01*
X84426174Y-107276621D01*
X84346525Y-107224059D01*
X84260884Y-107165335D01*
X84168143Y-107100006D01*
X83978381Y-106967790D01*
X83894722Y-106912857D01*
X83816122Y-106864580D01*
X83740764Y-106822360D01*
X83666831Y-106785600D01*
X83592506Y-106753704D01*
X83515972Y-106726074D01*
X83435412Y-106702113D01*
X83349010Y-106681223D01*
X83254948Y-106662809D01*
X83151409Y-106646273D01*
X83036577Y-106631017D01*
X82908634Y-106616444D01*
X82606150Y-106586961D01*
X82357937Y-106563429D01*
X82149189Y-106541250D01*
X81965823Y-106518018D01*
X81793755Y-106491326D01*
X81618903Y-106458770D01*
X81427183Y-106417942D01*
X81204512Y-106366436D01*
X80936806Y-106301846D01*
X80644673Y-106231808D01*
X80392360Y-106174330D01*
X80172466Y-106128149D01*
X79977589Y-106092004D01*
X79800329Y-106064631D01*
X79633284Y-106044768D01*
X79469053Y-106031150D01*
X79300234Y-106022517D01*
X79159067Y-106018670D01*
X79025906Y-106018402D01*
X78899614Y-106022036D01*
X78779058Y-106029892D01*
X78663102Y-106042291D01*
X78550613Y-106059555D01*
X78440455Y-106082005D01*
X78331492Y-106109962D01*
X78222592Y-106143747D01*
X78112618Y-106183681D01*
X78000437Y-106230087D01*
X77884913Y-106283284D01*
X77764911Y-106343594D01*
X77639297Y-106411339D01*
X77506936Y-106486839D01*
X77366694Y-106570416D01*
X77156333Y-106700250D01*
X76950645Y-106831402D01*
X76750720Y-106963005D01*
X76557645Y-107094192D01*
X76372509Y-107224096D01*
X76196400Y-107351848D01*
X76030409Y-107476583D01*
X75875622Y-107597432D01*
X75733130Y-107713528D01*
X75604020Y-107824004D01*
X75489381Y-107927992D01*
X75390302Y-108024626D01*
X75307872Y-108113037D01*
X75243179Y-108192359D01*
X75217824Y-108228340D01*
X75197312Y-108261724D01*
X75181778Y-108292401D01*
X75171360Y-108320264D01*
X75165413Y-108343728D01*
X75158880Y-108375268D01*
X75151976Y-108413503D01*
X75144916Y-108457052D01*
X75137914Y-108504536D01*
X75131184Y-108554573D01*
X75124943Y-108605782D01*
X75119403Y-108656783D01*
X75113703Y-108707614D01*
X75106997Y-108758340D01*
X75099536Y-108807611D01*
X75091568Y-108854083D01*
X75083341Y-108896408D01*
X75075105Y-108933238D01*
X75071061Y-108949173D01*
X75067107Y-108963229D01*
X75063276Y-108975237D01*
X75059598Y-108985031D01*
X75054988Y-108994884D01*
X75048473Y-109007066D01*
X75030210Y-109037720D01*
X75005771Y-109075603D01*
X74976121Y-109119321D01*
X74942220Y-109167484D01*
X74905031Y-109218699D01*
X74865517Y-109271574D01*
X74824640Y-109324717D01*
X74760861Y-109407066D01*
X74702513Y-109483953D01*
X74649327Y-109555868D01*
X74601030Y-109623297D01*
X74557351Y-109686730D01*
X74518018Y-109746653D01*
X74482760Y-109803556D01*
X74451306Y-109857926D01*
X74423383Y-109910252D01*
X74398721Y-109961021D01*
X74377047Y-110010722D01*
X74358091Y-110059842D01*
X74341581Y-110108871D01*
X74327245Y-110158295D01*
X74314812Y-110208603D01*
X74304010Y-110260284D01*
X74297663Y-110291939D01*
X74290952Y-110322538D01*
X74284083Y-110351331D01*
X74277261Y-110377571D01*
X74270690Y-110400510D01*
X74267564Y-110410508D01*
X74264577Y-110419401D01*
X74261756Y-110427094D01*
X74259126Y-110433495D01*
X74256712Y-110438511D01*
X74254541Y-110442046D01*
X74251921Y-110444857D01*
X74248188Y-110447747D01*
X74243412Y-110450693D01*
X74237663Y-110453675D01*
X74231010Y-110456670D01*
X74223523Y-110459658D01*
X74215273Y-110462616D01*
X74206327Y-110465523D01*
X74186631Y-110471098D01*
X74164992Y-110476209D01*
X74141968Y-110480684D01*
X74118116Y-110484350D01*
X74080277Y-110490591D01*
X74041822Y-110499294D01*
X74002867Y-110510390D01*
X73963528Y-110523813D01*
X73923922Y-110539495D01*
X73884166Y-110557369D01*
X73844375Y-110577367D01*
X73804666Y-110599422D01*
X73765156Y-110623467D01*
X73725961Y-110649433D01*
X73687198Y-110677254D01*
X73648983Y-110706863D01*
X73611432Y-110738191D01*
X73574662Y-110771172D01*
X73538790Y-110805737D01*
X73503931Y-110841821D01*
X73467989Y-110881390D01*
X73433348Y-110921622D01*
X73399938Y-110962634D01*
X73367691Y-111004542D01*
X73336538Y-111047464D01*
X73306409Y-111091517D01*
X73277235Y-111136818D01*
X73248948Y-111183484D01*
X73221478Y-111231633D01*
X73194756Y-111281381D01*
X73168714Y-111332845D01*
X73143281Y-111386143D01*
X73118390Y-111441392D01*
X73093970Y-111498708D01*
X73069954Y-111558209D01*
X73046271Y-111620013D01*
X73019060Y-111693601D01*
X72995512Y-111759076D01*
X72975633Y-111816666D01*
X72959428Y-111866601D01*
X72952704Y-111888770D01*
X72946900Y-111909111D01*
X72942016Y-111927652D01*
X72938054Y-111944423D01*
X72935014Y-111959452D01*
X72932896Y-111972768D01*
X72931701Y-111984399D01*
X72931429Y-111994374D01*
X72932082Y-112002721D01*
X72933659Y-112009470D01*
X72934795Y-112012254D01*
X72936162Y-112014648D01*
X72937760Y-112016658D01*
X72939590Y-112018286D01*
X72941652Y-112019535D01*
X72943945Y-112020410D01*
X72946470Y-112020914D01*
X72949227Y-112021050D01*
X72952216Y-112020823D01*
X72955437Y-112020235D01*
X72962575Y-112017992D01*
X72970641Y-112014352D01*
X72979637Y-112009341D01*
X72989563Y-112002990D01*
X73000419Y-111995326D01*
X73012207Y-111986379D01*
X73024926Y-111976176D01*
X73053162Y-111952120D01*
X73072004Y-111934598D01*
X73091492Y-111914514D01*
X73111646Y-111891833D01*
X73132490Y-111866522D01*
X73176334Y-111807876D01*
X73223199Y-111738305D01*
X73273261Y-111657540D01*
X73326697Y-111565310D01*
X73383681Y-111461346D01*
X73444391Y-111345377D01*
X73470470Y-111295676D01*
X73497728Y-111245761D01*
X73525359Y-111196984D01*
X73552552Y-111150693D01*
X73578498Y-111108240D01*
X73602388Y-111070974D01*
X73623412Y-111040245D01*
X73632597Y-111027754D01*
X73640763Y-111017403D01*
X73658964Y-110996393D01*
X73678702Y-110975423D01*
X73699761Y-110954642D01*
X73721927Y-110934199D01*
X73744985Y-110914245D01*
X73768721Y-110894929D01*
X73792921Y-110876401D01*
X73817369Y-110858810D01*
X73841851Y-110842306D01*
X73866152Y-110827038D01*
X73890058Y-110813156D01*
X73913354Y-110800810D01*
X73935826Y-110790149D01*
X73957259Y-110781322D01*
X73977438Y-110774480D01*
X73996149Y-110769772D01*
X74007706Y-110767531D01*
X74017984Y-110765749D01*
X74027056Y-110764469D01*
X74031162Y-110764032D01*
X74034995Y-110763738D01*
X74038563Y-110763592D01*
X74041876Y-110763599D01*
X74044943Y-110763766D01*
X74047772Y-110764098D01*
X74050374Y-110764600D01*
X74052757Y-110765279D01*
X74054930Y-110766139D01*
X74056904Y-110767187D01*
X74058686Y-110768428D01*
X74060287Y-110769867D01*
X74061715Y-110771511D01*
X74062980Y-110773364D01*
X74064091Y-110775433D01*
X74065057Y-110777723D01*
X74065887Y-110780239D01*
X74066591Y-110782987D01*
X74067177Y-110785974D01*
X74067655Y-110789203D01*
X74068325Y-110796415D01*
X74068672Y-110804668D01*
X74068772Y-110814007D01*
X74067673Y-110838888D01*
X74064462Y-110867630D01*
X74059269Y-110899820D01*
X74052223Y-110935045D01*
X74043454Y-110972893D01*
X74033092Y-111012952D01*
X74008105Y-111098048D01*
X73978299Y-111187033D01*
X73944711Y-111276607D01*
X73908377Y-111363467D01*
X73889504Y-111404849D01*
X73870334Y-111444314D01*
X73821440Y-111536408D01*
X73765824Y-111631003D01*
X73702255Y-111729812D01*
X73629499Y-111834544D01*
X73546324Y-111946911D01*
X73451499Y-112068624D01*
X73343789Y-112201394D01*
X73221964Y-112346932D01*
X73087587Y-112507546D01*
X72971090Y-112651884D01*
X72869747Y-112783877D01*
X72823906Y-112846471D01*
X72780831Y-112907452D01*
X72740181Y-112967311D01*
X72701617Y-113026539D01*
X72664796Y-113085628D01*
X72629379Y-113145067D01*
X72595023Y-113205350D01*
X72561390Y-113266966D01*
X72494925Y-113396163D01*
X72424024Y-113544372D01*
X72357688Y-113695366D01*
X72293936Y-113854863D01*
X72230783Y-114028584D01*
X72166248Y-114222245D01*
X72098348Y-114441567D01*
X72025099Y-114692267D01*
X71944519Y-114980065D01*
X71912885Y-115093429D01*
X71766208Y-115619051D01*
G37*
D11*
X86938095Y-133418777D02*
X86795238Y-133466396D01*
X86795238Y-133466396D02*
X86747619Y-133514015D01*
X86747619Y-133514015D02*
X86700000Y-133609253D01*
X86700000Y-133609253D02*
X86700000Y-133752110D01*
X86700000Y-133752110D02*
X86747619Y-133847348D01*
X86747619Y-133847348D02*
X86795238Y-133894968D01*
X86795238Y-133894968D02*
X86890476Y-133942587D01*
X86890476Y-133942587D02*
X87271428Y-133942587D01*
X87271428Y-133942587D02*
X87271428Y-132942587D01*
X87271428Y-132942587D02*
X86938095Y-132942587D01*
X86938095Y-132942587D02*
X86842857Y-132990206D01*
X86842857Y-132990206D02*
X86795238Y-133037825D01*
X86795238Y-133037825D02*
X86747619Y-133133063D01*
X86747619Y-133133063D02*
X86747619Y-133228301D01*
X86747619Y-133228301D02*
X86795238Y-133323539D01*
X86795238Y-133323539D02*
X86842857Y-133371158D01*
X86842857Y-133371158D02*
X86938095Y-133418777D01*
X86938095Y-133418777D02*
X87271428Y-133418777D01*
X86319047Y-133656872D02*
X85842857Y-133656872D01*
X86414285Y-133942587D02*
X86080952Y-132942587D01*
X86080952Y-132942587D02*
X85747619Y-133942587D01*
X84842857Y-133942587D02*
X85176190Y-133466396D01*
X85414285Y-133942587D02*
X85414285Y-132942587D01*
X85414285Y-132942587D02*
X85033333Y-132942587D01*
X85033333Y-132942587D02*
X84938095Y-132990206D01*
X84938095Y-132990206D02*
X84890476Y-133037825D01*
X84890476Y-133037825D02*
X84842857Y-133133063D01*
X84842857Y-133133063D02*
X84842857Y-133275920D01*
X84842857Y-133275920D02*
X84890476Y-133371158D01*
X84890476Y-133371158D02*
X84938095Y-133418777D01*
X84938095Y-133418777D02*
X85033333Y-133466396D01*
X85033333Y-133466396D02*
X85414285Y-133466396D01*
X84557142Y-132942587D02*
X83985714Y-132942587D01*
X84271428Y-133942587D02*
X84271428Y-132942587D01*
X83461904Y-132942587D02*
X83271428Y-132942587D01*
X83271428Y-132942587D02*
X83176190Y-132990206D01*
X83176190Y-132990206D02*
X83080952Y-133085444D01*
X83080952Y-133085444D02*
X83033333Y-133275920D01*
X83033333Y-133275920D02*
X83033333Y-133609253D01*
X83033333Y-133609253D02*
X83080952Y-133799729D01*
X83080952Y-133799729D02*
X83176190Y-133894968D01*
X83176190Y-133894968D02*
X83271428Y-133942587D01*
X83271428Y-133942587D02*
X83461904Y-133942587D01*
X83461904Y-133942587D02*
X83557142Y-133894968D01*
X83557142Y-133894968D02*
X83652380Y-133799729D01*
X83652380Y-133799729D02*
X83699999Y-133609253D01*
X83699999Y-133609253D02*
X83699999Y-133275920D01*
X83699999Y-133275920D02*
X83652380Y-133085444D01*
X83652380Y-133085444D02*
X83557142Y-132990206D01*
X83557142Y-132990206D02*
X83461904Y-132942587D01*
X82652380Y-133894968D02*
X82509523Y-133942587D01*
X82509523Y-133942587D02*
X82271428Y-133942587D01*
X82271428Y-133942587D02*
X82176190Y-133894968D01*
X82176190Y-133894968D02*
X82128571Y-133847348D01*
X82128571Y-133847348D02*
X82080952Y-133752110D01*
X82080952Y-133752110D02*
X82080952Y-133656872D01*
X82080952Y-133656872D02*
X82128571Y-133561634D01*
X82128571Y-133561634D02*
X82176190Y-133514015D01*
X82176190Y-133514015D02*
X82271428Y-133466396D01*
X82271428Y-133466396D02*
X82461904Y-133418777D01*
X82461904Y-133418777D02*
X82557142Y-133371158D01*
X82557142Y-133371158D02*
X82604761Y-133323539D01*
X82604761Y-133323539D02*
X82652380Y-133228301D01*
X82652380Y-133228301D02*
X82652380Y-133133063D01*
X82652380Y-133133063D02*
X82604761Y-133037825D01*
X82604761Y-133037825D02*
X82557142Y-132990206D01*
X82557142Y-132990206D02*
X82461904Y-132942587D01*
X82461904Y-132942587D02*
X82223809Y-132942587D01*
X82223809Y-132942587D02*
X82080952Y-132990206D01*
X81747618Y-132942587D02*
X81080952Y-132942587D01*
X81080952Y-132942587D02*
X81747618Y-133942587D01*
X81747618Y-133942587D02*
X81080952Y-133942587D01*
X80033332Y-132942587D02*
X79366666Y-132942587D01*
X79366666Y-132942587D02*
X80033332Y-133942587D01*
X80033332Y-133942587D02*
X79366666Y-133942587D01*
X79033332Y-133656872D02*
X78557142Y-133656872D01*
X79128570Y-133942587D02*
X78795237Y-132942587D01*
X78795237Y-132942587D02*
X78461904Y-133942587D01*
X78223808Y-132942587D02*
X77985713Y-133942587D01*
X77985713Y-133942587D02*
X77795237Y-133228301D01*
X77795237Y-133228301D02*
X77604761Y-133942587D01*
X77604761Y-133942587D02*
X77366666Y-132942587D01*
X76509523Y-133942587D02*
X76985713Y-133942587D01*
X76985713Y-133942587D02*
X76985713Y-132942587D01*
X77128570Y-133466396D02*
X76842856Y-133275920D01*
X75985713Y-132942587D02*
X75795237Y-132942587D01*
X75795237Y-132942587D02*
X75699999Y-132990206D01*
X75699999Y-132990206D02*
X75604761Y-133085444D01*
X75604761Y-133085444D02*
X75557142Y-133275920D01*
X75557142Y-133275920D02*
X75557142Y-133609253D01*
X75557142Y-133609253D02*
X75604761Y-133799729D01*
X75604761Y-133799729D02*
X75699999Y-133894968D01*
X75699999Y-133894968D02*
X75795237Y-133942587D01*
X75795237Y-133942587D02*
X75985713Y-133942587D01*
X75985713Y-133942587D02*
X76080951Y-133894968D01*
X76080951Y-133894968D02*
X76176189Y-133799729D01*
X76176189Y-133799729D02*
X76223808Y-133609253D01*
X76223808Y-133609253D02*
X76223808Y-133275920D01*
X76223808Y-133275920D02*
X76176189Y-133085444D01*
X76176189Y-133085444D02*
X76080951Y-132990206D01*
X76080951Y-132990206D02*
X75985713Y-132942587D01*
X74557142Y-133847348D02*
X74604761Y-133894968D01*
X74604761Y-133894968D02*
X74747618Y-133942587D01*
X74747618Y-133942587D02*
X74842856Y-133942587D01*
X74842856Y-133942587D02*
X74985713Y-133894968D01*
X74985713Y-133894968D02*
X75080951Y-133799729D01*
X75080951Y-133799729D02*
X75128570Y-133704491D01*
X75128570Y-133704491D02*
X75176189Y-133514015D01*
X75176189Y-133514015D02*
X75176189Y-133371158D01*
X75176189Y-133371158D02*
X75128570Y-133180682D01*
X75128570Y-133180682D02*
X75080951Y-133085444D01*
X75080951Y-133085444D02*
X74985713Y-132990206D01*
X74985713Y-132990206D02*
X74842856Y-132942587D01*
X74842856Y-132942587D02*
X74747618Y-132942587D01*
X74747618Y-132942587D02*
X74604761Y-132990206D01*
X74604761Y-132990206D02*
X74557142Y-133037825D01*
X74128570Y-133942587D02*
X74128570Y-132942587D01*
X73557142Y-133942587D02*
X73985713Y-133371158D01*
X73557142Y-132942587D02*
X74128570Y-133514015D01*
X73128570Y-133942587D02*
X73128570Y-132942587D01*
X92652379Y-135504912D02*
X92509522Y-135552531D01*
X92509522Y-135552531D02*
X92271427Y-135552531D01*
X92271427Y-135552531D02*
X92176189Y-135504912D01*
X92176189Y-135504912D02*
X92128570Y-135457292D01*
X92128570Y-135457292D02*
X92080951Y-135362054D01*
X92080951Y-135362054D02*
X92080951Y-135266816D01*
X92080951Y-135266816D02*
X92128570Y-135171578D01*
X92128570Y-135171578D02*
X92176189Y-135123959D01*
X92176189Y-135123959D02*
X92271427Y-135076340D01*
X92271427Y-135076340D02*
X92461903Y-135028721D01*
X92461903Y-135028721D02*
X92557141Y-134981102D01*
X92557141Y-134981102D02*
X92604760Y-134933483D01*
X92604760Y-134933483D02*
X92652379Y-134838245D01*
X92652379Y-134838245D02*
X92652379Y-134743007D01*
X92652379Y-134743007D02*
X92604760Y-134647769D01*
X92604760Y-134647769D02*
X92557141Y-134600150D01*
X92557141Y-134600150D02*
X92461903Y-134552531D01*
X92461903Y-134552531D02*
X92223808Y-134552531D01*
X92223808Y-134552531D02*
X92080951Y-134600150D01*
X91795236Y-134552531D02*
X91223808Y-134552531D01*
X91509522Y-135552531D02*
X91509522Y-134552531D01*
X90890474Y-135028721D02*
X90557141Y-135028721D01*
X90414284Y-135552531D02*
X90890474Y-135552531D01*
X90890474Y-135552531D02*
X90890474Y-134552531D01*
X90890474Y-134552531D02*
X90414284Y-134552531D01*
X89414284Y-135552531D02*
X89747617Y-135076340D01*
X89985712Y-135552531D02*
X89985712Y-134552531D01*
X89985712Y-134552531D02*
X89604760Y-134552531D01*
X89604760Y-134552531D02*
X89509522Y-134600150D01*
X89509522Y-134600150D02*
X89461903Y-134647769D01*
X89461903Y-134647769D02*
X89414284Y-134743007D01*
X89414284Y-134743007D02*
X89414284Y-134885864D01*
X89414284Y-134885864D02*
X89461903Y-134981102D01*
X89461903Y-134981102D02*
X89509522Y-135028721D01*
X89509522Y-135028721D02*
X89604760Y-135076340D01*
X89604760Y-135076340D02*
X89985712Y-135076340D01*
X88795236Y-134552531D02*
X88604760Y-134552531D01*
X88604760Y-134552531D02*
X88509522Y-134600150D01*
X88509522Y-134600150D02*
X88414284Y-134695388D01*
X88414284Y-134695388D02*
X88366665Y-134885864D01*
X88366665Y-134885864D02*
X88366665Y-135219197D01*
X88366665Y-135219197D02*
X88414284Y-135409673D01*
X88414284Y-135409673D02*
X88509522Y-135504912D01*
X88509522Y-135504912D02*
X88604760Y-135552531D01*
X88604760Y-135552531D02*
X88795236Y-135552531D01*
X88795236Y-135552531D02*
X88890474Y-135504912D01*
X88890474Y-135504912D02*
X88985712Y-135409673D01*
X88985712Y-135409673D02*
X89033331Y-135219197D01*
X89033331Y-135219197D02*
X89033331Y-134885864D01*
X89033331Y-134885864D02*
X88985712Y-134695388D01*
X88985712Y-134695388D02*
X88890474Y-134600150D01*
X88890474Y-134600150D02*
X88795236Y-134552531D01*
X88033331Y-134552531D02*
X87795236Y-135552531D01*
X87795236Y-135552531D02*
X87604760Y-134838245D01*
X87604760Y-134838245D02*
X87414284Y-135552531D01*
X87414284Y-135552531D02*
X87176189Y-134552531D01*
X86795236Y-135552531D02*
X86795236Y-134552531D01*
X86795236Y-134552531D02*
X86223808Y-135552531D01*
X86223808Y-135552531D02*
X86223808Y-134552531D01*
X85747617Y-135552531D02*
X85747617Y-134552531D01*
X85271427Y-135552531D02*
X85271427Y-134552531D01*
X84699999Y-135552531D02*
X85128570Y-134981102D01*
X84699999Y-134552531D02*
X85271427Y-135123959D01*
X84271427Y-135552531D02*
X84271427Y-134552531D01*
X83033332Y-135552531D02*
X83033332Y-134552531D01*
X83033332Y-134552531D02*
X82699999Y-135266816D01*
X82699999Y-135266816D02*
X82366666Y-134552531D01*
X82366666Y-134552531D02*
X82366666Y-135552531D01*
X81890475Y-135552531D02*
X81890475Y-134552531D01*
X81414285Y-135552531D02*
X81414285Y-134552531D01*
X80842857Y-135552531D02*
X81271428Y-134981102D01*
X80842857Y-134552531D02*
X81414285Y-135123959D01*
X79842857Y-135552531D02*
X80176190Y-135076340D01*
X80414285Y-135552531D02*
X80414285Y-134552531D01*
X80414285Y-134552531D02*
X80033333Y-134552531D01*
X80033333Y-134552531D02*
X79938095Y-134600150D01*
X79938095Y-134600150D02*
X79890476Y-134647769D01*
X79890476Y-134647769D02*
X79842857Y-134743007D01*
X79842857Y-134743007D02*
X79842857Y-134885864D01*
X79842857Y-134885864D02*
X79890476Y-134981102D01*
X79890476Y-134981102D02*
X79938095Y-135028721D01*
X79938095Y-135028721D02*
X80033333Y-135076340D01*
X80033333Y-135076340D02*
X80414285Y-135076340D01*
X79223809Y-134552531D02*
X79033333Y-134552531D01*
X79033333Y-134552531D02*
X78938095Y-134600150D01*
X78938095Y-134600150D02*
X78842857Y-134695388D01*
X78842857Y-134695388D02*
X78795238Y-134885864D01*
X78795238Y-134885864D02*
X78795238Y-135219197D01*
X78795238Y-135219197D02*
X78842857Y-135409673D01*
X78842857Y-135409673D02*
X78938095Y-135504912D01*
X78938095Y-135504912D02*
X79033333Y-135552531D01*
X79033333Y-135552531D02*
X79223809Y-135552531D01*
X79223809Y-135552531D02*
X79319047Y-135504912D01*
X79319047Y-135504912D02*
X79414285Y-135409673D01*
X79414285Y-135409673D02*
X79461904Y-135219197D01*
X79461904Y-135219197D02*
X79461904Y-134885864D01*
X79461904Y-134885864D02*
X79414285Y-134695388D01*
X79414285Y-134695388D02*
X79319047Y-134600150D01*
X79319047Y-134600150D02*
X79223809Y-134552531D01*
X78366666Y-135552531D02*
X78366666Y-134552531D01*
X78366666Y-134552531D02*
X77985714Y-134552531D01*
X77985714Y-134552531D02*
X77890476Y-134600150D01*
X77890476Y-134600150D02*
X77842857Y-134647769D01*
X77842857Y-134647769D02*
X77795238Y-134743007D01*
X77795238Y-134743007D02*
X77795238Y-134885864D01*
X77795238Y-134885864D02*
X77842857Y-134981102D01*
X77842857Y-134981102D02*
X77890476Y-135028721D01*
X77890476Y-135028721D02*
X77985714Y-135076340D01*
X77985714Y-135076340D02*
X78366666Y-135076340D01*
X76795238Y-135552531D02*
X77128571Y-135076340D01*
X77366666Y-135552531D02*
X77366666Y-134552531D01*
X77366666Y-134552531D02*
X76985714Y-134552531D01*
X76985714Y-134552531D02*
X76890476Y-134600150D01*
X76890476Y-134600150D02*
X76842857Y-134647769D01*
X76842857Y-134647769D02*
X76795238Y-134743007D01*
X76795238Y-134743007D02*
X76795238Y-134885864D01*
X76795238Y-134885864D02*
X76842857Y-134981102D01*
X76842857Y-134981102D02*
X76890476Y-135028721D01*
X76890476Y-135028721D02*
X76985714Y-135076340D01*
X76985714Y-135076340D02*
X77366666Y-135076340D01*
X76176190Y-134552531D02*
X75985714Y-134552531D01*
X75985714Y-134552531D02*
X75890476Y-134600150D01*
X75890476Y-134600150D02*
X75795238Y-134695388D01*
X75795238Y-134695388D02*
X75747619Y-134885864D01*
X75747619Y-134885864D02*
X75747619Y-135219197D01*
X75747619Y-135219197D02*
X75795238Y-135409673D01*
X75795238Y-135409673D02*
X75890476Y-135504912D01*
X75890476Y-135504912D02*
X75985714Y-135552531D01*
X75985714Y-135552531D02*
X76176190Y-135552531D01*
X76176190Y-135552531D02*
X76271428Y-135504912D01*
X76271428Y-135504912D02*
X76366666Y-135409673D01*
X76366666Y-135409673D02*
X76414285Y-135219197D01*
X76414285Y-135219197D02*
X76414285Y-134885864D01*
X76414285Y-134885864D02*
X76366666Y-134695388D01*
X76366666Y-134695388D02*
X76271428Y-134600150D01*
X76271428Y-134600150D02*
X76176190Y-134552531D01*
X74747619Y-135457292D02*
X74795238Y-135504912D01*
X74795238Y-135504912D02*
X74938095Y-135552531D01*
X74938095Y-135552531D02*
X75033333Y-135552531D01*
X75033333Y-135552531D02*
X75176190Y-135504912D01*
X75176190Y-135504912D02*
X75271428Y-135409673D01*
X75271428Y-135409673D02*
X75319047Y-135314435D01*
X75319047Y-135314435D02*
X75366666Y-135123959D01*
X75366666Y-135123959D02*
X75366666Y-134981102D01*
X75366666Y-134981102D02*
X75319047Y-134790626D01*
X75319047Y-134790626D02*
X75271428Y-134695388D01*
X75271428Y-134695388D02*
X75176190Y-134600150D01*
X75176190Y-134600150D02*
X75033333Y-134552531D01*
X75033333Y-134552531D02*
X74938095Y-134552531D01*
X74938095Y-134552531D02*
X74795238Y-134600150D01*
X74795238Y-134600150D02*
X74747619Y-134647769D01*
X74319047Y-135028721D02*
X73985714Y-135028721D01*
X73842857Y-135552531D02*
X74319047Y-135552531D01*
X74319047Y-135552531D02*
X74319047Y-134552531D01*
X74319047Y-134552531D02*
X73842857Y-134552531D01*
X73461904Y-135504912D02*
X73319047Y-135552531D01*
X73319047Y-135552531D02*
X73080952Y-135552531D01*
X73080952Y-135552531D02*
X72985714Y-135504912D01*
X72985714Y-135504912D02*
X72938095Y-135457292D01*
X72938095Y-135457292D02*
X72890476Y-135362054D01*
X72890476Y-135362054D02*
X72890476Y-135266816D01*
X72890476Y-135266816D02*
X72938095Y-135171578D01*
X72938095Y-135171578D02*
X72985714Y-135123959D01*
X72985714Y-135123959D02*
X73080952Y-135076340D01*
X73080952Y-135076340D02*
X73271428Y-135028721D01*
X73271428Y-135028721D02*
X73366666Y-134981102D01*
X73366666Y-134981102D02*
X73414285Y-134933483D01*
X73414285Y-134933483D02*
X73461904Y-134838245D01*
X73461904Y-134838245D02*
X73461904Y-134743007D01*
X73461904Y-134743007D02*
X73414285Y-134647769D01*
X73414285Y-134647769D02*
X73366666Y-134600150D01*
X73366666Y-134600150D02*
X73271428Y-134552531D01*
X73271428Y-134552531D02*
X73033333Y-134552531D01*
X73033333Y-134552531D02*
X72890476Y-134600150D01*
X72271428Y-134552531D02*
X72080952Y-134552531D01*
X72080952Y-134552531D02*
X71985714Y-134600150D01*
X71985714Y-134600150D02*
X71890476Y-134695388D01*
X71890476Y-134695388D02*
X71842857Y-134885864D01*
X71842857Y-134885864D02*
X71842857Y-135219197D01*
X71842857Y-135219197D02*
X71890476Y-135409673D01*
X71890476Y-135409673D02*
X71985714Y-135504912D01*
X71985714Y-135504912D02*
X72080952Y-135552531D01*
X72080952Y-135552531D02*
X72271428Y-135552531D01*
X72271428Y-135552531D02*
X72366666Y-135504912D01*
X72366666Y-135504912D02*
X72461904Y-135409673D01*
X72461904Y-135409673D02*
X72509523Y-135219197D01*
X72509523Y-135219197D02*
X72509523Y-134885864D01*
X72509523Y-134885864D02*
X72461904Y-134695388D01*
X72461904Y-134695388D02*
X72366666Y-134600150D01*
X72366666Y-134600150D02*
X72271428Y-134552531D01*
X70842857Y-135552531D02*
X71176190Y-135076340D01*
X71414285Y-135552531D02*
X71414285Y-134552531D01*
X71414285Y-134552531D02*
X71033333Y-134552531D01*
X71033333Y-134552531D02*
X70938095Y-134600150D01*
X70938095Y-134600150D02*
X70890476Y-134647769D01*
X70890476Y-134647769D02*
X70842857Y-134743007D01*
X70842857Y-134743007D02*
X70842857Y-134885864D01*
X70842857Y-134885864D02*
X70890476Y-134981102D01*
X70890476Y-134981102D02*
X70938095Y-135028721D01*
X70938095Y-135028721D02*
X71033333Y-135076340D01*
X71033333Y-135076340D02*
X71414285Y-135076340D01*
X70223809Y-134552531D02*
X70033333Y-134552531D01*
X70033333Y-134552531D02*
X69938095Y-134600150D01*
X69938095Y-134600150D02*
X69842857Y-134695388D01*
X69842857Y-134695388D02*
X69795238Y-134885864D01*
X69795238Y-134885864D02*
X69795238Y-135219197D01*
X69795238Y-135219197D02*
X69842857Y-135409673D01*
X69842857Y-135409673D02*
X69938095Y-135504912D01*
X69938095Y-135504912D02*
X70033333Y-135552531D01*
X70033333Y-135552531D02*
X70223809Y-135552531D01*
X70223809Y-135552531D02*
X70319047Y-135504912D01*
X70319047Y-135504912D02*
X70414285Y-135409673D01*
X70414285Y-135409673D02*
X70461904Y-135219197D01*
X70461904Y-135219197D02*
X70461904Y-134885864D01*
X70461904Y-134885864D02*
X70414285Y-134695388D01*
X70414285Y-134695388D02*
X70319047Y-134600150D01*
X70319047Y-134600150D02*
X70223809Y-134552531D01*
X69461904Y-134552531D02*
X69223809Y-135552531D01*
X69223809Y-135552531D02*
X69033333Y-134838245D01*
X69033333Y-134838245D02*
X68842857Y-135552531D01*
X68842857Y-135552531D02*
X68604762Y-134552531D01*
X68223809Y-135028721D02*
X67890476Y-135028721D01*
X67747619Y-135552531D02*
X68223809Y-135552531D01*
X68223809Y-135552531D02*
X68223809Y-134552531D01*
X68223809Y-134552531D02*
X67747619Y-134552531D01*
X85295238Y-137162475D02*
X85771428Y-137162475D01*
X85771428Y-137162475D02*
X85771428Y-136162475D01*
X84961904Y-137162475D02*
X84961904Y-136162475D01*
X84485714Y-137162475D02*
X84485714Y-136162475D01*
X84485714Y-136162475D02*
X83914286Y-137162475D01*
X83914286Y-137162475D02*
X83914286Y-136162475D01*
X83438095Y-136638665D02*
X83104762Y-136638665D01*
X82961905Y-137162475D02*
X83438095Y-137162475D01*
X83438095Y-137162475D02*
X83438095Y-136162475D01*
X83438095Y-136162475D02*
X82961905Y-136162475D01*
X81438095Y-136638665D02*
X81771428Y-136638665D01*
X81771428Y-137162475D02*
X81771428Y-136162475D01*
X81771428Y-136162475D02*
X81295238Y-136162475D01*
X80723809Y-136162475D02*
X80533333Y-136162475D01*
X80533333Y-136162475D02*
X80438095Y-136210094D01*
X80438095Y-136210094D02*
X80342857Y-136305332D01*
X80342857Y-136305332D02*
X80295238Y-136495808D01*
X80295238Y-136495808D02*
X80295238Y-136829141D01*
X80295238Y-136829141D02*
X80342857Y-137019617D01*
X80342857Y-137019617D02*
X80438095Y-137114856D01*
X80438095Y-137114856D02*
X80533333Y-137162475D01*
X80533333Y-137162475D02*
X80723809Y-137162475D01*
X80723809Y-137162475D02*
X80819047Y-137114856D01*
X80819047Y-137114856D02*
X80914285Y-137019617D01*
X80914285Y-137019617D02*
X80961904Y-136829141D01*
X80961904Y-136829141D02*
X80961904Y-136495808D01*
X80961904Y-136495808D02*
X80914285Y-136305332D01*
X80914285Y-136305332D02*
X80819047Y-136210094D01*
X80819047Y-136210094D02*
X80723809Y-136162475D01*
X79390476Y-137162475D02*
X79866666Y-137162475D01*
X79866666Y-137162475D02*
X79866666Y-136162475D01*
X78580952Y-137162475D02*
X79057142Y-137162475D01*
X79057142Y-137162475D02*
X79057142Y-136162475D01*
X78057142Y-136162475D02*
X77866666Y-136162475D01*
X77866666Y-136162475D02*
X77771428Y-136210094D01*
X77771428Y-136210094D02*
X77676190Y-136305332D01*
X77676190Y-136305332D02*
X77628571Y-136495808D01*
X77628571Y-136495808D02*
X77628571Y-136829141D01*
X77628571Y-136829141D02*
X77676190Y-137019617D01*
X77676190Y-137019617D02*
X77771428Y-137114856D01*
X77771428Y-137114856D02*
X77866666Y-137162475D01*
X77866666Y-137162475D02*
X78057142Y-137162475D01*
X78057142Y-137162475D02*
X78152380Y-137114856D01*
X78152380Y-137114856D02*
X78247618Y-137019617D01*
X78247618Y-137019617D02*
X78295237Y-136829141D01*
X78295237Y-136829141D02*
X78295237Y-136495808D01*
X78295237Y-136495808D02*
X78247618Y-136305332D01*
X78247618Y-136305332D02*
X78152380Y-136210094D01*
X78152380Y-136210094D02*
X78057142Y-136162475D01*
X77295237Y-136162475D02*
X77057142Y-137162475D01*
X77057142Y-137162475D02*
X76866666Y-136448189D01*
X76866666Y-136448189D02*
X76676190Y-137162475D01*
X76676190Y-137162475D02*
X76438095Y-136162475D01*
X76057142Y-136638665D02*
X75723809Y-136638665D01*
X75580952Y-137162475D02*
X76057142Y-137162475D01*
X76057142Y-137162475D02*
X76057142Y-136162475D01*
X76057142Y-136162475D02*
X75580952Y-136162475D01*
X74580952Y-137162475D02*
X74914285Y-136686284D01*
X75152380Y-137162475D02*
X75152380Y-136162475D01*
X75152380Y-136162475D02*
X74771428Y-136162475D01*
X74771428Y-136162475D02*
X74676190Y-136210094D01*
X74676190Y-136210094D02*
X74628571Y-136257713D01*
X74628571Y-136257713D02*
X74580952Y-136352951D01*
X74580952Y-136352951D02*
X74580952Y-136495808D01*
X74580952Y-136495808D02*
X74628571Y-136591046D01*
X74628571Y-136591046D02*
X74676190Y-136638665D01*
X74676190Y-136638665D02*
X74771428Y-136686284D01*
X74771428Y-136686284D02*
X75152380Y-136686284D01*
X84342856Y-137867657D02*
X84295237Y-137820038D01*
X84295237Y-137820038D02*
X84199999Y-137772419D01*
X84199999Y-137772419D02*
X83961904Y-137772419D01*
X83961904Y-137772419D02*
X83866666Y-137820038D01*
X83866666Y-137820038D02*
X83819047Y-137867657D01*
X83819047Y-137867657D02*
X83771428Y-137962895D01*
X83771428Y-137962895D02*
X83771428Y-138058133D01*
X83771428Y-138058133D02*
X83819047Y-138200990D01*
X83819047Y-138200990D02*
X84390475Y-138772419D01*
X84390475Y-138772419D02*
X83771428Y-138772419D01*
X83152380Y-137772419D02*
X83057142Y-137772419D01*
X83057142Y-137772419D02*
X82961904Y-137820038D01*
X82961904Y-137820038D02*
X82914285Y-137867657D01*
X82914285Y-137867657D02*
X82866666Y-137962895D01*
X82866666Y-137962895D02*
X82819047Y-138153371D01*
X82819047Y-138153371D02*
X82819047Y-138391466D01*
X82819047Y-138391466D02*
X82866666Y-138581942D01*
X82866666Y-138581942D02*
X82914285Y-138677180D01*
X82914285Y-138677180D02*
X82961904Y-138724800D01*
X82961904Y-138724800D02*
X83057142Y-138772419D01*
X83057142Y-138772419D02*
X83152380Y-138772419D01*
X83152380Y-138772419D02*
X83247618Y-138724800D01*
X83247618Y-138724800D02*
X83295237Y-138677180D01*
X83295237Y-138677180D02*
X83342856Y-138581942D01*
X83342856Y-138581942D02*
X83390475Y-138391466D01*
X83390475Y-138391466D02*
X83390475Y-138153371D01*
X83390475Y-138153371D02*
X83342856Y-137962895D01*
X83342856Y-137962895D02*
X83295237Y-137867657D01*
X83295237Y-137867657D02*
X83247618Y-137820038D01*
X83247618Y-137820038D02*
X83152380Y-137772419D01*
X82438094Y-137867657D02*
X82390475Y-137820038D01*
X82390475Y-137820038D02*
X82295237Y-137772419D01*
X82295237Y-137772419D02*
X82057142Y-137772419D01*
X82057142Y-137772419D02*
X81961904Y-137820038D01*
X81961904Y-137820038D02*
X81914285Y-137867657D01*
X81914285Y-137867657D02*
X81866666Y-137962895D01*
X81866666Y-137962895D02*
X81866666Y-138058133D01*
X81866666Y-138058133D02*
X81914285Y-138200990D01*
X81914285Y-138200990D02*
X82485713Y-138772419D01*
X82485713Y-138772419D02*
X81866666Y-138772419D01*
X80961904Y-137772419D02*
X81438094Y-137772419D01*
X81438094Y-137772419D02*
X81485713Y-138248609D01*
X81485713Y-138248609D02*
X81438094Y-138200990D01*
X81438094Y-138200990D02*
X81342856Y-138153371D01*
X81342856Y-138153371D02*
X81104761Y-138153371D01*
X81104761Y-138153371D02*
X81009523Y-138200990D01*
X81009523Y-138200990D02*
X80961904Y-138248609D01*
X80961904Y-138248609D02*
X80914285Y-138343847D01*
X80914285Y-138343847D02*
X80914285Y-138581942D01*
X80914285Y-138581942D02*
X80961904Y-138677180D01*
X80961904Y-138677180D02*
X81009523Y-138724800D01*
X81009523Y-138724800D02*
X81104761Y-138772419D01*
X81104761Y-138772419D02*
X81342856Y-138772419D01*
X81342856Y-138772419D02*
X81438094Y-138724800D01*
X81438094Y-138724800D02*
X81485713Y-138677180D01*
X79771428Y-137724800D02*
X80628570Y-139010514D01*
X79485713Y-137867657D02*
X79438094Y-137820038D01*
X79438094Y-137820038D02*
X79342856Y-137772419D01*
X79342856Y-137772419D02*
X79104761Y-137772419D01*
X79104761Y-137772419D02*
X79009523Y-137820038D01*
X79009523Y-137820038D02*
X78961904Y-137867657D01*
X78961904Y-137867657D02*
X78914285Y-137962895D01*
X78914285Y-137962895D02*
X78914285Y-138058133D01*
X78914285Y-138058133D02*
X78961904Y-138200990D01*
X78961904Y-138200990D02*
X79533332Y-138772419D01*
X79533332Y-138772419D02*
X78914285Y-138772419D01*
X78295237Y-137772419D02*
X78199999Y-137772419D01*
X78199999Y-137772419D02*
X78104761Y-137820038D01*
X78104761Y-137820038D02*
X78057142Y-137867657D01*
X78057142Y-137867657D02*
X78009523Y-137962895D01*
X78009523Y-137962895D02*
X77961904Y-138153371D01*
X77961904Y-138153371D02*
X77961904Y-138391466D01*
X77961904Y-138391466D02*
X78009523Y-138581942D01*
X78009523Y-138581942D02*
X78057142Y-138677180D01*
X78057142Y-138677180D02*
X78104761Y-138724800D01*
X78104761Y-138724800D02*
X78199999Y-138772419D01*
X78199999Y-138772419D02*
X78295237Y-138772419D01*
X78295237Y-138772419D02*
X78390475Y-138724800D01*
X78390475Y-138724800D02*
X78438094Y-138677180D01*
X78438094Y-138677180D02*
X78485713Y-138581942D01*
X78485713Y-138581942D02*
X78533332Y-138391466D01*
X78533332Y-138391466D02*
X78533332Y-138153371D01*
X78533332Y-138153371D02*
X78485713Y-137962895D01*
X78485713Y-137962895D02*
X78438094Y-137867657D01*
X78438094Y-137867657D02*
X78390475Y-137820038D01*
X78390475Y-137820038D02*
X78295237Y-137772419D01*
X77580951Y-137867657D02*
X77533332Y-137820038D01*
X77533332Y-137820038D02*
X77438094Y-137772419D01*
X77438094Y-137772419D02*
X77199999Y-137772419D01*
X77199999Y-137772419D02*
X77104761Y-137820038D01*
X77104761Y-137820038D02*
X77057142Y-137867657D01*
X77057142Y-137867657D02*
X77009523Y-137962895D01*
X77009523Y-137962895D02*
X77009523Y-138058133D01*
X77009523Y-138058133D02*
X77057142Y-138200990D01*
X77057142Y-138200990D02*
X77628570Y-138772419D01*
X77628570Y-138772419D02*
X77009523Y-138772419D01*
X76152380Y-137772419D02*
X76342856Y-137772419D01*
X76342856Y-137772419D02*
X76438094Y-137820038D01*
X76438094Y-137820038D02*
X76485713Y-137867657D01*
X76485713Y-137867657D02*
X76580951Y-138010514D01*
X76580951Y-138010514D02*
X76628570Y-138200990D01*
X76628570Y-138200990D02*
X76628570Y-138581942D01*
X76628570Y-138581942D02*
X76580951Y-138677180D01*
X76580951Y-138677180D02*
X76533332Y-138724800D01*
X76533332Y-138724800D02*
X76438094Y-138772419D01*
X76438094Y-138772419D02*
X76247618Y-138772419D01*
X76247618Y-138772419D02*
X76152380Y-138724800D01*
X76152380Y-138724800D02*
X76104761Y-138677180D01*
X76104761Y-138677180D02*
X76057142Y-138581942D01*
X76057142Y-138581942D02*
X76057142Y-138343847D01*
X76057142Y-138343847D02*
X76104761Y-138248609D01*
X76104761Y-138248609D02*
X76152380Y-138200990D01*
X76152380Y-138200990D02*
X76247618Y-138153371D01*
X76247618Y-138153371D02*
X76438094Y-138153371D01*
X76438094Y-138153371D02*
X76533332Y-138200990D01*
X76533332Y-138200990D02*
X76580951Y-138248609D01*
X76580951Y-138248609D02*
X76628570Y-138343847D01*
D12*
X89837544Y-131340809D02*
X89694687Y-131388428D01*
X89694687Y-131388428D02*
X89647068Y-131436047D01*
X89647068Y-131436047D02*
X89599449Y-131531285D01*
X89599449Y-131531285D02*
X89599449Y-131674142D01*
X89599449Y-131674142D02*
X89647068Y-131769380D01*
X89647068Y-131769380D02*
X89694687Y-131817000D01*
X89694687Y-131817000D02*
X89789925Y-131864619D01*
X89789925Y-131864619D02*
X90170877Y-131864619D01*
X90170877Y-131864619D02*
X90170877Y-130864619D01*
X90170877Y-130864619D02*
X89837544Y-130864619D01*
X89837544Y-130864619D02*
X89742306Y-130912238D01*
X89742306Y-130912238D02*
X89694687Y-130959857D01*
X89694687Y-130959857D02*
X89647068Y-131055095D01*
X89647068Y-131055095D02*
X89647068Y-131150333D01*
X89647068Y-131150333D02*
X89694687Y-131245571D01*
X89694687Y-131245571D02*
X89742306Y-131293190D01*
X89742306Y-131293190D02*
X89837544Y-131340809D01*
X89837544Y-131340809D02*
X90170877Y-131340809D01*
X88980401Y-130864619D02*
X88789925Y-130864619D01*
X88789925Y-130864619D02*
X88694687Y-130912238D01*
X88694687Y-130912238D02*
X88599449Y-131007476D01*
X88599449Y-131007476D02*
X88551830Y-131197952D01*
X88551830Y-131197952D02*
X88551830Y-131531285D01*
X88551830Y-131531285D02*
X88599449Y-131721761D01*
X88599449Y-131721761D02*
X88694687Y-131817000D01*
X88694687Y-131817000D02*
X88789925Y-131864619D01*
X88789925Y-131864619D02*
X88980401Y-131864619D01*
X88980401Y-131864619D02*
X89075639Y-131817000D01*
X89075639Y-131817000D02*
X89170877Y-131721761D01*
X89170877Y-131721761D02*
X89218496Y-131531285D01*
X89218496Y-131531285D02*
X89218496Y-131197952D01*
X89218496Y-131197952D02*
X89170877Y-131007476D01*
X89170877Y-131007476D02*
X89075639Y-130912238D01*
X89075639Y-130912238D02*
X88980401Y-130864619D01*
X88789925Y-130483666D02*
X88932782Y-130626523D01*
X87599449Y-130912238D02*
X87694687Y-130864619D01*
X87694687Y-130864619D02*
X87837544Y-130864619D01*
X87837544Y-130864619D02*
X87980401Y-130912238D01*
X87980401Y-130912238D02*
X88075639Y-131007476D01*
X88075639Y-131007476D02*
X88123258Y-131102714D01*
X88123258Y-131102714D02*
X88170877Y-131293190D01*
X88170877Y-131293190D02*
X88170877Y-131436047D01*
X88170877Y-131436047D02*
X88123258Y-131626523D01*
X88123258Y-131626523D02*
X88075639Y-131721761D01*
X88075639Y-131721761D02*
X87980401Y-131817000D01*
X87980401Y-131817000D02*
X87837544Y-131864619D01*
X87837544Y-131864619D02*
X87742306Y-131864619D01*
X87742306Y-131864619D02*
X87599449Y-131817000D01*
X87599449Y-131817000D02*
X87551830Y-131769380D01*
X87551830Y-131769380D02*
X87551830Y-131436047D01*
X87551830Y-131436047D02*
X87742306Y-131436047D01*
X86361353Y-131864619D02*
X86361353Y-130864619D01*
X86361353Y-131340809D02*
X85789925Y-131340809D01*
X85789925Y-131864619D02*
X85789925Y-130864619D01*
X85123258Y-130864619D02*
X84932782Y-130864619D01*
X84932782Y-130864619D02*
X84837544Y-130912238D01*
X84837544Y-130912238D02*
X84742306Y-131007476D01*
X84742306Y-131007476D02*
X84694687Y-131197952D01*
X84694687Y-131197952D02*
X84694687Y-131531285D01*
X84694687Y-131531285D02*
X84742306Y-131721761D01*
X84742306Y-131721761D02*
X84837544Y-131817000D01*
X84837544Y-131817000D02*
X84932782Y-131864619D01*
X84932782Y-131864619D02*
X85123258Y-131864619D01*
X85123258Y-131864619D02*
X85218496Y-131817000D01*
X85218496Y-131817000D02*
X85313734Y-131721761D01*
X85313734Y-131721761D02*
X85361353Y-131531285D01*
X85361353Y-131531285D02*
X85361353Y-131197952D01*
X85361353Y-131197952D02*
X85313734Y-131007476D01*
X85313734Y-131007476D02*
X85218496Y-130912238D01*
X85218496Y-130912238D02*
X85123258Y-130864619D01*
X84266115Y-131864619D02*
X84266115Y-130864619D01*
X84266115Y-130864619D02*
X83694687Y-131864619D01*
X83694687Y-131864619D02*
X83694687Y-130864619D01*
X83028020Y-130864619D02*
X82837544Y-130864619D01*
X82837544Y-130864619D02*
X82742306Y-130912238D01*
X82742306Y-130912238D02*
X82647068Y-131007476D01*
X82647068Y-131007476D02*
X82599449Y-131197952D01*
X82599449Y-131197952D02*
X82599449Y-131531285D01*
X82599449Y-131531285D02*
X82647068Y-131721761D01*
X82647068Y-131721761D02*
X82742306Y-131817000D01*
X82742306Y-131817000D02*
X82837544Y-131864619D01*
X82837544Y-131864619D02*
X83028020Y-131864619D01*
X83028020Y-131864619D02*
X83123258Y-131817000D01*
X83123258Y-131817000D02*
X83218496Y-131721761D01*
X83218496Y-131721761D02*
X83266115Y-131531285D01*
X83266115Y-131531285D02*
X83266115Y-131197952D01*
X83266115Y-131197952D02*
X83218496Y-131007476D01*
X83218496Y-131007476D02*
X83123258Y-130912238D01*
X83123258Y-130912238D02*
X83028020Y-130864619D01*
X81599449Y-131864619D02*
X81932782Y-131388428D01*
X82170877Y-131864619D02*
X82170877Y-130864619D01*
X82170877Y-130864619D02*
X81789925Y-130864619D01*
X81789925Y-130864619D02*
X81694687Y-130912238D01*
X81694687Y-130912238D02*
X81647068Y-130959857D01*
X81647068Y-130959857D02*
X81599449Y-131055095D01*
X81599449Y-131055095D02*
X81599449Y-131197952D01*
X81599449Y-131197952D02*
X81647068Y-131293190D01*
X81647068Y-131293190D02*
X81694687Y-131340809D01*
X81694687Y-131340809D02*
X81789925Y-131388428D01*
X81789925Y-131388428D02*
X82170877Y-131388428D01*
X80408972Y-131864619D02*
X80408972Y-130864619D01*
X80408972Y-130864619D02*
X80075639Y-131578904D01*
X80075639Y-131578904D02*
X79742306Y-130864619D01*
X79742306Y-130864619D02*
X79742306Y-131864619D01*
X79266115Y-131340809D02*
X78932782Y-131340809D01*
X78789925Y-131864619D02*
X79266115Y-131864619D01*
X79266115Y-131864619D02*
X79266115Y-130864619D01*
X79266115Y-130864619D02*
X78789925Y-130864619D01*
X77789925Y-131769380D02*
X77837544Y-131817000D01*
X77837544Y-131817000D02*
X77980401Y-131864619D01*
X77980401Y-131864619D02*
X78075639Y-131864619D01*
X78075639Y-131864619D02*
X78218496Y-131817000D01*
X78218496Y-131817000D02*
X78313734Y-131721761D01*
X78313734Y-131721761D02*
X78361353Y-131626523D01*
X78361353Y-131626523D02*
X78408972Y-131436047D01*
X78408972Y-131436047D02*
X78408972Y-131293190D01*
X78408972Y-131293190D02*
X78361353Y-131102714D01*
X78361353Y-131102714D02*
X78313734Y-131007476D01*
X78313734Y-131007476D02*
X78218496Y-130912238D01*
X78218496Y-130912238D02*
X78075639Y-130864619D01*
X78075639Y-130864619D02*
X77980401Y-130864619D01*
X77980401Y-130864619D02*
X77837544Y-130912238D01*
X77837544Y-130912238D02*
X77789925Y-130959857D01*
X77361353Y-131864619D02*
X77361353Y-130864619D01*
X77361353Y-131340809D02*
X76789925Y-131340809D01*
X76789925Y-131864619D02*
X76789925Y-130864619D01*
X76361353Y-131578904D02*
X75885163Y-131578904D01*
X76456591Y-131864619D02*
X76123258Y-130864619D01*
X76123258Y-130864619D02*
X75789925Y-131864619D01*
X75599448Y-130864619D02*
X75028020Y-130864619D01*
X75313734Y-131864619D02*
X75313734Y-130864619D01*
X74123258Y-131864619D02*
X74456591Y-131388428D01*
X74694686Y-131864619D02*
X74694686Y-130864619D01*
X74694686Y-130864619D02*
X74313734Y-130864619D01*
X74313734Y-130864619D02*
X74218496Y-130912238D01*
X74218496Y-130912238D02*
X74170877Y-130959857D01*
X74170877Y-130959857D02*
X74123258Y-131055095D01*
X74123258Y-131055095D02*
X74123258Y-131197952D01*
X74123258Y-131197952D02*
X74170877Y-131293190D01*
X74170877Y-131293190D02*
X74218496Y-131340809D01*
X74218496Y-131340809D02*
X74313734Y-131388428D01*
X74313734Y-131388428D02*
X74694686Y-131388428D01*
X73504210Y-130864619D02*
X73313734Y-130864619D01*
X73313734Y-130864619D02*
X73218496Y-130912238D01*
X73218496Y-130912238D02*
X73123258Y-131007476D01*
X73123258Y-131007476D02*
X73075639Y-131197952D01*
X73075639Y-131197952D02*
X73075639Y-131531285D01*
X73075639Y-131531285D02*
X73123258Y-131721761D01*
X73123258Y-131721761D02*
X73218496Y-131817000D01*
X73218496Y-131817000D02*
X73313734Y-131864619D01*
X73313734Y-131864619D02*
X73504210Y-131864619D01*
X73504210Y-131864619D02*
X73599448Y-131817000D01*
X73599448Y-131817000D02*
X73694686Y-131721761D01*
X73694686Y-131721761D02*
X73742305Y-131531285D01*
X73742305Y-131531285D02*
X73742305Y-131197952D01*
X73742305Y-131197952D02*
X73694686Y-131007476D01*
X73694686Y-131007476D02*
X73599448Y-130912238D01*
X73599448Y-130912238D02*
X73504210Y-130864619D01*
X72647067Y-131864619D02*
X72647067Y-130864619D01*
X72647067Y-130864619D02*
X72075639Y-131864619D01*
X72075639Y-131864619D02*
X72075639Y-130864619D01*
X71599448Y-131864619D02*
X71599448Y-130864619D01*
X71123258Y-131864619D02*
X71123258Y-130864619D01*
X70551830Y-131864619D02*
X70980401Y-131293190D01*
X70551830Y-130864619D02*
X71123258Y-131436047D01*
X70170877Y-131578904D02*
X69694687Y-131578904D01*
X70266115Y-131864619D02*
X69932782Y-130864619D01*
X69932782Y-130864619D02*
X69599449Y-131864619D01*
D13*
X56672390Y-77939432D02*
X57484910Y-77939432D01*
X57484910Y-77939432D02*
X57580500Y-77987227D01*
X57580500Y-77987227D02*
X57628296Y-78035023D01*
X57628296Y-78035023D02*
X57676091Y-78130613D01*
X57676091Y-78130613D02*
X57676091Y-78321794D01*
X57676091Y-78321794D02*
X57628296Y-78417385D01*
X57628296Y-78417385D02*
X57580500Y-78465180D01*
X57580500Y-78465180D02*
X57484910Y-78512975D01*
X57484910Y-78512975D02*
X56672390Y-78512975D01*
X57676091Y-79516676D02*
X57676091Y-78943133D01*
X57676091Y-79229904D02*
X56672390Y-79229904D01*
X56672390Y-79229904D02*
X56815776Y-79134314D01*
X56815776Y-79134314D02*
X56911366Y-79038723D01*
X56911366Y-79038723D02*
X56959162Y-78943133D01*
X56672390Y-80138015D02*
X56672390Y-80233606D01*
X56672390Y-80233606D02*
X56720185Y-80329196D01*
X56720185Y-80329196D02*
X56767980Y-80376992D01*
X56767980Y-80376992D02*
X56863571Y-80424787D01*
X56863571Y-80424787D02*
X57054752Y-80472582D01*
X57054752Y-80472582D02*
X57293729Y-80472582D01*
X57293729Y-80472582D02*
X57484910Y-80424787D01*
X57484910Y-80424787D02*
X57580500Y-80376992D01*
X57580500Y-80376992D02*
X57628296Y-80329196D01*
X57628296Y-80329196D02*
X57676091Y-80233606D01*
X57676091Y-80233606D02*
X57676091Y-80138015D01*
X57676091Y-80138015D02*
X57628296Y-80042425D01*
X57628296Y-80042425D02*
X57580500Y-79994629D01*
X57580500Y-79994629D02*
X57484910Y-79946834D01*
X57484910Y-79946834D02*
X57293729Y-79899039D01*
X57293729Y-79899039D02*
X57054752Y-79899039D01*
X57054752Y-79899039D02*
X56863571Y-79946834D01*
X56863571Y-79946834D02*
X56767980Y-79994629D01*
X56767980Y-79994629D02*
X56720185Y-80042425D01*
X56720185Y-80042425D02*
X56672390Y-80138015D01*
X64672390Y-78417385D02*
X65484910Y-78417385D01*
X65484910Y-78417385D02*
X65580500Y-78465180D01*
X65580500Y-78465180D02*
X65628296Y-78512976D01*
X65628296Y-78512976D02*
X65676091Y-78608566D01*
X65676091Y-78608566D02*
X65676091Y-78799747D01*
X65676091Y-78799747D02*
X65628296Y-78895338D01*
X65628296Y-78895338D02*
X65580500Y-78943133D01*
X65580500Y-78943133D02*
X65484910Y-78990928D01*
X65484910Y-78990928D02*
X64672390Y-78990928D01*
X65676091Y-79516676D02*
X65676091Y-79707857D01*
X65676091Y-79707857D02*
X65628296Y-79803448D01*
X65628296Y-79803448D02*
X65580500Y-79851243D01*
X65580500Y-79851243D02*
X65437114Y-79946834D01*
X65437114Y-79946834D02*
X65245933Y-79994629D01*
X65245933Y-79994629D02*
X64863571Y-79994629D01*
X64863571Y-79994629D02*
X64767980Y-79946834D01*
X64767980Y-79946834D02*
X64720185Y-79899039D01*
X64720185Y-79899039D02*
X64672390Y-79803448D01*
X64672390Y-79803448D02*
X64672390Y-79612267D01*
X64672390Y-79612267D02*
X64720185Y-79516676D01*
X64720185Y-79516676D02*
X64767980Y-79468881D01*
X64767980Y-79468881D02*
X64863571Y-79421086D01*
X64863571Y-79421086D02*
X65102547Y-79421086D01*
X65102547Y-79421086D02*
X65198138Y-79468881D01*
X65198138Y-79468881D02*
X65245933Y-79516676D01*
X65245933Y-79516676D02*
X65293729Y-79612267D01*
X65293729Y-79612267D02*
X65293729Y-79803448D01*
X65293729Y-79803448D02*
X65245933Y-79899039D01*
X65245933Y-79899039D02*
X65198138Y-79946834D01*
X65198138Y-79946834D02*
X65102547Y-79994629D01*
X72672390Y-78417385D02*
X73484910Y-78417385D01*
X73484910Y-78417385D02*
X73580500Y-78465180D01*
X73580500Y-78465180D02*
X73628296Y-78512976D01*
X73628296Y-78512976D02*
X73676091Y-78608566D01*
X73676091Y-78608566D02*
X73676091Y-78799747D01*
X73676091Y-78799747D02*
X73628296Y-78895338D01*
X73628296Y-78895338D02*
X73580500Y-78943133D01*
X73580500Y-78943133D02*
X73484910Y-78990928D01*
X73484910Y-78990928D02*
X72672390Y-78990928D01*
X73102547Y-79612267D02*
X73054752Y-79516676D01*
X73054752Y-79516676D02*
X73006957Y-79468881D01*
X73006957Y-79468881D02*
X72911366Y-79421086D01*
X72911366Y-79421086D02*
X72863571Y-79421086D01*
X72863571Y-79421086D02*
X72767980Y-79468881D01*
X72767980Y-79468881D02*
X72720185Y-79516676D01*
X72720185Y-79516676D02*
X72672390Y-79612267D01*
X72672390Y-79612267D02*
X72672390Y-79803448D01*
X72672390Y-79803448D02*
X72720185Y-79899039D01*
X72720185Y-79899039D02*
X72767980Y-79946834D01*
X72767980Y-79946834D02*
X72863571Y-79994629D01*
X72863571Y-79994629D02*
X72911366Y-79994629D01*
X72911366Y-79994629D02*
X73006957Y-79946834D01*
X73006957Y-79946834D02*
X73054752Y-79899039D01*
X73054752Y-79899039D02*
X73102547Y-79803448D01*
X73102547Y-79803448D02*
X73102547Y-79612267D01*
X73102547Y-79612267D02*
X73150343Y-79516676D01*
X73150343Y-79516676D02*
X73198138Y-79468881D01*
X73198138Y-79468881D02*
X73293729Y-79421086D01*
X73293729Y-79421086D02*
X73484910Y-79421086D01*
X73484910Y-79421086D02*
X73580500Y-79468881D01*
X73580500Y-79468881D02*
X73628296Y-79516676D01*
X73628296Y-79516676D02*
X73676091Y-79612267D01*
X73676091Y-79612267D02*
X73676091Y-79803448D01*
X73676091Y-79803448D02*
X73628296Y-79899039D01*
X73628296Y-79899039D02*
X73580500Y-79946834D01*
X73580500Y-79946834D02*
X73484910Y-79994629D01*
X73484910Y-79994629D02*
X73293729Y-79994629D01*
X73293729Y-79994629D02*
X73198138Y-79946834D01*
X73198138Y-79946834D02*
X73150343Y-79899039D01*
X73150343Y-79899039D02*
X73102547Y-79803448D01*
X80672390Y-78417385D02*
X81484910Y-78417385D01*
X81484910Y-78417385D02*
X81580500Y-78465180D01*
X81580500Y-78465180D02*
X81628296Y-78512976D01*
X81628296Y-78512976D02*
X81676091Y-78608566D01*
X81676091Y-78608566D02*
X81676091Y-78799747D01*
X81676091Y-78799747D02*
X81628296Y-78895338D01*
X81628296Y-78895338D02*
X81580500Y-78943133D01*
X81580500Y-78943133D02*
X81484910Y-78990928D01*
X81484910Y-78990928D02*
X80672390Y-78990928D01*
X80672390Y-79373290D02*
X80672390Y-80042424D01*
X80672390Y-80042424D02*
X81676091Y-79612267D01*
X88672390Y-78417385D02*
X89484910Y-78417385D01*
X89484910Y-78417385D02*
X89580500Y-78465180D01*
X89580500Y-78465180D02*
X89628296Y-78512976D01*
X89628296Y-78512976D02*
X89676091Y-78608566D01*
X89676091Y-78608566D02*
X89676091Y-78799747D01*
X89676091Y-78799747D02*
X89628296Y-78895338D01*
X89628296Y-78895338D02*
X89580500Y-78943133D01*
X89580500Y-78943133D02*
X89484910Y-78990928D01*
X89484910Y-78990928D02*
X88672390Y-78990928D01*
X88672390Y-79946834D02*
X88672390Y-79468881D01*
X88672390Y-79468881D02*
X89150343Y-79421086D01*
X89150343Y-79421086D02*
X89102547Y-79468881D01*
X89102547Y-79468881D02*
X89054752Y-79564472D01*
X89054752Y-79564472D02*
X89054752Y-79803448D01*
X89054752Y-79803448D02*
X89102547Y-79899039D01*
X89102547Y-79899039D02*
X89150343Y-79946834D01*
X89150343Y-79946834D02*
X89245933Y-79994629D01*
X89245933Y-79994629D02*
X89484910Y-79994629D01*
X89484910Y-79994629D02*
X89580500Y-79946834D01*
X89580500Y-79946834D02*
X89628296Y-79899039D01*
X89628296Y-79899039D02*
X89676091Y-79803448D01*
X89676091Y-79803448D02*
X89676091Y-79564472D01*
X89676091Y-79564472D02*
X89628296Y-79468881D01*
X89628296Y-79468881D02*
X89580500Y-79421086D01*
X96672390Y-78417385D02*
X97484910Y-78417385D01*
X97484910Y-78417385D02*
X97580500Y-78465180D01*
X97580500Y-78465180D02*
X97628296Y-78512976D01*
X97628296Y-78512976D02*
X97676091Y-78608566D01*
X97676091Y-78608566D02*
X97676091Y-78799747D01*
X97676091Y-78799747D02*
X97628296Y-78895338D01*
X97628296Y-78895338D02*
X97580500Y-78943133D01*
X97580500Y-78943133D02*
X97484910Y-78990928D01*
X97484910Y-78990928D02*
X96672390Y-78990928D01*
X97006957Y-79899039D02*
X97676091Y-79899039D01*
X96624595Y-79660062D02*
X97341524Y-79421086D01*
X97341524Y-79421086D02*
X97341524Y-80042424D01*
X104672390Y-78417385D02*
X105484910Y-78417385D01*
X105484910Y-78417385D02*
X105580500Y-78465180D01*
X105580500Y-78465180D02*
X105628296Y-78512976D01*
X105628296Y-78512976D02*
X105676091Y-78608566D01*
X105676091Y-78608566D02*
X105676091Y-78799747D01*
X105676091Y-78799747D02*
X105628296Y-78895338D01*
X105628296Y-78895338D02*
X105580500Y-78943133D01*
X105580500Y-78943133D02*
X105484910Y-78990928D01*
X105484910Y-78990928D02*
X104672390Y-78990928D01*
X104672390Y-79373290D02*
X104672390Y-79994629D01*
X104672390Y-79994629D02*
X105054752Y-79660062D01*
X105054752Y-79660062D02*
X105054752Y-79803448D01*
X105054752Y-79803448D02*
X105102547Y-79899039D01*
X105102547Y-79899039D02*
X105150343Y-79946834D01*
X105150343Y-79946834D02*
X105245933Y-79994629D01*
X105245933Y-79994629D02*
X105484910Y-79994629D01*
X105484910Y-79994629D02*
X105580500Y-79946834D01*
X105580500Y-79946834D02*
X105628296Y-79899039D01*
X105628296Y-79899039D02*
X105676091Y-79803448D01*
X105676091Y-79803448D02*
X105676091Y-79516676D01*
X105676091Y-79516676D02*
X105628296Y-79421086D01*
X105628296Y-79421086D02*
X105580500Y-79373290D01*
X112672390Y-78417385D02*
X113484910Y-78417385D01*
X113484910Y-78417385D02*
X113580500Y-78465180D01*
X113580500Y-78465180D02*
X113628296Y-78512976D01*
X113628296Y-78512976D02*
X113676091Y-78608566D01*
X113676091Y-78608566D02*
X113676091Y-78799747D01*
X113676091Y-78799747D02*
X113628296Y-78895338D01*
X113628296Y-78895338D02*
X113580500Y-78943133D01*
X113580500Y-78943133D02*
X113484910Y-78990928D01*
X113484910Y-78990928D02*
X112672390Y-78990928D01*
X113676091Y-79994629D02*
X113676091Y-79421086D01*
X113676091Y-79707857D02*
X112672390Y-79707857D01*
X112672390Y-79707857D02*
X112815776Y-79612267D01*
X112815776Y-79612267D02*
X112911366Y-79516676D01*
X112911366Y-79516676D02*
X112959162Y-79421086D01*
D14*
%TO.C,U10*%
X56170000Y-82350000D02*
X56170000Y-78550000D01*
X51570000Y-82350000D02*
X56170000Y-82350000D01*
X50370000Y-78550000D02*
X50370000Y-80950000D01*
X56170000Y-75850000D02*
X56170000Y-73850000D01*
X56170000Y-73850000D02*
X54520000Y-72150000D01*
X50370000Y-73850000D02*
X50370000Y-75850000D01*
X54520000Y-72150000D02*
X52020000Y-72150000D01*
X52020000Y-72150000D02*
X50370000Y-73850000D01*
D15*
X54690000Y-83050000D02*
G75*
G02*
X54450000Y-83050000I-120000J0D01*
G01*
X54450000Y-83050000D02*
G75*
G02*
X54690000Y-83050000I120000J0D01*
G01*
D14*
%TO.C,U9*%
X64170000Y-82350000D02*
X64170000Y-78550000D01*
X59570000Y-82350000D02*
X64170000Y-82350000D01*
X58370000Y-78550000D02*
X58370000Y-80950000D01*
X64170000Y-75850000D02*
X64170000Y-73850000D01*
X64170000Y-73850000D02*
X62520000Y-72150000D01*
X58370000Y-73850000D02*
X58370000Y-75850000D01*
X62520000Y-72150000D02*
X60020000Y-72150000D01*
X60020000Y-72150000D02*
X58370000Y-73850000D01*
D15*
X62690000Y-83050000D02*
G75*
G02*
X62450000Y-83050000I-120000J0D01*
G01*
X62450000Y-83050000D02*
G75*
G02*
X62690000Y-83050000I120000J0D01*
G01*
D14*
%TO.C,U8*%
X72170000Y-82350000D02*
X72170000Y-78550000D01*
X67570000Y-82350000D02*
X72170000Y-82350000D01*
X66370000Y-78550000D02*
X66370000Y-80950000D01*
X72170000Y-75850000D02*
X72170000Y-73850000D01*
X72170000Y-73850000D02*
X70520000Y-72150000D01*
X66370000Y-73850000D02*
X66370000Y-75850000D01*
X70520000Y-72150000D02*
X68020000Y-72150000D01*
X68020000Y-72150000D02*
X66370000Y-73850000D01*
D15*
X70690000Y-83050000D02*
G75*
G02*
X70450000Y-83050000I-120000J0D01*
G01*
X70450000Y-83050000D02*
G75*
G02*
X70690000Y-83050000I120000J0D01*
G01*
D14*
%TO.C,U7*%
X80170000Y-82350000D02*
X80170000Y-78550000D01*
X75570000Y-82350000D02*
X80170000Y-82350000D01*
X74370000Y-78550000D02*
X74370000Y-80950000D01*
X80170000Y-75850000D02*
X80170000Y-73850000D01*
X80170000Y-73850000D02*
X78520000Y-72150000D01*
X74370000Y-73850000D02*
X74370000Y-75850000D01*
X78520000Y-72150000D02*
X76020000Y-72150000D01*
X76020000Y-72150000D02*
X74370000Y-73850000D01*
D15*
X78690000Y-83050000D02*
G75*
G02*
X78450000Y-83050000I-120000J0D01*
G01*
X78450000Y-83050000D02*
G75*
G02*
X78690000Y-83050000I120000J0D01*
G01*
D14*
%TO.C,U5*%
X88170000Y-82350000D02*
X88170000Y-78550000D01*
X83570000Y-82350000D02*
X88170000Y-82350000D01*
X82370000Y-78550000D02*
X82370000Y-80950000D01*
X88170000Y-75850000D02*
X88170000Y-73850000D01*
X88170000Y-73850000D02*
X86520000Y-72150000D01*
X82370000Y-73850000D02*
X82370000Y-75850000D01*
X86520000Y-72150000D02*
X84020000Y-72150000D01*
X84020000Y-72150000D02*
X82370000Y-73850000D01*
D15*
X86690000Y-83050000D02*
G75*
G02*
X86450000Y-83050000I-120000J0D01*
G01*
X86450000Y-83050000D02*
G75*
G02*
X86690000Y-83050000I120000J0D01*
G01*
%TO.C,U4*%
X94690000Y-83050000D02*
G75*
G02*
X94450000Y-83050000I-120000J0D01*
G01*
X94450000Y-83050000D02*
G75*
G02*
X94690000Y-83050000I120000J0D01*
G01*
D14*
X92020000Y-72150000D02*
X90370000Y-73850000D01*
X94520000Y-72150000D02*
X92020000Y-72150000D01*
X90370000Y-73850000D02*
X90370000Y-75850000D01*
X96170000Y-73850000D02*
X94520000Y-72150000D01*
X96170000Y-75850000D02*
X96170000Y-73850000D01*
X90370000Y-78550000D02*
X90370000Y-80950000D01*
X91570000Y-82350000D02*
X96170000Y-82350000D01*
X96170000Y-82350000D02*
X96170000Y-78550000D01*
%TO.C,U3*%
X104170000Y-82350000D02*
X104170000Y-78550000D01*
X99570000Y-82350000D02*
X104170000Y-82350000D01*
X98370000Y-78550000D02*
X98370000Y-80950000D01*
X104170000Y-75850000D02*
X104170000Y-73850000D01*
X104170000Y-73850000D02*
X102520000Y-72150000D01*
X98370000Y-73850000D02*
X98370000Y-75850000D01*
X102520000Y-72150000D02*
X100020000Y-72150000D01*
X100020000Y-72150000D02*
X98370000Y-73850000D01*
D15*
X102690000Y-83050000D02*
G75*
G02*
X102450000Y-83050000I-120000J0D01*
G01*
X102450000Y-83050000D02*
G75*
G02*
X102690000Y-83050000I120000J0D01*
G01*
D14*
%TO.C,U1*%
X112170000Y-82350000D02*
X112170000Y-78550000D01*
X107570000Y-82350000D02*
X112170000Y-82350000D01*
X106370000Y-78550000D02*
X106370000Y-80950000D01*
X112170000Y-75850000D02*
X112170000Y-73850000D01*
X112170000Y-73850000D02*
X110520000Y-72150000D01*
X106370000Y-73850000D02*
X106370000Y-75850000D01*
X110520000Y-72150000D02*
X108020000Y-72150000D01*
X108020000Y-72150000D02*
X106370000Y-73850000D01*
D15*
X110690000Y-83050000D02*
G75*
G02*
X110450000Y-83050000I-120000J0D01*
G01*
X110450000Y-83050000D02*
G75*
G02*
X110690000Y-83050000I120000J0D01*
G01*
%TD*%
M02*
