%TF.GenerationSoftware,KiCad,Pcbnew,9.0.0*%
%TF.CreationDate,2025-11-25T21:07:29+01:00*%
%TF.ProjectId,Line follower,4c696e65-2066-46f6-9c6c-6f7765722e6b,rev?*%
%TF.SameCoordinates,Original*%
%TF.FileFunction,Soldermask,Top*%
%TF.FilePolarity,Negative*%
%FSLAX46Y46*%
G04 Gerber Fmt 4.6, Leading zero omitted, Abs format (unit mm)*
G04 Created by KiCad (PCBNEW 9.0.0) date 2025-11-25 21:07:29*
%MOMM*%
%LPD*%
G01*
G04 APERTURE LIST*
G04 Aperture macros list*
%AMRoundRect*
0 Rectangle with rounded corners*
0 $1 Rounding radius*
0 $2 $3 $4 $5 $6 $7 $8 $9 X,Y pos of 4 corners*
0 Add a 4 corners polygon primitive as box body*
4,1,4,$2,$3,$4,$5,$6,$7,$8,$9,$2,$3,0*
0 Add four circle primitives for the rounded corners*
1,1,$1+$1,$2,$3*
1,1,$1+$1,$4,$5*
1,1,$1+$1,$6,$7*
1,1,$1+$1,$8,$9*
0 Add four rect primitives between the rounded corners*
20,1,$1+$1,$2,$3,$4,$5,0*
20,1,$1+$1,$4,$5,$6,$7,0*
20,1,$1+$1,$6,$7,$8,$9,0*
20,1,$1+$1,$8,$9,$2,$3,0*%
G04 Aperture macros list end*
%ADD10C,4.400000*%
%ADD11C,0.650000*%
%ADD12R,0.600000X1.240000*%
%ADD13R,0.300000X1.240000*%
%ADD14O,1.000000X2.100000*%
%ADD15O,1.000000X1.800000*%
%ADD16R,1.500000X0.900000*%
%ADD17R,0.900000X1.500000*%
%ADD18C,0.600000*%
%ADD19R,3.900000X3.900000*%
%ADD20R,1.800000X1.800000*%
%ADD21C,1.800000*%
%ADD22C,3.200000*%
%ADD23RoundRect,0.237500X0.300000X0.237500X-0.300000X0.237500X-0.300000X-0.237500X0.300000X-0.237500X0*%
%ADD24RoundRect,0.237500X-0.300000X-0.237500X0.300000X-0.237500X0.300000X0.237500X-0.300000X0.237500X0*%
%ADD25RoundRect,0.237500X-0.237500X0.300000X-0.237500X-0.300000X0.237500X-0.300000X0.237500X0.300000X0*%
%ADD26RoundRect,0.237500X0.237500X-0.300000X0.237500X0.300000X-0.237500X0.300000X-0.237500X-0.300000X0*%
%ADD27RoundRect,0.250000X1.000000X-1.750000X1.000000X1.750000X-1.000000X1.750000X-1.000000X-1.750000X0*%
%ADD28RoundRect,0.237500X0.287500X0.237500X-0.287500X0.237500X-0.287500X-0.237500X0.287500X-0.237500X0*%
%ADD29RoundRect,0.250000X-0.650000X1.000000X-0.650000X-1.000000X0.650000X-1.000000X0.650000X1.000000X0*%
%ADD30RoundRect,0.237500X-0.250000X-0.237500X0.250000X-0.237500X0.250000X0.237500X-0.250000X0.237500X0*%
%ADD31RoundRect,0.237500X0.250000X0.237500X-0.250000X0.237500X-0.250000X-0.237500X0.250000X-0.237500X0*%
%ADD32RoundRect,0.237500X0.237500X-0.250000X0.237500X0.250000X-0.237500X0.250000X-0.237500X-0.250000X0*%
%ADD33RoundRect,0.102000X0.900000X-0.675000X0.900000X0.675000X-0.900000X0.675000X-0.900000X-0.675000X0*%
%ADD34RoundRect,0.102000X-0.900000X0.675000X-0.900000X-0.675000X0.900000X-0.675000X0.900000X0.675000X0*%
%ADD35RoundRect,0.375000X0.625000X0.375000X-0.625000X0.375000X-0.625000X-0.375000X0.625000X-0.375000X0*%
%ADD36RoundRect,0.500000X0.500000X1.400000X-0.500000X1.400000X-0.500000X-1.400000X0.500000X-1.400000X0*%
%ADD37RoundRect,0.102000X0.787500X0.787500X-0.787500X0.787500X-0.787500X-0.787500X0.787500X-0.787500X0*%
%ADD38C,1.779000*%
%ADD39C,1.000000*%
%ADD40C,2.500000*%
%ADD41RoundRect,0.102000X0.800000X-0.800000X0.800000X0.800000X-0.800000X0.800000X-0.800000X-0.800000X0*%
%ADD42C,1.804000*%
G04 APERTURE END LIST*
D10*
%TO.C,IN*%
X93000000Y-150120000D03*
%TD*%
%TO.C,OUT*%
X93000000Y-142000000D03*
%TD*%
%TO.C,OUT*%
X68860000Y-150120000D03*
%TD*%
%TO.C,IN*%
X68860000Y-142290000D03*
%TD*%
D11*
%TO.C,J1*%
X75110000Y-148395000D03*
X80890000Y-148395000D03*
D12*
X74800000Y-147275000D03*
X75600000Y-147275000D03*
D13*
X76750000Y-147275000D03*
X77750000Y-147275000D03*
X78250000Y-147275000D03*
X79250000Y-147275000D03*
D12*
X80400000Y-147275000D03*
X81200000Y-147275000D03*
X81200000Y-147275000D03*
X80400000Y-147275000D03*
D13*
X79750000Y-147275000D03*
X78750000Y-147275000D03*
X77250000Y-147275000D03*
X76250000Y-147275000D03*
D12*
X75600000Y-147275000D03*
X74800000Y-147275000D03*
D14*
X73680000Y-147875000D03*
D15*
X73680000Y-152075000D03*
D14*
X82320000Y-147875000D03*
D15*
X82320000Y-152075000D03*
%TD*%
D16*
%TO.C,U2*%
X101650000Y-134020000D03*
X101650000Y-132750000D03*
X101650000Y-131480000D03*
X101650000Y-130210000D03*
X101650000Y-128940000D03*
X101650000Y-127670000D03*
X101650000Y-126400000D03*
X101650000Y-125130000D03*
X101650000Y-123860000D03*
X101650000Y-122590000D03*
X101650000Y-121320000D03*
X101650000Y-120050000D03*
X101650000Y-118780000D03*
X101650000Y-117510000D03*
D17*
X99885000Y-116260000D03*
X98615000Y-116260000D03*
X97345000Y-116260000D03*
X96075000Y-116260000D03*
X94805000Y-116260000D03*
X93535000Y-116260000D03*
X92265000Y-116260000D03*
X90995000Y-116260000D03*
X89725000Y-116260000D03*
X88455000Y-116260000D03*
X87185000Y-116260000D03*
X85915000Y-116260000D03*
D16*
X84150000Y-117510000D03*
X84150000Y-118780000D03*
X84150000Y-120050000D03*
X84150000Y-121320000D03*
X84150000Y-122590000D03*
X84150000Y-123860000D03*
X84150000Y-125130000D03*
X84150000Y-126400000D03*
X84150000Y-127670000D03*
X84150000Y-128940000D03*
X84150000Y-130210000D03*
X84150000Y-131480000D03*
X84150000Y-132750000D03*
X84150000Y-134020000D03*
D18*
X95800000Y-127000000D03*
X95800000Y-125600000D03*
X95100000Y-127700000D03*
X95100000Y-126300000D03*
X95100000Y-124900000D03*
X94400000Y-127000000D03*
D19*
X94400000Y-126300000D03*
D18*
X94400000Y-125600000D03*
X93700000Y-127700000D03*
X93700000Y-126300000D03*
X93700000Y-124900000D03*
X93000000Y-127000000D03*
X93000000Y-125600000D03*
%TD*%
D20*
%TO.C,U11*%
X55580000Y-130810000D03*
D21*
X50500000Y-129540000D03*
X55580000Y-128270000D03*
X50500000Y-127000000D03*
X55580000Y-125730000D03*
X50500000Y-124460000D03*
X55580000Y-123190000D03*
X50500000Y-121920000D03*
X55580000Y-120650000D03*
X50500000Y-119380000D03*
X55580000Y-118110000D03*
X50500000Y-116840000D03*
X55580000Y-115570000D03*
X50500000Y-114300000D03*
X55580000Y-113030000D03*
%TD*%
D22*
%TO.C,H4*%
X47000000Y-136000000D03*
%TD*%
%TO.C,H3*%
X47000000Y-156000000D03*
%TD*%
%TO.C,H2*%
X116000000Y-136000000D03*
%TD*%
%TO.C,H1*%
X116000000Y-156000000D03*
%TD*%
D23*
%TO.C,C1*%
X107362500Y-129750000D03*
X105637500Y-129750000D03*
%TD*%
%TO.C,C2*%
X107362500Y-131250000D03*
X105637500Y-131250000D03*
%TD*%
D24*
%TO.C,C3*%
X105637500Y-126750000D03*
X107362500Y-126750000D03*
%TD*%
D23*
%TO.C,C4*%
X117562500Y-124200000D03*
X115837500Y-124200000D03*
%TD*%
D25*
%TO.C,C5*%
X81000000Y-119362500D03*
X81000000Y-117637500D03*
%TD*%
D26*
%TO.C,C6*%
X104000000Y-123362500D03*
X104000000Y-121637500D03*
%TD*%
D23*
%TO.C,C7*%
X117562500Y-122600000D03*
X115837500Y-122600000D03*
%TD*%
D24*
%TO.C,C8*%
X110237500Y-124200000D03*
X111962500Y-124200000D03*
%TD*%
%TO.C,C9*%
X110237500Y-122600000D03*
X111962500Y-122600000D03*
%TD*%
D27*
%TO.C,C10*%
X62000000Y-115550000D03*
X62000000Y-109450000D03*
%TD*%
%TO.C,C11*%
X71000000Y-115550000D03*
X71000000Y-109450000D03*
%TD*%
D28*
%TO.C,D1*%
X117575000Y-121000000D03*
X115825000Y-121000000D03*
%TD*%
D29*
%TO.C,D2*%
X61500000Y-119500000D03*
X61500000Y-123500000D03*
%TD*%
%TO.C,D3*%
X61500000Y-128500000D03*
X61500000Y-132500000D03*
%TD*%
%TO.C,D4*%
X65000000Y-119500000D03*
X65000000Y-123500000D03*
%TD*%
%TO.C,D5*%
X65000000Y-128500000D03*
X65000000Y-132500000D03*
%TD*%
%TO.C,D6*%
X68500000Y-119500000D03*
X68500000Y-123500000D03*
%TD*%
%TO.C,D7*%
X68500000Y-128500000D03*
X68500000Y-132500000D03*
%TD*%
%TO.C,D8*%
X72000000Y-119500000D03*
X72000000Y-123500000D03*
%TD*%
%TO.C,D9*%
X72000000Y-128500000D03*
X72000000Y-132500000D03*
%TD*%
D30*
%TO.C,R3*%
X105587500Y-132750000D03*
X107412500Y-132750000D03*
%TD*%
D31*
%TO.C,R6*%
X107412500Y-128250000D03*
X105587500Y-128250000D03*
%TD*%
%TO.C,R9*%
X77587500Y-122500000D03*
X79412500Y-122500000D03*
%TD*%
D30*
%TO.C,R12*%
X79412500Y-114500000D03*
X77587500Y-114500000D03*
%TD*%
%TO.C,R15*%
X110187500Y-121000000D03*
X112012500Y-121000000D03*
%TD*%
D32*
%TO.C,R18*%
X76900000Y-144112500D03*
X76900000Y-142287500D03*
%TD*%
%TO.C,R19*%
X79800000Y-144112500D03*
X79800000Y-142287500D03*
%TD*%
D33*
%TO.C,BOOT*%
X78500000Y-116425000D03*
X78500000Y-120575000D03*
%TD*%
D34*
%TO.C,RESET*%
X106500000Y-120425000D03*
X106500000Y-124575000D03*
%TD*%
D33*
%TO.C,START*%
X86000000Y-147925000D03*
X86000000Y-152075000D03*
%TD*%
D35*
%TO.C,U6*%
X117050000Y-131000000D03*
X117050000Y-128700000D03*
D36*
X110750000Y-128700000D03*
D35*
X117050000Y-126400000D03*
%TD*%
D37*
%TO.C,POWER*%
X83750000Y-141475000D03*
D38*
X86250000Y-141475000D03*
%TD*%
D39*
%TO.C,U10*%
X50820000Y-81900000D03*
D40*
X55170000Y-77250000D03*
X51370000Y-77250000D03*
D41*
X54540000Y-80000000D03*
D42*
X52000000Y-80000000D03*
X52000000Y-74500000D03*
X54540000Y-74500000D03*
%TD*%
D39*
%TO.C,U9*%
X58820000Y-81900000D03*
D40*
X63170000Y-77250000D03*
X59370000Y-77250000D03*
D41*
X62540000Y-80000000D03*
D42*
X60000000Y-80000000D03*
X60000000Y-74500000D03*
X62540000Y-74500000D03*
%TD*%
D39*
%TO.C,U8*%
X66820000Y-81900000D03*
D40*
X71170000Y-77250000D03*
X67370000Y-77250000D03*
D41*
X70540000Y-80000000D03*
D42*
X68000000Y-80000000D03*
X68000000Y-74500000D03*
X70540000Y-74500000D03*
%TD*%
D39*
%TO.C,U7*%
X74820000Y-81900000D03*
D40*
X79170000Y-77250000D03*
X75370000Y-77250000D03*
D41*
X78540000Y-80000000D03*
D42*
X76000000Y-80000000D03*
X76000000Y-74500000D03*
X78540000Y-74500000D03*
%TD*%
D39*
%TO.C,U5*%
X82820000Y-81900000D03*
D40*
X87170000Y-77250000D03*
X83370000Y-77250000D03*
D41*
X86540000Y-80000000D03*
D42*
X84000000Y-80000000D03*
X84000000Y-74500000D03*
X86540000Y-74500000D03*
%TD*%
%TO.C,U4*%
X94540000Y-74500000D03*
X92000000Y-74500000D03*
X92000000Y-80000000D03*
D41*
X94540000Y-80000000D03*
D40*
X91370000Y-77250000D03*
X95170000Y-77250000D03*
D39*
X90820000Y-81900000D03*
%TD*%
%TO.C,U3*%
X98820000Y-81900000D03*
D40*
X103170000Y-77250000D03*
X99370000Y-77250000D03*
D41*
X102540000Y-80000000D03*
D42*
X100000000Y-80000000D03*
X100000000Y-74500000D03*
X102540000Y-74500000D03*
%TD*%
D39*
%TO.C,U1*%
X106820000Y-81900000D03*
D40*
X111170000Y-77250000D03*
X107370000Y-77250000D03*
D41*
X110540000Y-80000000D03*
D42*
X108000000Y-80000000D03*
X108000000Y-74500000D03*
X110540000Y-74500000D03*
%TD*%
D30*
%TO.C,R23*%
X52500000Y-83500000D03*
X54325000Y-83500000D03*
%TD*%
D31*
%TO.C,R22*%
X54500000Y-71000000D03*
X52675000Y-71000000D03*
%TD*%
D30*
%TO.C,R21*%
X60500000Y-83500000D03*
X62325000Y-83500000D03*
%TD*%
D31*
%TO.C,R20*%
X62500000Y-71000000D03*
X60675000Y-71000000D03*
%TD*%
D30*
%TO.C,R17*%
X68500000Y-83500000D03*
X70325000Y-83500000D03*
%TD*%
D31*
%TO.C,R16*%
X70412500Y-71000000D03*
X68587500Y-71000000D03*
%TD*%
D30*
%TO.C,R14*%
X76500000Y-83500000D03*
X78325000Y-83500000D03*
%TD*%
D31*
%TO.C,R13*%
X78500000Y-71000000D03*
X76675000Y-71000000D03*
%TD*%
D30*
%TO.C,R11*%
X84500000Y-83500000D03*
X86325000Y-83500000D03*
%TD*%
D31*
%TO.C,R10*%
X86500000Y-71000000D03*
X84675000Y-71000000D03*
%TD*%
D30*
%TO.C,R8*%
X92500000Y-83500000D03*
X94325000Y-83500000D03*
%TD*%
D31*
%TO.C,R7*%
X94500000Y-71000000D03*
X92675000Y-71000000D03*
%TD*%
D30*
%TO.C,R5*%
X100500000Y-83500000D03*
X102325000Y-83500000D03*
%TD*%
D31*
%TO.C,R4*%
X102500000Y-71000000D03*
X100675000Y-71000000D03*
%TD*%
D30*
%TO.C,R2*%
X108587500Y-83500000D03*
X110412500Y-83500000D03*
%TD*%
D31*
%TO.C,R1*%
X110412500Y-71000000D03*
X108587500Y-71000000D03*
%TD*%
M02*
